# Blender v2.90.1 OBJ File: 'Sanctuary_Test_1.blend'
# www.blender.org
mtllib Sanctuary_Section_3_3.mtl
o SP2.010_SP2.014
v 29.032150 -0.452646 239.692932
v 31.892925 -0.458835 238.462143
v 26.556322 -0.487413 241.581100
v 24.742805 -0.423999 244.122604
v 23.527615 -0.428763 247.002472
v 21.313068 -0.886607 250.180847
v 21.767006 -0.832222 246.404343
v 23.206165 -0.931212 243.056793
v 25.382408 -0.876530 240.303818
v 28.201759 -0.861780 238.216919
v 31.521877 -0.855602 236.763138
v 34.830696 -0.906056 236.363632
v 34.702522 -0.387836 238.252075
v 25.750223 -0.389270 247.824722
v 25.895290 -0.392634 247.307236
v 32.537148 -0.365130 240.837875
v 25.788952 -0.393126 247.542603
v 27.065708 -0.291074 244.860703
v 30.221733 -0.423407 241.723373
v 26.886372 -0.284718 245.113602
v 28.459965 -0.360360 243.051147
v 32.779980 -0.361380 240.745010
v 25.440781 -0.260172 250.078949
v 28.221394 -0.363784 243.230957
v 32.340382 -0.365042 240.913132
v 33.152218 -0.365157 240.602661
v 19.546867 -0.944206 251.900604
v 19.636524 -0.914756 247.503235
v 19.581600 -0.999999 250.197098
v 19.588411 -0.997370 249.863052
v 19.575623 -1.005352 250.490250
v 30.613934 -0.853910 235.262695
v 23.805122 -0.847445 239.555588
v 20.169571 -0.852959 246.038483
v 31.046244 -0.853243 235.150665
v 24.200670 -0.840678 239.181854
v 28.913349 -0.824610 235.703400
v 26.936058 -0.810586 236.945786
v 21.462767 -0.863146 242.789551
v 27.335447 -0.810300 236.719040
v 21.690208 -0.878330 242.298889
v 22.376844 -0.854447 240.905090
v 19.928082 -0.893919 247.076950
v 20.452599 -0.859039 244.821365
v 24.667629 -0.835567 238.801254
v 25.915127 -0.815852 237.525406
v 28.618038 -0.826680 236.117249
v 32.918121 -0.957523 234.727982
v 33.277252 -0.974932 234.831940
v 21.633942 -0.873206 242.534286
v 33.340080 -0.969245 235.472351
v 33.004604 -0.364471 240.453751
v 34.411316 -0.383829 238.629684
v 34.824486 -0.880942 236.455154
v 33.443954 -0.884910 236.531067
v 33.134689 -0.364979 240.609360
v 35.018204 -0.878260 236.489822
v 34.734573 -0.386775 238.590347
v 35.006790 -0.393273 238.271072
v 34.980988 -0.391755 238.487030
v 32.736435 -0.423641 238.833557
v 23.514442 -0.367241 250.174774
v 25.612410 -0.337069 251.954208
v 23.238832 -0.386496 249.987930
v 23.546562 -0.378213 250.451202
v 25.461050 -0.346441 251.982635
v 23.352531 -0.383939 250.065002
v 23.761604 -0.410329 252.301819
v 21.335674 -0.883899 249.992798
v 21.444296 -0.859477 249.992508
v 20.461132 -0.969457 251.787201
v 21.470291 -0.901410 251.662033
v 25.754154 -3.986965 247.826096
v 25.899221 -3.990328 247.308594
v 32.541080 -3.962824 240.839249
v 25.792881 -3.990820 247.543961
v 27.069639 -3.888768 244.862076
v 30.225662 -4.021101 241.724731
v 26.890301 -3.882412 245.114975
v 28.463894 -3.958054 243.052521
v 32.783913 -3.959074 240.746384
v 25.444710 -3.857866 250.080322
v 28.225325 -3.961478 243.232315
v 32.344311 -3.962736 240.914490
v 33.147385 -3.962762 240.607376
v 25.616341 -3.934764 251.955566
v 19.515390 -4.332535 251.887238
v 19.605049 -4.303084 247.489868
v 19.550123 -4.388328 250.183731
v 19.556934 -4.385699 249.849686
v 19.544147 -4.393681 250.476868
v 30.582457 -4.242239 235.249329
v 23.773643 -4.235774 239.542206
v 20.138092 -4.241288 246.025101
v 31.014767 -4.241572 235.137299
v 24.169193 -4.229007 239.168472
v 28.881870 -4.212938 235.690033
v 26.904583 -4.198915 236.932419
v 21.431290 -4.251475 242.776184
v 27.303970 -4.198628 236.705673
v 21.658731 -4.266659 242.285522
v 22.345367 -4.242776 240.891724
v 19.896603 -4.282248 247.063568
v 20.421122 -4.247367 244.807999
v 24.636154 -4.223896 238.787872
v 25.883652 -4.204181 237.512024
v 28.586561 -4.215009 236.103867
v 32.886646 -4.345851 234.714615
v 33.210224 -4.367565 234.806442
v 21.602465 -4.261535 242.520920
v 34.763668 -4.298688 236.338135
v 33.273052 -4.361878 235.446838
v 32.937576 -3.982481 240.428253
v 34.344288 -3.776462 238.604187
v 33.376926 -4.277543 236.505569
v 34.951176 -4.270893 236.464325
v 34.667545 -3.779408 238.564850
v 34.939762 -3.785906 238.245560
v 34.913960 -3.784388 238.461533
v 32.669407 -4.041651 238.808060
v 21.292957 -4.354261 250.198730
v 23.494331 -3.834895 250.192657
v 23.218721 -3.854150 250.005814
v 23.526451 -3.845867 250.469086
v 25.440939 -3.927612 252.000519
v 23.332420 -3.851593 250.082886
v 23.741493 -3.991500 252.319702
v 21.424185 -4.327131 250.010391
v 20.441021 -4.325442 251.805084
v 21.450180 -4.257395 251.679916
vt 0.400722 0.445461
vt 0.412413 0.406431
vt 0.414352 0.404779
vt 0.430056 0.422057
vt 0.283105 0.480008
vt 0.235082 0.475539
vt 0.231356 0.473524
vt 0.239291 0.460156
vt 0.241473 0.461145
vt 0.448268 0.392319
vt 0.450127 0.388964
vt 0.473448 0.403020
vt 0.472559 0.405336
vt 0.448575 0.438537
vt 0.463226 0.419636
vt 0.410727 0.464680
vt 0.365766 0.458849
vt 0.370042 0.482942
vt 0.327066 0.459262
vt 0.328078 0.488135
vt 0.289345 0.454522
vt 0.242257 0.459822
vt 0.416539 0.402531
vt 0.420246 0.401338
vt 0.431960 0.411254
vt 0.443462 0.393866
vt 0.446119 0.390474
vt 0.267725 0.418116
vt 0.293367 0.433502
vt 0.257214 0.435167
vt 0.256869 0.432982
vt 0.296453 0.435128
vt 0.299576 0.435463
vt 0.391036 0.426329
vt 0.331200 0.436130
vt 0.335043 0.436098
vt 0.361087 0.436310
vt 0.364435 0.435010
vt 0.213632 0.462716
vt 0.218787 0.455576
vt 0.228284 0.471524
vt 0.224614 0.448592
vt 0.457813 0.451265
vt 0.453507 0.455051
vt 0.278017 0.494313
vt 0.265894 0.489849
vt 0.259847 0.489472
vt 0.318849 0.503702
vt 0.292194 0.499361
vt 0.344121 0.505645
vt 0.325555 0.504760
vt 0.367197 0.499978
vt 0.413100 0.482351
vt 0.400854 0.489391
vt 0.380292 0.495673
vt 0.373552 0.498421
vt 0.438014 0.469110
vt 0.432311 0.470058
vt 0.418219 0.479468
vt 0.322702 0.503828
vt 0.470666 0.426155
vt 0.475178 0.429916
vt 0.473578 0.434108
vt 0.448452 0.388283
vt 0.473796 0.405999
vt 0.420106 0.399216
vt 0.257365 0.436477
vt 0.253854 0.430929
vt 0.235291 0.417417
vt 0.245945 0.405596
vt 0.247038 0.404564
vt 0.364435 0.435010
vt 0.391036 0.426329
vt 0.416539 0.402531
vt 0.420106 0.399216
vt 0.247038 0.404564
vt 0.267725 0.418116
vt 0.331200 0.436130
vt 0.335043 0.436098
vt 0.293367 0.433502
vt 0.414352 0.404779
vt 0.420283 0.399053
vt 0.420283 0.399053
vt 0.361087 0.436310
vt 0.412413 0.406431
vt 0.296453 0.435128
vt 0.299576 0.435463
vt 0.473578 0.434108
vt 0.457813 0.451265
vt 0.475178 0.429916
vt 0.231356 0.473524
vt 0.228284 0.471524
vt 0.213632 0.462716
vt 0.259847 0.489472
vt 0.235082 0.475539
vt 0.453507 0.455051
vt 0.322702 0.503828
vt 0.318849 0.503702
vt 0.325555 0.504760
vt 0.373552 0.498421
vt 0.367197 0.499978
vt 0.265894 0.489849
vt 0.418219 0.479468
vt 0.413100 0.482351
vt 0.278017 0.494313
vt 0.292194 0.499361
vt 0.344121 0.505645
vt 0.380292 0.495673
vt 0.400854 0.489391
vt 0.432311 0.470058
vt 0.438014 0.469110
vt 0.448452 0.388283
vt 0.450127 0.388964
vt 0.443462 0.393866
vt 0.446119 0.390474
vt 0.473448 0.403020
vt 0.420246 0.401338
vt 0.431960 0.411254
vt 0.463226 0.419636
vt 0.470666 0.426155
vt 0.473796 0.405999
vt 0.253854 0.430929
vt 0.235291 0.417417
vt 0.257365 0.436477
vt 0.257214 0.435167
vt 0.239291 0.460156
vt 0.242257 0.459822
vt 0.245945 0.405596
vt 0.218787 0.455576
vt 0.256869 0.432982
vt 0.224614 0.448592
vn -0.0616 0.9916 -0.1141
vn -0.0637 0.9964 -0.0558
vn -0.0854 0.9955 0.0413
vn -0.0349 0.9897 -0.1390
vn -0.0900 0.9939 -0.0635
vn 0.0034 0.9992 -0.0404
vn 0.0076 0.9972 0.0742
vn 0.6554 0.7376 0.1624
vn -0.1409 0.9885 0.0545
vn -0.0034 0.9868 -0.1621
vn 0.6000 0.7971 -0.0677
vn 0.7378 0.5556 -0.3833
vn 0.0017 0.9857 -0.1687
vn -0.0262 0.9875 -0.1555
vn 0.1526 0.8358 -0.5275
vn -0.0611 0.9917 -0.1135
vn -0.1132 0.9885 -0.1005
vn -0.0878 0.9928 -0.0815
vn -0.1374 0.9877 -0.0747
vn -0.1109 0.9895 -0.0930
vn -0.1446 0.9895 0.0026
vn 0.0692 0.7987 0.5977
vn -0.0349 0.9897 -0.1389
vn -0.1301 0.9895 -0.0636
vn 0.0876 0.9858 -0.1435
vn 0.5141 0.7321 -0.4469
vn 0.6650 0.5638 0.4898
vn -0.0281 0.8165 0.5767
vn -0.0034 0.9868 -0.1622
vn 0.2102 0.8305 0.5158
vn -0.0786 0.9967 0.0180
vn -0.0560 0.9966 -0.0598
vn -0.3971 0.7076 0.5845
vn -0.4841 0.8327 0.2687
vn -0.0477 0.9988 0.0128
vn -0.0701 0.9975 0.0005
vn -0.0109 0.9999 0.0095
vn -0.0795 0.9968 -0.0040
vn -0.0500 0.9964 -0.0689
vn -0.0493 0.9978 -0.0452
vn -0.0303 0.9994 -0.0169
vn -0.0601 0.0535 0.9968
vn 0.0976 0.7249 0.6820
vn -0.0816 0.9960 0.0377
vn 0.6482 0.4788 0.5922
vn -0.0080 0.9983 0.0570
vn -0.0440 0.9988 -0.0224
vn 0.0310 0.9968 0.0739
vn -0.0209 0.9992 0.0346
vn 0.1962 0.9789 0.0578
vn -0.0137 0.9991 0.0392
vn -0.0112 0.9999 -0.0076
vn 0.1462 0.9810 0.1275
vn 0.0458 0.9971 0.0612
vn -0.0499 0.9986 0.0168
vn -0.0249 0.9989 0.0390
vn 0.0081 0.9997 0.0234
vn 0.0044 0.9966 0.0817
vn 0.0596 0.9903 0.1258
vn 0.0227 0.9995 0.0212
vn 0.0103 0.9979 0.0634
vn 0.0408 0.9991 -0.0120
vn 0.7220 0.6747 -0.1531
vn -0.0908 0.9140 -0.3955
vn 0.0525 0.9985 -0.0140
vn 0.6445 0.5969 0.4779
vn 0.1998 0.6620 -0.7224
vn 0.7576 0.5172 -0.3982
vn -0.3195 0.7720 0.5494
vn -0.7082 0.7011 0.0828
vn -0.4930 0.5598 0.6660
vn 0.0614 0.6960 0.7155
vn -0.0104 0.5892 0.8079
vn 0.4977 0.0146 0.8672
vn 0.6116 0.0102 0.7911
vn 0.5922 -0.0086 0.8058
vn 0.4703 -0.0124 0.8824
vn 0.2190 -0.0678 0.9734
vn 0.2203 -0.0707 0.9729
vn 0.4861 0.0698 0.8711
vn 0.4864 0.0693 0.8710
vn 0.9998 -0.0219 -0.0043
vn 0.2461 0.3592 0.9002
vn 0.9985 0.0226 0.0506
vn 0.8135 -0.0197 0.5812
vn 0.8787 -0.0127 0.4772
vn 0.8554 0.0139 0.5178
vn 0.8176 0.0219 0.5754
vn 0.9854 -0.0360 0.1662
vn 0.9936 0.0388 0.1060
vn 0.4428 0.0512 0.8952
vn 0.2671 -0.0488 0.9624
vn 0.2095 0.0022 0.9778
vn 0.2197 -0.0678 0.9732
vn 0.2075 0.0006 0.9782
vn 0.7269 -0.0134 0.6866
vn 0.7076 0.0158 0.7065
vn 0.3886 -0.0424 0.9204
vn 0.3243 0.0435 0.9449
vn 0.9180 -0.0364 0.3949
vn 0.9680 -0.0261 0.2497
vn 0.9525 0.0287 0.3032
vn 0.9031 0.0389 0.4276
vn -0.1917 -0.0485 -0.9803
vn 0.0233 0.0037 -0.9997
vn 0.0369 0.0037 -0.9993
vn -0.2794 0.0594 -0.9583
vn -0.1114 -0.0056 -0.9938
vn -0.9976 0.0430 -0.0540
vn -0.9946 -0.0638 -0.0817
vn -0.9957 0.0822 0.0417
vn -0.9996 -0.0232 0.0141
vn 0.0404 0.4490 0.8926
vn -0.9981 -0.0516 0.0323
vn -0.9393 -0.2292 -0.2551
vn -0.9085 0.2488 -0.3358
vn -0.9949 0.0709 -0.0718
vn -0.2122 0.0454 -0.9762
vn -0.2889 -0.0327 -0.9568
vn -0.8291 0.0256 -0.5585
vn -0.9147 0.0101 -0.4041
vn -0.9171 0.0101 -0.3984
vn -0.8960 -0.0073 -0.4439
vn -0.9230 -0.0204 -0.3843
vn -0.9549 0.0417 -0.2939
vn -0.6585 0.0568 -0.7504
vn -0.6271 -0.0317 -0.7783
vn -0.6902 0.0498 -0.7219
vn -0.7127 -0.0382 -0.7004
vn -0.9175 0.0101 -0.3977
vn -0.9137 0.0101 -0.4064
vn -0.4589 0.0151 -0.8883
vn -0.4362 -0.0240 -0.8995
vn -0.4822 0.0394 -0.8752
vn -0.5277 0.0008 -0.8495
vn -0.9609 -0.0487 -0.2727
vn -0.9818 0.0676 -0.1776
vn -0.9411 0.0101 -0.3379
vn -0.9409 0.0101 -0.3384
vn -0.7876 -0.1628 -0.5943
vn -0.7975 0.1821 -0.5751
vn -0.6749 0.0092 -0.7379
vn -0.6741 0.0092 -0.7386
vn -0.6095 0.0088 -0.7928
vn -0.6113 0.0088 -0.7914
vn -0.6403 0.0090 -0.7681
vn -0.6401 0.0090 -0.7682
vn -0.5288 -0.1122 -0.8413
vn -0.5953 0.1289 -0.7931
vn 0.7997 -0.0203 0.6000
vn 0.9888 -0.1348 0.0646
vn 0.2298 0.0930 0.9688
vn 0.3163 -0.2059 0.9260
vn 0.8253 0.0451 -0.5629
vn 0.8500 -0.0225 -0.5264
vn 0.8267 -0.0195 0.5623
vn 0.6874 0.0079 -0.7262
vn 0.9960 -0.0584 -0.0671
vn 0.1134 0.1087 -0.9876
vn 0.7334 -0.1642 -0.6596
vn -0.9917 0.0289 0.1251
vn -0.5817 0.0074 0.8134
vn -0.2842 0.0286 0.9583
vn -0.5432 -0.0071 0.8396
vn 0.9494 0.0569 0.3088
vn 0.5409 0.0451 0.8399
vn 0.2108 0.0130 0.9774
vn 0.0928 0.0325 0.9952
vn -0.8393 -0.0111 0.5435
vn 0.7430 0.1293 0.6567
usemtl initialShadingGroup.014
s 1
f 1/1/1 25/2/2 16/3/3 2/4/4
f 7/5/5 30/6/6 29/7/7 6/8/8 69/9/9
f 13/10/10 59/11/11 57/12/12 54/13/13
f 2/4/4 13/10/10 11/14/14
f 11/14/14 13/10/10 54/13/13 55/15/15
f 1/1/1 2/4/4 10/16/16
f 10/16/16 2/4/4 11/14/14
f 3/17/17 1/1/1 9/18/18
f 9/18/18 1/1/1 10/16/16
f 4/19/19 3/17/17 8/20/20
f 8/20/20 3/17/17 9/18/18
f 5/21/21 4/19/19 7/5/5
f 7/5/5 4/19/19 8/20/20
f 6/8/8 70/22/22 69/9/9
f 2/4/23 16/3/24 22/23/25 52/24/26 61/25/27 53/26/28 13/10/29
f 13/10/29 53/26/28 58/27/30
f 23/28/31 14/29/32 67/30/33 62/31/34
f 17/32/35 15/33/36 4/19/19 5/21/21
f 19/34/37 25/2/2 1/1/1
f 15/33/36 20/35/38 4/19/19
f 20/35/38 18/36/39 3/17/17 4/19/19
f 18/36/39 24/37/40 3/17/17
f 24/37/40 21/38/41 1/1/1 3/17/17
f 21/38/41 19/34/37 1/1/1
f 27/39/42 71/40/43 31/41/44
f 29/7/7 31/41/44 71/40/43 72/42/45 6/8/8
f 35/43/46 32/44/47 10/16/16 11/14/14
f 34/45/48 43/46/49 28/47/50 30/6/6 7/5/5
f 39/48/51 44/49/52 34/45/48 7/5/5
f 42/50/53 41/51/54 8/20/20 33/52/55
f 38/53/56 46/54/57 45/55/57 36/56/58 9/18/18
f 37/57/59 47/58/60 40/59/61 10/16/16 32/44/47
f 41/51/54 50/60/62 39/48/51 7/5/5 8/20/20
f 36/56/58 33/52/55 8/20/20 9/18/18
f 40/59/61 38/53/56 9/18/18 10/16/16
f 51/61/63 49/62/64 48/63/65 35/43/46 11/14/14
f 58/27/30 60/64/66 59/11/11 13/10/10
f 55/15/15 54/13/13 12/65/67
f 54/13/13 57/12/12 12/65/67
f 56/66/68 52/24/26 22/23/25
f 55/15/15 51/61/63 11/14/14
f 64/67/69 67/30/33 14/29/32 17/32/35 5/21/21
f 65/68/70 68/69/71 66/70/72
f 66/70/72 63/71/73 23/28/31 62/31/34 65/68/70
f 70/22/22 64/67/69 5/21/21
f 69/9/9 70/22/22 5/21/21 7/5/5
f 19/34/74 21/38/75 80/72/76 78/73/77
f 56/66/78 22/23/79 81/74/80 85/75/81
f 23/28/82 63/71/73 86/76/83 82/77/84
f 18/36/85 20/35/86 79/78/87 77/79/88
f 14/29/89 23/28/82 82/77/84 73/80/90
f 22/23/79 16/3/91 75/81/92 81/74/80
f 26/82/93 56/66/94 85/83/95
f 24/37/96 18/36/85 77/79/88 83/84/97
f 16/3/91 25/2/98 84/85/99 75/81/92
f 15/33/100 17/32/101 76/86/102 74/87/103
f 21/38/75 24/37/96 83/84/97 80/72/76
f 25/2/98 19/34/74 78/73/77 84/85/99
f 17/32/101 14/29/89 73/80/90 76/86/102
f 20/35/86 15/33/100 74/87/103 79/78/87
f 35/43/104 48/63/105 108/88/106 95/89/107
f 48/63/105 49/62/64 109/90/108 108/88/106
f 31/41/109 29/7/110 89/91/111 91/92/112
f 27/39/42 31/41/109 91/92/112 87/93/113
f 30/6/114 28/47/115 88/94/116 90/95/117
f 29/7/110 30/6/114 90/95/117 89/91/111
f 32/44/118 35/43/104 95/89/107 92/96/119
f 39/48/120 50/60/121 110/97/122 99/98/123
f 50/60/121 41/51/124 101/99/125 110/97/122
f 33/52/126 36/56/127 96/100/128 93/101/129
f 28/47/115 43/46/130 103/102/131 88/94/116
f 38/53/132 40/59/133 100/103/134 98/104/135
f 43/46/130 34/45/136 94/105/137 103/102/131
f 34/45/136 44/49/138 104/106/139 94/105/137
f 44/49/138 39/48/120 99/98/123 104/106/139
f 41/51/124 42/50/140 102/107/141 101/99/125
f 42/50/140 33/52/126 93/101/129 102/107/141
f 36/56/127 45/55/142 105/108/143 96/100/128
f 45/55/142 46/54/144 106/109/145 105/108/143
f 46/54/144 38/53/132 98/104/135 106/109/145
f 40/59/133 47/58/146 107/110/147 100/103/134
f 47/58/146 37/57/148 97/111/149 107/110/147
f 37/57/148 32/44/118 92/96/119 97/111/149
f 59/11/11 60/64/66 119/112/150 118/113/151
f 58/27/30 53/26/28 114/114/152 117/115/153
f 57/12/12 59/11/11 118/113/151 116/116/154
f 61/25/27 52/24/26 113/117/155 120/118/156
f 51/61/63 55/15/15 115/119/157 112/120/158
f 49/62/64 51/61/63 112/120/158 109/90/108
f 53/26/28 61/25/27 120/118/156 114/114/152
f 12/65/67 57/12/12 116/116/154 111/121/159
f 60/64/66 58/27/30 117/115/153 119/112/150
f 55/15/15 12/65/67 111/121/159 115/119/157
f 52/24/26 56/66/68 85/75/160 113/117/155
f 68/69/71 65/68/70 124/122/161 127/123/162
f 67/30/33 64/67/69 123/124/163 126/125/164
f 70/22/22 6/8/8 121/126/165 128/127/166
f 63/71/73 66/70/72 125/128/167 86/76/83
f 71/40/43 27/39/42 87/93/113 129/129/168
f 62/31/34 67/30/33 126/125/164 122/130/169
f 64/67/69 70/22/22 128/127/166 123/124/163
f 65/68/70 62/31/34 122/130/169 124/122/161
f 72/42/45 71/40/43 129/129/168 130/131/170
f 66/70/72 68/69/71 127/123/162 125/128/167
f 6/8/8 72/42/45 130/131/170 121/126/165
