# Blender v2.90.1 OBJ File: 'Sanctuary_Test_1.blend'
# www.blender.org
mtllib Sanctuary_Section_2_3.mtl
o SP2.003_SP2.007
v 1.936071 0.572478 7.237540
v 1.546764 0.579272 5.792711
v 3.774993 0.576845 6.492763
v 3.030604 0.587829 5.204566
v 5.305477 0.609709 5.230237
v 4.289907 0.617708 4.219348
v 6.583140 0.606710 3.498791
v 5.360206 0.584743 2.830490
v 7.168562 0.593934 1.989421
v 5.869087 0.603669 1.528686
v 7.334571 0.606976 -0.013170
v 5.990931 0.613100 0.000569
v 2.337426 -0.307180 9.039137
v 4.676333 -0.294444 8.095006
v 6.660471 -0.326003 6.678298
v 8.341740 -0.413828 4.415969
v 9.036118 -0.345852 2.508966
v 9.351248 -0.350925 0.116863
v 5.773656 0.435765 0.002705
v 0.765402 0.596633 5.891614
v 2.288684 0.583551 5.498638
v 3.660255 0.602769 4.711957
v 4.825057 0.601225 3.524919
v 5.614647 0.594206 2.179588
v 5.614737 0.422702 1.474560
v 5.143835 0.418884 2.705145
v 4.108240 0.417955 4.078585
v 2.902588 0.422702 5.001008
v 1.492478 0.385097 5.585160
v 2.197533 0.403900 5.293084
v 0.741010 0.397837 5.683470
v 4.626037 0.418419 3.391865
v 3.505414 0.420328 4.539796
v 5.379286 0.420793 2.089852
v 5.705542 0.423109 0.731717
v 6.589901 -0.336187 7.019528
v 4.476357 -0.309789 8.502585
v 2.404848 -0.318293 9.275116
v 6.831932 -0.335814 6.833678
v 4.830546 -0.311888 8.370498
v 1.872018 -0.337906 9.473825
v 8.471201 -0.416545 4.511407
v 8.594189 -0.415131 4.301522
v 6.997080 -0.337971 6.599721
v 9.176827 -0.350645 2.535639
v 9.572455 -0.360799 1.172327
v 8.733231 -0.408018 4.064243
v 9.503850 -0.355495 -0.121334
v 9.528958 -0.357443 0.352135
v 9.516632 -0.354057 0.119685
v 5.754594 -1.904693 0.024036
v 5.595675 -1.917756 1.495891
v 5.124773 -1.921575 2.726476
v 4.089178 -1.922503 4.099916
v 2.883526 -1.917756 5.022338
v 1.473415 -1.955361 5.606491
v 9.461374 -1.939503 -0.963456
v 2.178471 -1.936558 5.314415
v 0.721948 -1.942621 5.704801
v 4.606975 -1.922039 3.413196
v 3.486352 -1.920130 4.561127
v 5.360224 -1.919665 2.111183
v 5.686480 -1.917349 0.753047
v 6.592079 -1.903958 7.019454
v 4.478535 -1.877560 8.502512
v 2.407027 -1.886064 9.275043
v 6.834110 -1.903585 6.833605
v 4.832725 -1.879658 8.370424
v 1.874196 -1.905677 9.473751
v 8.473379 -1.984316 4.511333
v 8.596367 -1.982902 4.301449
v 6.999258 -1.905742 6.599648
v 9.179006 -1.918416 2.535565
v 9.574634 -1.928570 1.172253
v 8.735409 -1.975789 4.064169
v 9.506028 -1.923266 -0.121407
v 9.531137 -1.925214 0.352061
v 9.518810 -1.921828 0.119611
v 9.199728 -0.348486 1.267024
v 8.496072 -0.398720 3.992119
v 1.868052 -0.318907 9.107550
v 1.882492 -0.132231 8.727682
v 5.667059 -1.912646 -0.541550
v 7.250954 0.595067 -0.710465
v 9.195826 -0.370892 -0.917863
v 6.687575 0.593562 -0.650387
v 9.460115 -0.371398 -0.946045
v 5.907720 0.599027 -0.567216
v 8.228922 0.103522 -0.814748
v 7.857222 0.285897 -0.775115
v 5.689059 0.428079 -0.543900
v 0.416592 -1.937445 5.744749
v 0.511890 0.401721 5.713444
v 0.953904 -1.923729 9.513012
v 0.535995 0.601730 5.920652
v 0.702569 0.591043 7.352527
v 0.944015 -0.351663 9.427999
v 0.774287 0.293939 7.968988
v 0.631281 0.592507 6.739730
v 0.953902 -0.355916 9.512992
v 0.922764 -0.342523 9.245329
vt 0.273930 0.256047
vt 0.282826 0.265710
vt 0.270149 0.270127
vt 0.265827 0.266891
vt 0.291062 0.243489
vt 0.297266 0.255188
vt 0.290046 0.260449
vt 0.311319 0.237039
vt 0.314288 0.248467
vt 0.305777 0.251827
vt 0.334264 0.233275
vt 0.334103 0.245779
vt 0.324196 0.247123
vt 0.351474 0.236850
vt 0.349783 0.248947
vt 0.341943 0.247363
vt 0.370889 0.247243
vt 0.365377 0.256783
vt 0.374720 0.255664
vt 0.370764 0.260754
vt 0.239995 0.231673
vt 0.232276 0.241283
vt 0.230826 0.240461
vt 0.236821 0.230435
vt 0.243828 0.226901
vt 0.242230 0.225413
vt 0.264570 0.207063
vt 0.269691 0.206428
vt 0.268109 0.204072
vt 0.294489 0.191718
vt 0.298385 0.192150
vt 0.297912 0.190206
vt 0.335662 0.187654
vt 0.301442 0.189808
vt 0.335359 0.186269
vt 0.341536 0.189087
vt 0.338366 0.186538
vt 0.341934 0.186964
vt 0.377534 0.200642
vt 0.380610 0.198587
vt 0.390009 0.203982
vt 0.391835 0.206701
vt 0.392487 0.205535
vt 0.362222 0.262259
vt 0.354638 0.258774
vt 0.347660 0.256252
vt 0.340712 0.255422
vt 0.333764 0.254592
vt 0.308257 0.259041
vt 0.300797 0.261998
vt 0.324741 0.255338
vt 0.315717 0.256085
vt 0.247139 0.235830
vt 0.362092 0.194100
vt 0.386039 0.241197
vt 0.377410 0.251505
vt 0.294541 0.266890
vt 0.288285 0.271782
vt 0.277265 0.272870
vt 0.283230 0.278068
vt 0.281689 0.279984
vt 0.275633 0.274972
vt 0.394978 0.207267
vt 0.300797 0.261998
vt 0.294541 0.266890
vt 0.288285 0.271782
vt 0.347660 0.256252
vt 0.340712 0.255422
vt 0.333764 0.254592
vt 0.283230 0.278068
vt 0.362222 0.262259
vt 0.354638 0.258774
vt 0.324741 0.255338
vt 0.315717 0.256085
vt 0.308257 0.259041
vt 0.366724 0.266315
vt 0.366881 0.266456
vt 0.297912 0.190206
vt 0.301442 0.189808
vt 0.338366 0.186538
vt 0.341934 0.186964
vt 0.362520 0.192937
vt 0.362520 0.192937
vt 0.335359 0.186269
vt 0.392487 0.205535
vt 0.394978 0.207267
vt 0.230151 0.240078
vt 0.230135 0.240101
vt 0.236821 0.230435
vt 0.380610 0.198587
vt 0.390009 0.203982
vt 0.264570 0.207063
vt 0.268109 0.204072
vt 0.242230 0.225413
vt 0.294489 0.191718
vt 0.402742 0.215570
vt 0.390677 0.234081
vt 0.403940 0.213708
vt 0.255204 0.257580
vt 0.281176 0.280622
vt 0.404128 0.213844
vn 0.0744 0.9535 0.2920
vn -0.0255 0.9904 -0.1361
vn -0.7243 0.6889 -0.0295
vn -0.5717 0.7810 0.2513
vn 0.1448 0.9542 0.2618
vn -0.0656 0.9935 -0.0927
vn -0.1571 0.9798 -0.1239
vn 0.2247 0.9522 0.2069
vn -0.1221 0.9860 -0.1134
vn -0.1585 0.9822 -0.1003
vn 0.2770 0.9484 0.1543
vn -0.1260 0.9887 -0.0807
vn -0.1442 0.9830 -0.1141
vn 0.3059 0.9491 0.0747
vn -0.1358 0.9904 -0.0240
vn -0.1738 0.9846 -0.0212
vn 0.3112 0.9502 -0.0141
vn -0.1429 0.9897 -0.0055
vn -0.1893 0.6973 -0.6914
vn -0.3707 0.8171 -0.4415
vn 0.0360 0.9832 0.1790
vn -0.6506 0.6877 0.3222
vn -0.7064 0.6922 0.1478
vn -0.0174 0.9985 0.0520
vn 0.0431 0.9827 0.1799
vn -0.0135 0.9971 0.0750
vn -0.0042 0.9981 0.0611
vn 0.0951 0.9817 0.1652
vn 0.0305 0.9956 0.0888
vn 0.0075 0.9980 0.0635
vn 0.1444 0.9815 0.1258
vn 0.0179 0.9997 -0.0176
vn 0.1656 0.9818 0.0926
vn -0.0028 0.9999 0.0152
vn 0.0365 0.9985 0.0407
vn 0.1685 0.9822 0.0836
vn 0.0612 0.9980 0.0139
vn 0.0255 0.9987 0.0449
vn 0.1788 0.9837 0.0218
vn 0.0336 0.9994 0.0023
vn 0.0298 0.9989 -0.0367
vn 0.1788 0.9839 -0.0061
vn -0.0147 0.9995 -0.0270
vn -0.5242 0.8308 -0.1867
vn -0.5209 0.8175 -0.2455
vn -0.5849 0.7595 -0.2849
vn -0.3653 0.9018 -0.2308
vn -0.4804 0.7542 -0.4477
vn -0.1858 0.8818 -0.4336
vn -0.1847 0.7195 -0.6695
vn -0.3048 0.8602 -0.4087
vn -0.4474 0.6530 -0.6110
vn 0.0355 0.9784 0.2036
vn 0.1786 0.9826 0.0519
vn 0.1785 0.6515 -0.7373
vn 0.0364 0.6929 -0.7201
vn -0.0855 0.8852 -0.4572
vn 0.0057 0.6466 -0.7628
vn -0.2227 0.9091 -0.3519
vn -0.2833 0.7951 -0.5362
vn -0.4298 0.3770 -0.8205
vn -0.4702 0.8389 -0.2743
vn -0.0026 0.9996 0.0272
vn -0.4656 -0.2038 -0.8612
vn -0.6494 0.0910 -0.7550
vn -0.3290 -0.1018 -0.9388
vn -0.2804 0.1934 -0.9402
vn -0.4453 0.1069 -0.8890
vn -0.0545 -0.1140 -0.9920
vn -0.9504 -0.1582 -0.2678
vn -0.9912 0.0848 -0.1014
vn -0.9243 -0.0739 -0.3744
vn -0.8851 0.1668 -0.4346
vn -0.9376 0.0833 -0.3375
vn -0.7839 -0.0778 -0.6160
vn 0.0988 -0.1406 -0.9851
vn -0.3494 0.1252 -0.9286
vn -0.9916 -0.0808 0.1009
vn -0.9688 -0.1210 0.2165
vn -0.9780 0.1335 -0.1603
vn -0.9462 0.0973 -0.3086
vn -0.8639 -0.1340 -0.4855
vn -0.7042 0.1360 -0.6968
vn -0.7798 0.1544 -0.6066
vn -0.6118 -0.1555 -0.7756
vn -0.6917 -0.1882 -0.6972
vn -0.4925 0.1837 -0.8507
vn -0.6111 0.5854 -0.5328
vn -0.9329 0.0529 -0.3563
vn 0.8386 -0.0169 0.5445
vn 0.7025 -0.0417 0.7105
vn 0.7381 0.0436 0.6733
vn 0.7937 0.0185 0.6080
vn 0.9195 0.0013 0.3930
vn 0.8410 0.0216 0.5406
vn 0.8828 -0.0187 0.4693
vn 0.9176 0.0013 0.3974
vn 0.9504 -0.0369 0.3089
vn 0.9682 0.0389 0.2471
vn 0.8546 0.0374 0.5180
vn 0.8246 -0.0347 0.5646
vn 0.9953 -0.0080 -0.0962
vn 0.9993 -0.0307 -0.0209
vn 0.9958 0.0332 -0.0852
vn 0.9999 0.0103 -0.0096
vn 0.2010 0.0002 0.9796
vn -0.5156 0.5703 0.6395
vn -0.6166 0.0120 0.7872
vn 0.1959 0.0002 0.9806
vn 0.9999 0.0024 -0.0117
vn 0.9934 0.0014 0.1147
vn 0.9934 0.0014 0.1143
vn 0.9956 0.0008 -0.0941
vn 0.5047 0.0413 0.8623
vn 0.3715 0.0087 0.9284
vn 0.3272 -0.0080 0.9449
vn 0.4635 -0.0401 0.8852
vn 0.3666 0.0224 0.9301
vn 0.3322 -0.0217 0.9430
vn 0.6411 0.0017 0.7675
vn 0.5760 0.0004 0.8175
vn 0.0027 0.9998 -0.0199
vn 0.1416 0.6991 -0.7009
vn 0.2900 0.6253 -0.7246
vn 0.5019 0.5668 -0.6533
vn -0.5190 0.7401 0.4276
vn -0.9102 -0.2148 -0.3542
vn 0.6830 0.0284 -0.7299
usemtl initialShadingGroup.007
s 1
f 1/1/1 2/2/2 99/3/3 96/4/4
f 3/5/5 4/6/6 1/1/1
f 1/1/1 4/6/6 21/7/7 2/2/2
f 3/5/5 5/8/8 4/6/6
f 4/6/6 5/8/8 6/9/9 22/10/10
f 7/11/11 8/12/12 5/8/8
f 5/8/8 8/12/12 23/13/13 6/9/9
f 7/11/11 9/14/14 8/12/12
f 8/12/12 9/14/14 10/15/15 24/16/16
f 9/14/14 11/17/17 10/15/15
f 10/15/15 11/17/17 12/18/18
f 11/17/17 86/19/19 88/20/20 12/18/18
f 81/21/21 101/22/22 97/23/23 41/24/24
f 13/25/25 38/26/26 37/27/27 14/28/28
f 14/28/28 37/27/27 40/29/29
f 14/28/28 40/29/29 36/30/30 15/31/31
f 15/31/31 36/30/30 39/32/32
f 16/33/33 15/31/31 44/34/34 42/35/35
f 80/36/36 16/33/33 43/37/37 47/38/38
f 79/39/39 46/40/40 49/41/41 18/42/42
f 18/42/42 49/41/41 50/43/43
f 12/18/18 19/44/44 35/45/45 10/15/15
f 10/15/15 35/45/45 25/46/46
f 34/47/47 26/48/48 8/12/12 24/16/16
f 33/49/49 28/50/50 4/6/6 22/10/10
f 32/51/51 27/52/52 6/9/9 23/13/13
f 81/21/21 13/25/25 82/53/53
f 82/53/53 13/25/25 1/1/1
f 13/25/25 14/28/28 1/1/1
f 1/1/1 14/28/28 3/5/5
f 14/28/28 15/31/31 3/5/5
f 3/5/5 15/31/31 5/8/8
f 15/31/31 16/33/33 5/8/8
f 5/8/8 16/33/33 7/11/11
f 80/36/36 17/54/54 7/11/11
f 7/11/11 17/54/54 9/14/14
f 79/39/39 18/42/42 9/14/14
f 9/14/14 18/42/42 11/17/17
f 11/17/17 90/55/55 84/56/56
f 30/57/57 29/58/58 2/2/2 21/7/7
f 28/50/50 30/57/57 21/7/7 4/6/6
f 20/59/59 31/60/60 93/61/61 95/62/62
f 2/2/2 29/58/58 31/60/60 20/59/59
f 26/48/48 32/51/51 23/13/13 8/12/12
f 27/52/52 33/49/49 22/10/10 6/9/9
f 25/46/46 34/47/47 24/16/16 10/15/15
f 39/32/32 44/34/34 15/31/31
f 42/35/35 43/37/37 16/33/33
f 50/43/43 48/63/63 18/42/42
f 30/57/64 28/50/65 55/64/66 58/65/67
f 29/58/68 30/57/64 58/65/67 56/66/69
f 34/47/70 25/46/71 52/67/72 62/68/73
f 26/48/74 34/47/70 62/68/73 53/69/75
f 31/60/76 29/58/68 56/66/69 59/70/77
f 35/45/78 19/44/79 51/71/80 63/72/81
f 25/46/71 35/45/78 63/72/81 52/67/72
f 32/51/82 26/48/74 53/69/75 60/73/83
f 27/52/84 32/51/82 60/73/83 54/74/85
f 33/49/86 27/52/84 54/74/85 61/75/87
f 28/50/65 33/49/86 61/75/87 55/64/66
f 19/44/79 91/76/88 83/77/89 51/71/80
f 44/34/90 39/32/91 67/78/92 72/79/93
f 47/38/94 43/37/95 71/80/96 75/81/97
f 45/82/98 47/38/94 75/81/97 73/83/99
f 43/37/95 42/35/100 70/84/101 71/80/96
f 48/63/102 50/43/103 78/85/104 76/86/105
f 41/24/106 100/87/107 94/88/108 69/89/109
f 49/41/110 46/40/111 74/90/112 77/91/113
f 40/29/114 37/27/115 65/92/116 68/93/117
f 38/26/118 41/24/106 69/89/109 66/94/119
f 36/30/120 40/29/114 68/93/117 64/95/121
f 39/32/91 36/30/120 64/95/121 67/78/92
f 37/27/115 38/26/118 66/94/119 65/92/116
f 50/43/103 49/41/110 77/91/113 78/85/104
f 42/35/100 44/34/90 72/79/93 70/84/101
f 46/40/111 45/82/98 73/83/99 74/90/112
f 17/54/54 45/82/122 46/40/40 79/39/39
f 17/54/54 79/39/39 9/14/14
f 17/54/54 80/36/36 47/38/38 45/82/122
f 16/33/33 80/36/36 7/11/11
f 13/25/25 81/21/21 41/24/24 38/26/26
f 18/42/42 85/96/123 89/97/124 11/17/17
f 87/98/125 85/96/123 18/42/42 48/63/63
f 88/20/20 91/76/88 19/44/44 12/18/18
f 89/97/124 90/55/55 11/17/17
f 84/56/56 86/19/19 11/17/17
f 95/62/62 99/3/3 2/2/2 20/59/59
f 96/4/4 98/99/126 82/53/53 1/1/1
f 92/100/127 93/61/61 31/60/76 59/70/77
f 97/23/23 100/87/107 41/24/24
f 98/99/126 101/22/22 81/21/21 82/53/53
f 57/101/128 87/98/125 48/63/102 76/86/105
f 92/100/127 94/88/108 100/87/107 97/23/23 101/22/22 98/99/126 96/4/4 99/3/3 95/62/62 93/61/61
f 87/98/125 57/101/128 83/77/89 91/76/88 88/20/20 86/19/19 84/56/56 90/55/55 89/97/124 85/96/123
