# Blender v2.90.1 OBJ File: 'Sanctuary_Test_1.blend'
# www.blender.org
mtllib Sanctuary_Section_3_1.mtl
o SP2.011_SP2.015
v 11.397117 -0.412189 211.923462
v 10.206986 -0.417176 209.071167
v 8.401254 -0.486932 206.556625
v 5.856187 -0.399351 204.843781
v 2.936730 -0.445627 203.453888
v 13.143687 -0.863868 211.491928
v -0.169304 -0.906056 201.363632
v 3.435651 -0.881699 201.717712
v 6.676976 -0.846668 203.469589
v 9.667735 -0.868430 205.282806
v 11.784436 -0.889749 208.200989
v 9.572455 -0.360799 216.172333
v 0.173896 -0.385506 205.494629
v 9.503850 -0.355495 214.878662
v 2.456414 -0.319958 205.808777
v 9.528958 -0.357443 215.352142
v 6.479309 -0.334775 207.940567
v 6.876930 -0.333507 208.434402
v 9.181844 -0.400616 212.540176
v 9.516632 -0.354057 215.119690
v 6.712689 -0.338540 208.230423
v 8.436874 -0.353836 210.489502
v 8.285009 -0.353751 210.183212
v -0.083702 -0.380758 205.508392
v 2.740353 -0.318421 205.886520
v 4.639949 -0.341154 206.638336
v 1.123521 -0.368687 205.443878
v -1.847781 -0.365157 205.602661
v 8.358982 -0.354509 210.275085
v 4.106164 -0.337962 206.260422
v 9.413681 -0.388282 213.178345
v 9.003621 -0.862573 202.405350
v 7.309381 -0.891117 201.331696
v -1.591126 -0.985414 199.577850
v 3.964799 -0.867781 200.094788
v 7.873286 -0.893432 201.729034
v 0.054073 -1.049563 199.576645
v 7.536247 -0.894019 201.551819
v -0.398696 -1.048075 199.576965
v 7.723248 -0.892322 201.639267
v -0.183778 -1.049284 199.576813
v -1.722749 -0.974932 199.831940
v 2.682885 -0.928203 199.792557
v 3.033824 -0.910804 200.011337
v 3.343744 -0.897260 199.915619
v 4.828189 -0.873125 200.343857
v 13.516283 -0.868761 207.864395
v 14.860282 -0.856640 211.037140
v 15.480054 -1.036241 214.939651
v 15.507849 -1.035133 215.176163
v 13.247440 -0.873505 207.355255
v 10.895211 -0.816104 204.071960
v 12.992688 -0.869519 206.872803
v 13.835690 -0.866153 208.469284
v 14.705003 -0.858787 210.262619
v 15.054731 -0.964761 218.052490
v 11.144436 -0.819764 204.313171
v 11.238942 -0.827940 204.636063
v 11.522465 -0.829831 204.832947
v 12.554171 -0.851169 206.042328
v 15.249732 -0.946660 212.979706
v 13.560044 -0.845417 215.149826
v 13.391091 -0.832014 214.958618
v 11.405942 -0.389831 215.151917
v 13.287189 -0.805826 214.959167
v 10.189647 -0.381676 216.226822
v 11.754120 -0.397753 214.967453
v 14.630486 -0.923995 217.985794
v 13.533992 -0.840169 215.447311
v 11.359440 -0.404958 216.330109
v 13.525551 -0.845152 214.957870
v 13.434823 -0.847532 216.579620
v 13.332754 -0.855512 217.781754
v 11.427485 -0.391517 214.969208
v -1.659920 -0.969245 200.472351
v -1.995396 -0.364471 205.453751
v -0.588683 -0.383829 203.629684
v -1.556045 -0.884910 201.531067
v -1.865311 -0.364979 205.609360
v 0.018203 -0.878260 201.489822
v -0.265427 -0.386775 203.590347
v 0.006789 -0.393273 203.271072
v -0.019011 -0.391755 203.487030
v -2.263564 -0.423641 203.833557
v 9.576385 -3.958493 216.173691
v 0.177826 -3.983200 205.495987
v 9.507780 -3.953189 214.880035
v 2.460343 -3.917652 205.810150
v 9.532888 -3.955137 215.353500
v 6.483238 -3.932469 207.941940
v 6.880859 -3.931202 208.435776
v 9.185774 -3.998310 212.541534
v 9.520562 -3.951751 215.121048
v 6.716619 -3.936234 208.231796
v 8.440804 -3.951530 210.490860
v 8.288939 -3.951445 210.184586
v -0.079773 -3.978452 205.509766
v 2.744282 -3.916115 205.887878
v 4.643878 -3.938848 206.639709
v 1.127450 -3.966381 205.445251
v -1.843851 -3.962851 205.604019
v 8.362912 -3.952203 210.276443
v 4.110093 -3.935656 206.261795
v 9.417611 -3.985976 213.179703
v -1.861382 -3.962673 205.610718
v 8.972144 -4.250902 202.391968
v 7.277903 -4.279446 201.318314
v -1.622603 -4.373743 199.564468
v 3.933322 -4.256110 200.081406
v 7.841809 -4.281761 201.715668
v 0.022596 -4.437892 199.563263
v 7.504770 -4.282348 201.538452
v -0.430174 -4.436404 199.563599
v 7.691771 -4.280651 201.625885
v -0.215256 -4.437613 199.563446
v -1.754226 -4.363261 199.818573
v 2.651407 -4.316532 199.779190
v 3.002347 -4.299133 199.997955
v 3.312266 -4.285589 199.902252
v 4.796712 -4.261454 200.330475
v 13.484806 -4.257090 207.851013
v 14.828805 -4.244969 211.023773
v 15.448577 -4.424570 214.926285
v 15.476372 -4.423462 215.162796
v 13.215963 -4.261833 207.341873
v 10.863734 -4.204432 204.058594
v 12.961211 -4.257847 206.859436
v 13.804214 -4.254482 208.455917
v 14.673526 -4.247116 210.249237
v 15.023254 -4.353090 218.039124
v 11.112959 -4.208093 204.299789
v 11.207465 -4.216268 204.622696
v 11.490988 -4.218160 204.819580
v 12.522694 -4.239497 206.028961
v 15.218255 -4.334989 212.966324
v 13.293236 -4.294034 215.022400
v 13.124283 -4.280631 214.831192
v 11.139133 -3.838449 215.024490
v 13.020380 -4.254443 214.831741
v 10.191376 -3.984317 216.140350
v 11.487310 -3.846370 214.840027
v 14.363678 -4.372612 217.858368
v 13.267183 -4.288786 215.319885
v 11.092630 -3.944994 216.327866
v 13.258741 -4.293769 214.830444
v 13.168015 -4.296149 216.452194
v 13.065945 -4.304130 217.654327
v 11.160675 -3.840134 214.841782
v -0.138126 -4.411777 201.467972
v -1.628743 -4.373130 200.576691
v -2.023759 -3.940061 205.465622
v -0.557506 -3.889550 203.734024
v -1.524868 -4.390631 201.635406
v 0.049381 -4.383981 201.594162
v -0.234250 -3.892496 203.694687
v 0.037967 -3.898994 203.375412
v 0.012167 -3.897476 203.591370
v -2.232386 -3.929362 203.937897
vt 0.474174 0.317494
vt 0.453202 0.288676
vt 0.452132 0.284259
vt 0.473796 0.279938
vt 0.433972 0.214289
vt 0.394978 0.207267
vt 0.392487 0.205535
vt 0.399931 0.192219
vt 0.401948 0.193315
vt 0.403313 0.191063
vt 0.492698 0.365968
vt 0.488858 0.412799
vt 0.487431 0.415320
vt 0.473796 0.405999
vt 0.492902 0.276104
vt 0.514944 0.318272
vt 0.515061 0.320437
vt 0.495442 0.319426
vt 0.449676 0.199504
vt 0.486721 0.221101
vt 0.490708 0.227028
vt 0.476875 0.234403
vt 0.456946 0.244997
vt 0.468025 0.356657
vt 0.473448 0.403020
vt 0.413151 0.174804
vt 0.413814 0.173756
vt 0.433935 0.380010
vt 0.435717 0.377302
vt 0.450127 0.388964
vt 0.448452 0.388283
vt 0.446119 0.390474
vt 0.390009 0.203982
vt 0.380610 0.198587
vt 0.383222 0.193874
vt 0.450829 0.281255
vt 0.441686 0.366315
vt 0.446621 0.348285
vt 0.439981 0.253779
vt 0.439360 0.252480
vt 0.437594 0.250272
vt 0.447673 0.344806
vt 0.419725 0.227083
vt 0.454603 0.326738
vt 0.456005 0.317977
vt 0.413455 0.220547
vt 0.386925 0.185102
vt 0.485991 0.417565
vt 0.470666 0.426155
vt 0.463226 0.419636
vt 0.514797 0.323031
vt 0.478014 0.429801
vt 0.475178 0.429916
vt 0.508630 0.369148
vt 0.506248 0.376600
vt 0.503611 0.379325
vt 0.503185 0.384167
vt 0.515447 0.326655
vt 0.510963 0.358561
vt 0.493779 0.233030
vt 0.421157 0.157036
vt 0.423554 0.158871
vt 0.414436 0.172794
vt 0.412545 0.171219
vt 0.508303 0.272444
vt 0.514134 0.302513
vt 0.461331 0.188577
vt 0.468255 0.195106
vt 0.482146 0.214384
vt 0.498869 0.242938
vt 0.504602 0.261179
vt 0.505041 0.265269
vt 0.507345 0.268384
vt 0.442855 0.173139
vt 0.387506 0.145851
vt 0.388739 0.142383
vt 0.409287 0.169554
vt 0.396268 0.163195
vt 0.382463 0.156421
vt 0.443462 0.393866
vt 0.431960 0.411254
vt 0.420246 0.401338
vt 0.420106 0.399216
vt 0.420283 0.399053
vt 0.392487 0.205535
vt 0.390009 0.203982
vt 0.456005 0.317977
vt 0.453202 0.288676
vt 0.420283 0.399053
vt 0.433935 0.380010
vt 0.439360 0.252480
vt 0.437594 0.250272
vt 0.446621 0.348285
vt 0.447673 0.344806
vt 0.394978 0.207267
vt 0.435717 0.377302
vt 0.419725 0.227083
vt 0.454603 0.326738
vt 0.380610 0.198587
vt 0.452132 0.284259
vt 0.450829 0.281255
vt 0.420106 0.399216
vt 0.413455 0.220547
vt 0.441686 0.366315
vt 0.439981 0.253779
vt 0.486721 0.221101
vt 0.490708 0.227028
vt 0.478014 0.429801
vt 0.475178 0.429916
vt 0.507345 0.268384
vt 0.508303 0.272444
vt 0.485991 0.417565
vt 0.505041 0.265269
vt 0.503185 0.384167
vt 0.488858 0.412799
vt 0.504602 0.261179
vt 0.503611 0.379325
vt 0.498869 0.242938
vt 0.506248 0.376600
vt 0.493779 0.233030
vt 0.508630 0.369148
vt 0.442855 0.173139
vt 0.461331 0.188577
vt 0.510963 0.358561
vt 0.423554 0.158871
vt 0.515447 0.326655
vt 0.514797 0.323031
vt 0.487431 0.415320
vt 0.514134 0.302513
vt 0.514944 0.318272
vt 0.515061 0.320437
vt 0.421157 0.157036
vt 0.482146 0.214384
vt 0.468255 0.195106
vt 0.388739 0.142383
vt 0.413151 0.174804
vt 0.413814 0.173756
vt 0.409287 0.169554
vt 0.396268 0.163195
vt 0.383222 0.193874
vt 0.386925 0.185102
vt 0.382463 0.156421
vt 0.399931 0.192219
vt 0.387506 0.145851
vt 0.412545 0.171219
vt 0.403313 0.191063
vt 0.401948 0.193315
vt 0.414436 0.172794
vt 0.448452 0.388283
vt 0.446119 0.390474
vt 0.470666 0.426155
vt 0.463226 0.419636
vt 0.473448 0.403020
vt 0.450127 0.388964
vt 0.420246 0.401338
vt 0.431960 0.411254
vt 0.443462 0.393866
vt 0.473796 0.405999
vn 0.0940 0.9912 -0.0927
vn 0.0440 0.9990 0.0104
vn 0.0894 0.9949 -0.0463
vn 0.0612 0.9886 -0.1373
vn 0.1435 0.9896 0.0109
vn -0.0026 0.9996 0.0272
vn -0.0148 0.9995 -0.0270
vn 0.6855 0.7265 0.0476
vn 0.5704 0.5256 0.6312
vn 0.1078 0.7604 0.6404
vn 0.0550 0.9948 -0.0853
vn -0.0900 0.9896 -0.1126
vn -0.0814 0.9966 0.0126
vn -0.1239 0.7444 0.6561
vn 0.0629 0.9968 -0.0485
vn 0.0150 0.9984 0.0541
vn -0.0760 0.9971 -0.0003
vn 0.0240 0.9869 -0.1594
vn 0.1452 0.9894 0.0032
vn -0.0312 0.9961 -0.0828
vn -0.0887 0.9960 -0.0090
vn 0.0785 0.9930 -0.0882
vn 0.1571 0.9871 -0.0293
vn 0.0353 0.9874 -0.1542
vn -0.5001 0.8628 0.0740
vn 0.2577 0.6573 0.7082
vn 0.1202 0.7314 0.6713
vn -0.1319 0.9896 -0.0571
vn 0.1371 0.9884 0.0652
vn -0.5405 0.8276 -0.1516
vn -0.6366 0.5955 -0.4901
vn -0.1646 0.8678 -0.4688
vn 0.0298 0.9989 -0.0367
vn 0.1036 0.8626 0.4952
vn 0.0170 0.7077 0.7063
vn 0.0617 0.9981 0.0038
vn -0.0208 0.9981 -0.0575
vn 0.0447 0.9791 -0.1983
vn 0.0719 0.9974 0.0017
vn 0.0258 0.9996 -0.0125
vn 0.0430 0.9984 0.0374
vn -0.0104 0.9996 -0.0243
vn 0.0023 0.9993 0.0370
vn -0.0287 0.9992 0.0275
vn 0.0195 0.9996 -0.0192
vn 0.0486 0.9980 -0.0392
vn -0.0001 0.9998 -0.0193
vn 0.5713 0.5455 0.6132
vn -0.0442 0.9926 -0.1135
vn -0.6423 0.7664 0.0120
vn -0.6165 0.4858 0.6196
vn -0.0288 0.9965 -0.0780
vn 0.0641 0.9744 0.2157
vn -0.2415 0.7370 -0.6312
vn -0.0852 0.9958 0.0339
vn -0.0456 0.9989 -0.0063
vn -0.0643 0.9878 0.1418
vn 0.0034 0.9999 0.0097
vn -0.0423 0.9983 -0.0404
vn -0.0119 0.9944 -0.1053
vn 0.0100 0.9953 -0.0962
vn -0.4829 0.6088 0.6294
vn -0.4889 0.8721 0.0229
vn -0.0918 0.9955 0.0238
vn -0.1071 0.9880 0.1116
vn 0.0822 0.9953 -0.0510
vn -0.0047 1.0000 -0.0018
vn -0.0137 0.9995 0.0293
vn 0.0077 0.9990 0.0448
vn 0.0840 0.6874 0.7214
vn -0.0233 0.9592 0.2816
vn -0.6011 0.7949 0.0827
vn -0.6573 0.7519 -0.0517
vn -0.6010 0.6085 0.5182
vn -0.2665 0.6822 -0.6809
vn -0.6619 0.5468 -0.5128
vn -0.5764 0.7843 0.2293
vn -0.1322 0.9685 0.2111
vn 0.0086 1.0000 -0.0040
vn -0.0133 0.9724 -0.2329
vn -0.9949 -0.0121 0.1005
vn -0.9959 0.0305 0.0846
vn -0.9992 -0.0330 0.0215
vn -0.9999 0.0104 0.0053
vn -0.7033 0.0271 0.7104
vn -0.5906 -0.0336 0.8062
vn -0.5643 0.0330 0.8249
vn -0.6657 -0.0282 0.7457
vn -0.0181 0.1817 0.9832
vn 0.2088 0.0006 0.9780
vn 0.2068 0.0006 0.9784
vn 0.1224 -0.1810 0.9758
vn -0.9548 -0.0063 0.2973
vn -0.8711 -0.0008 0.4912
vn -0.8713 -0.0008 0.4907
vn -0.9229 0.0035 0.3850
vn -0.2759 0.0815 0.9577
vn -0.3331 0.0608 0.9409
vn -0.1936 -0.0618 0.9791
vn -0.2505 -0.0814 0.9647
vn -0.9997 0.0180 0.0172
vn -0.9959 -0.0205 0.0885
vn -0.0688 0.0888 0.9937
vn 0.1763 -0.0852 0.9806
vn -0.9436 0.0408 0.3286
vn -0.9343 -0.0425 0.3540
vn -0.4264 -0.0001 0.9046
vn -0.4285 -0.0001 0.9035
vn -0.9972 0.0288 -0.0697
vn -0.8118 0.0059 0.5839
vn -0.7942 -0.0376 0.6065
vn -0.7623 0.0367 0.6462
vn -0.7438 -0.0085 0.6684
vn 0.2405 0.4993 0.8324
vn -0.9803 -0.0010 0.1977
vn -0.9796 -0.0010 0.2011
vn -0.1093 0.0003 0.9940
vn -0.1041 0.0003 0.9946
vn -0.8024 -0.0276 0.5962
vn -0.7537 0.0264 0.6567
vn 0.9041 -0.0710 -0.4214
vn 0.9188 0.0137 -0.3944
vn 0.8437 -0.0267 -0.5361
vn 0.8588 0.0586 -0.5090
vn -0.3592 -0.2080 -0.9098
vn -0.6418 0.2230 -0.7338
vn -0.6394 -0.0048 -0.7688
vn 0.7124 -0.0529 -0.6997
vn 0.8551 -0.0059 -0.5184
vn 0.8568 -0.0059 -0.5156
vn 0.6407 0.0454 -0.7665
vn 0.0594 0.0504 -0.9970
vn -0.0618 -0.0409 -0.9972
vn 0.8122 -0.0052 -0.5834
vn 0.8104 -0.0052 -0.5858
vn 0.1258 0.0517 -0.9907
vn 0.3221 0.0007 -0.9467
vn 0.3064 0.0009 -0.9519
vn -0.0468 -0.0418 -0.9980
vn 0.6711 -0.0033 -0.7413
vn 0.1138 0.0029 -0.9935
vn 0.1431 0.0026 -0.9897
vn 0.8272 -0.0055 -0.5619
vn 0.8278 -0.0055 -0.5610
vn 0.0005 0.0039 -1.0000
vn -0.0195 0.0041 -0.9998
vn 0.9128 -0.0127 -0.4081
vn 0.8518 0.0008 -0.5238
vn 0.3274 -0.0466 -0.9437
vn 0.2243 0.0476 -0.9734
vn 0.9866 0.0826 -0.1406
vn 0.9874 -0.0085 -0.1582
vn 0.9877 -0.0086 -0.1561
vn 0.9633 -0.1000 -0.2492
vn 0.3240 0.0007 -0.9460
vn 0.3238 0.0007 -0.9461
vn 0.9972 -0.0718 -0.0184
vn 0.9756 0.0575 -0.2118
vn 0.5198 -0.1613 -0.8389
vn 0.5531 0.1578 -0.8180
vn 0.6154 0.0221 -0.7879
vn 0.5177 -0.0253 -0.8552
vn 0.0840 -0.0885 -0.9925
vn -0.0853 0.0965 -0.9917
vn 0.4782 -0.0539 -0.8766
vn 0.5881 -0.1335 -0.7977
vn 0.5812 0.1289 -0.8035
vn 0.5460 0.0516 -0.8362
vn 0.5286 -0.0572 -0.8470
vn 0.4055 0.0549 -0.9124
vn 0.9850 -0.1173 0.1262
vn 0.9913 0.0997 -0.0862
vn 0.8923 -0.0065 -0.4515
vn 0.8921 -0.0065 -0.4517
vn 0.9480 -0.0076 -0.3182
vn 0.9475 -0.0075 -0.3197
vn 0.9929 -0.0772 0.0907
vn 0.0077 -0.1026 0.9947
vn 0.0307 -0.0958 0.9949
vn -0.9928 -0.0501 -0.1087
vn -0.9932 0.0800 -0.0851
vn -0.1066 0.0545 0.9928
vn 0.6250 -0.0487 0.7791
vn -0.7953 0.0392 0.6049
vn 0.9981 -0.0455 0.0417
vn -0.0513 -0.0611 0.9968
vn -0.9995 0.0025 -0.0324
vn 0.0058 -0.0837 0.9965
vn 0.6675 -0.0790 0.7404
vn -0.6342 0.0205 0.7729
vn -0.7976 -0.0250 -0.6026
vn -0.3115 -0.2030 -0.9283
vn -0.9877 0.0481 0.1488
vn -0.6299 0.1696 0.7579
vn -0.8675 -0.0188 0.4970
vn -0.9926 -0.1170 -0.0314
vn -0.9229 0.0033 0.3851
vn -0.7989 -0.0209 -0.6011
vn -0.0218 -0.1452 -0.9892
vn -0.3071 0.0892 0.9475
usemtl initialShadingGroup.015
s 1
f 4/1/1 17/2/2 21/3/3 3/4/4
f 1/5/5 14/6/6 20/7/7 64/8/8 74/9/9 67/10/10
f 8/11/11 37/12/12 41/13/13 7/14/14
f 10/15/15 36/16/16 40/17/17 9/18/18
f 6/19/19 47/20/20 51/21/21 11/22/22
f 2/23/23 1/5/5 11/22/22
f 11/22/22 1/5/5 6/19/19
f 2/23/23 11/22/22 3/4/4
f 3/4/4 11/22/22 10/15/15
f 4/1/1 3/4/4 9/18/18
f 9/18/18 3/4/4 10/15/15
f 4/1/1 9/18/18 5/24/24
f 5/24/24 9/18/18 8/11/11
f 7/14/14 80/25/25 5/24/24 8/11/11
f 1/5/5 65/26/26 63/27/27 6/19/19
f 24/28/28 13/29/29 5/24/24 82/30/30 83/31/31 81/32/32
f 16/33/33 12/34/34 66/35/35
f 21/3/3 18/36/36 2/23/23 3/4/4
f 13/29/29 27/37/37 15/38/38 5/24/24
f 18/36/36 23/39/39 2/23/23
f 23/39/39 29/40/40 22/41/41 1/5/5 2/23/23
f 15/38/42 25/42/43 4/1/1 5/24/24
f 22/41/41 19/43/44 1/5/5
f 25/42/43 30/44/45 26/45/46 4/1/1
f 19/43/44 31/46/47 14/6/6 1/5/5
f 20/7/7 16/33/33 66/35/35 70/47/48 64/8/8
f 26/45/46 17/2/2 4/1/1
f 41/13/13 39/48/49 75/49/50 78/50/51 7/14/14
f 40/17/17 38/51/52 8/11/11 9/18/18
f 34/52/53 42/53/54 75/49/50 39/48/49
f 35/54/55 45/55/56 44/56/56 43/57/56 37/12/12 8/11/11
f 33/58/57 46/59/58 35/54/55 8/11/11 38/51/52
f 51/21/21 53/60/59 10/15/15 11/22/22
f 50/61/60 49/62/61 6/19/19 63/27/27 71/63/62 62/64/63
f 52/65/64 32/66/65 36/16/16 10/15/15
f 48/67/66 55/68/67 54/69/67 47/20/20 6/19/19
f 53/60/59 60/70/68 59/71/68 58/72/68 57/73/68 52/65/64 10/15/15
f 49/62/61 61/74/69 48/67/66 6/19/19
f 68/75/70 56/76/71 50/61/60 62/64/63 69/77/72
f 69/77/72 72/78/73 73/79/74 68/75/70
f 67/10/10 65/26/26 1/5/5
f 77/80/75 84/81/76 76/82/77
f 80/25/25 82/30/30 5/24/24
f 81/32/32 77/80/75 76/82/77 79/83/78 28/84/79 24/28/80
f 16/33/81 20/7/82 93/85/83 89/86/84
f 17/2/85 26/45/86 99/87/87 90/88/88
f 24/28/89 28/84/90 101/89/91 97/90/92
f 22/41/93 29/40/94 102/91/95 95/92/96
f 25/42/97 15/38/98 88/93/99 98/94/100
f 20/7/82 14/6/101 87/95/102 93/85/83
f 13/29/103 24/28/89 97/90/92 86/96/104
f 19/43/105 22/41/93 95/92/96 92/97/106
f 26/45/86 30/44/107 103/98/108 99/87/87
f 12/34/34 16/33/81 89/86/84 85/99/109
f 30/44/107 25/42/97 98/94/100 103/98/108
f 18/36/110 21/3/111 94/100/112 91/101/113
f 28/84/90 79/83/78 105/102/114 101/89/91
f 14/6/101 31/46/115 104/103/116 87/95/102
f 15/38/98 27/37/117 100/104/118 88/93/99
f 31/46/115 19/43/105 92/97/106 104/103/116
f 27/37/117 13/29/103 86/96/104 100/104/118
f 21/3/111 17/2/85 90/88/88 94/100/112
f 23/39/119 18/36/110 91/101/113 96/105/120
f 51/21/121 47/20/122 121/106/123 125/107/124
f 42/53/54 34/52/125 108/108/126 116/109/127
f 52/65/128 57/73/129 131/110/130 126/111/131
f 34/52/125 39/48/132 113/112/133 108/108/126
f 57/73/129 58/72/134 132/113/135 131/110/130
f 37/12/136 43/57/137 117/114/138 111/115/139
f 58/72/134 59/71/140 133/116/140 132/113/135
f 43/57/137 44/56/141 118/117/142 117/114/138
f 59/71/140 60/70/143 134/118/144 133/116/140
f 44/56/141 45/55/145 119/119/146 118/117/142
f 60/70/143 53/60/147 127/120/148 134/118/144
f 45/55/145 35/54/149 109/121/150 119/119/146
f 48/67/151 61/74/152 135/122/153 122/123/154
f 35/54/149 46/59/155 120/124/156 109/121/150
f 61/74/152 49/62/157 123/125/158 135/122/153
f 46/59/155 33/58/159 107/126/160 120/124/156
f 33/58/159 38/51/161 112/127/162 107/126/160
f 39/48/132 41/13/163 115/128/164 113/112/133
f 36/16/165 32/66/166 106/129/167 110/130/168
f 41/13/163 37/12/136 111/115/139 115/128/164
f 38/51/161 40/17/169 114/131/170 112/127/162
f 40/17/169 36/16/165 110/130/168 114/131/170
f 53/60/147 51/21/121 125/107/124 127/120/148
f 49/62/157 50/61/171 124/132/172 123/125/158
f 32/66/166 52/65/128 126/111/131 106/129/167
f 47/20/122 54/69/173 128/133/174 121/106/123
f 54/69/173 55/68/175 129/134/176 128/133/174
f 55/68/175 48/67/151 122/123/154 129/134/176
f 50/61/171 56/76/71 130/135/177 124/132/172
f 23/39/119 96/105/120 102/91/95 29/40/94
f 63/27/27 65/26/26 139/136/178 137/137/179
f 72/78/73 69/77/72 143/138/180 146/139/181
f 70/47/48 66/35/35 140/140/182 144/141/183
f 73/79/74 72/78/73 146/139/181 147/142/184
f 64/8/8 70/47/48 144/141/183 138/143/185
f 68/75/70 73/79/74 147/142/184 142/144/186
f 69/77/72 62/64/63 136/145/187 143/138/180
f 65/26/26 67/10/10 141/146/188 139/136/178
f 56/76/71 68/75/70 142/144/186 130/135/177
f 74/9/9 64/8/8 138/143/185 148/147/189
f 71/63/62 63/27/27 137/137/179 145/148/190
f 67/10/10 74/9/9 148/147/189 141/146/188
f 62/64/63 71/63/62 145/148/190 136/145/187
f 66/35/35 12/34/34 85/99/109 140/140/182
f 81/32/32 83/31/31 157/149/191 155/150/192
f 78/50/51 75/49/50 150/151/193 153/152/194
f 82/30/30 80/25/25 154/153/195 156/154/196
f 83/31/31 82/30/30 156/154/196 157/149/191
f 79/83/78 76/82/77 151/155/197 105/102/114
f 76/82/77 84/81/76 158/156/198 151/155/197
f 75/49/50 42/53/54 116/109/127 150/151/193
f 77/80/75 81/32/32 155/150/192 152/157/199
f 7/14/14 78/50/51 153/152/194 149/158/200
f 84/81/76 77/80/75 152/157/199 158/156/198
f 80/25/25 7/14/14 149/158/200 154/153/195
