# Blender v2.90.1 OBJ File: 'Sanctuary_Test_1.blend'
# www.blender.org
mtllib Sanctuary_Section_3_2.mtl
o SP2.009_SP2.013
v -31.972290 -0.420950 261.455139
v -29.088760 -0.434126 260.301086
v -26.564045 -0.427598 258.287262
v -24.731827 -0.454269 255.836121
v -23.487293 -0.430203 252.978424
v -23.223503 -0.396848 250.158249
v -23.998142 -0.944145 261.010284
v -21.529127 -0.984626 257.795959
v -21.595413 -0.830276 250.147720
v -22.003012 -0.845916 253.469116
v -23.459286 -0.876826 256.703857
v -25.554588 -0.866323 259.458862
v -28.198330 -0.948834 261.784058
v -31.445286 -0.876400 263.240723
v -28.410099 -0.336187 257.019531
v -30.523643 -0.309789 258.502594
v -32.595150 -0.318293 259.275116
v -28.168068 -0.335814 256.833679
v -30.169453 -0.311888 258.370483
v -33.127983 -0.337906 259.473816
v -26.528799 -0.416545 254.511414
v -26.405811 -0.415131 254.301529
v -28.002920 -0.337971 256.599731
v -25.823174 -0.350645 252.535645
v -25.427544 -0.360799 251.172333
v -26.266769 -0.408018 254.064240
v -20.008694 -0.953516 253.997604
v -19.843803 -0.970732 253.483704
v -19.976202 -0.954063 253.896347
v -20.302387 -0.964417 254.912964
v -19.945269 -0.964761 253.052490
v -25.861481 -0.882432 262.544281
v -31.036030 -0.861975 264.849213
v -27.748865 -0.845028 263.550720
v -27.310295 -0.856959 263.316864
v -31.696884 -0.855344 264.973236
v -24.663074 -0.934249 261.331329
v -28.577255 -0.848880 263.938171
v -30.168129 -0.856249 264.686340
v -33.105736 -0.965018 265.237640
v -21.439957 -0.845417 250.149826
v -21.608910 -0.832014 249.958618
v -23.594059 -0.389831 250.151917
v -21.712811 -0.805826 249.959167
v -24.810352 -0.381676 251.226822
v -23.245880 -0.397753 249.967453
v -20.369514 -0.923995 252.985794
v -21.466007 -0.840169 250.447311
v -23.640560 -0.404958 251.330109
v -21.474449 -0.845152 249.957870
v -21.565178 -0.847532 251.579620
v -21.667246 -0.855512 252.781754
v -23.572515 -0.391517 249.969208
v -33.258476 -0.849000 264.418274
v -33.123398 -0.966978 265.244843
v -34.967751 -0.394407 261.793762
v -32.830925 -0.405344 260.868469
v -33.404228 -0.857645 263.526428
v -34.757969 -0.797997 263.530823
v -34.968758 -0.391389 261.536652
v -32.755707 -0.410241 261.221619
v -34.960880 -0.795977 263.552795
v -33.433010 -0.822734 263.387421
v -28.406170 -3.933881 257.020905
v -30.519714 -3.907484 258.503937
v -32.591221 -3.915987 259.276489
v -28.164139 -3.933509 256.835052
v -30.165524 -3.909582 258.371857
v -33.124054 -3.935600 259.475189
v -26.524868 -4.014240 254.512772
v -26.401882 -4.012825 254.302887
v -27.998991 -3.935665 256.601074
v -25.819242 -3.948339 252.537003
v -25.423615 -3.958493 251.173691
v -26.262840 -4.005712 254.065613
v -24.029621 -4.332474 260.996918
v -21.560604 -4.372955 257.782593
v -20.040171 -4.341845 253.984238
v -19.875278 -4.359060 253.470322
v -20.007679 -4.342392 253.882965
v -20.333864 -4.352746 254.899582
v -19.976746 -4.353090 253.039124
v -25.892960 -4.270761 262.530914
v -31.067507 -4.250304 264.835846
v -27.780342 -4.233357 263.537354
v -27.341772 -4.245287 263.303497
v -31.728363 -4.243673 264.959869
v -24.694551 -4.322578 261.317963
v -28.608732 -4.237209 263.924805
v -30.199606 -4.244577 264.672974
v -33.137211 -4.353346 265.224274
v -33.154873 -4.355307 265.231476
v -33.308319 -4.258939 264.414429
v -35.017593 -3.959080 261.789917
v -32.880768 -3.970016 260.864624
v -33.454067 -4.267584 263.522583
v -34.807812 -4.207936 263.526978
v -35.018597 -3.956062 261.532806
v -32.805546 -3.974913 261.217773
v -35.010723 -4.205916 263.548950
v -33.482849 -4.232674 263.383575
v -21.443909 -4.333383 250.242538
v -21.612862 -4.319979 250.051331
v -23.598011 -3.877797 250.244629
v -21.716764 -4.293791 250.051880
v -24.814306 -3.988072 251.319534
v -23.249832 -3.885718 250.060165
v -20.373466 -4.346898 253.078506
v -21.469961 -4.328134 250.540024
v -23.644512 -4.011353 251.422821
v -21.478401 -4.333117 250.050583
v -21.569130 -4.335497 251.672333
v -21.671200 -4.278415 252.874466
v -23.576469 -3.879482 250.061920
vt 0.227471 0.211666
vt 0.226680 0.222720
vt 0.224335 0.220575
vt 0.207674 0.241941
vt 0.205623 0.240929
vt 0.331149 0.167047
vt 0.301442 0.189808
vt 0.297912 0.190206
vt 0.293489 0.172024
vt 0.369631 0.173631
vt 0.338366 0.186538
vt 0.335359 0.186269
vt 0.329480 0.126849
vt 0.373012 0.154535
vt 0.329028 0.147092
vt 0.280393 0.133358
vt 0.285883 0.152665
vt 0.243799 0.167513
vt 0.207589 0.193416
vt 0.230246 0.156964
vt 0.235487 0.153597
vt 0.183471 0.227181
vt 0.193472 0.213869
vt 0.191849 0.212580
vt 0.257020 0.187562
vt 0.401391 0.189607
vt 0.411858 0.172351
vt 0.413151 0.174804
vt 0.403313 0.191063
vt 0.268109 0.204072
vt 0.264570 0.207063
vt 0.242230 0.225413
vt 0.236821 0.230435
vt 0.294489 0.191718
vt 0.380610 0.198587
vt 0.362520 0.192937
vt 0.341934 0.186964
vt 0.367010 0.133983
vt 0.378397 0.136950
vt 0.384652 0.138967
vt 0.388739 0.142383
vt 0.387506 0.145851
vt 0.379694 0.137350
vt 0.382463 0.156421
vt 0.396268 0.163195
vt 0.409287 0.169554
vt 0.252894 0.143811
vt 0.272721 0.137981
vt 0.196102 0.182805
vt 0.203517 0.175231
vt 0.221106 0.163225
vt 0.413814 0.173756
vt 0.399931 0.192219
vt 0.386925 0.185102
vt 0.383222 0.193874
vt 0.412545 0.171219
vt 0.414436 0.172794
vt 0.401948 0.193315
vt 0.184932 0.207538
vt 0.179263 0.202393
vt 0.179433 0.202247
vt 0.190547 0.189161
vt 0.182004 0.229170
vt 0.268109 0.204072
vt 0.264570 0.207063
vt 0.242230 0.225413
vt 0.236821 0.230435
vt 0.294489 0.191718
vt 0.297912 0.190206
vt 0.335359 0.186269
vt 0.301442 0.189808
vt 0.380610 0.198587
vt 0.362520 0.192937
vt 0.341934 0.186964
vt 0.338366 0.186538
vt 0.379694 0.137350
vt 0.384652 0.138967
vt 0.179263 0.202393
vt 0.179433 0.202247
vt 0.378397 0.136950
vt 0.230246 0.156964
vt 0.235487 0.153597
vt 0.190547 0.189161
vt 0.196102 0.182805
vt 0.272721 0.137981
vt 0.280393 0.133358
vt 0.252894 0.143811
vt 0.221106 0.163225
vt 0.203517 0.175231
vt 0.329480 0.126849
vt 0.367010 0.133983
vt 0.388739 0.142383
vt 0.224335 0.220575
vt 0.207674 0.241941
vt 0.183471 0.227181
vt 0.193472 0.213869
vt 0.205623 0.240929
vt 0.182004 0.229170
vt 0.226680 0.222720
vt 0.191849 0.212580
vt 0.184932 0.207538
vt 0.179263 0.202393
vt 0.403313 0.191063
vt 0.401948 0.193315
vt 0.412545 0.171219
vt 0.414436 0.172794
vt 0.383222 0.193874
vt 0.413814 0.173756
vt 0.413151 0.174804
vt 0.396268 0.163195
vt 0.409287 0.169554
vt 0.386925 0.185102
vt 0.382463 0.156421
vt 0.399931 0.192219
vt 0.387506 0.145851
vn 0.0309 0.9898 0.1388
vn -0.7194 0.6730 0.1719
vn -0.6691 0.5840 -0.4597
vn -0.6061 0.5958 -0.5269
vn -0.6541 0.7506 0.0935
vn 0.0863 0.9917 0.0950
vn -0.0028 0.9999 0.0152
vn 0.0179 0.9997 -0.0175
vn 0.1592 0.9847 0.0709
vn 0.0951 0.9931 0.0679
vn 0.0612 0.9980 0.0139
vn 0.0366 0.9985 0.0407
vn -0.1173 0.9908 -0.0679
vn 0.1696 0.9854 -0.0183
vn 0.0635 0.9972 0.0396
vn -0.1102 0.9881 -0.1071
vn 0.0506 0.9972 0.0546
vn 0.0300 0.9926 0.1178
vn -0.0013 0.9944 0.1061
vn 0.0701 0.9974 -0.0176
vn -0.0068 0.9904 -0.1381
vn 0.1607 0.6190 0.7688
vn -0.3586 0.5516 0.7531
vn -0.7544 0.6182 0.2207
vn 0.0557 0.9829 0.1753
vn 0.1398 0.9885 0.0568
vn 0.2528 0.9675 -0.0107
vn 0.2203 0.6063 -0.7641
vn 0.0238 0.7068 -0.7070
vn 0.0305 0.9956 0.0889
vn -0.0042 0.9981 0.0611
vn -0.0135 0.9971 0.0750
vn -0.3928 0.8957 0.2085
vn 0.0075 0.9980 0.0635
vn 0.2036 0.8238 -0.5291
vn 0.0027 0.9998 -0.0200
vn 0.0255 0.9987 0.0449
vn -0.0778 0.9964 -0.0343
vn -0.0104 0.9954 -0.0952
vn -0.0959 0.9948 -0.0346
vn 0.6574 0.7533 -0.0157
vn 0.2119 0.7850 -0.5822
vn 0.1944 0.9790 -0.0621
vn 0.6757 0.5647 -0.4738
vn 0.7220 0.6887 0.0668
vn 0.6755 0.7152 0.1792
vn -0.1033 0.9801 -0.1695
vn -0.0110 0.9985 -0.0535
vn 0.0292 0.9960 -0.0845
vn -0.0079 0.9999 -0.0070
vn 0.1343 0.6014 -0.7876
vn -0.7076 0.7066 0.0078
vn -0.5477 0.5630 -0.6190
vn 0.1302 0.7208 -0.6808
vn 0.7446 0.6596 0.1026
vn 0.5434 0.5453 -0.6383
vn -0.5347 0.5802 -0.6144
vn -0.6589 0.7034 0.2666
vn -0.7754 0.5949 0.2117
vn -0.0489 0.9876 0.1490
vn 0.0697 0.9877 0.1397
vn -0.5489 0.5074 0.6642
vn -0.3226 -0.0041 -0.9465
vn -0.4652 -0.0371 -0.8844
vn -0.5032 0.0354 -0.8634
vn -0.3760 0.0024 -0.9266
vn -0.3299 -0.0221 -0.9438
vn -0.3688 0.0203 -0.9293
vn -0.2767 0.0478 -0.9598
vn -0.5814 -0.0095 -0.8136
vn -0.6359 0.0079 -0.7718
vn -0.7359 0.0365 -0.6761
vn -0.7052 -0.0387 -0.7080
vn -0.8004 0.0291 -0.5988
vn -0.8260 -0.0365 -0.5625
vn -0.8534 0.0346 -0.5202
vn -0.8320 -0.0316 -0.5539
vn -0.9692 0.0357 -0.2436
vn -0.9696 -0.0504 -0.2394
vn -0.9492 -0.0387 -0.3124
vn -0.8761 -0.0396 -0.4806
vn -0.9196 -0.0012 -0.3929
vn -0.9176 -0.0012 -0.3974
vn -0.8477 0.0375 -0.5292
vn 0.9724 -0.2232 0.0687
vn 0.9107 0.0971 0.4016
vn 0.9716 -0.1187 0.2047
vn 0.9787 0.2048 0.0097
vn 0.2771 -0.0064 0.9608
vn 0.3786 -0.0072 0.9255
vn 0.2891 -0.0065 0.9573
vn 0.9162 -0.1013 0.3877
vn 0.9727 0.0806 0.2175
vn 0.4322 -0.0800 0.8982
vn 0.3995 0.0549 0.9151
vn 0.4911 -0.0709 0.8682
vn 0.5051 0.0644 0.8606
vn 0.1411 -0.0745 0.9872
vn 0.1319 0.1248 0.9834
vn 0.2314 -0.1368 0.9632
vn 0.2261 0.0636 0.9720
vn 0.6348 -0.2072 0.7444
vn 0.5828 -0.0086 0.8125
vn 0.5798 -0.0086 0.8147
vn 0.6015 0.1897 0.7761
vn 0.5888 -0.1670 0.7908
vn 0.5911 0.1498 0.7925
vn 0.4246 -0.0075 0.9053
vn 0.3085 -0.0066 0.9512
vn 0.3065 -0.0066 0.9518
vn 0.8459 -0.2042 0.4928
vn 0.8481 0.1845 0.4967
vn 0.9219 -0.1505 0.3570
vn 0.9336 0.1305 0.3336
vn 0.9828 -0.0557 -0.1760
vn -0.8168 0.0120 -0.5768
vn -0.7594 0.0113 -0.6505
vn 0.1133 -0.0627 0.9916
vn -0.6382 0.0085 0.7698
vn -0.9999 0.0061 -0.0100
vn -0.6278 0.0081 0.7783
vn -0.9811 0.0399 0.1894
vn -0.9789 0.0850 0.1858
vn -0.9973 -0.0266 0.0682
vn -0.9865 0.0142 0.1632
vn 0.0273 0.0109 -0.9996
vn -0.6665 -0.0191 -0.7453
vn 0.9878 0.0778 -0.1352
vn 0.6641 -0.0206 -0.7474
vn 0.0590 -0.0670 -0.9960
vn 0.0312 0.0224 -0.9993
vn 0.0262 0.0297 -0.9992
vn 0.9963 0.0012 0.0859
vn 0.9938 0.1006 0.0478
vn -0.6293 -0.0193 -0.7770
vn 0.7801 -0.0178 -0.6254
vn -0.9930 -0.0343 -0.1134
vn 0.2756 -0.0208 -0.9610
usemtl initialShadingGroup.013
s 1
f 1/1/1 57/2/2 61/3/3 60/4/4 56/5/5
f 4/6/6 23/7/7 18/8/8 3/9/9
f 5/10/10 22/11/11 21/12/12 4/6/6
f 8/13/13 10/14/14 11/15/15
f 8/13/13 11/15/15 7/16/16
f 7/16/16 11/15/15 12/17/17
f 13/18/18 7/16/16 12/17/17
f 14/19/19 34/20/20 35/21/21 13/18/18
f 1/1/1 59/22/22 63/23/23 58/24/24 14/19/19
f 1/1/1 14/19/19 2/25/25
f 2/25/25 14/19/19 13/18/18
f 3/9/9 2/25/25 12/17/17
f 12/17/17 2/25/25 13/18/18
f 4/6/6 3/9/9 11/15/15
f 11/15/15 3/9/9 12/17/17
f 5/10/10 4/6/6 10/14/14
f 10/14/14 4/6/6 11/15/15
f 6/26/26 5/10/10 9/27/27
f 9/27/27 5/10/10 10/14/14
f 6/26/26 9/27/27 44/28/28 46/29/29
f 19/30/30 16/31/31 1/1/1 2/25/25
f 17/32/32 20/33/33 57/2/2 1/1/1
f 15/34/34 19/30/30 2/25/25
f 18/8/8 15/34/34 2/25/25 3/9/9
f 16/31/31 17/32/32 1/1/1
f 21/12/12 23/7/7 4/6/6
f 5/10/10 25/35/35 24/36/36
f 24/36/36 26/37/37 22/11/11 5/10/10
f 30/38/38 27/39/39 10/14/14 8/13/13
f 28/40/40 31/41/41 47/42/42 29/43/43
f 27/39/39 29/43/43 47/42/42 52/44/44 51/45/45 48/46/46 9/27/27 10/14/14
f 35/21/21 32/47/47 37/48/48 7/16/16 13/18/18
f 33/49/49 39/50/50 38/51/50 34/20/20 14/19/19
f 42/52/51 44/28/28 9/27/27
f 43/53/52 49/54/53 45/55/54 5/10/10 6/26/26
f 48/46/46 41/56/55 9/27/27
f 41/56/55 50/57/56 42/52/51 9/27/27
f 45/55/54 25/35/35 5/10/10
f 46/29/29 53/58/57 43/53/52 6/26/26
f 54/59/58 55/60/59 40/61/60 36/62/61
f 56/5/5 62/63/62 59/22/22 1/1/1
f 58/24/24 54/59/58 36/62/61 33/49/49 14/19/19
f 16/31/63 19/30/64 68/64/65 65/65/66
f 20/33/33 17/32/67 66/66/68 69/67/69
f 19/30/64 15/34/70 64/68/71 68/64/65
f 15/34/70 18/8/72 67/69/73 64/68/71
f 17/32/67 16/31/63 65/65/66 66/66/68
f 23/7/74 21/12/75 70/70/76 72/71/77
f 24/36/78 25/35/35 74/72/79 73/73/80
f 18/8/72 23/7/74 72/71/77 67/69/73
f 22/11/81 26/37/82 75/74/83 71/75/84
f 26/37/82 24/36/78 73/73/80 75/74/83
f 21/12/75 22/11/81 71/75/84 70/70/76
f 28/40/85 29/43/86 80/76/87 79/77/88
f 40/61/89 55/60/90 92/78/90 91/79/91
f 29/43/86 27/39/92 78/80/93 80/76/87
f 35/21/94 34/20/95 85/81/96 86/82/97
f 33/49/98 36/62/99 87/83/100 84/84/101
f 7/16/102 37/48/103 88/85/104 76/86/105
f 37/48/103 32/47/106 83/87/107 88/85/104
f 32/47/106 35/21/94 86/82/97 83/87/107
f 34/20/95 38/51/108 89/88/108 85/81/96
f 38/51/108 39/50/109 90/89/110 89/88/108
f 8/13/111 7/16/102 76/86/105 77/90/112
f 39/50/109 33/49/98 84/84/101 90/89/110
f 36/62/99 40/61/89 91/79/91 87/83/100
f 30/38/113 8/13/111 77/90/112 81/91/114
f 27/39/92 30/38/113 81/91/114 78/80/93
f 31/41/41 28/40/85 79/77/88 82/92/115
f 60/4/4 61/3/3 99/93/116 98/94/117
f 63/23/23 59/22/22 97/95/118 101/96/119
f 62/63/62 56/5/5 94/97/120 100/98/121
f 61/3/3 57/2/2 95/99/122 99/93/116
f 54/59/58 58/24/24 96/100/123 93/101/124
f 57/2/2 20/33/33 69/67/69 95/99/122
f 55/60/59 54/59/58 93/101/124 91/102/125
f 56/5/5 60/4/4 98/94/117 94/97/120
f 58/24/24 63/23/23 101/96/119 96/100/123
f 59/22/22 62/63/62 100/98/121 97/95/118
f 53/58/57 46/29/29 107/103/126 114/104/127
f 50/57/56 41/56/55 102/105/128 111/106/129
f 25/35/35 45/55/54 106/107/130 74/72/79
f 44/28/28 42/52/51 103/108/131 105/109/132
f 48/46/46 51/45/45 112/110/133 109/111/134
f 45/55/54 49/54/53 110/112/135 106/107/130
f 51/45/45 52/44/44 113/113/136 112/110/133
f 49/54/53 43/53/52 104/114/137 110/112/135
f 52/44/44 47/42/42 108/115/138 113/113/136
f 41/56/55 48/46/46 109/111/134 102/105/128
f 46/29/29 44/28/28 105/109/132 107/103/126
f 47/42/42 31/41/41 82/92/115 108/115/138
f 43/53/52 53/58/57 114/104/127 104/114/137
f 42/52/51 50/57/56 111/106/129 103/108/131
