# Blender v2.90.1 OBJ File: 'Sanctuary_Test_1.blend'
# www.blender.org
mtllib Sanctuary_Section_1.mtl
o SP2.001
v 5.322455 0.255100 -1.423687
v 4.784185 0.253380 -2.774842
v -0.000342 0.175213 -0.000528
v 3.926635 0.259205 -3.906552
v 2.587858 0.248989 -4.896327
v 1.416351 0.243822 -5.359578
v -0.007042 0.272612 -5.535750
v -1.421789 0.244664 -5.332567
v -2.757389 0.245706 -4.769157
v -3.918096 0.263359 -3.915124
v -4.685989 0.253397 -2.959399
v -5.334133 0.255897 -1.426324
v -5.561354 0.263149 0.010817
v -5.364926 0.232071 1.436383
v -4.815846 0.254923 2.770449
v -3.952759 0.187900 3.901490
v -2.728651 0.249006 4.644907
v -1.414775 0.195595 5.395687
v -0.004955 0.207159 5.573043
v 1.438191 0.190922 5.377609
v 2.774573 0.257575 4.797449
v 3.926572 0.218201 3.937821
v 4.927463 0.253025 2.579800
v 5.360387 0.241736 1.420434
v 5.556381 0.258430 0.004841
v -1.959219 0.219286 -1.957826
v -0.711066 0.209938 -2.666548
v 0.704654 0.258217 -5.447664
v 0.020927 0.443672 -5.752493
v 1.467263 0.416925 -5.594241
v 0.744095 0.430299 -5.673368
v -4.302042 0.258378 -3.437262
v -5.010061 0.254647 -2.192862
v -5.447743 0.259523 -0.707753
v -5.788014 0.440335 0.004530
v -5.579196 0.434290 -1.509788
v -4.868189 0.429516 -3.077650
v -4.077188 0.432470 -4.060832
v -4.472689 0.430993 -3.569241
v -5.223693 0.431903 -2.293719
v -5.683605 0.437313 -0.752629
v -2.089589 0.245185 -5.050862
v -3.337743 0.254532 -4.342140
v -3.997642 0.347914 -3.987978
v -2.870900 0.404361 -4.964524
v -1.478303 0.431042 -5.553512
v -2.174601 0.417702 -5.259018
v 5.053320 0.254240 -2.099265
v 4.355410 0.256293 -3.340697
v 3.257246 0.254097 -4.401440
v 5.439418 0.256765 -0.709423
v 5.773656 0.435765 0.002705
v 5.542190 0.414735 -1.492868
v 2.734860 0.396678 -5.088114
v 4.072657 0.411369 -4.085870
v 4.980486 0.427542 -2.881441
v 3.403758 0.404023 -4.586992
v 5.657923 0.425250 -0.745081
v 5.261338 0.421139 -2.187154
v 4.526571 0.419456 -3.483655
v -3.340705 0.218453 4.273199
v -2.071713 0.222301 5.020297
v -0.709865 0.201377 5.484365
v 0.716618 0.199041 5.475326
v 2.106382 0.224249 5.087529
v 3.350573 0.237888 4.367635
v 4.427018 0.235613 3.258811
v 5.143925 0.247380 2.000117
v 5.614737 0.422702 1.474560
v 5.143835 0.418884 2.705145
v 4.108240 0.417955 4.078585
v 2.902588 0.422702 5.001008
v 1.492478 0.385097 5.585160
v -0.010457 0.410577 5.781780
v -1.452903 0.398744 5.604790
v -4.112846 0.380400 4.077139
v -2.903944 0.425450 4.911181
v -0.731680 0.404660 5.693285
v 2.197533 0.403900 5.293084
v 0.741010 0.397837 5.683470
v 4.626037 0.418419 3.391865
v 3.505414 0.420328 4.539796
v -2.178423 0.412097 5.257986
v 5.379286 0.420793 2.089852
v -3.508395 0.402925 4.494160
v -5.090386 0.243497 2.103416
v -4.384303 0.221411 3.335969
v -4.032803 0.284150 3.989315
v -5.003636 0.436675 2.895173
v -5.584688 0.426281 1.492856
v -5.294162 0.431478 2.194015
v -0.738667 0.437734 -5.650063
v -3.474044 0.418416 -4.512678
v -5.678125 0.434798 0.749838
v -4.558242 0.408537 3.486155
v 2.080556 0.410729 -5.338606
v 5.705542 0.423109 0.731717
v 0.007808 -1.039921 -5.741814
v 1.454145 -1.066668 -5.583562
v 0.730977 -1.053295 -5.662688
v -5.801133 -1.043259 0.015209
v -5.592314 -1.049304 -1.499109
v -4.881308 -1.054078 -3.066970
v -4.090306 -1.051123 -4.050153
v -4.485807 -1.052601 -3.558562
v -5.236811 -1.051691 -2.283040
v -5.696723 -1.046281 -0.741950
v -2.884018 -1.079232 -4.953845
v -1.491421 -1.052552 -5.542833
v -2.187720 -1.065892 -5.248339
v 5.760538 -1.047829 0.013384
v 5.529071 -1.068858 -1.482189
v 2.721742 -1.086916 -5.077435
v 4.059538 -1.072225 -4.075191
v 4.967368 -1.056051 -2.870761
v 3.390640 -1.079571 -4.576313
v 5.644804 -1.058344 -0.734402
v 5.248219 -1.062455 -2.176475
v 4.513453 -1.064138 -3.472976
v 5.601619 -1.060891 1.485239
v 5.130716 -1.064710 2.715824
v 4.095121 -1.065639 4.089264
v 2.889470 -1.060892 5.011687
v 1.479359 -1.098497 5.595839
v -0.023575 -1.073017 5.792459
v -1.466021 -1.084850 5.615469
v -4.125964 -1.103194 4.087818
v -2.917062 -1.058144 4.921860
v -0.744798 -1.078933 5.703964
v 2.184415 -1.079694 5.303763
v 0.727892 -1.085757 5.694149
v 4.612919 -1.065175 3.402544
v 3.492296 -1.063265 4.550475
v -2.191541 -1.071497 5.268665
v 5.366168 -1.062801 2.100532
v -3.521513 -1.080669 4.504839
v -5.016754 -1.046919 2.905852
v -5.597806 -1.057312 1.503535
v -5.307280 -1.052116 2.204694
v -0.751785 -1.045859 -5.639383
v -3.487162 -1.065178 -4.501999
v -5.691243 -1.048796 0.760517
v -4.571360 -1.075056 3.496834
v 2.067438 -1.072865 -5.327927
v 5.692424 -1.060485 0.742396
vt 0.000000 0.000000
vt 0.000000 0.000000
vt 0.000000 0.000000
vt 0.000000 0.000000
vt 0.000000 0.000000
vt 0.000000 0.000000
vt 0.000000 0.000000
vt 0.000000 0.000000
vt 0.000000 0.000000
vt 0.000000 0.000000
vt 0.000000 0.000000
vt 0.000000 0.000000
vt 0.000000 0.000000
vt 0.000000 0.000000
vt 0.000000 0.000000
vt 0.000000 0.000000
vt 0.000000 0.000000
vt 0.000000 0.000000
vt 0.000000 0.000000
vt 0.000000 0.000000
vt 0.000000 0.000000
vt 0.000000 0.000000
vt 0.000000 0.000000
vt 0.000000 0.000000
vt 0.000000 0.000000
vt 0.000000 0.000000
vt 0.000000 0.000000
vt 0.000000 0.000000
vt 0.000000 0.000000
vt 0.000000 0.000000
vt 0.000000 0.000000
vt 0.000000 0.000000
vt 0.000000 0.000000
vt 0.000000 0.000000
vt 0.000000 0.000000
vt 0.000000 0.000000
vt 0.000000 0.000000
vt 0.000000 0.000000
vt 0.000000 0.000000
vt 0.000000 0.000000
vt 0.000000 0.000000
vt 0.000000 0.000000
vt 0.000000 0.000000
vt 0.000000 0.000000
vt 0.000000 0.000000
vt 0.000000 0.000000
vt 0.000000 0.000000
vt 0.000000 0.000000
vt 0.368881 0.279001
vt 0.374320 0.283978
vt 0.379759 0.288954
vt 0.331153 0.317455
vt 0.383135 0.295249
vt 0.386512 0.301543
vt 0.385129 0.310284
vt 0.383746 0.319025
vt 0.383319 0.331826
vt 0.380787 0.338695
vt 0.378255 0.345564
vt 0.368820 0.356811
vt 0.349986 0.337133
vt 0.363387 0.361383
vt 0.357953 0.365956
vt 0.351651 0.369241
vt 0.345348 0.372526
vt 0.338251 0.344990
vt 0.339234 0.372523
vt 0.333119 0.372520
vt 0.325123 0.370013
vt 0.317126 0.367506
vt 0.309779 0.365982
vt 0.302432 0.364457
vt 0.292459 0.353958
vt 0.287726 0.348584
vt 0.282992 0.343209
vt 0.280557 0.336523
vt 0.278122 0.329836
vt 0.275326 0.322957
vt 0.272529 0.316077
vt 0.275463 0.308828
vt 0.278396 0.301579
vt 0.281521 0.295128
vt 0.284646 0.288678
vt 0.289195 0.283266
vt 0.293744 0.277853
vt 0.299035 0.273331
vt 0.304327 0.268809
vt 0.310737 0.266255
vt 0.317147 0.263702
vt 0.325286 0.263554
vt 0.333425 0.263405
vt 0.339481 0.263481
vt 0.345537 0.263557
vt 0.359066 0.267736
vt 0.363973 0.273368
vt 0.367528 0.366674
vt 0.373978 0.361686
vt 0.283230 0.278068
vt 0.278176 0.284354
vt 0.292243 0.365023
vt 0.286839 0.359797
vt 0.306865 0.373039
vt 0.314667 0.375916
vt 0.323788 0.377495
vt 0.332909 0.379073
vt 0.353687 0.374874
vt 0.346296 0.378084
vt 0.345822 0.375305
vt 0.378677 0.355619
vt 0.389369 0.327123
vt 0.389461 0.333964
vt 0.368382 0.267808
vt 0.362222 0.262259
vt 0.386610 0.341305
vt 0.383759 0.348646
vt 0.391049 0.309670
vt 0.391176 0.300425
vt 0.339603 0.378578
vt 0.299062 0.370162
vt 0.361077 0.371663
vt 0.390922 0.318915
vt 0.374541 0.273357
vt 0.379876 0.279454
vt 0.385210 0.285550
vt 0.388193 0.292987
vt 0.274164 0.339514
vt 0.271298 0.332075
vt 0.274710 0.330956
vt 0.274994 0.291484
vt 0.271811 0.298615
vt 0.294541 0.266890
vt 0.300797 0.261998
vt 0.288285 0.271782
vt 0.324741 0.255338
vt 0.333764 0.254592
vt 0.315717 0.256085
vt 0.308257 0.259041
vt 0.270648 0.307406
vt 0.269484 0.316198
vt 0.340712 0.255422
vt 0.347660 0.256252
vt 0.270391 0.324136
vt 0.281934 0.353375
vt 0.277030 0.346954
vt 0.354638 0.258774
vt 0.271811 0.298615
vt 0.274994 0.291484
vt 0.286839 0.359797
vt 0.281934 0.353375
vt 0.346296 0.378084
vt 0.339603 0.378578
vt 0.388193 0.292987
vt 0.391176 0.300425
vt 0.270648 0.307406
vt 0.347660 0.256252
vt 0.354638 0.258774
vt 0.378677 0.355619
vt 0.373978 0.361686
vt 0.332909 0.379073
vt 0.323788 0.377495
vt 0.385210 0.285550
vt 0.269484 0.316198
vt 0.294541 0.266890
vt 0.300797 0.261998
vt 0.383759 0.348646
vt 0.314667 0.375916
vt 0.288285 0.271782
vt 0.353687 0.374874
vt 0.340712 0.255422
vt 0.391049 0.309670
vt 0.278176 0.284354
vt 0.283230 0.278068
vt 0.361077 0.371663
vt 0.306865 0.373039
vt 0.333764 0.254592
vt 0.390922 0.318915
vt 0.299062 0.370162
vt 0.270391 0.324136
vt 0.389461 0.333964
vt 0.386610 0.341305
vt 0.292243 0.365023
vt 0.271298 0.332075
vt 0.362222 0.262259
vt 0.368382 0.267808
vt 0.374541 0.273357
vt 0.324741 0.255338
vt 0.274164 0.339514
vt 0.315717 0.256085
vt 0.277030 0.346954
vt 0.367528 0.366674
vt 0.379876 0.279454
vt 0.308257 0.259041
vt 0.389369 0.327123
vn -0.0067 -0.9942 -0.1071
vn -0.0215 -0.9994 0.0273
vn 0.0258 -0.9991 -0.0324
vn 0.0086 -0.9998 -0.0197
vn 0.0045 -0.9994 -0.0346
vn -0.0551 -0.9946 0.0881
vn -0.0046 -1.0000 -0.0028
vn -0.0928 -0.9953 0.0284
vn 0.0734 -0.9890 0.1287
vn 0.0021 -0.9999 0.0118
vn 0.0007 -1.0000 -0.0015
vn 0.0281 -0.9995 -0.0146
vn -0.0641 -0.9965 -0.0546
vn -0.0124 -0.9998 0.0168
vn 0.0172 -0.9998 0.0109
vn 0.0647 -0.9973 -0.0354
vn -0.0052 -0.9999 -0.0115
vn 0.0032 -1.0000 0.0020
vn 0.0030 -1.0000 0.0044
vn -0.0073 -1.0000 0.0003
vn -0.0172 -0.9999 -0.0016
vn 0.1256 -0.9921 -0.0055
vn -0.0046 -1.0000 -0.0016
vn 0.0007 -1.0000 -0.0005
vn 0.0098 -1.0000 0.0007
vn -0.0009 -1.0000 -0.0005
vn -0.0130 -0.9999 -0.0010
vn 0.0652 -0.9977 -0.0196
vn -0.0065 -1.0000 -0.0056
vn -0.0268 -0.9995 -0.0151
vn -0.0198 -0.9998 0.0030
vn -0.1596 -0.9844 0.0734
vn 0.0003 -1.0000 -0.0016
vn -0.0105 -0.9999 -0.0086
vn -0.0400 -0.9992 -0.0015
vn 0.0014 -1.0000 -0.0004
vn 0.0109 -0.9999 -0.0070
vn -0.1379 -0.9579 0.2517
vn 0.0624 -0.9943 0.0867
vn -0.0017 -0.9997 -0.0247
vn -0.0017 -0.9998 -0.0219
vn -0.0366 -0.9877 -0.1520
vn -0.0222 -0.9993 0.0301
vn 0.0173 -0.9971 -0.0747
vn -0.0040 -0.9951 0.0987
vn 0.1428 -0.9777 -0.1542
vn -0.0828 0.9964 0.0189
vn -0.1095 0.9457 0.3061
vn -0.0756 0.9935 0.0851
vn 0.0015 1.0000 0.0023
vn -0.0949 0.9184 0.3840
vn -0.0833 0.9953 0.0490
vn 0.0313 0.9368 0.3484
vn -0.0523 0.9965 0.0647
vn 0.0087 0.9944 0.1051
vn 0.2422 0.9052 0.3491
vn 0.0022 0.9940 0.1094
vn 0.0243 0.9943 0.1039
vn 0.1311 0.9900 -0.0516
vn -0.0531 0.2942 0.9543
vn 0.5001 -0.0367 0.8652
vn -0.7318 0.2435 0.6366
vn 0.7066 -0.0499 0.7058
vn 0.0952 0.9890 -0.1136
vn 0.7697 0.6086 0.1925
vn 0.0819 0.9928 0.0874
vn 0.3805 0.9175 -0.1159
vn 0.0918 0.9956 0.0206
vn 0.3604 0.9096 -0.2069
vn 0.1235 0.9923 -0.0120
vn 0.1073 0.9940 -0.0197
vn 0.2031 0.8941 -0.3992
vn 0.0997 0.9938 -0.0486
vn 0.1010 0.9842 -0.1458
vn 0.0981 0.9860 -0.1346
vn -0.0969 0.9839 -0.1501
vn 0.1269 0.9640 -0.2335
vn 0.1542 0.9649 -0.2127
vn 0.0786 0.9842 -0.1588
vn -0.1157 0.8250 -0.5532
vn 0.0043 0.9935 -0.1136
vn -0.3313 0.8922 -0.3069
vn -0.0360 0.9936 -0.1073
vn -0.4073 0.8974 -0.1695
vn -0.0494 0.9957 -0.0778
vn -0.3815 0.9183 -0.1059
vn -0.0813 0.9914 -0.1026
vn -0.4105 0.9116 0.0220
vn -0.0897 0.9951 -0.0419
vn -0.3789 0.9199 0.1014
vn -0.1131 0.9935 0.0103
vn -0.1175 0.9930 -0.0100
vn -0.0824 0.9856 0.1474
vn -0.4696 0.8479 0.2461
vn 0.3747 0.6702 0.6407
vn -0.2838 0.7934 -0.5385
vn -0.2100 0.5930 -0.7773
vn 0.5222 0.8469 0.1004
vn 0.8033 0.5888 -0.0897
vn 0.5279 0.8408 -0.1200
vn 0.7044 0.7061 0.0721
vn 0.5167 0.8551 0.0421
vn 0.6900 0.6925 0.2104
vn 0.9713 -0.2212 0.0879
vn -0.5381 0.1307 0.8327
vn 0.9634 -0.2577 -0.0737
vn -0.0618 0.8781 0.4744
vn -0.2364 0.9068 0.3490
vn -0.3140 0.6927 0.6493
vn -0.5436 0.7884 0.2880
vn -0.5222 0.8321 -0.1870
vn -0.1284 0.8991 0.4186
vn -0.1896 0.7639 0.6169
vn -0.1369 0.8882 0.4386
vn -0.3402 0.7542 0.5616
vn 0.4247 0.2126 0.8800
vn 0.6170 0.7658 0.1814
vn -0.7556 0.2354 0.6112
vn -0.4019 0.8244 0.3985
vn -0.7035 0.7096 0.0388
vn -0.3730 0.9114 0.1739
vn -0.6894 0.6917 0.2151
vn -0.4824 0.8628 0.1508
vn 0.3855 0.8205 -0.4220
vn 0.5016 0.8591 -0.1012
vn 0.4393 0.8302 -0.3431
vn 0.1415 0.8508 -0.5060
vn 0.0116 0.8665 -0.4991
vn -0.0855 0.8852 -0.4572
vn -0.1847 0.7194 -0.6695
vn 0.0057 0.6465 -0.7629
vn -0.3048 0.8603 -0.4087
vn -0.4804 0.7542 -0.4477
vn -0.4474 0.6530 -0.6111
vn -0.1858 0.8818 -0.4336
vn 0.1262 0.9711 -0.2025
vn 0.5731 0.8096 -0.1269
vn 0.1629 0.9748 -0.1525
vn 0.5314 0.7336 -0.4236
vn 0.1266 0.9768 -0.1729
vn 0.0631 0.9718 -0.2271
vn -0.3653 0.9018 -0.2308
vn -0.5849 0.7595 -0.2849
vn 0.5130 0.8088 -0.2877
vn 0.0849 0.9781 -0.1899
vn 0.4842 0.8518 -0.1997
vn 0.0902 0.9725 -0.2148
vn 0.1035 0.9788 -0.1767
vn 0.1529 0.9782 -0.1403
vn 0.0269 0.8618 -0.5065
vn 0.5301 0.8470 -0.0393
vn 0.4662 0.8728 -0.1443
vn -0.5209 0.8175 -0.2454
vn -0.2041 0.2253 0.9527
vn -0.3698 0.2514 0.8945
vn -0.1689 -0.2325 0.9578
vn -0.0329 -0.2093 0.9773
vn -0.9634 0.1685 0.2085
vn -0.9657 -0.2346 0.1116
vn -0.8898 0.2554 0.3782
vn -0.8318 -0.1473 0.5352
vn -0.2988 -0.5529 -0.7779
vn 0.6260 -0.0184 -0.7796
vn -0.8008 -0.0021 0.5989
vn -0.8217 0.5563 -0.1236
vn 0.5631 -0.1233 -0.8172
vn 0.8817 0.1171 -0.4570
vn 0.6800 -0.1394 -0.7199
vn 0.8175 0.1009 -0.5670
vn -0.4199 0.4217 0.8037
vn -0.3651 -0.4029 0.8393
vn 0.9566 0.0234 0.2905
vn 0.9176 -0.0953 0.3860
vn 0.9927 0.0814 0.0885
vn 0.9961 -0.0364 -0.0805
vn -0.4700 -0.1459 -0.8705
vn -0.0158 0.1962 -0.9804
vn -0.2399 -0.2078 -0.9483
vn -0.0338 0.1354 -0.9902
vn -0.9587 0.1296 -0.2531
vn -0.9354 -0.1119 -0.3356
vn -0.7206 0.1200 -0.6829
vn -0.8232 -0.1196 -0.5550
vn 0.9307 -0.1604 -0.3286
vn 0.7627 0.1364 -0.6322
vn -0.5861 0.3347 0.7379
vn -0.3551 -0.3163 0.8797
vn 0.3076 -0.1117 0.9449
vn 0.2468 0.1936 0.9495
vn 0.4973 -0.1873 0.8471
vn 0.6651 0.1113 0.7384
vn 0.2000 -0.0046 -0.9798
vn -0.2244 -0.0151 -0.9744
vn -0.9789 -0.1581 -0.1296
vn -0.8951 0.1709 -0.4118
vn 0.0172 -0.1154 0.9932
vn 0.4771 0.1316 0.8689
vn -0.7266 -0.6330 0.2671
vn 0.4602 0.6328 -0.6228
vn 0.8884 0.1564 0.4316
vn 0.9479 -0.1676 0.2710
vn 0.4616 0.0972 -0.8818
vn 0.7152 -0.1189 -0.6887
vn 0.3470 0.1315 0.9286
vn 0.2402 -0.1436 0.9600
vn -0.2347 0.1538 0.9598
vn -0.0961 -0.1199 0.9881
vn 0.7713 0.1113 -0.6266
vn -0.9324 -0.0786 0.3527
vn -0.9931 0.1025 0.0573
vn -0.9419 -0.0873 -0.3242
vn 0.7658 -0.0942 0.6361
vn 0.9461 0.0860 0.3121
vn 0.6300 -0.0173 -0.7764
vn 0.3212 0.0010 -0.9470
vn -0.9809 0.0082 -0.1945
vn -0.9790 0.0075 0.2037
vn -0.5429 0.3855 0.7461
vn -0.5099 -0.3652 0.7789
vn 0.2044 0.1867 -0.9609
vn 0.4109 -0.1832 -0.8931
vn 0.0725 0.1660 -0.9835
vn 0.0076 -0.2025 -0.9792
vn -0.9839 0.1773 -0.0207
vn -0.9456 -0.1587 0.2840
vn -0.6490 0.2981 0.6999
vn -0.6771 -0.2764 0.6821
vn 0.9357 0.0007 -0.3528
vn 0.9742 0.1291 0.1849
vn 0.9589 -0.1511 -0.2403
vn 0.9984 -0.0199 0.0537
vn 0.9829 -0.1583 -0.0938
vn 0.8956 0.1398 -0.4223
vn 0.6892 0.1294 0.7129
vn 0.8744 -0.1348 0.4661
vn -0.7026 0.0877 0.7062
vn -0.8734 -0.0652 0.4826
vn 0.5929 -0.1734 0.7864
vn 0.7906 0.1713 0.5878
vn -0.8909 0.2151 0.4000
vn -0.8018 -0.1943 0.5652
vn 0.1948 0.4938 -0.8475
vn -0.7425 -0.4983 -0.4476
vn 0.9015 0.2009 -0.3832
vn 0.9101 -0.2222 -0.3498
vn 0.5139 0.1909 0.8363
vn 0.6729 -0.1902 0.7149
vn 0.4527 0.1808 -0.8731
vn 0.2728 -0.2005 -0.9410
usemtl initialShadingGroup.001
s off
f 100/1/1 140/2/1 98/3/1
f 99/4/2 144/5/2 100/1/2
f 143/6/3 139/7/3 136/8/3
f 118/9/4 110/10/4 140/2/4
f 109/11/5 140/2/5 110/10/5
f 113/12/6 116/13/6 144/5/6
f 117/14/7 132/15/7 133/16/7
f 118/9/8 112/17/8 117/14/8
f 108/18/9 110/10/9 141/19/9
f 114/20/10 119/21/10 116/13/10
f 132/15/11 117/14/11 145/22/11
f 119/21/12 118/9/12 116/13/12
f 104/23/13 141/19/13 105/24/13
f 116/13/14 118/9/14 140/2/14
f 106/25/15 103/26/15 105/24/15
f 119/21/16 115/27/16 118/9/16
f 116/13/17 140/2/17 100/1/17
f 117/14/18 134/28/18 118/9/18
f 107/29/19 102/30/19 106/25/19
f 134/28/20 106/25/20 141/19/20
f 107/29/21 106/25/21 142/31/21
f 111/32/22 145/22/22 117/14/22
f 134/28/23 131/33/23 129/34/23
f 118/9/24 134/28/24 110/10/24
f 120/35/25 135/36/25 145/22/25
f 134/28/26 141/19/26 110/10/26
f 142/31/27 106/25/27 136/8/27
f 138/37/28 142/31/28 139/7/28
f 121/38/29 132/15/29 135/36/29
f 106/25/30 105/24/30 141/19/30
f 136/8/31 139/7/31 142/31/31
f 137/39/32 139/7/32 143/6/32
f 135/36/33 132/15/33 145/22/33
f 132/15/34 122/40/34 133/16/34
f 142/31/35 101/41/35 107/29/35
f 134/28/36 117/14/36 133/16/36
f 136/8/37 106/25/37 134/28/37
f 134/28/38 128/42/38 136/8/38
f 133/16/39 123/43/39 130/44/39
f 134/28/40 133/16/40 130/44/40
f 130/44/41 131/33/41 134/28/41
f 124/45/42 131/33/42 130/44/42
f 144/5/43 116/13/43 100/1/43
f 126/46/44 134/28/44 129/34/44
f 125/47/45 129/34/45 131/33/45
f 136/8/46 127/48/46 143/6/46
s 1
f 1/49/47 48/50/48 2/51/49 3/52/50
f 2/51/49 49/53/51 4/54/52 3/52/50
f 4/54/52 50/55/53 5/56/54 3/52/50
f 5/56/54 6/57/55 3/52/50
f 6/57/55 28/58/56 7/59/57 3/52/50
f 7/59/57 8/60/58 27/61/59 3/52/50
f 8/60/58 42/62/60 9/63/61 3/52/50 27/61/59
f 9/63/61 43/64/62 10/65/63 26/66/64 3/52/50
f 10/65/63 32/67/65 11/68/66 3/52/50 26/66/64
f 11/68/66 33/69/67 12/70/68 3/52/50
f 12/70/68 34/71/69 13/72/70 3/52/50
f 13/72/70 14/73/71 3/52/50
f 14/73/71 86/74/72 15/75/73 3/52/50
f 15/75/73 87/76/74 16/77/75 3/52/50
f 16/77/75 61/78/76 17/79/77 3/52/50
f 17/79/77 62/80/78 18/81/79 3/52/50
f 18/81/79 63/82/80 19/83/81 3/52/50
f 19/83/81 64/84/82 20/85/83 3/52/50
f 20/85/83 65/86/84 21/87/85 3/52/50
f 21/87/85 66/88/86 22/89/87 3/52/50
f 22/89/87 67/90/88 23/91/89 3/52/50
f 23/91/89 68/92/90 24/93/91 3/52/50
f 24/93/91 25/94/92 3/52/50
f 25/94/92 51/95/93 1/49/47 3/52/50
f 47/96/94 42/62/60 8/60/58 46/97/95
f 80/98/96 64/84/82 19/83/81 74/99/97
f 13/72/70 94/100/98 90/101/99 14/73/71
f 41/102/100 34/71/69 12/70/68 36/103/101
f 40/104/102 33/69/67 11/68/66 37/105/103
f 10/65/63 43/64/62 93/106/104 38/107/105 44/108/106
f 7/59/57 92/109/107 46/97/95 8/60/58
f 5/56/54 96/110/108 30/111/109 6/57/55
f 58/112/110 51/95/93 25/94/92 52/113/111
f 31/114/112 28/58/56 6/57/55 30/111/109
f 29/115/113 7/59/57 28/58/56 31/114/112
f 57/116/114 50/55/53 4/54/52 55/117/115
f 11/68/66 32/67/65 39/118/116 37/105/103
f 32/67/65 10/65/63 44/108/106 38/107/105 39/118/116
f 36/103/101 12/70/68 33/69/67 40/104/102
f 35/119/117 13/72/70 34/71/69 41/102/100
f 45/120/118 9/63/61 42/62/60 47/96/94
f 54/121/119 5/56/54 50/55/53 57/116/114
f 53/122/120 1/49/47 51/95/93 58/112/110
f 2/51/49 48/50/48 59/123/121 56/124/122
f 48/50/48 1/49/47 53/122/120 59/123/121
f 4/54/52 49/53/51 60/125/123 55/117/115
f 49/53/51 2/51/49 56/124/122 60/125/123
f 16/77/75 87/76/74 95/126/124 76/127/125 88/128/126
f 19/83/81 63/82/80 78/129/127 74/99/97
f 63/82/80 18/81/79 75/130/128 78/129/127
f 21/87/85 65/86/84 79/131/129 72/132/130
f 65/86/84 20/85/83 73/133/131 79/131/129
f 73/133/131 20/85/83 64/84/82 80/98/96
f 23/91/89 67/90/88 81/134/132 70/135/133
f 67/90/88 22/89/87 71/136/134 81/134/132
f 22/89/87 66/88/86 82/137/135 71/136/134
f 66/88/86 21/87/85 72/132/130 82/137/135
f 18/81/136 62/80/137 83/138/138 75/130/139
f 62/80/137 17/79/140 77/139/141 83/138/138
f 24/93/91 68/92/90 84/140/142 69/141/143
f 68/92/90 23/91/89 70/135/133 84/140/142
f 61/78/144 85/142/145 77/139/146 17/79/147
f 16/77/148 88/128/149 76/127/150 85/142/145 61/78/144
f 15/75/73 86/74/72 91/143/151 89/144/152
f 86/74/72 14/73/71 90/101/99 91/143/151
f 29/115/113 92/109/107 7/59/57
f 93/106/104 43/64/62 9/63/61 45/120/118
f 35/119/117 94/100/98 13/72/70
f 95/126/124 87/76/74 15/75/73 89/144/152
f 54/121/119 96/110/108 5/56/54
f 97/145/153 52/113/111 25/94/92
f 69/141/143 97/145/153 25/94/92 24/93/91
f 78/129/154 75/130/155 126/146/156 129/147/157
f 91/143/158 90/101/159 138/148/160 139/149/161
f 39/118/162 38/107/163 104/150/164 105/151/165
f 55/117/166 60/125/167 119/152/168 114/153/169
f 75/130/155 83/138/170 134/154/171 126/146/156
f 97/145/172 69/141/173 120/155/174 145/156/175
f 46/97/176 92/109/177 140/157/178 109/158/179
f 40/104/180 37/105/181 103/159/182 106/160/183
f 60/125/167 56/124/184 115/161/185 119/152/168
f 83/138/170 77/139/186 128/162/187 134/154/171
f 72/132/188 79/131/189 130/163/190 123/164/191
f 92/109/177 29/115/192 98/165/193 140/157/178
f 36/103/194 40/104/180 106/160/183 102/166/195
f 79/131/189 73/133/196 124/167/197 130/163/190
f 38/107/163 93/106/198 141/168/199 104/150/164
f 69/141/173 84/140/200 135/169/201 120/155/174
f 57/116/202 55/117/166 114/153/169 116/170/203
f 80/98/204 74/99/205 125/171/206 131/172/207
f 93/106/198 45/120/208 108/173/209 141/168/199
f 41/102/210 36/103/194 102/166/195 107/174/211
f 84/140/200 70/135/212 121/175/213 135/169/201
f 54/121/214 57/116/202 116/170/203 113/176/215
f 73/133/196 80/98/204 131/172/207 124/167/197
f 35/119/216 41/102/210 107/174/211 101/177/217
f 77/139/186 85/142/218 136/178/219 128/162/187
f 31/114/220 30/111/221 99/179/222 100/180/223
f 94/100/224 35/119/216 101/177/217 142/181/225
f 85/142/218 76/127/226 127/182/227 136/178/219
f 29/115/192 31/114/220 100/180/223 98/165/193
f 58/112/228 52/113/229 111/183/230 117/184/231
f 90/101/159 94/100/224 142/181/225 138/148/160
f 53/122/232 58/112/228 117/184/231 112/185/233
f 70/135/212 81/134/234 132/186/235 121/175/213
f 76/127/226 95/126/236 143/187/237 127/182/227
f 81/134/234 71/136/238 122/188/239 132/186/235
f 95/126/236 89/144/240 137/189/241 143/187/237
f 47/96/242 46/97/176 109/158/179 110/190/243
f 56/124/184 59/123/244 118/191/245 115/161/185
f 71/136/238 82/137/246 133/192/247 122/188/239
f 96/110/248 54/121/214 113/176/215 144/193/249
f 45/120/208 47/96/242 110/190/243 108/173/209
f 59/123/244 53/122/232 112/185/233 118/191/245
f 82/137/246 72/132/188 123/164/191 133/192/247
f 30/111/221 96/110/248 144/193/249 99/179/222
f 74/99/205 78/129/154 129/147/157 125/171/206
f 89/144/240 91/143/158 139/149/161 137/189/241
f 37/105/181 39/118/162 105/151/165 103/159/182
f 52/113/229 97/145/172 145/156/175 111/183/230
