# Blender v2.90.1 OBJ File: 'Sanctuary_Test_1.blend'
# www.blender.org
mtllib Sanctuary_Section_3_3.mtl
o SP2.009_SP2.013
v 3.027710 -0.420950 11.455136
v 5.911239 -0.434126 10.301082
v 8.435955 -0.427598 8.287266
v 10.268174 -0.454269 5.836125
v 11.512707 -0.430203 2.978426
v 11.776496 -0.396848 0.158245
v 11.001857 -0.944145 11.010282
v 13.470873 -0.984626 7.795970
v 13.404588 -0.830276 0.147728
v 12.996988 -0.845916 3.469119
v 11.540714 -0.876826 6.703863
v 9.445412 -0.866323 9.458859
v 6.801669 -0.948834 11.784071
v 3.554714 -0.876400 13.240731
v 6.589901 -0.336187 7.019528
v 4.476357 -0.309789 8.502585
v 2.404848 -0.318293 9.275116
v 6.831932 -0.335814 6.833678
v 4.830546 -0.311888 8.370498
v 1.872018 -0.337906 9.473825
v 8.471201 -0.416545 4.511407
v 8.594189 -0.415131 4.301522
v 6.997080 -0.337971 6.599721
v 9.176827 -0.350645 2.535639
v 9.572455 -0.360799 1.172327
v 8.733231 -0.408018 4.064243
v 14.991306 -0.953516 3.997609
v 15.156198 -0.970732 3.483696
v 15.023798 -0.954063 3.896343
v 14.697613 -0.964417 4.912960
v 15.054731 -0.964761 3.052489
v 9.138518 -0.882432 12.544275
v 3.963970 -0.861975 14.849227
v 7.251134 -0.845028 13.550727
v 7.689705 -0.856959 13.316856
v 3.303115 -0.855344 14.973248
v 10.336926 -0.934249 11.331340
v 6.422745 -0.848880 13.938167
v 4.831871 -0.856249 14.686351
v 1.894265 -0.965018 15.237644
v 13.560044 -0.845417 0.149830
v 13.391091 -0.832014 -0.041383
v 11.405942 -0.389831 0.151922
v 13.287189 -0.805826 -0.040831
v 10.189647 -0.381676 1.226823
v 11.754120 -0.397753 -0.032547
v 14.630486 -0.923995 2.985793
v 13.533992 -0.840169 0.447310
v 11.359440 -0.404958 1.330108
v 13.525551 -0.845152 -0.042130
v 13.434823 -0.847532 1.579620
v 13.332754 -0.855512 2.781753
v 11.427485 -0.391517 -0.030793
v 1.741523 -0.849000 14.418264
v 1.876604 -0.966978 15.244840
v 0.032248 -0.394407 11.793770
v 2.169074 -0.405344 10.868469
v 1.595773 -0.857645 13.526440
v 0.242030 -0.797997 13.530828
v 0.031244 -0.391389 11.536651
v 2.244294 -0.410241 11.221618
v 0.039119 -0.795977 13.552794
v 1.566990 -0.822734 13.387420
v 6.593831 -3.933881 7.020893
v 4.480287 -3.907484 8.503950
v 2.408778 -3.915987 9.276481
v 6.835861 -3.933509 6.835043
v 4.834476 -3.909582 8.371862
v 1.875947 -3.935600 9.475189
v 8.475131 -4.014240 4.512772
v 8.598119 -4.012825 4.302887
v 7.001009 -3.935665 6.601086
v 9.180758 -3.948339 2.537004
v 9.576385 -3.958493 1.173691
v 8.737161 -4.005712 4.065608
v 10.970380 -4.332474 10.996909
v 13.439396 -4.372955 7.782598
v 14.959829 -4.341845 3.984237
v 15.124721 -4.359060 3.470324
v 14.992321 -4.342392 3.882971
v 14.666136 -4.352746 4.899588
v 15.023254 -4.353090 3.039117
v 9.107041 -4.270761 12.530903
v 3.932493 -4.250304 14.835855
v 7.219657 -4.233357 13.537354
v 7.658227 -4.245287 13.303484
v 3.271637 -4.243673 14.959876
v 10.305449 -4.322578 11.317967
v 6.391268 -4.237209 13.924794
v 4.800394 -4.244577 14.672978
v 1.862788 -4.353346 15.224272
v 1.845127 -4.355307 15.231467
v 1.691682 -4.258939 14.414416
v -0.017593 -3.959080 11.789922
v 2.119233 -3.970016 10.864621
v 1.545932 -4.267584 13.522592
v 0.192190 -4.207936 13.526980
v -0.018597 -3.956062 11.532803
v 2.194453 -3.974913 11.217770
v -0.010722 -4.205916 13.548946
v 1.517150 -4.232674 13.383572
v 13.556091 -4.333383 0.242538
v 13.387138 -4.319979 0.051325
v 11.401989 -3.877797 0.244630
v 13.283236 -4.293791 0.051877
v 10.185694 -3.988072 1.319531
v 11.750167 -3.885718 0.060161
v 14.626534 -4.346898 3.078501
v 13.530039 -4.328134 0.540018
v 11.355487 -4.011353 1.422816
v 13.521598 -4.333117 0.050578
v 13.430870 -4.335497 1.672328
v 13.328801 -4.278415 2.874461
v 11.423532 -3.879482 0.061915
vt 0.227471 0.211666
vt 0.226680 0.222720
vt 0.224335 0.220575
vt 0.207674 0.241941
vt 0.205623 0.240929
vt 0.331149 0.167047
vt 0.301442 0.189808
vt 0.297912 0.190206
vt 0.293489 0.172024
vt 0.369631 0.173631
vt 0.338366 0.186538
vt 0.335359 0.186269
vt 0.329480 0.126849
vt 0.373012 0.154535
vt 0.329028 0.147092
vt 0.280393 0.133358
vt 0.285883 0.152665
vt 0.243799 0.167513
vt 0.207589 0.193416
vt 0.230246 0.156964
vt 0.235487 0.153597
vt 0.183471 0.227181
vt 0.193472 0.213869
vt 0.191849 0.212580
vt 0.257020 0.187562
vt 0.401391 0.189607
vt 0.411858 0.172351
vt 0.413151 0.174804
vt 0.403313 0.191063
vt 0.268109 0.204072
vt 0.264570 0.207063
vt 0.242230 0.225413
vt 0.236821 0.230435
vt 0.294489 0.191718
vt 0.380610 0.198587
vt 0.362520 0.192937
vt 0.341934 0.186964
vt 0.367010 0.133983
vt 0.378397 0.136950
vt 0.384652 0.138967
vt 0.388739 0.142383
vt 0.387506 0.145851
vt 0.379694 0.137350
vt 0.382463 0.156421
vt 0.396268 0.163195
vt 0.409287 0.169554
vt 0.252894 0.143811
vt 0.272721 0.137981
vt 0.196102 0.182805
vt 0.203517 0.175231
vt 0.221106 0.163225
vt 0.413814 0.173756
vt 0.399931 0.192219
vt 0.386925 0.185102
vt 0.383222 0.193874
vt 0.412545 0.171219
vt 0.414436 0.172794
vt 0.401948 0.193315
vt 0.184932 0.207538
vt 0.179263 0.202393
vt 0.179433 0.202247
vt 0.190547 0.189161
vt 0.182004 0.229170
vt 0.268109 0.204072
vt 0.264570 0.207063
vt 0.242230 0.225413
vt 0.236821 0.230435
vt 0.294489 0.191718
vt 0.297912 0.190206
vt 0.335359 0.186269
vt 0.301442 0.189808
vt 0.380610 0.198587
vt 0.362520 0.192937
vt 0.341934 0.186964
vt 0.338366 0.186538
vt 0.379694 0.137350
vt 0.384652 0.138967
vt 0.179263 0.202393
vt 0.179433 0.202247
vt 0.378397 0.136950
vt 0.230246 0.156964
vt 0.235487 0.153597
vt 0.190547 0.189161
vt 0.196102 0.182805
vt 0.272721 0.137981
vt 0.280393 0.133358
vt 0.252894 0.143811
vt 0.221106 0.163225
vt 0.203517 0.175231
vt 0.329480 0.126849
vt 0.367010 0.133983
vt 0.388739 0.142383
vt 0.224335 0.220575
vt 0.207674 0.241941
vt 0.183471 0.227181
vt 0.193472 0.213869
vt 0.205623 0.240929
vt 0.182004 0.229170
vt 0.226680 0.222720
vt 0.191849 0.212580
vt 0.184932 0.207538
vt 0.179263 0.202393
vt 0.403313 0.191063
vt 0.401948 0.193315
vt 0.412545 0.171219
vt 0.414436 0.172794
vt 0.383222 0.193874
vt 0.413814 0.173756
vt 0.413151 0.174804
vt 0.396268 0.163195
vt 0.409287 0.169554
vt 0.386925 0.185102
vt 0.382463 0.156421
vt 0.399931 0.192219
vt 0.387506 0.145851
vn 0.0309 0.9898 0.1388
vn -0.7194 0.6730 0.1719
vn -0.6691 0.5840 -0.4597
vn -0.6061 0.5958 -0.5269
vn -0.6541 0.7506 0.0935
vn 0.0863 0.9917 0.0950
vn -0.0028 0.9999 0.0152
vn 0.0179 0.9997 -0.0175
vn 0.1592 0.9847 0.0709
vn 0.0951 0.9931 0.0679
vn 0.0612 0.9980 0.0139
vn 0.0366 0.9985 0.0407
vn -0.1173 0.9908 -0.0679
vn 0.1696 0.9854 -0.0183
vn 0.0635 0.9972 0.0396
vn -0.1102 0.9881 -0.1071
vn 0.0506 0.9972 0.0546
vn 0.0300 0.9926 0.1178
vn -0.0013 0.9944 0.1061
vn 0.0701 0.9974 -0.0176
vn -0.0068 0.9904 -0.1381
vn 0.1607 0.6190 0.7688
vn -0.3586 0.5516 0.7531
vn -0.7544 0.6182 0.2207
vn 0.0557 0.9829 0.1752
vn 0.1398 0.9885 0.0568
vn 0.2528 0.9675 -0.0107
vn 0.2204 0.6063 -0.7641
vn 0.0238 0.7068 -0.7070
vn 0.0305 0.9956 0.0889
vn -0.0042 0.9981 0.0611
vn -0.0135 0.9971 0.0750
vn -0.3928 0.8957 0.2086
vn 0.0075 0.9980 0.0635
vn 0.2036 0.8238 -0.5291
vn 0.0027 0.9998 -0.0200
vn 0.0255 0.9987 0.0449
vn -0.0778 0.9964 -0.0343
vn -0.0104 0.9954 -0.0952
vn -0.0959 0.9948 -0.0346
vn 0.6574 0.7534 -0.0157
vn 0.2119 0.7850 -0.5822
vn 0.1944 0.9790 -0.0621
vn 0.6757 0.5647 -0.4738
vn 0.7220 0.6887 0.0668
vn 0.6755 0.7152 0.1792
vn -0.1033 0.9801 -0.1695
vn -0.0110 0.9985 -0.0535
vn 0.0292 0.9960 -0.0845
vn -0.0079 0.9999 -0.0070
vn 0.1342 0.6014 -0.7876
vn -0.7076 0.7066 0.0078
vn -0.5477 0.5630 -0.6190
vn 0.1302 0.7208 -0.6808
vn 0.7446 0.6596 0.1026
vn 0.5434 0.5453 -0.6383
vn -0.5347 0.5802 -0.6144
vn -0.6589 0.7034 0.2666
vn -0.7754 0.5950 0.2117
vn -0.0489 0.9876 0.1490
vn 0.0697 0.9877 0.1397
vn -0.5490 0.5074 0.6642
vn -0.3226 -0.0041 -0.9465
vn -0.4652 -0.0371 -0.8844
vn -0.5032 0.0354 -0.8634
vn -0.3760 0.0024 -0.9266
vn -0.3299 -0.0221 -0.9437
vn -0.3689 0.0203 -0.9293
vn -0.2767 0.0478 -0.9598
vn -0.5814 -0.0095 -0.8136
vn -0.6359 0.0079 -0.7718
vn -0.7359 0.0365 -0.6761
vn -0.7052 -0.0387 -0.7080
vn -0.8004 0.0291 -0.5987
vn -0.8260 -0.0365 -0.5625
vn -0.8534 0.0346 -0.5201
vn -0.8320 -0.0316 -0.5539
vn -0.9692 0.0357 -0.2436
vn -0.9696 -0.0504 -0.2394
vn -0.9492 -0.0387 -0.3124
vn -0.8761 -0.0396 -0.4806
vn -0.9196 -0.0012 -0.3930
vn -0.9176 -0.0012 -0.3974
vn -0.8477 0.0375 -0.5292
vn 0.9724 -0.2232 0.0687
vn 0.9107 0.0971 0.4016
vn 0.9716 -0.1187 0.2047
vn 0.9787 0.2048 0.0097
vn 0.2768 -0.0064 0.9609
vn 0.3780 -0.0072 0.9258
vn 0.2888 -0.0065 0.9574
vn 0.9162 -0.1013 0.3877
vn 0.9727 0.0806 0.2175
vn 0.4322 -0.0800 0.8982
vn 0.3995 0.0549 0.9151
vn 0.4911 -0.0709 0.8682
vn 0.5051 0.0644 0.8606
vn 0.1411 -0.0745 0.9872
vn 0.1319 0.1248 0.9834
vn 0.2314 -0.1368 0.9632
vn 0.2261 0.0636 0.9720
vn 0.6348 -0.2072 0.7444
vn 0.5828 -0.0086 0.8125
vn 0.5799 -0.0086 0.8147
vn 0.6015 0.1897 0.7761
vn 0.5888 -0.1670 0.7908
vn 0.5911 0.1498 0.7925
vn 0.4246 -0.0075 0.9053
vn 0.3085 -0.0066 0.9512
vn 0.3065 -0.0066 0.9518
vn 0.8459 -0.2042 0.4928
vn 0.8481 0.1845 0.4967
vn 0.9219 -0.1505 0.3571
vn 0.9336 0.1305 0.3336
vn 0.9828 -0.0557 -0.1760
vn -0.8168 0.0120 -0.5768
vn -0.7594 0.0113 -0.6505
vn 0.1132 -0.0627 0.9916
vn -0.6382 0.0085 0.7698
vn -0.9999 0.0061 -0.0100
vn -0.6279 0.0081 0.7783
vn -0.9811 0.0399 0.1894
vn -0.9789 0.0850 0.1858
vn -0.9973 -0.0266 0.0682
vn -0.9865 0.0142 0.1632
vn 0.0273 0.0109 -0.9996
vn -0.6665 -0.0191 -0.7452
vn 0.9878 0.0778 -0.1352
vn 0.6641 -0.0206 -0.7474
vn 0.0590 -0.0670 -0.9960
vn 0.0311 0.0224 -0.9993
vn 0.0262 0.0297 -0.9992
vn 0.9963 0.0012 0.0859
vn 0.9938 0.1006 0.0478
vn -0.6293 -0.0193 -0.7770
vn 0.7801 -0.0178 -0.6254
vn -0.9930 -0.0343 -0.1134
vn 0.2756 -0.0208 -0.9611
usemtl initialShadingGroup.013
s 1
f 1/1/1 57/2/2 61/3/3 60/4/4 56/5/5
f 4/6/6 23/7/7 18/8/8 3/9/9
f 5/10/10 22/11/11 21/12/12 4/6/6
f 8/13/13 10/14/14 11/15/15
f 8/13/13 11/15/15 7/16/16
f 7/16/16 11/15/15 12/17/17
f 13/18/18 7/16/16 12/17/17
f 14/19/19 34/20/20 35/21/21 13/18/18
f 1/1/1 59/22/22 63/23/23 58/24/24 14/19/19
f 1/1/1 14/19/19 2/25/25
f 2/25/25 14/19/19 13/18/18
f 3/9/9 2/25/25 12/17/17
f 12/17/17 2/25/25 13/18/18
f 4/6/6 3/9/9 11/15/15
f 11/15/15 3/9/9 12/17/17
f 5/10/10 4/6/6 10/14/14
f 10/14/14 4/6/6 11/15/15
f 6/26/26 5/10/10 9/27/27
f 9/27/27 5/10/10 10/14/14
f 6/26/26 9/27/27 44/28/28 46/29/29
f 19/30/30 16/31/31 1/1/1 2/25/25
f 17/32/32 20/33/33 57/2/2 1/1/1
f 15/34/34 19/30/30 2/25/25
f 18/8/8 15/34/34 2/25/25 3/9/9
f 16/31/31 17/32/32 1/1/1
f 21/12/12 23/7/7 4/6/6
f 5/10/10 25/35/35 24/36/36
f 24/36/36 26/37/37 22/11/11 5/10/10
f 30/38/38 27/39/39 10/14/14 8/13/13
f 28/40/40 31/41/41 47/42/42 29/43/43
f 27/39/39 29/43/43 47/42/42 52/44/44 51/45/45 48/46/46 9/27/27 10/14/14
f 35/21/21 32/47/47 37/48/48 7/16/16 13/18/18
f 33/49/49 39/50/50 38/51/50 34/20/20 14/19/19
f 42/52/51 44/28/28 9/27/27
f 43/53/52 49/54/53 45/55/54 5/10/10 6/26/26
f 48/46/46 41/56/55 9/27/27
f 41/56/55 50/57/56 42/52/51 9/27/27
f 45/55/54 25/35/35 5/10/10
f 46/29/29 53/58/57 43/53/52 6/26/26
f 54/59/58 55/60/59 40/61/60 36/62/61
f 56/5/5 62/63/62 59/22/22 1/1/1
f 58/24/24 54/59/58 36/62/61 33/49/49 14/19/19
f 16/31/63 19/30/64 68/64/65 65/65/66
f 20/33/33 17/32/67 66/66/68 69/67/69
f 19/30/64 15/34/70 64/68/71 68/64/65
f 15/34/70 18/8/72 67/69/73 64/68/71
f 17/32/67 16/31/63 65/65/66 66/66/68
f 23/7/74 21/12/75 70/70/76 72/71/77
f 24/36/78 25/35/35 74/72/79 73/73/80
f 18/8/72 23/7/74 72/71/77 67/69/73
f 22/11/81 26/37/82 75/74/83 71/75/84
f 26/37/82 24/36/78 73/73/80 75/74/83
f 21/12/75 22/11/81 71/75/84 70/70/76
f 28/40/85 29/43/86 80/76/87 79/77/88
f 40/61/89 55/60/90 92/78/90 91/79/91
f 29/43/86 27/39/92 78/80/93 80/76/87
f 35/21/94 34/20/95 85/81/96 86/82/97
f 33/49/98 36/62/99 87/83/100 84/84/101
f 7/16/102 37/48/103 88/85/104 76/86/105
f 37/48/103 32/47/106 83/87/107 88/85/104
f 32/47/106 35/21/94 86/82/97 83/87/107
f 34/20/95 38/51/108 89/88/108 85/81/96
f 38/51/108 39/50/109 90/89/110 89/88/108
f 8/13/111 7/16/102 76/86/105 77/90/112
f 39/50/109 33/49/98 84/84/101 90/89/110
f 36/62/99 40/61/89 91/79/91 87/83/100
f 30/38/113 8/13/111 77/90/112 81/91/114
f 27/39/92 30/38/113 81/91/114 78/80/93
f 31/41/41 28/40/85 79/77/88 82/92/115
f 60/4/4 61/3/3 99/93/116 98/94/117
f 63/23/23 59/22/22 97/95/118 101/96/119
f 62/63/62 56/5/5 94/97/120 100/98/121
f 61/3/3 57/2/2 95/99/122 99/93/116
f 54/59/58 58/24/24 96/100/123 93/101/124
f 57/2/2 20/33/33 69/67/69 95/99/122
f 55/60/59 54/59/58 93/101/124 91/102/125
f 56/5/5 60/4/4 98/94/117 94/97/120
f 58/24/24 63/23/23 101/96/119 96/100/123
f 59/22/22 62/63/62 100/98/121 97/95/118
f 53/58/57 46/29/29 107/103/126 114/104/127
f 50/57/56 41/56/55 102/105/128 111/106/129
f 25/35/35 45/55/54 106/107/130 74/72/79
f 44/28/28 42/52/51 103/108/131 105/109/132
f 48/46/46 51/45/45 112/110/133 109/111/134
f 45/55/54 49/54/53 110/112/135 106/107/130
f 51/45/45 52/44/44 113/113/136 112/110/133
f 49/54/53 43/53/52 104/114/137 110/112/135
f 52/44/44 47/42/42 108/115/138 113/113/136
f 41/56/55 48/46/46 109/111/134 102/105/128
f 46/29/29 44/28/28 105/109/132 107/103/126
f 47/42/42 31/41/41 82/92/115 108/115/138
f 43/53/52 53/58/57 114/104/127 104/114/137
f 42/52/51 50/57/56 111/106/129 103/108/131
