# Blender v2.90.1 OBJ File: 'Sanctuary_Test_1.blend'
# www.blender.org
mtllib Sanctuary_Section_2_4.mtl
o SP2.004_SP2.008
v -7.212798 0.584127 1.872941
v -5.804450 0.620492 1.549329
v -6.432636 0.589558 3.766378
v -5.191426 0.618427 3.019897
v -5.298323 0.560871 5.290009
v -4.272933 0.572899 4.252788
v -1.890652 0.587159 7.238625
v -0.026842 0.602021 7.420523
v -1.491030 0.601893 5.813893
v -0.015959 0.613994 5.990518
v -9.005906 -0.337595 2.409031
v -8.086945 -0.300687 4.662316
v -6.632069 -0.403631 6.580671
v -4.702100 -0.405558 8.066794
v -2.318737 -0.341260 9.140718
v -0.007978 -0.365776 9.380989
v -3.079237 0.601893 5.177455
v -3.812734 0.567437 6.380407
v -0.753495 0.607944 5.902205
v -0.010457 0.410577 5.781780
v -1.452903 0.398744 5.604790
v -4.112846 0.380400 4.077139
v -2.285133 0.601893 5.495674
v -3.676085 0.587396 4.715121
v -2.903944 0.425450 4.911181
v -0.731680 0.404660 5.693285
v -2.178423 0.412097 5.257986
v -3.508395 0.402925 4.494160
v -5.497938 0.619459 2.284613
v -4.732180 0.595663 3.636343
v -5.003636 0.436675 2.895173
v -5.584688 0.426281 1.492856
v -4.192889 0.476650 4.164964
v -5.294162 0.431478 2.194015
v -5.678125 0.434798 0.749838
v -4.558242 0.408537 3.486155
v -2.360849 -0.345849 9.275676
v -6.571266 -0.404212 6.906622
v -6.932039 -0.409159 6.534213
v -0.023341 -0.367596 9.549971
v -6.774525 -0.406891 6.724696
v 0.230394 -0.370108 9.543858
v -8.519997 -0.317856 4.467123
v -8.345754 -0.320966 4.824604
v -9.372827 -0.343685 2.115524
v -2.164119 -0.345023 9.339307
v -2.570734 -0.345996 9.207790
v -4.807688 -0.405921 8.236815
v -9.213168 -0.345774 2.466149
v -1.099284 -0.357783 9.575891
v -3.957178 -0.381385 8.759352
v -5.692327 -0.405294 7.693312
v 0.487088 -1.937383 5.735516
v -0.029519 -1.929882 5.803111
v -1.471965 -1.941714 5.626121
v -4.131908 -1.960058 4.098470
v -2.923006 -1.915008 4.932512
v -0.750742 -1.935798 5.714616
v -2.197485 -1.928361 5.279316
v -3.527457 -1.937533 4.515491
v -5.022698 -1.903784 2.916504
v -5.603750 -1.914177 1.514187
v -5.313224 -1.908980 2.215346
v -5.697187 -1.905660 0.771169
v -4.577304 -1.931921 3.507486
v -2.358671 -1.913620 9.275602
v -6.569088 -1.971983 6.906549
v -6.929861 -1.976930 6.534139
v -0.021162 -1.935367 9.549897
v -6.772346 -1.974662 6.724623
v 0.232572 -1.937879 9.543784
v -8.517818 -1.885627 4.467050
v -8.343575 -1.888737 4.824531
v -9.370648 -1.911456 2.115451
v 0.486549 -1.938631 5.735597
v -2.161941 -1.912794 9.339233
v -2.568556 -1.913767 9.207717
v -4.805510 -1.973692 8.236742
v -9.210990 -1.913545 2.466076
v -1.097106 -1.925554 9.575818
v -3.955000 -1.949156 8.759278
v -5.690149 -1.973065 7.693238
v -1.178122 -0.353361 9.259318
v -3.909090 -0.384165 8.424118
v -3.878780 -0.114845 7.824269
v -5.445320 -0.404816 7.494497
v -5.710329 0.436421 0.531417
v -7.350399 0.584795 0.712295
v -9.479761 -0.295773 0.947143
v -5.938993 0.618590 0.556640
v -8.331764 0.107936 0.820538
v -9.093199 -0.273214 0.904510
v -6.404352 0.606660 0.607969
v 0.511890 0.401721 5.713444
v 0.953904 -1.923729 9.513012
v 0.535995 0.601730 5.920652
v 0.702569 0.591043 7.352527
v 0.944015 -0.351663 9.427999
v 0.774287 0.293939 7.968988
v 0.631281 0.592507 6.739730
v 0.953902 -0.355916 9.512992
v 0.922764 -0.342523 9.245329
v -5.749537 -1.903023 0.416111
v -9.478395 -1.863181 0.938202
vt 0.272274 0.374570
vt 0.260156 0.355677
vt 0.281220 0.365636
vt 0.271067 0.350698
vt 0.276143 0.358167
vt 0.251979 0.336384
vt 0.264474 0.334314
vt 0.267770 0.342506
vt 0.253558 0.293240
vt 0.261035 0.273303
vt 0.265227 0.295650
vt 0.271705 0.280030
vt 0.268466 0.287840
vt 0.270149 0.270127
vt 0.275633 0.274972
vt 0.243743 0.398543
vt 0.245259 0.403398
vt 0.242252 0.399869
vt 0.225725 0.378243
vt 0.225753 0.373006
vt 0.222892 0.374345
vt 0.211259 0.348173
vt 0.212112 0.344917
vt 0.210347 0.345354
vt 0.211078 0.325656
vt 0.210025 0.342119
vt 0.208458 0.327141
vt 0.211673 0.301988
vt 0.209016 0.300293
vt 0.212465 0.281186
vt 0.214167 0.278712
vt 0.213038 0.278579
vt 0.219354 0.264908
vt 0.213393 0.276105
vt 0.217216 0.262710
vt 0.270391 0.324136
vt 0.265456 0.325316
vt 0.266439 0.316318
vt 0.269484 0.316198
vt 0.270648 0.307406
vt 0.265833 0.305984
vt 0.281934 0.353375
vt 0.286839 0.359797
vt 0.270999 0.397957
vt 0.260595 0.409010
vt 0.224675 0.250746
vt 0.252547 0.316213
vt 0.210430 0.313594
vt 0.223060 0.307633
vt 0.274994 0.291484
vt 0.271811 0.298615
vt 0.278176 0.284354
vt 0.271298 0.332075
vt 0.267886 0.333194
vt 0.277030 0.346954
vt 0.292243 0.365023
vt 0.274164 0.339514
vt 0.224895 0.247677
vt 0.230151 0.240078
vt 0.230826 0.240461
vt 0.223225 0.250244
vt 0.274994 0.291484
vt 0.271811 0.298615
vt 0.270648 0.307406
vt 0.277030 0.346954
vt 0.281934 0.353375
vt 0.269484 0.316198
vt 0.286839 0.359797
vt 0.281689 0.279984
vt 0.281647 0.280037
vt 0.278176 0.284354
vt 0.270391 0.324136
vt 0.271298 0.332075
vt 0.281650 0.280033
vt 0.292243 0.365023
vt 0.274164 0.339514
vt 0.245259 0.403398
vt 0.242252 0.399869
vt 0.210347 0.345354
vt 0.210025 0.342119
vt 0.222892 0.374345
vt 0.211259 0.348173
vt 0.223225 0.250244
vt 0.224895 0.247677
vt 0.213393 0.276105
vt 0.217216 0.262710
vt 0.258148 0.411842
vt 0.258246 0.411906
vt 0.208458 0.327141
vt 0.225725 0.378243
vt 0.208690 0.313677
vt 0.208690 0.313677
vt 0.212465 0.281186
vt 0.213038 0.278579
vt 0.209016 0.300293
vt 0.232276 0.241283
vt 0.255204 0.257580
vt 0.265827 0.266891
vt 0.294241 0.366529
vt 0.290483 0.372184
vt 0.282811 0.381753
vt 0.288076 0.375445
vt 0.230135 0.240101
vt 0.295492 0.367471
vn -0.2443 0.9684 0.0498
vn -0.2259 0.9637 0.1420
vn 0.3517 0.9306 0.1013
vn 0.1095 0.9926 -0.0516
vn 0.1519 0.9875 -0.0416
vn -0.1567 0.9718 0.1765
vn 0.1412 0.9814 -0.1301
vn 0.3917 0.9165 -0.0818
vn -0.0626 0.9676 0.2447
vn 0.0034 0.9534 0.3017
vn 0.0485 0.9770 -0.2077
vn 0.0055 0.9897 -0.1429
vn -0.0558 0.9669 -0.2488
vn 0.6897 0.6939 -0.2068
vn 0.4020 0.8313 -0.3838
vn -0.1986 0.9794 0.0356
vn -0.0671 0.9970 0.0373
vn -0.0479 0.9982 0.0349
vn -0.0733 0.9967 0.0352
vn -0.1684 0.9800 0.1063
vn -0.0495 0.9948 0.0886
vn -0.0638 0.9964 0.0551
vn -0.1445 0.9769 0.1573
vn -0.0149 0.9984 0.0554
vn -0.1294 0.9753 0.1791
vn -0.0467 0.9989 -0.0071
vn -0.0004 1.0000 0.0019
vn -0.0946 0.9777 0.1875
vn -0.0218 0.9997 -0.0114
vn -0.0405 0.9991 -0.0092
vn -0.0435 0.9833 0.1767
vn -0.0395 0.9985 0.0383
vn -0.0181 0.9842 0.1760
vn -0.0287 0.9996 0.0076
vn 0.0094 0.9999 0.0116
vn 0.0849 0.9781 -0.1900
vn 0.3257 0.9413 -0.0890
vn 0.1178 0.9746 -0.1902
vn 0.4185 0.8949 -0.1548
vn 0.1628 0.9748 -0.1526
vn 0.1412 0.9735 -0.1799
vn 0.0793 0.9795 -0.1850
vn 0.3015 0.9335 -0.1943
vn 0.5301 0.8470 -0.0393
vn 0.8033 0.5888 -0.0896
vn -0.4321 0.6298 -0.6455
vn -0.2946 0.7702 -0.5657
vn -0.0354 0.9693 0.2435
vn 0.0492 0.9767 -0.2088
vn -0.0517 0.9764 -0.2099
vn 0.1308 0.9618 -0.2403
vn -0.0626 0.9676 0.2446
vn -0.1007 0.9808 0.1671
vn 0.0001 0.9581 -0.2863
vn 0.1403 0.9817 -0.1285
vn -0.1007 0.9808 0.1670
vn -0.1199 0.9739 0.1928
vn -0.1032 0.9726 0.2081
vn 0.1415 0.8508 -0.5060
vn 0.1085 0.8072 -0.5803
vn -0.2102 0.5919 -0.7781
vn 0.5126 0.8186 -0.2590
vn 0.0601 0.9551 -0.2903
vn 0.1681 0.9776 -0.1269
vn 0.1816 0.9767 -0.1147
vn 0.1856 0.9694 -0.1609
vn 0.4662 0.8728 -0.1443
vn 0.5222 0.8469 0.1004
vn 0.4382 0.8303 -0.3443
vn 0.3855 0.8205 -0.4221
vn 0.4373 0.8304 -0.3453
vn 0.0195 0.9987 0.0480
vn 0.6122 0.5684 0.5496
vn 0.6798 0.7315 -0.0516
vn 0.0386 0.9990 0.0239
vn 0.4276 0.1978 -0.8821
vn 0.0339 -0.2283 -0.9730
vn 0.2031 0.2088 -0.9566
vn 0.1102 -0.2170 -0.9699
vn 0.3028 -0.4185 -0.8562
vn 0.4800 0.3972 -0.7822
vn 0.8321 -0.1712 -0.5275
vn 0.8080 -0.1926 -0.5567
vn 0.8943 0.1690 -0.4144
vn 0.9647 0.1498 -0.2168
vn 0.6324 0.2359 -0.7378
vn 0.3262 -0.2618 -0.9083
vn 0.9072 0.2107 -0.3641
vn 0.9645 -0.2296 -0.1303
vn 0.2120 0.1219 -0.9696
vn 0.2303 0.3639 -0.9025
vn -0.2546 0.2199 -0.9417
vn -0.2178 -0.1427 -0.9655
vn 0.5557 -0.3838 -0.7375
vn 0.4979 0.3613 -0.7884
vn 0.7092 -0.2606 -0.6550
vn 0.6308 0.2376 -0.7387
vn 0.3831 -0.0100 -0.9236
vn 0.9428 -0.1439 -0.3007
vn 0.9914 0.1254 0.0366
vn 0.8666 -0.0984 -0.4891
vn 0.7100 0.0748 -0.7002
vn -0.9349 0.0176 0.3546
vn -0.9648 0.0157 0.2624
vn -0.9680 -0.0183 0.2501
vn -0.9215 -0.0200 0.3879
vn -0.6379 0.0203 0.7698
vn -0.7468 0.0340 0.6642
vn -0.6928 -0.0361 0.7202
vn -0.6945 -0.0225 0.7191
vn -0.7531 0.0242 0.6575
vn -0.8537 0.0246 0.5201
vn -0.8268 -0.0274 0.5618
vn -0.7876 -0.0257 0.6157
vn 0.0019 0.0058 1.0000
vn -0.0043 0.0132 0.9999
vn 0.0525 -0.0133 0.9985
vn 0.0649 -0.0049 0.9979
vn -0.0980 -0.0002 0.9952
vn -0.2290 0.0023 0.9734
vn -0.2959 -0.0036 0.9552
vn -0.0962 -0.0002 0.9954
vn -0.6581 0.5934 -0.4634
vn -0.7997 -0.0993 -0.5921
vn -0.5977 -0.0009 0.8017
vn -0.5975 -0.0009 0.8019
vn -0.9280 0.0378 0.3707
vn -0.9176 -0.0404 0.3954
vn -0.5041 0.1204 0.8552
vn -0.5352 -0.1219 0.8359
vn -0.2853 0.0158 0.9583
vn -0.2874 0.0008 0.9578
vn -0.3279 -0.0022 0.9447
vn -0.3300 -0.0167 0.9438
vn -0.4170 -0.0006 0.9089
vn -0.4202 -0.0006 0.9074
vn 0.6577 0.7521 0.0415
vn 0.6477 0.7483 0.1433
vn 0.7143 0.6866 0.1355
vn -0.0627 0.9676 0.2446
vn -0.1199 0.9739 0.1927
vn -0.0907 0.9920 0.0875
vn 0.7703 0.4078 -0.4903
vn 0.2096 0.8392 -0.5019
vn -0.2685 0.7316 -0.6266
vn -0.1666 0.7531 -0.6365
vn 0.7692 -0.0438 0.6375
vn 0.6091 0.2955 -0.7360
usemtl initialShadingGroup.008
s 1
f 1/1/1 3/2/2 2/3/3
f 2/3/3 3/2/2 4/4/4 29/5/5
f 5/6/6 6/7/7 3/2/2
f 3/2/2 6/7/7 30/8/8 4/4/4
f 7/9/9 8/10/10 9/11/11
f 9/11/11 8/10/10 10/12/12 19/13/13
f 8/10/10 100/14/14 96/15/15 10/12/12
f 11/16/16 45/17/17 49/18/18
f 11/16/16 49/18/18 43/19/19 12/20/20
f 12/20/20 43/19/19 44/21/21
f 12/20/20 44/21/21 39/22/22 13/23/23
f 13/23/23 39/22/22 41/24/24
f 86/25/25 13/23/23 38/26/26 52/27/27
f 84/28/28 51/29/29 47/30/30 15/31/31
f 15/31/31 47/30/30 37/32/32
f 83/33/33 15/31/31 46/34/34 50/35/35
f 28/36/36 24/37/37 17/38/38 25/39/39
f 27/40/40 25/39/41 17/38/42 23/41/43
f 34/42/44 32/43/45 2/3/3 29/5/5
f 11/16/16 1/1/1 91/44/46 92/45/47
f 11/16/16 12/20/20 1/1/1
f 1/1/1 12/20/20 3/2/2
f 13/23/23 5/6/6 12/20/20
f 12/20/20 5/6/6 3/2/2
f 83/33/33 16/46/48 7/9/9
f 7/9/9 16/46/48 8/10/10
f 9/11/49 23/41/50 17/38/51 7/9/52
f 7/9/52 17/38/51 18/47/53
f 17/38/51 24/37/54 6/7/55 18/47/56
f 18/47/56 6/7/55 5/6/6
f 5/6/6 13/23/23 18/47/53
f 18/47/53 13/23/23 86/25/25
f 18/47/53 14/48/57 85/49/58
f 85/49/58 14/48/57 84/28/28
f 26/50/59 21/51/60 9/11/11 19/13/13
f 20/52/61 26/50/59 19/13/13 10/12/12
f 21/51/62 27/40/40 23/41/43 9/11/63
f 22/53/64 33/54/65 6/7/66 24/37/37 28/36/36
f 31/55/67 34/42/44 29/5/5 4/4/4
f 32/43/45 35/56/68 2/3/3
f 22/53/69 36/57/70 30/8/8 6/7/7 33/54/71
f 30/8/8 36/57/70 31/55/67 4/4/4
f 42/58/72 101/59/73 98/60/74 16/46/48
f 41/24/24 38/26/26 13/23/23
f 40/61/75 42/58/72 16/46/48
f 37/32/32 46/34/34 15/31/31
f 21/51/76 26/50/77 58/62/78 55/63/79
f 27/40/80 21/51/76 55/63/79 59/64/81
f 34/42/82 31/55/83 61/65/84 63/66/85
f 25/39/86 27/40/80 59/64/81 57/67/87
f 32/43/88 34/42/82 63/66/85 62/68/89
f 20/52/90 94/69/91 75/70/92 54/71/93
f 28/36/94 25/39/86 57/67/87 60/72/95
f 22/53/96 28/36/94 60/72/95 56/73/97
f 75/70/92 94/69/91 53/74/98
f 35/56/99 32/43/88 62/68/89 64/75/100
f 36/57/101 22/53/96 56/73/97 65/76/102
f 26/50/77 20/52/90 54/71/93 58/62/78
f 31/55/83 36/57/101 65/76/102 61/65/84
f 49/18/103 45/17/104 74/77/105 79/78/106
f 38/26/107 41/24/108 70/79/109 67/80/110
f 39/22/111 44/21/112 73/81/113 68/82/114
f 42/58/115 40/61/116 69/83/117 71/84/118
f 50/35/119 46/34/120 76/85/121 80/86/122
f 40/61/116 50/35/119 80/86/122 69/83/117
f 45/17/104 89/87/123 104/88/124 74/77/105
f 52/27/125 38/26/107 67/80/110 82/89/126
f 44/21/112 43/19/127 72/90/128 73/81/113
f 48/91/129 52/27/125 82/89/126 78/92/130
f 37/32/131 47/30/132 77/93/133 66/94/134
f 41/24/108 39/22/111 68/82/114 70/79/109
f 43/19/127 49/18/103 79/78/106 72/90/128
f 46/34/120 37/32/131 66/94/134 76/85/121
f 51/29/135 48/91/129 78/92/130 81/95/136
f 47/30/132 51/29/135 81/95/136 77/93/133
f 16/46/48 102/96/137 99/97/138 8/10/10
f 8/10/10 99/97/138 97/98/139
f 16/46/48 83/33/33 50/35/35 40/61/75
f 15/31/31 83/33/33 7/9/9
f 7/9/140 85/49/58 84/28/28 15/31/31
f 14/48/141 48/91/142 51/29/29 84/28/28
f 7/9/140 18/47/53 85/49/58
f 14/48/141 86/25/25 52/27/27 48/91/142
f 14/48/141 18/47/53 86/25/25
f 87/99/143 90/100/144 2/3/3 35/56/68
f 88/101/145 91/44/46 1/1/1
f 90/100/144 93/102/146 1/1/1 2/3/3
f 92/45/47 89/87/123 45/17/17 11/16/16
f 93/102/146 88/101/145 1/1/1
f 96/15/15 94/69/91 20/52/61 10/12/12
f 97/98/139 100/14/14 8/10/10
f 98/60/74 102/96/137 16/46/48
f 95/103/147 101/59/73 42/58/115 71/84/118
f 103/104/148 87/99/143 35/56/99 64/75/100
f 53/74/98 94/69/91 96/15/15 100/14/14 97/98/139 99/97/138 102/96/137 98/60/74 101/59/73 95/103/147
f 90/100/144 87/99/143 103/104/148 104/88/124 89/87/123 92/45/47 91/44/46 88/101/145 93/102/146
