# Blender v2.90.1 OBJ File: 'Stone_Small_and_big.blend'
# www.blender.org
mtllib Rock_Small_5.mtl
o asset.005_Cube.005
v 0.317100 0.058741 -0.425095
v 0.270674 0.029197 0.353018
v 0.506277 0.896630 -0.347365
v 0.410631 0.746676 0.416781
v -0.474320 0.228649 -0.400856
v -0.463360 0.164587 0.369485
v -0.291644 0.997700 -0.311039
v -0.280181 0.853062 0.426485
v 0.302803 0.932258 -0.365373
v 0.083891 0.945345 -0.342482
v -0.122208 0.994082 -0.342378
v -0.131935 0.842956 0.446070
v 0.059365 0.839650 0.486452
v 0.270069 0.813505 0.474780
v 0.493355 0.596802 0.522223
v 0.447848 0.331994 0.502716
v 0.323099 0.170081 0.385768
v 0.515136 0.860251 -0.143475
v 0.480395 0.816126 0.078269
v 0.436439 0.773138 0.265788
v -0.370801 0.093911 -0.528048
v -0.092938 0.023557 -0.554691
v 0.147095 0.055703 -0.469341
v 0.120255 -0.009415 0.393630
v -0.112767 -0.053016 0.449457
v -0.335253 0.063202 0.421645
v 0.357746 -0.043749 -0.272912
v 0.354626 -0.076996 -0.028949
v 0.333302 -0.068403 0.212381
v 0.484598 0.145044 -0.567075
v 0.575353 0.447819 -0.559034
v 0.577613 0.730570 -0.480126
v -0.485129 0.202758 -0.230938
v -0.508506 0.165248 -0.025773
v -0.534993 0.124741 0.201575
v -0.441345 0.333616 0.404814
v -0.379767 0.526185 0.402041
v -0.349335 0.712567 0.453971
v -0.422767 0.908211 -0.434335
v -0.522850 0.660557 -0.500607
v -0.526245 0.393876 -0.473844
v -0.349740 0.967849 0.309811
v -0.384766 1.068730 0.081716
v -0.333531 1.028523 -0.150988
v -0.279293 0.281152 0.493530
v -0.074737 0.195064 0.595122
v 0.164870 0.162834 0.511891
v -0.214000 0.487053 0.470306
v -0.023986 0.443529 0.543414
v 0.216919 0.377816 0.624010
v -0.159285 0.663613 0.452311
v 0.024393 0.636881 0.481141
v 0.240219 0.617032 0.568838
v -0.516598 0.887535 -0.195234
v -0.611329 0.644588 -0.238160
v -0.575536 0.391223 -0.237052
v -0.535808 0.860855 0.058464
v -0.648464 0.624122 0.028366
v -0.630468 0.359005 -0.008583
v -0.466671 0.788965 0.284504
v -0.573429 0.585081 0.287479
v -0.644661 0.334995 0.262412
v 0.466254 0.123553 0.238804
v 0.619211 0.049330 0.005546
v 0.601818 0.092367 -0.299042
v 0.622248 0.329471 0.310351
v 0.733621 0.352446 0.037729
v 0.742948 0.383796 -0.285253
v 0.566714 0.600418 0.287222
v 0.594465 0.620035 0.052932
v 0.655504 0.668642 -0.201830
v 0.278546 0.869712 0.277908
v 0.318301 0.948111 0.091484
v 0.342732 1.017751 -0.142364
v 0.094059 0.962034 0.306785
v 0.111756 1.051310 0.093478
v 0.105539 1.053726 -0.149879
v -0.128755 1.054622 0.342667
v -0.128297 1.093825 0.087486
v -0.119784 1.065999 -0.144287
v 0.227776 0.224867 -0.655212
v -0.044657 0.265324 -0.751471
v -0.365538 0.331956 -0.720221
v 0.297870 0.524962 -0.668184
v 0.016771 0.592502 -0.702645
v -0.286622 0.657570 -0.700141
v 0.290099 0.743230 -0.488807
v 0.048614 0.763339 -0.431947
v -0.180456 0.850093 -0.500447
v -0.359047 -0.040973 0.205955
v -0.394559 -0.081386 -0.046089
v -0.369952 0.009939 -0.285284
v -0.110440 -0.015722 0.186770
v -0.111125 -0.026068 -0.035905
v -0.116672 -0.079746 -0.290777
v 0.099093 -0.067699 0.179978
v 0.112688 0.037437 -0.027026
v 0.123819 -0.065874 -0.265201
vt 0.753569 0.931410
vt 0.727817 0.921405
vt 0.741702 0.910633
vt 0.713910 0.957059
vt 0.740590 0.947480
vt 0.731745 0.892797
vt 0.699754 0.910226
vt 0.715925 0.901172
vt 0.836962 0.111251
vt 0.814131 0.124995
vt 0.818591 0.109344
vt 0.712171 0.351310
vt 0.678961 0.339147
vt 0.704895 0.336628
vt 0.667058 0.375526
vt 0.687603 0.362941
vt 0.137917 0.290425
vt 0.128437 0.270173
vt 0.144331 0.273942
vt 0.145687 0.165915
vt 0.123175 0.181260
vt 0.130105 0.152834
vt 0.682405 0.946583
vt 0.709839 0.936103
vt 0.672933 0.899608
vt 0.688018 0.888849
vt 0.708479 0.880126
vt 0.724966 0.873984
vt 0.738162 0.868506
vt 0.749222 0.882087
vt 0.753569 0.901069
vt 0.796864 0.103777
vt 0.780883 0.025191
vt 0.808097 0.054093
vt 0.778910 0.051748
vt 0.833215 0.037327
vt 0.810108 0.026949
vt 0.777779 0.079614
vt 0.831175 0.088859
vt 0.802751 0.084333
vt 0.761940 0.015626
vt 0.757436 0.029796
vt 0.779594 0.002473
vt 0.835752 0.014241
vt 0.810039 0.001847
vt 0.847900 0.029263
vt 0.125650 0.245154
vt 0.139453 0.267507
vt 0.123826 0.268660
vt 0.763994 0.366638
vt 0.742896 0.361362
vt 0.752741 0.341469
vt 0.776033 0.103186
vt 0.759585 0.097190
vt 0.754162 0.079010
vt 0.750880 0.050842
vt 0.325159 0.970235
vt 0.354464 0.944806
vt 0.353639 0.974150
vt 0.315768 0.913541
vt 0.318487 0.948152
vt 0.376779 0.938091
vt 0.378677 0.963962
vt 0.378677 0.909540
vt 0.123255 0.313762
vt 0.123155 0.291792
vt 0.294769 0.945148
vt 0.299939 0.971109
vt 0.293117 0.917624
vt 0.298803 0.897893
vt 0.345525 0.875507
vt 0.351183 0.908749
vt 0.293680 0.403105
vt 0.318528 0.394521
vt 0.315521 0.414913
vt 0.360411 0.170594
vt 0.344109 0.144403
vt 0.360411 0.144851
vt 0.297292 0.427714
vt 0.318962 0.454315
vt 0.298640 0.451569
vt 0.320116 0.469095
vt 0.305347 0.475614
vt 0.654488 0.918831
vt 0.673320 0.919202
vt 0.145687 0.209716
vt 0.143953 0.186500
vt 0.339081 0.457518
vt 0.364077 0.442906
vt 0.361742 0.462065
vt 0.339553 0.419048
vt 0.338613 0.441042
vt 0.390690 0.441329
vt 0.388372 0.466964
vt 0.389487 0.415786
vt 0.337127 0.476251
vt 0.316684 0.436457
vt 0.341112 0.391796
vt 0.365619 0.417097
vt 0.387595 0.392074
vt 0.405236 0.393761
vt 0.410259 0.411452
vt 0.416378 0.437105
vt 0.408065 0.457956
vt 0.715031 0.850114
vt 0.693610 0.866206
vt 0.359996 0.476251
vt 0.919411 0.560329
vt 0.952482 0.525976
vt 0.952482 0.556968
vt 0.915536 0.496032
vt 0.918918 0.532655
vt 0.358729 0.340441
vt 0.335489 0.371573
vt 0.326785 0.344545
vt 0.388569 0.369362
vt 0.361171 0.375825
vt 0.897457 0.570415
vt 0.915705 0.588001
vt 0.886404 0.531923
vt 0.893743 0.553815
vt 0.884781 0.499757
vt 0.909198 0.471331
vt 0.950382 0.491897
vt 0.392771 0.339936
vt 0.415785 0.375992
vt 0.364289 0.392419
vt 0.417215 0.172501
vt 0.400049 0.148745
vt 0.417215 0.144428
vt 0.305097 0.375036
vt 0.294598 0.356184
vt 0.948950 0.586213
vt 0.723713 0.375651
vt 0.710027 0.407813
vt 0.699769 0.386232
vt 0.747855 0.419469
vt 0.738601 0.400020
vt 0.678593 0.397654
vt 0.696649 0.440798
vt 0.687578 0.412968
vt 0.728248 0.346445
vt 0.751025 0.382116
vt 0.137791 0.241787
vt 0.123083 0.220114
vt 0.139453 0.211427
vt 0.765368 0.416135
vt 0.758421 0.400779
vt 0.732502 0.455466
vt 0.721927 0.434261
vt 0.704653 0.455466
vt 0.873975 0.551127
vt 0.883166 0.574894
vt 0.662437 0.428115
vt 0.653520 0.403967
vt 0.654087 0.383599
vt 0.839697 0.123959
vt 0.658435 0.358108
vt 0.791365 0.116940
vt 0.834023 0.060475
vt 0.847266 0.047401
vt 0.847900 0.093379
vt 0.144331 0.304802
vt 0.310997 0.881713
vt 0.376133 0.876725
vt 0.340046 0.171518
vt 0.656013 0.950120
vt 0.125710 0.207973
vt 0.736687 0.853008
vt 0.891417 0.481104
vt 0.937404 0.462552
vt 0.416772 0.358755
vt 0.399851 0.173268
vt 0.759780 0.438580
vt 0.673629 0.449849
vn -0.4303 0.0359 0.9020
vn -0.2191 0.1781 0.9593
vn -0.2890 0.1387 0.9472
vn 0.2652 -0.4824 0.8349
vn -0.0502 -0.1469 0.9879
vn -0.0949 0.1354 0.9862
vn 0.0617 0.2737 0.9598
vn -0.2472 0.1951 0.9491
vn -0.6358 -0.3847 0.6692
vn -0.5116 0.0252 0.8588
vn -0.4840 -0.6039 0.6332
vn 0.2300 -0.8412 0.4893
vn -0.1095 -0.8915 0.4396
vn 0.4215 -0.6475 0.6348
vn 0.5746 -0.3363 0.7461
vn 0.0623 -0.1294 0.9896
vn 0.5740 0.6792 0.4573
vn 0.3686 0.6527 0.6620
vn -0.0931 0.5203 0.8489
vn -0.0689 0.3109 0.9479
vn -0.3208 0.3611 0.8756
vn -0.4621 0.1375 0.8761
vn -0.4870 0.0744 0.8702
vn -0.7703 0.6222 -0.1399
vn -0.9763 0.2097 0.0539
vn -0.8428 0.5153 0.1551
vn -0.9429 -0.2601 -0.2082
vn -0.9668 0.1477 -0.2083
vn -0.7568 0.3563 0.5479
vn -0.8993 -0.1613 0.4065
vn -0.7357 0.2773 0.6180
vn -0.2278 0.8924 -0.3894
vn -0.4039 0.8920 -0.2031
vn -0.4849 0.7205 -0.4958
vn -0.8952 -0.1703 -0.4119
vn -0.8089 0.1974 -0.5537
vn -0.8802 -0.4313 -0.1983
vn -0.8701 -0.4627 -0.1700
vn -0.9488 -0.2662 -0.1700
vn -0.7745 -0.6233 0.1082
vn -0.5438 0.6402 0.5426
vn -0.5010 0.8610 0.0877
vn 0.6181 -0.6053 0.5015
vn 0.9675 -0.0399 0.2497
vn 0.8491 -0.2089 0.4852
vn 0.7019 -0.6430 -0.3065
vn 0.7128 -0.6663 0.2191
vn 0.8582 0.4434 0.2588
vn 0.8936 0.3640 0.2627
vn 0.9097 0.4151 0.0129
vn 0.5047 -0.5796 0.6398
vn 0.1800 -0.9830 0.0356
vn 0.3999 -0.8502 0.3424
vn 0.2574 -0.8982 -0.3563
vn 0.1543 -0.8351 -0.5281
vn 0.6835 0.0157 -0.7298
vn 0.9636 -0.0443 -0.2636
vn 0.5395 0.7496 -0.3834
vn 0.7519 0.6338 0.1817
vn 0.7471 0.6053 0.2748
vn 0.6767 0.6843 0.2717
vn 0.6571 0.2341 0.7165
vn 0.4771 0.8118 0.3367
vn 0.2556 0.9389 0.2306
vn 0.3039 0.8294 0.4687
vn 0.4104 0.9117 -0.0210
vn 0.5134 0.7877 0.3406
vn 0.0208 0.9970 0.0745
vn 0.0293 0.8321 0.5539
vn -0.0259 0.9796 -0.1994
vn 0.0800 0.7426 -0.6649
vn 0.1036 0.9704 -0.2182
vn 0.0809 0.8070 -0.5850
vn 0.2319 -0.4183 -0.8782
vn 0.1563 0.4229 -0.8926
vn 0.2442 0.2306 -0.9419
vn -0.5150 -0.1716 -0.8399
vn 0.0612 -0.2725 -0.9602
vn 0.0300 0.6467 -0.7621
vn 0.1730 0.7209 -0.6711
vn 0.1401 0.6781 -0.7215
vn 0.4488 -0.5671 -0.6906
vn -0.0165 -0.8184 -0.5744
vn 0.2053 -0.8269 -0.5236
vn -0.5660 -0.6694 -0.4812
vn -0.2564 0.3855 -0.8864
vn 0.0595 0.6770 -0.7336
vn 0.6480 0.4591 -0.6077
vn -0.3299 -0.9079 0.2587
vn 0.0632 -0.9972 0.0396
vn -0.0837 -0.9935 0.0767
vn -0.5740 -0.7872 -0.2256
vn -0.4508 -0.8888 -0.0833
vn -0.0941 -0.9944 0.0479
vn 0.0398 -0.9883 -0.1472
vn -0.0769 -0.9964 -0.0364
vn -0.8466 -0.5108 -0.1496
vn -0.1160 -0.9869 -0.1121
usemtl Material.001
s 1
f 45/1/1 49/2/2 48/3/3
f 47/4/4 49/2/2 46/5/5
f 49/2/2 51/6/6 48/3/3
f 49/2/2 53/7/7 52/8/8
f 6/9/9 45/10/1 36/11/10
f 26/12/11 46/13/5 45/14/1
f 24/15/12 46/13/5 25/16/13
f 2/17/14 47/18/4 24/19/12
f 47/20/4 16/21/15 50/22/16
f 16/23/15 53/7/7 50/24/16
f 53/7/7 4/25/17 14/26/18
f 53/7/7 13/27/19 52/8/8
f 52/8/8 12/28/20 51/6/6
f 51/6/6 8/29/21 38/30/22
f 48/3/3 38/30/22 37/31/23
f 45/10/1 37/32/23 36/11/10
f 54/33/24 58/34/25 57/35/26
f 56/36/27 58/34/25 55/37/28
f 58/34/25 60/38/29 57/35/26
f 58/34/25 62/39/30 61/40/31
f 7/41/32 54/33/24 44/42/33
f 39/43/34 55/37/28 54/33/24
f 41/44/35 55/37/28 40/45/36
f 5/46/37 56/36/27 41/44/35
f 33/47/38 59/48/39 56/49/27
f 59/50/39 35/51/40 62/52/30
f 62/39/30 6/9/9 36/11/10
f 61/40/31 36/11/10 37/32/23
f 60/38/29 37/32/23 38/53/22
f 60/38/29 8/54/21 42/55/41
f 57/35/26 42/55/41 43/56/42
f 44/42/33 57/35/26 43/56/42
f 63/57/43 67/58/44 66/59/45
f 65/60/46 67/58/44 64/61/47
f 66/59/45 70/62/48 69/63/49
f 67/58/44 71/64/50 70/62/48
f 2/17/14 63/65/43 17/66/51
f 28/67/52 63/57/43 29/68/53
f 27/69/54 64/61/47 28/67/52
f 1/70/55 65/60/46 27/69/54
f 65/60/46 31/71/56 68/72/57
f 31/71/56 71/64/50 68/72/57
f 71/73/50 3/74/58 18/75/59
f 70/76/48 18/77/59 19/78/60
f 70/79/48 20/80/61 69/81/49
f 69/81/49 4/82/17 15/83/62
f 16/23/15 69/84/49 15/85/62
f 63/86/43 16/21/15 17/87/51
f 72/88/63 76/89/64 75/90/65
f 74/91/66 76/89/64 73/92/67
f 75/90/65 79/93/68 78/94/69
f 76/89/64 80/95/70 79/93/68
f 4/82/17 72/88/63 14/96/18
f 20/80/61 73/92/67 72/88/63
f 18/75/59 73/92/67 19/97/60
f 3/74/58 74/91/66 18/75/59
f 9/98/71 77/99/72 74/91/66
f 77/99/72 11/100/73 80/95/70
f 80/95/70 7/101/32 44/102/33
f 79/93/68 44/102/33 43/103/42
f 79/93/68 42/104/41 78/94/69
f 78/105/69 8/29/21 12/28/20
f 75/106/65 12/28/20 13/27/19
f 14/96/18 75/90/65 13/107/19
f 81/108/74 85/109/75 84/110/76
f 83/111/77 85/109/75 82/112/78
f 85/113/75 87/114/79 84/115/76
f 85/113/75 89/116/80 88/117/81
f 1/118/55 81/108/74 30/119/82
f 22/120/83 81/108/74 23/121/84
f 21/122/85 82/112/78 22/120/83
f 21/122/85 41/123/35 83/111/77
f 41/123/35 86/124/86 83/111/77
f 86/125/86 39/126/34 89/116/80
f 89/116/80 7/101/32 11/100/73
f 88/117/81 11/100/73 10/127/87
f 88/128/81 9/129/71 87/130/79
f 87/114/79 3/74/58 32/131/88
f 84/115/76 32/131/88 31/132/56
f 81/108/74 31/133/56 30/119/82
f 90/134/89 94/135/90 93/136/91
f 92/137/92 94/135/90 91/138/93
f 94/135/90 96/139/94 93/136/91
f 94/135/90 98/140/95 97/141/96
f 6/142/9 90/134/89 26/12/11
f 34/143/97 90/134/89 35/51/40
f 34/144/97 92/145/92 91/146/93
f 5/147/37 92/137/92 33/148/38
f 92/137/92 22/149/83 95/150/98
f 95/150/98 23/151/84 98/140/95
f 98/152/95 1/118/55 27/153/54
f 98/140/95 28/154/52 97/141/96
f 96/139/94 28/154/52 29/155/53
f 96/139/94 2/156/14 24/15/12
f 93/136/91 24/15/12 25/16/13
f 26/12/11 93/136/91 25/16/13
f 45/1/1 46/5/5 49/2/2
f 47/4/4 50/24/16 49/2/2
f 49/2/2 52/8/8 51/6/6
f 49/2/2 50/24/16 53/7/7
f 6/9/9 26/157/11 45/10/1
f 26/12/11 25/16/13 46/13/5
f 24/15/12 47/158/4 46/13/5
f 2/17/14 17/66/51 47/18/4
f 47/20/4 17/87/51 16/21/15
f 16/23/15 15/85/62 53/7/7
f 53/7/7 15/85/62 4/25/17
f 53/7/7 14/26/18 13/27/19
f 52/8/8 13/27/19 12/28/20
f 51/6/6 12/28/20 8/29/21
f 48/3/3 51/6/6 38/30/22
f 45/10/1 48/159/3 37/32/23
f 54/33/24 55/37/28 58/34/25
f 56/36/27 59/160/39 58/34/25
f 58/34/25 61/40/31 60/38/29
f 58/34/25 59/160/39 62/39/30
f 7/41/32 39/43/34 54/33/24
f 39/43/34 40/45/36 55/37/28
f 41/44/35 56/36/27 55/37/28
f 5/46/37 33/161/38 56/36/27
f 33/47/38 34/144/97 59/48/39
f 59/50/39 34/143/97 35/51/40
f 62/39/30 35/162/40 6/9/9
f 61/40/31 62/39/30 36/11/10
f 60/38/29 61/40/31 37/32/23
f 60/38/29 38/53/22 8/54/21
f 57/35/26 60/38/29 42/55/41
f 44/42/33 54/33/24 57/35/26
f 63/57/43 64/61/47 67/58/44
f 65/60/46 68/72/57 67/58/44
f 66/59/45 67/58/44 70/62/48
f 67/58/44 68/72/57 71/64/50
f 2/17/14 29/163/53 63/65/43
f 28/67/52 64/61/47 63/57/43
f 27/69/54 65/60/46 64/61/47
f 1/70/55 30/164/82 65/60/46
f 65/60/46 30/164/82 31/71/56
f 31/71/56 32/165/88 71/64/50
f 71/73/50 32/131/88 3/74/58
f 70/76/48 71/166/50 18/77/59
f 70/79/48 19/97/60 20/80/61
f 69/81/49 20/80/61 4/82/17
f 16/23/15 66/167/45 69/84/49
f 63/86/43 66/168/45 16/21/15
f 72/88/63 73/92/67 76/89/64
f 74/91/66 77/99/72 76/89/64
f 75/90/65 76/89/64 79/93/68
f 76/89/64 77/99/72 80/95/70
f 4/82/17 20/80/61 72/88/63
f 20/80/61 19/97/60 73/92/67
f 18/75/59 74/91/66 73/92/67
f 3/74/58 9/98/71 74/91/66
f 9/98/71 10/127/87 77/99/72
f 77/99/72 10/127/87 11/100/73
f 80/95/70 11/100/73 7/101/32
f 79/93/68 80/95/70 44/102/33
f 79/93/68 43/103/42 42/104/41
f 78/105/69 42/169/41 8/29/21
f 75/106/65 78/105/69 12/28/20
f 14/96/18 72/88/63 75/90/65
f 81/108/74 82/112/78 85/109/75
f 83/111/77 86/124/86 85/109/75
f 85/113/75 88/117/81 87/114/79
f 85/113/75 86/125/86 89/116/80
f 1/118/55 23/121/84 81/108/74
f 22/120/83 82/112/78 81/108/74
f 21/122/85 83/111/77 82/112/78
f 21/122/85 5/170/37 41/123/35
f 41/123/35 40/171/36 86/124/86
f 86/125/86 40/172/36 39/126/34
f 89/116/80 39/126/34 7/101/32
f 88/117/81 89/116/80 11/100/73
f 88/128/81 10/173/87 9/129/71
f 87/114/79 9/98/71 3/74/58
f 84/115/76 87/114/79 32/131/88
f 81/108/74 84/110/76 31/133/56
f 90/134/89 91/138/93 94/135/90
f 92/137/92 95/150/98 94/135/90
f 94/135/90 97/141/96 96/139/94
f 94/135/90 95/150/98 98/140/95
f 6/142/9 35/51/40 90/134/89
f 34/143/97 91/138/93 90/134/89
f 34/144/97 33/47/38 92/145/92
f 5/147/37 21/174/85 92/137/92
f 92/137/92 21/174/85 22/149/83
f 95/150/98 22/149/83 23/151/84
f 98/152/95 23/121/84 1/118/55
f 98/140/95 27/175/54 28/154/52
f 96/139/94 97/141/96 28/154/52
f 96/139/94 29/155/53 2/156/14
f 93/136/91 96/139/94 24/15/12
f 26/12/11 90/134/89 93/136/91
