# Blender v2.90.1 OBJ File: 'Stone_Small_and_big.blend'
# www.blender.org
mtllib Rock_Small_10.mtl
o asset.002_Cube.001
v 0.472068 0.181192 -0.330737
v -0.088340 -0.021831 -0.106216
v 0.564163 0.490001 0.409957
v -0.125259 0.059666 0.568746
v 0.043058 0.692924 -0.496547
v -0.427350 0.379276 -0.313275
v 0.039972 1.098626 0.129182
v -0.440180 0.615804 0.210651
v 0.499392 0.674143 0.387638
v 0.372896 0.873035 0.317399
v 0.229540 1.123926 0.278337
v -0.473440 0.543767 0.351870
v -0.444204 0.373789 0.551071
v -0.273827 0.176696 0.600047
v -0.130179 -0.038465 0.392539
v -0.114757 -0.033660 0.168056
v -0.099320 -0.031517 -0.000154
v 0.443968 0.378193 0.521185
v 0.236549 0.254262 0.570243
v 0.036507 0.139423 0.589157
v 0.157718 0.617786 -0.535949
v 0.341956 0.459873 -0.586338
v 0.419736 0.298190 -0.417992
v -0.196254 -0.046899 -0.180722
v -0.385880 -0.007338 -0.325686
v -0.455715 0.232818 -0.360804
v 0.354126 0.059840 -0.314341
v 0.172330 -0.049293 -0.241586
v 0.005844 -0.008282 -0.147749
v 0.646525 0.191039 -0.207427
v 0.646273 0.307245 0.034549
v 0.602587 0.409015 0.245059
v -0.081539 0.618439 -0.476194
v -0.228373 0.533175 -0.439256
v -0.340270 0.447104 -0.362391
v -0.496060 0.438109 -0.223716
v -0.532873 0.521253 -0.058580
v -0.466515 0.569080 0.101583
v 0.061610 1.120963 -0.061627
v 0.071972 1.014826 -0.282638
v 0.056788 0.882185 -0.491618
v -0.354659 0.705767 0.202135
v -0.221243 0.803336 0.177996
v -0.097323 0.959592 0.161286
v -0.614041 0.233069 -0.205463
v -0.459402 0.029668 -0.105325
v -0.245132 -0.000710 -0.032444
v -0.663458 0.325198 0.027762
v -0.527250 0.081111 0.118587
v -0.288409 0.008706 0.151842
v -0.576680 0.436906 0.222925
v -0.562105 0.191090 0.370918
v -0.336286 0.036489 0.392431
v -0.158195 0.981084 -0.027202
v -0.153918 0.910696 -0.235446
v -0.148688 0.786693 -0.416677
v -0.263981 0.795926 0.019883
v -0.294901 0.757196 -0.165715
v -0.272030 0.647624 -0.322435
v -0.372097 0.673015 0.054350
v -0.425534 0.644050 -0.114706
v -0.374931 0.539983 -0.254967
v 0.034622 0.000274 -0.015868
v 0.219835 0.005947 -0.053639
v 0.463039 0.029093 -0.111732
v 0.053955 -0.011398 0.161825
v 0.272739 0.001694 0.153826
v 0.525263 0.091231 0.122469
v 0.073456 -0.004746 0.397945
v 0.321754 0.037585 0.426190
v 0.506787 0.220318 0.343082
v -0.089828 0.331853 0.624739
v 0.115695 0.464150 0.621689
v 0.336269 0.600877 0.567378
v -0.242061 0.532462 0.578460
v -0.037958 0.679326 0.565854
v 0.194485 0.837651 0.528980
v -0.328633 0.666825 0.385497
v -0.164032 0.795817 0.369604
v 0.015268 0.952568 0.351932
v 0.644425 0.419215 -0.338309
v 0.532600 0.657189 -0.463637
v 0.299145 0.818968 -0.491479
v 0.731775 0.557455 -0.074135
v 0.622692 0.834853 -0.200204
v 0.365281 1.011269 -0.286969
v 0.629868 0.646569 0.181555
v 0.518558 0.882915 0.094401
v 0.391135 1.181656 -0.007158
v -0.291416 0.306796 -0.422421
v -0.137066 0.399187 -0.447041
v 0.007588 0.492861 -0.497590
v -0.209396 0.093477 -0.461372
v -0.032198 0.216500 -0.493532
v 0.138520 0.320528 -0.552149
v -0.068347 -0.022283 -0.302316
v 0.081885 0.095887 -0.351106
v 0.239306 0.202109 -0.390175
vt 0.428735 0.881412
vt 0.447256 0.904564
vt 0.418240 0.904400
vt 0.456457 0.885546
vt 0.472830 0.914312
vt 0.417957 0.931522
vt 0.467029 0.934334
vt 0.436763 0.930881
vt 0.399509 0.320857
vt 0.382878 0.305670
vt 0.393258 0.305927
vt 0.932407 0.033193
vt 0.915332 0.001639
vt 0.944011 0.011845
vt 0.484286 0.886853
vt 0.465124 0.867917
vt 0.491814 0.899656
vt 0.476998 0.899956
vt 0.490687 0.921301
vt 0.489950 0.939581
vt 0.483612 0.960525
vt 0.462664 0.963027
vt 0.434099 0.962199
vt 0.333351 0.313495
vt 0.297546 0.312014
vt 0.318414 0.297546
vt 0.333586 0.288057
vt 0.345968 0.293497
vt 0.363984 0.301459
vt 0.355669 0.328437
vt 0.357637 0.234799
vt 0.374413 0.263550
vt 0.353614 0.258922
vt 0.402123 0.249767
vt 0.381191 0.239816
vt 0.350558 0.277496
vt 0.385733 0.288146
vt 0.369440 0.282836
vt 0.339662 0.211651
vt 0.336956 0.233633
vt 0.385880 0.214972
vt 0.360660 0.207190
vt 0.409929 0.226933
vt 0.925383 0.099624
vt 0.947336 0.087472
vt 0.937852 0.110911
vt 0.409929 0.260199
vt 0.392546 0.271136
vt 0.398300 0.293681
vt 0.333977 0.274120
vt 0.336084 0.256197
vt 0.178847 0.818418
vt 0.202741 0.835780
vt 0.183696 0.834600
vt 0.171873 0.795887
vt 0.201135 0.816571
vt 0.228526 0.836178
vt 0.198381 0.788512
vt 0.231330 0.812690
vt 0.173960 0.845504
vt 0.185376 0.848281
vt 0.169277 0.836228
vt 0.150909 0.800417
vt 0.157455 0.824544
vt 0.151047 0.781255
vt 0.192630 0.761147
vt 0.217844 0.759286
vt 0.225136 0.782597
vt 0.237640 0.758081
vt 0.248043 0.777717
vt 0.251823 0.804837
vt 0.272146 0.175152
vt 0.291459 0.149093
vt 0.296433 0.175152
vt 0.249361 0.849577
vt 0.228183 0.855555
vt 0.203739 0.851518
vt 0.692021 0.294474
vt 0.718325 0.269107
vt 0.720283 0.291678
vt 0.685063 0.246972
vt 0.688634 0.273232
vt 0.294125 0.257131
vt 0.313957 0.276848
vt 0.293579 0.284206
vt 0.739796 0.236051
vt 0.739103 0.257753
vt 0.467433 0.982483
vt 0.667108 0.292694
vt 0.659021 0.247240
vt 0.662792 0.271554
vt 0.661045 0.225098
vt 0.707982 0.212499
vt 0.715564 0.242206
vt 0.315978 0.227694
vt 0.314958 0.254027
vt 0.692219 0.313332
vt 0.721500 0.311785
vt 0.910707 0.699280
vt 0.923714 0.653056
vt 0.939710 0.681029
vt 0.894216 0.675017
vt 0.898628 0.626911
vt 0.659660 0.174641
vt 0.700683 0.185530
vt 0.671899 0.195967
vt 0.939710 0.633899
vt 0.896046 0.714471
vt 0.919334 0.717399
vt 0.886091 0.703508
vt 0.868100 0.689682
vt 0.875544 0.649456
vt 0.854444 0.650285
vt 0.859411 0.664165
vt 0.876564 0.613048
vt 0.894361 0.594905
vt 0.924456 0.602194
vt 0.323118 0.197402
vt 0.354471 0.179849
vt 0.739796 0.207086
vt 0.681456 0.218759
vt 0.653103 0.214434
vt 0.215621 0.738313
vt 0.154267 0.748821
vt 0.163892 0.767366
vt 0.924670 0.051929
vt 0.897234 0.067609
vt 0.902820 0.047565
vt 0.913910 0.086129
vt 0.918701 0.068281
vt 0.880981 0.037038
vt 0.872402 0.074926
vt 0.877475 0.056486
vt 0.940109 0.039611
vt 0.938249 0.052451
vt 0.930203 0.086393
vt 0.935927 0.069947
vt 0.910790 0.105154
vt 0.891098 0.088218
vt 0.864554 0.093282
vt 0.850803 0.082955
vt 0.851724 0.067736
vt 0.858267 0.045087
vt 0.874150 0.030332
vt 0.152483 0.841790
vt 0.165822 0.855555
vt 0.888605 0.018669
vt 0.908852 0.020859
vt 0.382176 0.332265
vt 0.491675 0.907700
vt 0.318666 0.335555
vt 0.406309 0.277973
vt 0.275556 0.144456
vt 0.252467 0.830335
vt 0.491814 0.974288
vt 0.692147 0.159147
vt 0.857543 0.632223
vt 0.736037 0.172038
vt 0.185473 0.733906
vt 0.884519 0.110911
vn -0.8730 -0.1800 -0.4533
vn -0.6976 -0.7066 0.1187
vn -0.9966 0.0461 0.0687
vn -0.5519 -0.8306 -0.0738
vn -0.2619 -0.9646 0.0301
vn -0.9212 0.3262 0.2122
vn -0.4279 -0.8353 0.3453
vn -0.8645 -0.3455 0.3651
vn -0.6365 -0.0387 -0.7703
vn -0.7024 0.4322 -0.5656
vn -0.5855 0.3488 -0.7318
vn -0.0349 -0.9993 -0.0131
vn -0.4802 -0.7487 -0.4570
vn 0.0972 -0.9946 0.0351
vn -0.1664 -0.9823 0.0856
vn -0.0505 -0.9986 -0.0172
vn -0.0876 -0.9660 0.2432
vn -0.0564 -0.6440 0.7629
vn -0.3168 -0.3460 0.8831
vn -0.6236 0.1513 0.7670
vn -0.7415 0.5563 0.3752
vn -0.7455 0.6637 0.0610
vn -0.7493 0.6620 0.0171
vn -0.8099 0.5630 -0.1648
vn -0.7063 0.7079 0.0009
vn -0.7781 0.5751 -0.2527
vn -0.7748 0.6272 0.0799
vn -0.6058 0.3811 -0.6984
vn -0.6206 0.7002 -0.3529
vn -0.7293 0.6842 0.0015
vn -0.6732 0.4542 -0.5835
vn -0.7198 0.6491 -0.2461
vn -0.4481 0.8639 0.2298
vn -0.6796 0.6636 0.3128
vn -0.2105 0.8481 -0.4862
vn -0.3249 0.9211 -0.2147
vn -0.1619 0.5344 -0.8296
vn -0.2153 0.1151 -0.9697
vn -0.3391 0.1127 -0.9340
vn -0.7306 0.3893 -0.5610
vn -0.6058 0.2540 -0.7540
vn -0.6684 0.7353 0.1125
vn -0.6668 0.7214 0.1867
vn 0.1068 -0.9941 0.0163
vn 0.1035 -0.9945 -0.0168
vn 0.1145 -0.9930 -0.0300
vn 0.4500 -0.8850 -0.1196
vn 0.1831 -0.9823 0.0394
vn 0.1419 -0.9378 0.3170
vn 0.7153 -0.6803 0.1595
vn 0.4287 -0.7387 0.5201
vn 0.0019 -0.9981 -0.0616
vn 0.0814 -0.9956 -0.0468
vn 0.3188 -0.7066 -0.6318
vn 0.0418 -0.9557 -0.2915
vn 0.4249 -0.5392 -0.7272
vn 0.9306 -0.3154 0.1860
vn 0.9419 -0.1800 0.2835
vn 0.7805 -0.4092 0.4727
vn 0.8355 0.0298 0.5486
vn 0.5629 -0.2196 0.7968
vn 0.3436 -0.2700 0.8995
vn 0.1583 -0.4384 0.8847
vn -0.0481 -0.0104 0.9988
vn -0.2219 0.4386 0.8709
vn -0.3324 0.3874 0.8599
vn 0.3950 0.2424 0.8861
vn 0.0935 0.0702 0.9931
vn -0.5787 0.6727 0.4610
vn -0.3406 0.7187 0.6061
vn -0.5478 0.6883 0.4755
vn 0.5637 0.5698 0.5980
vn 0.1772 0.6204 0.7640
vn 0.8055 -0.1633 -0.5697
vn 0.8049 0.5605 -0.1947
vn 0.9984 0.0508 0.0242
vn 0.6385 0.2121 -0.7398
vn 0.3686 0.7687 -0.5228
vn 0.7978 0.5409 0.2665
vn 0.9020 0.2779 0.3304
vn 0.8306 -0.5047 -0.2354
vn 0.3976 -0.4737 -0.7858
vn 0.2921 -0.1619 -0.9426
vn 0.1959 0.4895 -0.8497
vn -0.1769 0.1745 -0.9686
vn 0.5014 0.8630 -0.0626
vn 0.1347 0.7637 0.6314
vn 0.6727 0.4572 0.5818
vn -0.3565 0.1662 -0.9194
vn -0.0211 -0.3298 -0.9438
vn -0.1180 -0.4577 -0.8813
vn -0.2982 0.0270 -0.9541
vn -0.3007 0.0270 -0.9533
vn 0.2004 -0.8978 -0.3921
vn 0.1911 -0.5714 -0.7981
vn 0.1465 -0.6752 -0.7229
vn -0.4863 0.1574 -0.8595
vn -0.0243 -0.3606 -0.9324
usemtl Material.001
s 1
f 45/1/1 49/2/2 48/3/3
f 46/4/4 50/5/5 49/2/2
f 49/2/2 51/6/6 48/3/3
f 49/2/2 53/7/7 52/8/8
f 26/9/9 36/10/10 6/11/11
f 26/12/9 46/13/4 45/14/1
f 24/15/12 46/4/4 25/16/13
f 2/17/14 47/18/15 24/15/12
f 47/18/15 16/19/16 50/5/5
f 50/5/5 15/20/17 53/7/7
f 53/7/7 4/21/18 14/22/19
f 52/8/8 14/22/19 13/23/20
f 51/24/6 13/25/20 12/26/21
f 51/24/6 8/27/22 38/28/23
f 37/29/24 51/24/6 38/28/23
f 36/10/10 48/30/3 37/29/24
f 54/31/25 58/32/26 57/33/27
f 56/34/28 58/32/26 55/35/29
f 58/32/26 60/36/30 57/33/27
f 58/32/26 62/37/31 61/38/32
f 7/39/33 54/31/25 44/40/34
f 40/41/35 54/31/25 39/42/36
f 41/43/37 55/35/29 40/41/35
f 5/44/38 56/45/28 41/46/37
f 33/47/39 59/48/40 56/34/28
f 59/48/40 35/49/41 62/37/31
f 62/37/31 6/11/11 36/10/10
f 61/38/32 36/10/10 37/29/24
f 61/38/32 38/28/23 60/36/30
f 60/36/30 8/27/22 42/50/42
f 57/33/27 42/50/42 43/51/43
f 44/40/34 57/33/27 43/51/43
f 64/52/44 66/53/45 63/54/46
f 65/55/47 67/56/48 64/52/44
f 67/56/48 69/57/49 66/53/45
f 68/58/50 70/59/51 67/56/48
f 2/60/14 63/54/46 17/61/52
f 29/62/53 64/52/44 63/54/46
f 27/63/54 64/52/44 28/64/55
f 1/65/56 65/55/47 27/63/54
f 65/55/47 31/66/57 68/58/50
f 68/58/50 32/67/58 71/68/59
f 71/68/59 3/69/60 18/70/61
f 71/68/59 19/71/62 70/59/51
f 70/72/51 20/73/63 69/74/49
f 69/57/49 4/75/18 15/76/17
f 66/53/45 15/76/17 16/77/16
f 17/61/52 66/53/45 16/77/16
f 72/78/64 76/79/65 75/80/66
f 74/81/67 76/79/65 73/82/68
f 76/83/65 78/84/69 75/85/66
f 76/79/65 80/86/70 79/87/71
f 4/21/18 72/88/64 14/22/19
f 20/89/63 73/82/68 72/78/64
f 18/90/61 73/82/68 19/91/62
f 3/92/60 74/81/67 18/90/61
f 74/81/67 10/93/72 77/94/73
f 10/93/72 80/86/70 77/94/73
f 80/95/70 7/39/33 44/40/34
f 79/96/71 44/40/34 43/51/43
f 79/96/71 42/50/42 78/84/69
f 78/84/69 8/27/22 12/26/21
f 75/85/66 12/26/21 13/25/20
f 14/97/19 75/80/66 13/98/20
f 81/99/74 85/100/75 84/101/76
f 82/102/77 86/103/78 85/100/75
f 84/104/76 88/105/79 87/106/80
f 86/103/78 88/107/79 85/100/75
f 1/108/56 81/99/74 30/109/81
f 23/110/82 82/102/77 81/99/74
f 22/111/83 83/112/84 82/102/77
f 5/113/38 83/112/84 21/114/85
f 83/112/84 40/115/35 86/103/78
f 86/103/78 39/116/36 89/117/86
f 39/42/36 11/118/87 89/119/86
f 88/105/79 11/120/87 10/93/72
f 88/105/79 9/121/88 87/106/80
f 87/106/80 3/92/60 32/122/58
f 31/66/57 87/123/80 32/67/58
f 81/124/74 31/66/57 30/125/81
f 90/126/89 94/127/90 93/128/91
f 92/129/92 94/127/90 91/130/93
f 94/127/90 96/131/94 93/128/91
f 94/127/90 98/132/95 97/133/96
f 6/134/11 90/126/89 26/12/9
f 35/135/41 91/130/93 90/126/89
f 33/136/39 91/130/93 34/137/97
f 5/44/38 92/129/92 33/136/39
f 21/138/85 95/139/98 92/129/92
f 95/139/98 23/140/82 98/132/95
f 98/132/95 1/141/56 27/142/54
f 97/133/96 27/142/54 28/143/55
f 97/133/96 29/144/53 96/131/94
f 96/145/94 2/60/14 24/146/12
f 93/128/91 24/147/12 25/148/13
f 26/12/9 93/128/91 25/148/13
f 45/1/1 46/4/4 49/2/2
f 46/4/4 47/18/15 50/5/5
f 49/2/2 52/8/8 51/6/6
f 49/2/2 50/5/5 53/7/7
f 26/9/9 45/149/1 36/10/10
f 26/12/9 25/148/13 46/13/4
f 24/15/12 47/18/15 46/4/4
f 2/17/14 17/150/52 47/18/15
f 47/18/15 17/150/52 16/19/16
f 50/5/5 16/19/16 15/20/17
f 53/7/7 15/20/17 4/21/18
f 52/8/8 53/7/7 14/22/19
f 51/24/6 52/151/8 13/25/20
f 51/24/6 12/26/21 8/27/22
f 37/29/24 48/30/3 51/24/6
f 36/10/10 45/149/1 48/30/3
f 54/31/25 55/35/29 58/32/26
f 56/34/28 59/48/40 58/32/26
f 58/32/26 61/38/32 60/36/30
f 58/32/26 59/48/40 62/37/31
f 7/39/33 39/42/36 54/31/25
f 40/41/35 55/35/29 54/31/25
f 41/43/37 56/34/28 55/35/29
f 5/44/38 33/136/39 56/45/28
f 33/47/39 34/152/97 59/48/40
f 59/48/40 34/152/97 35/49/41
f 62/37/31 35/49/41 6/11/11
f 61/38/32 62/37/31 36/10/10
f 61/38/32 37/29/24 38/28/23
f 60/36/30 38/28/23 8/27/22
f 57/33/27 60/36/30 42/50/42
f 44/40/34 54/31/25 57/33/27
f 64/52/44 67/56/48 66/53/45
f 65/55/47 68/58/50 67/56/48
f 67/56/48 70/59/51 69/57/49
f 68/58/50 71/68/59 70/59/51
f 2/60/14 29/62/53 63/54/46
f 29/62/53 28/64/55 64/52/44
f 27/63/54 65/55/47 64/52/44
f 1/65/56 30/125/81 65/55/47
f 65/55/47 30/125/81 31/66/57
f 68/58/50 31/66/57 32/67/58
f 71/68/59 32/67/58 3/69/60
f 71/68/59 18/70/61 19/71/62
f 70/72/51 19/153/62 20/73/63
f 69/57/49 20/154/63 4/75/18
f 66/53/45 69/57/49 15/76/17
f 17/61/52 63/54/46 66/53/45
f 72/78/64 73/82/68 76/79/65
f 74/81/67 77/94/73 76/79/65
f 76/83/65 79/96/71 78/84/69
f 76/79/65 77/94/73 80/86/70
f 4/21/18 20/155/63 72/88/64
f 20/89/63 19/91/62 73/82/68
f 18/90/61 74/81/67 73/82/68
f 3/92/60 9/121/88 74/81/67
f 74/81/67 9/121/88 10/93/72
f 10/93/72 11/120/87 80/86/70
f 80/95/70 11/118/87 7/39/33
f 79/96/71 80/95/70 44/40/34
f 79/96/71 43/51/43 42/50/42
f 78/84/69 42/50/42 8/27/22
f 75/85/66 78/84/69 12/26/21
f 14/97/19 72/78/64 75/80/66
f 81/99/74 82/102/77 85/100/75
f 82/102/77 83/112/84 86/103/78
f 84/104/76 85/156/75 88/105/79
f 86/103/78 89/117/86 88/107/79
f 1/108/56 23/110/82 81/99/74
f 23/110/82 22/111/83 82/102/77
f 22/111/83 21/114/85 83/112/84
f 5/113/38 41/157/37 83/112/84
f 83/112/84 41/157/37 40/115/35
f 86/103/78 40/115/35 39/116/36
f 39/42/36 7/39/33 11/118/87
f 88/105/79 89/158/86 11/120/87
f 88/105/79 10/93/72 9/121/88
f 87/106/80 9/121/88 3/92/60
f 31/66/57 84/159/76 87/123/80
f 81/124/74 84/159/76 31/66/57
f 90/126/89 91/130/93 94/127/90
f 92/129/92 95/139/98 94/127/90
f 94/127/90 97/133/96 96/131/94
f 94/127/90 95/139/98 98/132/95
f 6/134/11 35/135/41 90/126/89
f 35/135/41 34/137/97 91/130/93
f 33/136/39 92/129/92 91/130/93
f 5/44/38 21/138/85 92/129/92
f 21/138/85 22/160/83 95/139/98
f 95/139/98 22/160/83 23/140/82
f 98/132/95 23/140/82 1/141/56
f 97/133/96 98/132/95 27/142/54
f 97/133/96 28/143/55 29/144/53
f 96/145/94 29/62/53 2/60/14
f 93/128/91 96/131/94 24/147/12
f 26/12/9 90/126/89 93/128/91
