# Blender v2.90.1 OBJ File: 'Stone_Small_and_big.blend'
# www.blender.org
mtllib Rock_Big_3.mtl
o Procedural_rocks_bake2.002_Procedural_rocks_bake2.003
v -0.116303 0.062953 1.135844
v 0.375653 0.464724 1.261669
v -0.288306 0.205870 1.333160
v -0.647887 -0.036514 0.986093
v 0.448801 0.095901 0.808479
v 0.721123 0.407832 1.096859
v 0.144250 0.786256 1.176112
v -0.438456 0.471041 1.315396
v -0.749523 0.277785 1.065338
v 0.185793 -0.068574 0.101965
v -0.405953 0.702808 0.645013
v -0.819205 0.185229 0.440515
v -0.591247 -0.005954 0.158847
v -0.108014 -0.080101 -0.000012
v 0.582752 0.787785 0.981054
v 0.523962 0.064929 0.097201
v 0.831478 0.235512 0.524446
v 0.805439 0.673413 0.641804
v 0.378548 0.744463 0.606959
v 0.119189 0.911771 0.098463
v -0.450629 0.659745 0.120607
v -0.744528 0.547454 0.376479
v -0.856017 0.163451 -0.080050
v -0.440743 0.007711 -0.681958
v 0.880041 0.534003 0.459186
v 0.555819 0.193956 -0.578926
v -0.323649 0.949532 -0.542328
v 0.751019 0.388139 -0.059888
v -0.309178 0.285124 -1.304282
v 0.448230 0.208511 -0.996866
v 0.552188 0.806306 0.049558
v -0.574615 0.829946 -0.509830
v -0.918172 0.567488 -0.414459
v -0.852607 0.162306 -1.077974
v 0.384087 0.971685 -0.925642
v 0.456788 0.310185 -1.351329
v 0.598028 0.577198 -1.187790
v 0.625369 0.786061 -0.567867
v 0.006824 0.651386 -1.500451
v -0.215240 0.846578 -1.218089
v -0.894779 0.458610 -1.225311
v 0.369664 0.775263 -1.258000
vt 0.589367 0.440719
vt 0.576271 0.473050
vt 0.582378 0.427003
vt 0.895586 0.738831
vt 0.954680 0.737982
vt 0.907950 0.779469
vt 0.881863 0.724246
vt 0.928258 0.728179
vt 0.753687 0.800073
vt 0.735019 0.831463
vt 0.718808 0.798269
vt 0.985435 0.088596
vt 0.999468 0.074171
vt 0.994538 0.120116
vt 0.946317 0.782043
vt 0.925803 0.787568
vt 0.887757 0.776719
vt 0.711555 0.850934
vt 0.703030 0.814848
vt 0.880675 0.814140
vt 0.730812 0.861677
vt 0.967447 0.083759
vt 0.989271 0.060677
vt 0.956081 0.797246
vt 0.930778 0.827311
vt 0.870543 0.780853
vt 0.950860 0.849734
vt 0.750203 0.895029
vt 0.764712 0.856711
vt 0.787556 0.909083
vt 0.877642 0.855264
vt 0.882168 0.835082
vt 0.917901 0.858136
vt 0.884898 0.933791
vt 0.903068 0.904181
vt 0.908094 0.937241
vt 0.302282 0.619805
vt 0.287358 0.650832
vt 0.286043 0.601892
vt 0.887584 0.872253
vt 0.871830 0.885470
vt 0.875415 0.864616
vt 0.757507 0.929031
vt 0.769097 0.942840
vt 0.718430 0.935111
vt 0.901261 0.866974
vt 0.912253 0.883746
vt 0.937434 0.717232
vt 0.979088 0.121944
vt 0.872913 0.751654
vt 0.303807 0.578853
vt 0.587339 0.479328
vt 0.608082 0.447348
vt 0.603413 0.482489
vt 0.598587 0.502046
vt 0.601672 0.424903
vt 0.770608 0.828084
vt 0.903242 0.970958
vt 0.912271 0.987631
vt 0.891907 0.994083
vt 0.878152 0.966240
vt 0.869956 0.944094
vt 0.778205 0.806165
vt 0.789374 0.821918
vt 0.786178 0.856091
vt 0.892966 0.961039
vt 0.730190 0.896061
vt 0.969944 0.041148
vt 0.710492 0.894704
vt 0.870924 0.905943
vt 0.991260 0.008072
vt 0.278378 0.581638
vt 0.291465 0.568092
vt 0.974166 0.001821
vt 0.787724 0.927655
vt 0.302874 0.653346
vt 0.583884 0.501474
vn 0.3020 -0.0344 0.9527
vn 0.1927 -0.8537 0.4839
vn 0.7275 -0.1958 0.6576
vn 0.3478 -0.8904 0.2935
vn -0.4887 -0.7916 0.3668
vn 0.2019 -0.9780 -0.0518
vn -0.0097 0.8200 0.5723
vn -0.3896 0.9085 0.1511
vn -0.4259 0.4168 0.8030
vn -0.9579 -0.2842 0.0399
vn -0.3893 -0.9205 -0.0327
vn 0.0127 -0.9952 -0.0975
vn 0.5337 -0.8413 -0.0860
vn -0.7557 0.6437 0.1206
vn -0.8592 0.1183 0.4978
vn 0.6341 -0.7507 -0.1857
vn -0.3839 0.9157 0.1187
vn -0.8627 -0.5028 0.0542
vn -0.0870 -0.9783 -0.1879
vn 0.9757 -0.1372 -0.1707
vn -0.6187 -0.6792 -0.3947
vn -0.2784 0.9600 0.0309
vn -0.0240 0.9825 0.1850
vn 0.3640 0.9041 -0.2239
vn 0.5236 -0.5157 -0.6782
vn 0.5043 -0.8306 -0.2363
vn -0.0834 -0.6751 -0.7330
vn 0.8391 0.5420 -0.0456
vn 0.5635 0.8253 0.0367
vn -0.7623 0.1760 -0.6228
vn 0.0073 0.2783 -0.9605
vn 0.8727 0.1340 -0.4695
vn -0.2444 0.8578 -0.4523
vn 0.4127 0.6345 -0.6536
vn -0.0609 -0.3862 0.9204
vn 0.8273 -0.5552 0.0859
vn 0.4239 0.8370 0.3461
vn 0.0704 0.9960 0.0548
vn 0.7710 0.6240 0.1274
vn 0.9792 0.2027 -0.0106
vn -0.5012 0.8633 0.0600
vn -0.8977 0.4332 0.0802
usemtl Default_OBJ
s 1
f 2/1/1 1/2/2 6/3/3
f 5/4/4 4/5/5 10/6/6
f 5/4/4 6/7/3 1/8/2
f 7/9/7 11/10/8 8/11/9
f 12/12/10 13/13/11 4/14/5
f 4/5/5 13/15/11 14/16/12
f 10/6/6 16/17/13 5/4/4
f 11/10/8 22/18/14 9/19/15
f 16/17/13 10/6/6 26/20/16
f 22/18/14 11/10/8 21/21/17
f 22/22/14 23/23/18 12/12/10
f 23/24/18 24/25/19 13/15/11
f 28/26/20 16/17/13 26/20/16
f 34/27/21 24/25/19 23/24/18
f 27/28/22 20/29/23 35/30/24
f 36/31/25 30/32/26 29/33/27
f 28/34/20 38/35/28 31/36/29
f 29/37/27 41/38/30 39/39/31
f 37/40/32 30/41/26 36/42/25
f 35/30/24 40/43/33 27/28/22
f 39/44/31 41/45/30 40/43/33
f 37/40/32 42/46/34 35/47/24
f 1/8/2 3/48/35 4/5/5
f 8/11/9 11/10/8 9/19/15
f 9/49/15 22/22/14 12/12/10
f 5/4/4 16/17/13 17/50/36
f 29/37/27 39/39/31 36/51/25
f 28/34/20 37/40/32 38/35/28
f 31/36/29 38/35/28 35/47/24
f 3/52/35 7/53/7 8/54/9
f 1/2/2 2/1/1 3/52/35
f 1/8/2 4/5/5 5/4/4
f 9/55/15 3/52/35 8/54/9
f 2/1/1 15/56/37 7/53/7
f 4/14/5 9/49/15 12/12/10
f 10/6/6 4/5/5 14/16/12
f 7/9/7 19/57/38 11/10/8
f 17/50/36 6/7/3 5/4/4
f 18/58/39 15/59/37 6/60/3
f 17/61/36 18/58/39 6/60/3
f 20/29/23 21/21/17 11/10/8
f 12/12/10 23/23/18 13/13/11
f 13/15/11 24/25/19 14/16/12
f 14/16/12 26/20/16 10/6/6
f 28/34/20 17/61/36 16/62/13
f 19/57/38 15/63/37 18/64/39
f 11/10/8 19/57/38 20/29/23
f 20/29/23 27/28/22 21/21/17
f 30/32/26 24/25/19 29/33/27
f 19/57/38 31/65/29 20/29/23
f 25/66/40 31/36/29 18/58/39
f 27/28/22 32/67/41 21/21/17
f 23/23/18 22/22/14 33/68/42
f 33/69/42 21/21/17 32/67/41
f 26/70/16 37/40/32 28/34/20
f 34/71/21 23/23/18 33/68/42
f 34/27/21 29/33/27 24/25/19
f 32/67/41 40/43/33 41/45/30
f 20/29/23 31/65/29 35/30/24
f 36/51/25 42/72/34 37/73/32
f 33/68/42 41/74/30 34/71/21
f 40/43/33 42/75/34 39/44/31
f 33/69/42 32/67/41 41/45/30
f 41/38/30 29/37/27 34/76/21
f 35/30/24 42/75/34 40/43/33
f 38/35/28 37/40/32 35/47/24
f 3/52/35 2/1/1 7/53/7
f 9/55/15 4/77/5 3/52/35
f 2/1/1 6/3/3 15/56/37
f 7/9/7 15/63/37 19/57/38
f 17/61/36 25/66/40 18/58/39
f 14/16/12 24/25/19 26/20/16
f 28/34/20 25/66/40 17/61/36
f 30/32/26 26/20/16 24/25/19
f 19/57/38 18/64/39 31/65/29
f 25/66/40 28/34/20 31/36/29
f 33/69/42 22/18/14 21/21/17
f 26/70/16 30/41/26 37/40/32
f 32/67/41 27/28/22 40/43/33
f 36/51/25 39/39/31 42/72/34
