# Blender v2.90.1 OBJ File: 'Stone_Small_and_big.blend'
# www.blender.org
mtllib Rock_Small_3.mtl
o asset.009_Cube.009
v -0.022757 1.068958 -0.494552
v 0.503017 0.517102 -0.381439
v -0.007702 1.128128 0.318173
v 0.632006 0.588839 0.417738
v -0.506420 0.485178 -0.411476
v 0.024488 -0.028382 -0.358603
v -0.571611 0.544525 0.360792
v 0.015045 -0.054630 0.417873
v -0.179043 1.091352 0.427618
v -0.370736 0.902305 0.450409
v -0.498264 0.692814 0.408551
v 0.205513 -0.070468 0.556927
v 0.456166 0.144249 0.626903
v 0.571317 0.409007 0.512319
v 0.723647 0.583456 0.217074
v 0.637309 0.540814 -0.034461
v 0.553989 0.527447 -0.240877
v 0.139905 1.058866 0.392101
v 0.369797 0.958022 0.489965
v 0.516181 0.738579 0.439135
v -0.410594 0.612404 -0.424117
v -0.300183 0.776664 -0.471092
v -0.157268 0.927566 -0.477494
v 0.486080 0.366465 -0.472856
v 0.345901 0.152178 -0.499786
v 0.132278 0.109082 -0.370338
v 0.130077 0.933674 -0.482756
v 0.276665 0.790830 -0.464494
v 0.458526 0.662172 -0.476290
v -0.020340 1.119484 -0.291170
v -0.015801 1.128946 -0.068240
v -0.014417 1.106760 0.142815
v -0.412424 0.360514 -0.409346
v -0.300007 0.184828 -0.445230
v -0.141345 0.000184 -0.450303
v 0.016311 -0.033050 -0.190931
v 0.012718 0.057920 -0.000464
v 0.015210 -0.030716 0.210242
v -0.611210 0.525834 0.197312
v -0.699307 0.510799 -0.028737
v -0.626297 0.491017 -0.269128
v -0.177601 -0.059265 0.534019
v -0.394499 0.145688 0.554996
v -0.600597 0.372002 0.516933
v 0.210946 -0.014676 -0.224828
v 0.434850 0.087110 -0.267815
v 0.606231 0.300557 -0.281532
v 0.229592 -0.040359 0.002477
v 0.519353 0.019705 -0.008796
v 0.711001 0.271106 -0.032016
v 0.242062 -0.068018 0.256082
v 0.563274 -0.010723 0.323888
v 0.795935 0.274184 0.305240
v -0.657007 0.273998 0.264520
v -0.715892 0.220042 -0.014608
v -0.599463 0.260871 -0.289460
v -0.450177 0.057177 0.278381
v -0.478804 -0.005322 0.004476
v -0.463518 -0.005801 -0.307390
v -0.199284 -0.051485 0.238401
v -0.185159 -0.028214 0.002486
v -0.182655 -0.038613 -0.222519
v 0.454991 0.690863 -0.248668
v 0.408267 0.927531 -0.321773
v 0.222710 1.123644 -0.334856
v 0.614696 0.778815 -0.057236
v 0.491183 1.043524 -0.067145
v 0.208075 1.117486 -0.065792
v 0.548422 0.768001 0.195117
v 0.423273 0.989220 0.203828
v 0.192361 1.098948 0.168262
v 0.368875 0.576767 0.561631
v 0.166858 0.732364 0.491678
v -0.007106 0.916503 0.516321
v 0.228696 0.372417 0.710091
v 0.006138 0.583306 0.696774
v -0.204362 0.770724 0.623011
v 0.014506 0.102932 0.773984
v -0.242856 0.344876 0.811196
v -0.417127 0.569144 0.629955
v -0.224971 1.044369 -0.305817
v -0.416713 0.903164 -0.314264
v -0.609571 0.725419 -0.326959
v -0.269893 1.195035 -0.079917
v -0.570411 1.056610 -0.078333
v -0.645577 0.754565 -0.044537
v -0.234479 1.121931 0.182603
v -0.488615 0.999426 0.231315
v -0.580886 0.740145 0.205392
v 0.010956 0.141116 -0.579980
v -0.169537 0.330245 -0.578187
v -0.292833 0.488921 -0.494121
v 0.170859 0.332273 -0.586780
v -0.000165 0.493045 -0.472674
v -0.154660 0.638038 -0.535481
v 0.307615 0.507271 -0.540871
v 0.133664 0.639852 -0.453142
v -0.007369 0.781083 -0.519428
vt 0.312443 0.008256
vt 0.332296 0.028125
vt 0.308252 0.026369
vt 0.481774 0.201229
vt 0.522594 0.195171
vt 0.508543 0.215717
vt 0.341167 0.002097
vt 0.358880 0.030960
vt 0.952099 0.314805
vt 0.997419 0.288756
vt 0.985722 0.319072
vt 0.528125 0.260710
vt 0.526560 0.235876
vt 0.535013 0.254451
vt 0.510850 0.251770
vt 0.471353 0.222616
vt 0.495849 0.235557
vt 0.178946 0.449260
vt 0.192391 0.470380
vt 0.168342 0.460295
vt 0.220178 0.450591
vt 0.222198 0.475199
vt 0.249769 0.448875
vt 0.260743 0.473892
vt 0.958849 0.283582
vt 0.940026 0.253222
vt 0.963083 0.250636
vt 0.997419 0.248568
vt 0.376999 0.003370
vt 0.389330 0.040917
vt 0.369040 0.057617
vt 0.347620 0.054329
vt 0.326895 0.054435
vt 0.305434 0.045502
vt 0.337546 0.137244
vt 0.311013 0.100191
vt 0.341767 0.106311
vt 0.280870 0.119006
vt 0.305444 0.134437
vt 0.343540 0.075192
vt 0.295815 0.064293
vt 0.319571 0.069880
vt 0.533233 0.369674
vt 0.514458 0.341770
vt 0.542031 0.348242
vt 0.496826 0.368140
vt 0.517378 0.369449
vt 0.457665 0.357152
vt 0.486204 0.339865
vt 0.452711 0.386412
vt 0.470270 0.376389
vt 0.430882 0.371752
vt 0.440760 0.341013
vt 0.512309 0.300843
vt 0.539874 0.276394
vt 0.541141 0.309588
vt 0.288139 0.041326
vt 0.375166 0.078995
vt 0.374092 0.111089
vt 0.367510 0.141899
vt 0.183161 0.411729
vt 0.217588 0.433071
vt 0.191877 0.429986
vt 0.204247 0.375068
vt 0.213143 0.404668
vt 0.242173 0.421722
vt 0.239547 0.395657
vt 0.195539 0.449452
vt 0.163416 0.413163
vt 0.167779 0.437951
vt 0.157046 0.391227
vt 0.151140 0.369100
vt 0.176198 0.382674
vt 0.172911 0.360780
vt 0.219108 0.351263
vt 0.228519 0.369087
vt 0.237978 0.345996
vt 0.250460 0.361636
vt 0.268085 0.385952
vt 0.266938 0.414795
vt 0.268084 0.435526
vt 0.085638 0.185531
vt 0.059570 0.212277
vt 0.054503 0.181681
vt 0.093513 0.237563
vt 0.089028 0.214460
vt 0.019936 0.218409
vt 0.015965 0.185670
vt 0.034614 0.253371
vt 0.107504 0.169127
vt 0.085123 0.161787
vt 0.112676 0.185515
vt 0.118905 0.236763
vt 0.121048 0.206463
vt 0.118283 0.256963
vt 0.072175 0.273186
vt 0.065321 0.243626
vt 0.047598 0.277180
vt 0.031830 0.279346
vt 0.010009 0.266473
vt 0.001789 0.235465
vt 0.409144 0.073088
vt 0.112248 0.461675
vt 0.136848 0.491005
vt 0.102622 0.492126
vt 0.051399 0.154525
vt 0.477784 0.428219
vt 0.509427 0.458506
vt 0.479453 0.452597
vt 0.504257 0.394327
vt 0.511828 0.427626
vt 0.121048 0.303200
vt 0.080535 0.299004
vt 0.108297 0.283883
vt 0.537703 0.419880
vt 0.456379 0.471477
vt 0.478548 0.471477
vt 0.455661 0.449906
vt 0.454310 0.404247
vt 0.453713 0.427203
vt 0.474160 0.400487
vt 0.526540 0.390936
vt 0.542307 0.386680
vt 0.101026 0.265551
vt 0.216202 0.330151
vt 0.196728 0.354937
vt 0.164520 0.348491
vt 0.489130 0.294744
vt 0.479258 0.259739
vt 0.503205 0.273612
vt 0.479598 0.306078
vt 0.471934 0.274800
vt 0.318991 0.151306
vt 0.300313 0.169022
vt 0.297125 0.144424
vt 0.441318 0.281232
vt 0.454154 0.261959
vt 0.526410 0.282176
vt 0.445016 0.380443
vt 0.420446 0.396204
vt 0.144337 0.425537
vt 0.131803 0.442150
vt 0.129805 0.421254
vt 0.437453 0.424607
vt 0.438902 0.401524
vt 0.459216 0.295375
vt 0.432191 0.296946
vt 0.423487 0.267369
vt 0.434560 0.249516
vt 0.459524 0.245849
vt 0.442121 0.229443
vt 0.459052 0.218956
vt 0.491084 0.179466
vt 0.929780 0.275840
vt 0.408153 0.028149
vt 0.278691 0.091963
vt 0.273812 0.057225
vt 0.409144 0.111372
vt 0.136848 0.452637
vt 0.090610 0.324094
vt 0.053285 0.296727
vt 0.243924 0.330881
vt 0.187376 0.328714
vt 0.318991 0.172976
vt 0.144337 0.443532
vt 0.451592 0.309588
vt 0.413588 0.285502
vn 0.4780 -0.7698 -0.4231
vn 0.0097 -0.9931 -0.1165
vn 0.2665 -0.8976 -0.3510
vn 0.8572 -0.1962 -0.4761
vn 0.5069 -0.8255 -0.2481
vn 0.0414 -0.9967 -0.0693
vn 0.9193 -0.2244 -0.3232
vn 0.5915 -0.7824 0.1950
vn 0.2726 -0.8851 -0.3773
vn 0.0342 -0.9948 0.0955
vn 0.3702 -0.6978 -0.6131
vn 0.6773 -0.0427 -0.7345
vn 0.2837 -0.6475 -0.7073
vn 0.8521 0.2362 -0.4671
vn 0.9259 0.2445 -0.2881
vn 0.8805 0.4741 -0.0071
vn 0.9331 -0.2254 0.2801
vn 0.7096 0.3919 0.5856
vn 0.6153 0.0762 0.7846
vn 0.5972 -0.2971 0.7451
vn 0.1666 -0.9009 0.4008
vn -0.0301 -0.9973 -0.0671
vn -0.0275 -0.9832 -0.1806
vn -0.0036 -0.9997 0.0245
vn -0.9172 -0.2714 0.2916
vn -0.4932 -0.8691 0.0380
vn -0.5851 -0.7710 0.2514
vn -0.7741 -0.2673 -0.5739
vn -0.9221 -0.3797 -0.0746
vn -0.1283 -0.9915 -0.0198
vn -0.1068 -0.9818 -0.1570
vn 0.0786 -0.9968 -0.0173
vn -0.9077 0.2855 0.3075
vn -0.8181 -0.0554 0.5724
vn -0.9895 0.1442 -0.0101
vn -0.9422 0.1988 0.2697
vn -0.5182 -0.0670 -0.8527
vn -0.9013 -0.0249 -0.4324
vn -0.4567 -0.3780 -0.8053
vn -0.4627 -0.7354 -0.4951
vn -0.3045 -0.8792 0.3664
vn -0.6196 -0.5293 0.5796
vn 0.6961 0.3852 -0.6059
vn 0.9550 0.2524 -0.1557
vn 0.8111 0.2896 -0.5082
vn 0.2285 0.9735 0.0097
vn 0.6356 0.7651 -0.1035
vn 0.8515 0.5002 0.1574
vn 0.6288 0.7414 0.2346
vn 0.8566 0.3055 -0.4158
vn 0.3633 0.2660 -0.8929
vn 0.7069 0.3617 -0.6079
vn 0.2795 0.2480 -0.9276
vn -0.1157 0.5862 -0.8019
vn 0.4178 0.8348 -0.3585
vn -0.1774 0.9770 -0.1185
vn 0.0571 0.9984 -0.0019
vn 0.2632 0.9567 0.1246
vn 0.1041 0.9520 0.2878
vn 0.1877 0.7726 0.6065
vn 0.3660 0.5335 0.7625
vn 0.6404 0.4299 0.6365
vn 0.3365 0.4205 0.8426
vn 0.1683 0.4203 0.8916
vn 0.3322 0.1909 0.9237
vn 0.1971 0.5022 0.8420
vn 0.2647 0.4112 0.8723
vn -0.3451 -0.0106 0.9385
vn 0.0105 -0.4333 0.9012
vn -0.5785 0.3286 0.7466
vn -0.5366 0.4996 0.6801
vn -0.2098 0.4784 0.8527
vn -0.7858 0.3338 0.5207
vn -0.5468 0.5201 -0.6561
vn -0.1152 0.9785 -0.1710
vn -0.3785 0.7827 -0.4941
vn -0.9631 0.2684 -0.0184
vn -0.7577 0.6204 -0.2022
vn -0.6588 0.6222 0.4230
vn -0.1994 0.9514 0.2345
vn -0.3421 0.3608 -0.8676
vn -0.3994 0.1833 -0.8983
vn -0.4699 0.2325 -0.8515
vn -0.7495 0.3515 -0.5610
vn -0.9217 0.2299 0.3124
vn -0.2248 0.7586 0.6115
vn 0.0675 0.9975 -0.0193
vn -0.2715 0.0719 -0.9598
vn 0.0980 -0.0282 -0.9948
vn 0.1725 -0.4782 -0.8611
vn -0.3213 0.0568 -0.9453
vn 0.0257 0.2266 -0.9736
vn 0.1663 0.1766 -0.9701
vn 0.0948 0.0487 -0.9943
vn -0.0049 0.0377 -0.9993
vn -0.3266 -0.7640 -0.5565
vn -0.4601 -0.2012 -0.8648
vn -0.0663 -0.0552 -0.9963
usemtl Material.001
s 1
f 46/1/1 48/2/2 45/3/3
f 47/4/4 49/5/5 46/6/1
f 49/7/5 51/8/6 48/2/2
f 50/9/7 52/10/8 49/11/5
f 6/12/9 45/13/3 36/14/10
f 26/15/11 46/6/1 45/13/3
f 24/16/12 46/6/1 25/17/13
f 2/18/14 47/19/4 24/20/12
f 47/19/4 16/21/15 50/22/7
f 50/22/7 15/23/16 53/24/17
f 53/25/17 4/26/18 14/27/19
f 52/10/8 14/27/19 13/28/20
f 52/29/8 12/30/21 51/8/6
f 51/8/6 8/31/22 38/32/23
f 48/2/2 38/32/23 37/33/24
f 36/34/10 48/2/2 37/33/24
f 54/35/25 58/36/26 57/37/27
f 56/38/28 58/36/26 55/39/29
f 58/36/26 60/40/30 57/37/27
f 58/36/26 62/41/31 61/42/32
f 7/43/33 54/44/25 44/45/34
f 40/46/35 54/44/25 39/47/36
f 40/46/35 56/48/28 55/49/29
f 5/50/37 56/48/28 41/51/38
f 56/48/28 34/52/39 59/53/40
f 34/54/39 62/55/31 59/56/40
f 62/41/31 6/57/9 36/34/10
f 61/42/32 36/34/10 37/33/24
f 61/42/32 38/32/23 60/40/30
f 60/40/30 8/31/22 42/58/41
f 57/37/27 42/58/41 43/59/42
f 54/35/25 43/59/42 44/60/34
f 64/61/43 66/62/44 63/63/45
f 64/61/43 68/64/46 67/65/47
f 67/65/47 69/66/48 66/62/44
f 68/64/46 70/67/49 67/65/47
f 2/18/14 63/63/45 17/68/50
f 28/69/51 63/63/45 29/70/52
f 27/71/53 64/61/43 28/69/51
f 1/72/54 65/73/55 27/71/53
f 30/74/56 68/64/46 65/73/55
f 68/64/46 32/75/57 71/76/58
f 71/76/58 3/77/59 18/78/60
f 70/67/49 18/78/60 19/79/61
f 70/67/49 20/80/62 69/66/48
f 69/66/48 4/81/18 15/23/16
f 16/21/15 69/66/48 15/23/16
f 17/68/50 66/62/44 16/21/15
f 72/82/63 76/83/64 75/84/65
f 74/85/66 76/83/64 73/86/67
f 75/84/65 79/87/68 78/88/69
f 76/83/64 80/89/70 79/87/68
f 4/90/18 72/82/63 14/91/19
f 20/92/62 73/86/67 72/82/63
f 18/93/60 73/86/67 19/94/61
f 3/95/59 74/85/66 18/93/60
f 74/85/66 10/96/71 77/97/72
f 77/97/72 11/98/73 80/89/70
f 80/89/70 7/99/33 44/100/34
f 80/89/70 43/101/42 79/87/68
f 78/102/69 43/59/42 42/58/41
f 12/30/21 42/58/41 8/31/22
f 13/103/20 78/104/69 12/105/21
f 14/91/19 75/84/65 13/106/20
f 82/107/74 84/108/75 81/109/76
f 82/107/74 86/110/77 85/111/78
f 84/112/75 88/113/79 87/114/80
f 86/110/77 88/115/79 85/111/78
f 1/116/54 81/109/76 30/117/56
f 23/118/81 82/107/74 81/109/76
f 21/119/82 82/107/74 22/120/83
f 5/50/37 83/121/84 21/119/82
f 41/51/38 86/110/77 83/121/84
f 86/110/77 39/47/36 89/122/85
f 89/122/85 7/43/33 11/123/73
f 88/113/79 11/98/73 10/96/71
f 87/114/80 10/96/71 9/124/86
f 87/125/80 3/77/59 32/75/57
f 31/126/87 87/125/80 32/75/57
f 81/127/76 31/126/87 30/74/56
f 91/128/88 93/129/89 90/130/90
f 92/131/91 94/132/92 91/128/88
f 94/133/92 96/134/93 93/135/89
f 94/132/92 98/136/94 97/137/95
f 6/12/9 90/130/90 26/15/11
f 34/54/39 90/130/90 35/138/96
f 33/139/97 91/140/88 34/52/39
f 5/141/37 92/142/91 33/143/97
f 21/119/82 95/144/98 92/145/91
f 95/146/98 23/147/81 98/136/94
f 23/147/81 27/148/53 98/136/94
f 98/136/94 28/149/51 97/137/95
f 96/150/93 28/149/51 29/151/52
f 96/150/93 2/152/14 24/16/12
f 93/129/89 24/16/12 25/17/13
f 26/15/11 93/129/89 25/17/13
f 46/1/1 49/7/5 48/2/2
f 47/4/4 50/153/7 49/5/5
f 49/7/5 52/29/8 51/8/6
f 50/9/7 53/25/17 52/10/8
f 6/12/9 26/15/11 45/13/3
f 26/15/11 25/17/13 46/6/1
f 24/16/12 47/4/4 46/6/1
f 2/18/14 17/68/50 47/19/4
f 47/19/4 17/68/50 16/21/15
f 50/22/7 16/21/15 15/23/16
f 53/25/17 15/154/16 4/26/18
f 52/10/8 53/25/17 14/27/19
f 52/29/8 13/155/20 12/30/21
f 51/8/6 12/30/21 8/31/22
f 48/2/2 51/8/6 38/32/23
f 36/34/10 45/3/3 48/2/2
f 54/35/25 55/39/29 58/36/26
f 56/38/28 59/156/40 58/36/26
f 58/36/26 61/42/32 60/40/30
f 58/36/26 59/156/40 62/41/31
f 7/43/33 39/47/36 54/44/25
f 40/46/35 55/49/29 54/44/25
f 40/46/35 41/51/38 56/48/28
f 5/50/37 33/139/97 56/48/28
f 56/48/28 33/139/97 34/52/39
f 34/54/39 35/138/96 62/55/31
f 62/41/31 35/157/96 6/57/9
f 61/42/32 62/41/31 36/34/10
f 61/42/32 37/33/24 38/32/23
f 60/40/30 38/32/23 8/31/22
f 57/37/27 60/40/30 42/58/41
f 54/35/25 57/37/27 43/59/42
f 64/61/43 67/65/47 66/62/44
f 64/61/43 65/73/55 68/64/46
f 67/65/47 70/67/49 69/66/48
f 68/64/46 71/76/58 70/67/49
f 2/18/14 29/70/52 63/63/45
f 28/69/51 64/61/43 63/63/45
f 27/71/53 65/73/55 64/61/43
f 1/72/54 30/74/56 65/73/55
f 30/74/56 31/126/87 68/64/46
f 68/64/46 31/126/87 32/75/57
f 71/76/58 32/75/57 3/77/59
f 70/67/49 71/76/58 18/78/60
f 70/67/49 19/79/61 20/80/62
f 69/66/48 20/80/62 4/81/18
f 16/21/15 66/62/44 69/66/48
f 17/68/50 63/63/45 66/62/44
f 72/82/63 73/86/67 76/83/64
f 74/85/66 77/97/72 76/83/64
f 75/84/65 76/83/64 79/87/68
f 76/83/64 77/97/72 80/89/70
f 4/90/18 20/92/62 72/82/63
f 20/92/62 19/94/61 73/86/67
f 18/93/60 74/85/66 73/86/67
f 3/95/59 9/124/86 74/85/66
f 74/85/66 9/124/86 10/96/71
f 77/97/72 10/96/71 11/98/73
f 80/89/70 11/98/73 7/99/33
f 80/89/70 44/100/34 43/101/42
f 78/102/69 79/158/68 43/59/42
f 12/30/21 78/102/69 42/58/41
f 13/103/20 75/159/65 78/104/69
f 14/91/19 72/82/63 75/84/65
f 82/107/74 85/111/78 84/108/75
f 82/107/74 83/121/84 86/110/77
f 84/112/75 85/160/78 88/113/79
f 86/110/77 89/122/85 88/115/79
f 1/116/54 23/118/81 81/109/76
f 23/118/81 22/120/83 82/107/74
f 21/119/82 83/121/84 82/107/74
f 5/50/37 41/51/38 83/121/84
f 41/51/38 40/46/35 86/110/77
f 86/110/77 40/46/35 39/47/36
f 89/122/85 39/47/36 7/43/33
f 88/113/79 89/161/85 11/98/73
f 87/114/80 88/113/79 10/96/71
f 87/125/80 9/162/86 3/77/59
f 31/126/87 84/163/75 87/125/80
f 81/127/76 84/163/75 31/126/87
f 91/128/88 94/132/92 93/129/89
f 92/131/91 95/146/98 94/132/92
f 94/133/92 97/164/95 96/134/93
f 94/132/92 95/146/98 98/136/94
f 6/12/9 35/138/96 90/130/90
f 34/54/39 91/128/88 90/130/90
f 33/139/97 92/145/91 91/140/88
f 5/141/37 21/165/82 92/142/91
f 21/119/82 22/120/83 95/144/98
f 95/146/98 22/166/83 23/147/81
f 23/147/81 1/167/54 27/148/53
f 98/136/94 27/148/53 28/149/51
f 96/150/93 97/137/95 28/149/51
f 96/150/93 29/151/52 2/152/14
f 93/129/89 96/150/93 24/16/12
f 26/15/11 90/130/90 93/129/89
