# Blender v2.90.1 OBJ File: 'Stone_Small_and_big.blend'
# www.blender.org
mtllib Rock_Small_1.mtl.mtl
o asset.006_Cube.006
v -0.503174 0.769835 -0.210594
v -0.630371 0.519575 0.022022
v -0.534287 0.779929 0.022470
v -0.594147 0.246645 -0.245885
v -0.671389 0.527102 -0.261571
v -0.473917 0.751765 0.241397
v -0.536956 0.267577 0.262715
v -0.607388 0.523997 0.285579
v -0.288906 0.842551 -0.284979
v -0.309657 0.856344 -0.157070
v -0.400813 0.757483 -0.397003
v -0.464344 0.260090 -0.462640
v -0.528534 0.528622 -0.530326
v -0.409347 0.081680 -0.414602
v -0.488773 -0.016055 -0.243260
v -0.609769 0.246178 0.022646
v -0.420546 0.067048 0.254808
v -0.359507 0.127352 0.398538
v -0.444026 0.271088 0.483592
v -0.454237 0.527010 0.496233
v -0.359953 0.731498 0.398985
v -0.276875 0.822551 0.316143
v -0.321559 0.866114 0.200113
v -0.335417 0.887124 0.015645
v 0.200218 0.904841 0.197410
v 0.009116 0.961401 0.014867
v 0.014908 0.959916 0.212183
v 0.200316 0.949989 -0.169644
v 0.211251 0.953160 0.023734
v -0.176909 0.944118 0.205296
v -0.151020 0.862593 -0.146252
v -0.166236 0.909466 0.014537
v 0.294234 0.792001 0.279268
v 0.200993 0.856937 0.346320
v 0.294800 0.793605 0.169839
v 0.361859 0.858580 -0.147895
v 0.342868 0.835914 0.026825
v 0.346317 0.860476 -0.298744
v 0.196867 0.867871 -0.327446
v 0.008530 0.910385 -0.161448
v -0.162570 0.852994 -0.307313
v -0.160719 0.839065 0.341248
v 0.010784 0.909173 0.400376
v -0.213702 0.004750 -0.207601
v 0.012987 -0.021761 0.019788
v -0.218854 -0.026570 0.018832
v 0.239636 -0.005819 -0.205594
v 0.012561 -0.020564 -0.207171
v -0.205098 0.004992 0.243829
v 0.233001 0.020248 0.241866
v 0.015982 -0.020378 0.253904
v 0.011219 0.020124 -0.460346
v -0.225286 0.029709 -0.450218
v 0.463580 0.056509 -0.415736
v 0.262250 0.000236 -0.468760
v 0.465036 0.061771 0.036106
v 0.241914 -0.024874 0.022490
v 0.393538 0.139230 0.224321
v 0.344431 0.192459 0.348061
v 0.210344 0.139162 0.394862
v 0.014599 0.136770 0.393909
v -0.189628 0.097819 0.430199
v -0.502174 -0.025865 0.033870
v -0.214075 0.280197 0.541078
v 0.013083 0.514749 0.579394
v -0.222453 0.517324 0.570680
v 0.230223 0.297190 0.489519
v 0.019025 0.265497 0.571307
v -0.193583 0.732006 0.481727
v 0.254027 0.510581 0.565031
v 0.010602 0.736644 0.516395
v 0.357690 0.328605 0.362028
v 0.351391 0.699426 0.341006
v 0.245941 0.750545 0.514537
v 0.518161 0.519029 -0.199987
v 0.546964 0.287532 0.028830
v 0.573861 0.278347 -0.214488
v 0.433596 0.705307 -0.164457
v 0.532499 0.524934 0.019136
v 0.454362 0.313484 0.221594
v 0.390903 0.697958 0.189780
v 0.528173 0.529080 0.239508
v 0.489058 0.028020 -0.205295
v 0.494517 0.527298 -0.443079
v 0.533491 0.262918 -0.479295
v 0.425415 0.738206 -0.369502
v 0.416547 0.700753 0.019930
v 0.427342 0.516906 0.422394
v -0.217864 0.764033 -0.498993
v 0.012335 0.523213 -0.686412
v -0.263499 0.522190 -0.634659
v 0.244806 0.758420 -0.491148
v 0.014250 0.788279 -0.553762
v -0.247087 0.250852 -0.575433
v 0.294930 0.529473 -0.628166
v 0.008225 0.228778 -0.641183
v 0.009526 0.890392 -0.337477
v 0.309565 0.217977 -0.683267
vt 0.320163 0.575590
vt 0.294668 0.547848
vt 0.315010 0.550643
vt 0.961680 0.158624
vt 0.931845 0.189460
vt 0.929716 0.158154
vt 0.317883 0.524976
vt 0.961271 0.214650
vt 0.931999 0.218145
vt 0.345897 0.581278
vt 0.343021 0.567795
vt 0.332090 0.594105
vt 0.293612 0.579937
vt 0.564318 0.885277
vt 0.596506 0.856497
vt 0.593818 0.884509
vt 0.544679 0.886873
vt 0.565211 0.861117
vt 0.993077 0.159049
vt 0.960643 0.186294
vt 0.986821 0.215299
vt 0.983111 0.233637
vt 0.964631 0.241489
vt 0.938049 0.246190
vt 0.308311 0.492646
vt 0.327211 0.505260
vt 0.340258 0.514508
vt 0.338579 0.528833
vt 0.339859 0.549761
vt 0.393887 0.520622
vt 0.378325 0.545077
vt 0.376868 0.523216
vt 0.399419 0.561836
vt 0.398718 0.540399
vt 0.356552 0.527075
vt 0.359497 0.563921
vt 0.358188 0.547295
vt 0.484624 0.752626
vt 0.467223 0.746482
vt 0.482397 0.742395
vt 0.475256 0.758874
vt 0.450503 0.751983
vt 0.448182 0.771218
vt 0.463280 0.763176
vt 0.412163 0.571927
vt 0.412163 0.555005
vt 0.397361 0.577847
vt 0.377998 0.563619
vt 0.359550 0.581697
vt 0.352628 0.509986
vt 0.372504 0.501676
vt 0.390539 0.503373
vt 0.580153 0.273001
vt 0.613594 0.260482
vt 0.603041 0.284144
vt 0.600958 0.227162
vt 0.590637 0.250521
vt 0.626147 0.291968
vt 0.645658 0.246960
vt 0.637370 0.270442
vt 0.549782 0.282189
vt 0.564263 0.299876
vt 0.564680 0.238665
vt 0.554923 0.262984
vt 0.589376 0.193805
vt 0.575348 0.213161
vt 0.635048 0.213412
vt 0.624253 0.237361
vt 0.650219 0.227327
vt 0.842167 0.204790
vt 0.862533 0.195926
vt 0.858636 0.212549
vt 0.839387 0.227920
vt 0.859581 0.232306
vt 0.644947 0.296623
vt 0.633827 0.311900
vt 0.617017 0.313071
vt 0.591731 0.313633
vt 0.879870 0.260203
vt 0.904758 0.235417
vt 0.906318 0.258742
vt 0.877778 0.212599
vt 0.877491 0.238347
vt 0.927445 0.248186
vt 0.902476 0.210464
vt 0.927445 0.229158
vt 0.861005 0.270452
vt 0.879036 0.280808
vt 0.857445 0.255282
vt 0.877537 0.193118
vt 0.917348 0.186917
vt 0.927438 0.205087
vt 0.497454 0.757975
vt 0.504397 0.742844
vt 0.364387 0.485896
vt 0.343526 0.493227
vt 0.331036 0.480198
vt 0.907155 0.278424
vt 0.468900 0.807114
vt 0.501688 0.816088
vt 0.482777 0.831222
vt 0.458184 0.787015
vt 0.487954 0.793729
vt 0.512195 0.802266
vt 0.486606 0.766981
vt 0.506285 0.780433
vt 0.471603 0.864369
vt 0.492235 0.854818
vt 0.446618 0.820528
vt 0.459039 0.848189
vt 0.438638 0.795832
vt 0.434478 0.779855
vt 0.473271 0.776660
vt 0.517503 0.770867
vt 0.872149 0.176856
vt 0.898886 0.186021
vt 0.853681 0.185868
vt 0.864441 0.158666
vt 0.840617 0.170836
vt 0.509864 0.837425
vt 0.618466 0.916106
vt 0.589160 0.946738
vt 0.590899 0.916385
vt 0.615480 0.962152
vt 0.619500 0.942413
vt 0.561274 0.912758
vt 0.588827 0.972230
vt 0.556979 0.941566
vt 0.352222 0.602233
vt 0.379077 0.582641
vt 0.377649 0.604602
vt 0.418337 0.800924
vt 0.424284 0.780759
vt 0.420908 0.831065
vt 0.432941 0.864369
vt 0.554111 0.194304
vt 0.544638 0.226603
vt 0.537687 0.906742
vt 0.619500 0.892489
vt 0.294549 0.518492
vt 0.311098 0.607051
vt 0.535631 0.869375
vt 0.993077 0.187571
vt 0.433667 0.763599
vt 0.612013 0.201067
vt 0.650219 0.273413
vt 0.389196 0.482201
vt 0.895485 0.166874
vt 0.553874 0.973893
vt 0.399557 0.593128
vt 0.584500 0.179525
vt 0.535308 0.930941
vn -0.6479 0.7358 -0.1970
vn -0.9837 0.1430 0.1092
vn -0.7619 0.6455 0.0534
vn -0.9181 -0.2951 -0.2646
vn -0.9694 0.1613 -0.1853
vn -0.6750 0.6452 0.3579
vn -0.8719 -0.3422 0.3503
vn -0.9304 0.1278 0.3436
vn -0.2238 0.9445 -0.2404
vn -0.2326 0.9575 -0.1703
vn -0.4659 0.7324 -0.4965
vn -0.6427 -0.3285 -0.6921
vn -0.6587 0.1592 -0.7354
vn -0.4633 -0.6394 -0.6136
vn -0.5014 -0.8018 -0.3253
vn -0.9614 -0.2376 0.1389
vn -0.5273 -0.7291 0.4362
vn -0.4191 -0.6888 0.5915
vn -0.6145 -0.3526 0.7058
vn -0.5941 0.2122 0.7759
vn -0.4478 0.6449 0.6193
vn -0.3487 0.7818 0.5170
vn -0.4394 0.8599 0.2599
vn -0.3147 0.9483 -0.0418
vn 0.5018 0.8404 0.2048
vn -0.1003 0.9900 -0.0995
vn 0.0608 0.9803 0.1882
vn 0.1349 0.9621 -0.2370
vn 0.3568 0.9193 0.1659
vn -0.2889 0.9294 0.2296
vn -0.1707 0.9695 -0.1758
vn -0.2298 0.9553 -0.1862
vn 0.7207 0.6675 0.1872
vn 0.4564 0.7984 0.3929
vn 0.7384 0.6542 0.1634
vn 0.7514 0.6596 0.0171
vn 0.7531 0.5921 0.2866
vn 0.5521 0.7754 -0.3066
vn 0.1051 0.8937 -0.4362
vn -0.2015 0.9536 -0.2235
vn -0.1958 0.9561 -0.2178
vn -0.2636 0.7752 0.5742
vn -0.0564 0.8062 0.5889
vn -0.0247 -0.9881 -0.1517
vn 0.0044 -0.9999 0.0154
vn -0.0086 -0.9988 0.0476
vn 0.1163 -0.9922 -0.0450
vn -0.0227 -0.9964 -0.0819
vn -0.1681 -0.9454 0.2791
vn 0.3563 -0.8561 0.3744
vn 0.0617 -0.9354 0.3481
vn -0.0605 -0.8831 -0.4653
vn -0.2108 -0.8409 -0.4984
vn 0.6254 -0.7061 -0.3320
vn 0.1104 -0.9093 -0.4012
vn 0.6628 -0.6900 0.2910
vn 0.2050 -0.9744 0.0923
vn 0.7033 -0.5484 0.4523
vn 0.6685 -0.4173 0.6156
vn 0.2425 -0.6222 0.7444
vn 0.1757 -0.7001 0.6921
vn -0.0853 -0.7370 0.6705
vn -0.5591 -0.8017 0.2114
vn -0.1728 -0.3223 0.9307
vn 0.0240 0.0877 0.9959
vn -0.1755 0.1604 0.9713
vn 0.4420 -0.3902 0.8077
vn 0.1667 -0.4133 0.8952
vn -0.2323 0.5918 0.7719
vn 0.4058 -0.0383 0.9132
vn -0.0712 0.4870 0.8705
vn 0.7287 -0.2876 0.6216
vn 0.7519 0.5522 0.3602
vn 0.4429 0.5356 0.7190
vn 0.9564 0.2893 -0.0406
vn 0.9604 -0.1092 0.2565
vn 0.9980 -0.0622 -0.0127
vn 0.8930 0.4493 0.0271
vn 0.9633 0.2621 0.0585
vn 0.8672 -0.2555 0.4274
vn 0.7467 0.6546 0.1184
vn 0.9585 0.1580 0.2373
vn 0.6355 -0.7721 -0.0029
vn 0.8402 0.3186 -0.4388
vn 0.8769 -0.1004 -0.4701
vn 0.7670 0.5260 -0.3675
vn 0.8355 0.5271 0.1550
vn 0.7533 0.0552 0.6554
vn -0.2849 0.7078 -0.6464
vn 0.0010 0.1613 -0.9869
vn -0.2990 0.1517 -0.9421
vn 0.3506 0.6466 -0.6775
vn 0.0112 0.6944 -0.7195
vn -0.3297 -0.3298 -0.8846
vn 0.3863 0.3192 -0.8654
vn -0.1300 -0.3627 -0.9228
vn -0.0503 0.9614 -0.2704
vn 0.2623 -0.2626 -0.9285
usemtl Material.002
s 1
f 1/1/1 2/2/2 3/3/3
f 4/4/4 2/5/2 5/6/5
f 2/2/2 6/7/6 3/3/3
f 2/5/2 7/8/7 8/9/8
f 9/10/9 1/1/1 10/11/10
f 11/12/11 5/13/5 1/1/1
f 12/14/12 5/15/5 13/16/13
f 14/17/14 4/18/4 12/14/12
f 15/19/15 16/20/16 4/4/4
f 16/20/16 17/21/17 7/8/7
f 7/8/7 18/22/18 19/23/19
f 7/8/7 20/24/20 8/9/8
f 6/7/6 20/25/20 21/26/21
f 6/7/6 22/27/22 23/28/23
f 3/3/3 23/28/23 24/29/24
f 10/11/10 3/3/3 24/29/24
f 25/30/25 26/31/26 27/32/27
f 28/33/28 26/31/26 29/34/29
f 26/31/26 30/35/30 27/32/27
f 26/31/26 31/36/31 32/37/32
f 33/38/33 25/39/25 34/40/34
f 35/41/35 29/42/29 25/39/25
f 36/43/36 29/42/29 37/44/37
f 38/45/38 28/33/28 36/46/36
f 39/47/39 40/48/40 28/33/28
f 40/48/40 41/49/41 31/36/31
f 31/36/31 9/10/9 10/11/10
f 32/37/32 10/11/10 24/29/24
f 32/37/32 23/28/23 30/35/30
f 30/35/30 22/27/22 42/50/42
f 27/32/27 42/50/42 43/51/43
f 34/52/34 27/32/27 43/51/43
f 44/53/44 45/54/45 46/55/46
f 47/56/47 45/54/45 48/57/48
f 45/54/45 49/58/49 46/55/46
f 45/54/45 50/59/50 51/60/51
f 14/61/14 44/53/44 15/62/15
f 52/63/52 44/53/44 53/64/53
f 52/63/52 47/56/47 48/57/48
f 54/65/54 47/56/47 55/66/55
f 47/56/47 56/67/56 57/68/57
f 57/68/57 58/69/58 50/59/50
f 50/70/50 59/71/59 60/72/60
f 51/73/51 60/72/60 61/74/61
f 51/60/51 62/75/62 49/58/49
f 49/58/49 18/76/18 17/77/17
f 46/55/46 17/77/17 63/78/63
f 15/62/15 46/55/46 63/78/63
f 64/79/64 65/80/65 66/81/66
f 67/82/67 65/80/65 68/83/68
f 65/80/65 69/84/69 66/81/66
f 70/85/70 71/86/71 65/80/65
f 18/87/18 64/79/64 19/88/19
f 62/89/62 68/83/68 64/79/64
f 61/74/61 67/82/67 68/83/68
f 59/71/59 67/82/67 60/72/60
f 72/90/72 70/85/70 67/82/67
f 70/85/70 73/91/73 74/92/74
f 73/93/73 34/40/34 74/94/74
f 71/95/71 34/52/34 43/51/43
f 71/95/71 42/50/42 69/96/69
f 69/96/69 22/27/22 21/26/21
f 66/97/66 21/26/21 20/25/20
f 19/88/19 66/81/66 20/98/20
f 75/99/75 76/100/76 77/101/77
f 78/102/78 79/103/79 75/99/75
f 79/103/79 80/104/80 76/100/76
f 79/103/79 81/105/81 82/106/82
f 54/107/54 77/101/77 83/108/83
f 84/109/84 77/101/77 85/110/85
f 86/111/86 75/99/75 84/109/84
f 38/112/38 78/102/78 86/111/86
f 36/43/36 87/113/87 78/102/78
f 87/113/87 35/41/35 81/105/81
f 81/105/81 33/38/33 73/93/73
f 82/106/82 73/93/73 88/114/88
f 80/115/80 88/116/88 72/90/72
f 80/115/80 59/71/59 58/117/58
f 76/118/76 58/117/58 56/119/56
f 77/101/77 56/120/56 83/108/83
f 89/121/89 90/122/90 91/123/91
f 92/124/92 90/122/90 93/125/93
f 90/122/90 94/126/94 91/123/91
f 95/127/95 96/128/96 90/122/90
f 9/10/9 89/129/89 11/12/11
f 97/130/97 89/129/89 41/49/41
f 39/47/39 93/131/93 97/130/97
f 38/112/38 92/132/92 39/133/39
f 92/132/92 84/109/84 95/134/95
f 95/134/95 85/110/85 98/135/98
f 98/136/98 54/65/54 55/66/55
f 96/137/96 55/66/55 52/63/52
f 96/128/96 53/138/53 94/126/94
f 94/126/94 14/17/14 12/14/12
f 91/123/91 12/14/12 13/16/13
f 11/139/11 91/123/91 13/16/13
f 1/1/1 5/13/5 2/2/2
f 4/4/4 16/20/16 2/5/2
f 2/2/2 8/140/8 6/7/6
f 2/5/2 16/20/16 7/8/7
f 9/10/9 11/12/11 1/1/1
f 11/12/11 13/141/13 5/13/5
f 12/14/12 4/18/4 5/15/5
f 14/17/14 15/142/15 4/18/4
f 15/19/15 63/143/63 16/20/16
f 16/20/16 63/143/63 17/21/17
f 7/8/7 17/21/17 18/22/18
f 7/8/7 19/23/19 20/24/20
f 6/7/6 8/140/8 20/25/20
f 6/7/6 21/26/21 22/27/22
f 3/3/3 6/7/6 23/28/23
f 10/11/10 1/1/1 3/3/3
f 25/30/25 29/34/29 26/31/26
f 28/33/28 40/48/40 26/31/26
f 26/31/26 32/37/32 30/35/30
f 26/31/26 40/48/40 31/36/31
f 33/38/33 35/41/35 25/39/25
f 35/41/35 37/44/37 29/42/29
f 36/43/36 28/144/28 29/42/29
f 38/45/38 39/47/39 28/33/28
f 39/47/39 97/130/97 40/48/40
f 40/48/40 97/130/97 41/49/41
f 31/36/31 41/49/41 9/10/9
f 32/37/32 31/36/31 10/11/10
f 32/37/32 24/29/24 23/28/23
f 30/35/30 23/28/23 22/27/22
f 27/32/27 30/35/30 42/50/42
f 34/52/34 25/30/25 27/32/27
f 44/53/44 48/57/48 45/54/45
f 47/56/47 57/68/57 45/54/45
f 45/54/45 51/60/51 49/58/49
f 45/54/45 57/68/57 50/59/50
f 14/61/14 53/64/53 44/53/44
f 52/63/52 48/57/48 44/53/44
f 52/63/52 55/66/55 47/56/47
f 54/65/54 83/145/83 47/56/47
f 47/56/47 83/145/83 56/67/56
f 57/68/57 56/67/56 58/69/58
f 50/70/50 58/117/58 59/71/59
f 51/73/51 50/70/50 60/72/60
f 51/60/51 61/146/61 62/75/62
f 49/58/49 62/75/62 18/76/18
f 46/55/46 49/58/49 17/77/17
f 15/62/15 44/53/44 46/55/46
f 64/79/64 68/83/68 65/80/65
f 67/82/67 70/85/70 65/80/65
f 65/80/65 71/86/71 69/84/69
f 70/85/70 74/92/74 71/86/71
f 18/87/18 62/89/62 64/79/64
f 62/89/62 61/74/61 68/83/68
f 61/74/61 60/72/60 67/82/67
f 59/71/59 72/90/72 67/82/67
f 72/90/72 88/116/88 70/85/70
f 70/85/70 88/116/88 73/91/73
f 73/93/73 33/38/33 34/40/34
f 71/95/71 74/147/74 34/52/34
f 71/95/71 43/51/43 42/50/42
f 69/96/69 42/50/42 22/27/22
f 66/97/66 69/96/69 21/26/21
f 19/88/19 64/79/64 66/81/66
f 75/99/75 79/103/79 76/100/76
f 78/102/78 87/113/87 79/103/79
f 79/103/79 82/106/82 80/104/80
f 79/103/79 87/113/87 81/105/81
f 54/107/54 85/110/85 77/101/77
f 84/109/84 75/99/75 77/101/77
f 86/111/86 78/102/78 75/99/75
f 38/112/38 36/43/36 78/102/78
f 36/43/36 37/44/37 87/113/87
f 87/113/87 37/44/37 35/41/35
f 81/105/81 35/41/35 33/38/33
f 82/106/82 81/105/81 73/93/73
f 80/115/80 82/148/82 88/116/88
f 80/115/80 72/90/72 59/71/59
f 76/118/76 80/115/80 58/117/58
f 77/101/77 76/100/76 56/120/56
f 89/121/89 93/125/93 90/122/90
f 92/124/92 95/127/95 90/122/90
f 90/122/90 96/128/96 94/126/94
f 95/127/95 98/149/98 96/128/96
f 9/10/9 41/49/41 89/129/89
f 97/130/97 93/131/93 89/129/89
f 39/47/39 92/150/92 93/131/93
f 38/112/38 86/111/86 92/132/92
f 92/132/92 86/111/86 84/109/84
f 95/134/95 84/109/84 85/110/85
f 98/136/98 85/151/85 54/65/54
f 96/137/96 98/136/98 55/66/55
f 96/128/96 52/152/52 53/138/53
f 94/126/94 53/138/53 14/17/14
f 91/123/91 94/126/94 12/14/12
f 11/139/11 89/121/89 91/123/91
