# Blender v2.90.1 OBJ File: 'Stone_Small_and_big.blend'
# www.blender.org
mtllib Rock_Small_8.mtl
o asset.001_Cube.003
v -0.193401 0.893471 -0.323486
v 0.524794 0.761909 -0.444806
v -0.204845 0.903513 0.350398
v 0.552050 0.745524 0.436603
v -0.495457 0.268010 -0.389600
v 0.201215 0.027367 -0.363634
v -0.578957 0.196349 0.453185
v 0.221245 -0.045011 0.370511
v -0.283135 0.792605 0.380894
v -0.418500 0.638729 0.449958
v -0.587818 0.420380 0.557989
v 0.355540 0.079464 0.459976
v 0.532118 0.287117 0.581485
v 0.539290 0.562293 0.477080
v 0.672272 0.807833 0.277554
v 0.876422 0.899978 -0.003707
v 0.706635 0.840654 -0.326026
v -0.068956 0.889014 0.368511
v 0.130063 0.893112 0.445050
v 0.388747 0.862384 0.508003
v -0.494345 0.428490 -0.451899
v -0.443445 0.667399 -0.478360
v -0.288219 0.822149 -0.391152
v 0.535353 0.569984 -0.522118
v 0.439123 0.332089 -0.492529
v 0.324331 0.128341 -0.447763
v -0.069756 0.866828 -0.340566
v 0.104391 0.858662 -0.391679
v 0.338185 0.843399 -0.454104
v -0.264569 1.036931 -0.242691
v -0.387755 1.254631 -0.007190
v -0.283176 1.064152 0.261034
v -0.384430 0.158645 -0.481267
v -0.155079 0.076101 -0.462596
v 0.051750 0.046669 -0.409239
v 0.209109 0.025421 -0.212003
v 0.226483 -0.031320 -0.027313
v 0.232685 -0.044559 0.185195
v -0.676350 0.157790 0.268537
v -0.748629 0.138886 -0.012340
v -0.646467 0.200462 -0.281238
v 0.057910 0.005725 0.395236
v -0.150635 0.023573 0.453256
v -0.399542 0.085433 0.493248
v 0.384777 0.114546 -0.244261
v 0.510496 0.310033 -0.261160
v 0.669520 0.532700 -0.295155
v 0.469482 0.026347 -0.036458
v 0.651206 0.250844 -0.029492
v 0.800844 0.526787 -0.023132
v 0.475820 0.010106 0.242171
v 0.781109 0.190729 0.313232
v 0.728284 0.540843 0.284447
v -0.456682 -0.020426 0.257167
v -0.494735 -0.058061 -0.010526
v -0.499240 -0.056510 -0.319461
v -0.182573 -0.026844 0.217543
v -0.195268 -0.056719 -0.015849
v -0.189033 -0.062030 -0.268022
v 0.032859 -0.030443 0.185399
v 0.031713 -0.014068 -0.020008
v 0.033463 -0.002289 -0.221438
v 0.448956 0.997119 -0.286662
v 0.175630 1.059101 -0.275245
v -0.057413 1.038153 -0.225048
v 0.580866 1.162774 -0.013159
v 0.246178 1.247993 -0.011785
v -0.058518 1.274192 -0.010867
v 0.513313 1.043820 0.313729
v 0.223113 1.182068 0.342310
v -0.064252 1.138386 0.288286
v 0.302726 0.639255 0.582830
v 0.069540 0.668406 0.407422
v -0.110062 0.700078 0.346824
v 0.236016 0.394442 0.605751
v -0.007620 0.492808 0.559918
v -0.210752 0.563533 0.497573
v 0.141392 0.166811 0.535723
v -0.084225 0.238561 0.595658
v -0.320528 0.331918 0.597378
v -0.441657 0.905180 -0.251214
v -0.560760 0.692130 -0.256660
v -0.652110 0.453081 -0.270689
v -0.522311 0.962259 0.001723
v -0.694971 0.738414 -0.007691
v -0.738860 0.444958 -0.006931
v -0.476794 0.932813 0.286498
v -0.633752 0.716770 0.296649
v -0.773251 0.442234 0.300954
v 0.130672 0.180882 -0.569016
v -0.104023 0.265227 -0.596644
v -0.294203 0.366078 -0.496389
v 0.227973 0.417291 -0.632313
v -0.016624 0.512090 -0.599423
v -0.231940 0.594449 -0.563298
v 0.281043 0.660350 -0.570627
v 0.053212 0.695641 -0.463440
v -0.124284 0.749189 -0.423423
vt 0.064858 0.387189
vt 0.100622 0.386008
vt 0.085638 0.402419
vt 0.040939 0.368853
vt 0.077614 0.363523
vt 0.202694 0.016727
vt 0.227364 0.037235
vt 0.197269 0.037578
vt 0.172277 0.960548
vt 0.194274 0.923200
vt 0.203816 0.961859
vt 0.161327 0.067449
vt 0.176274 0.046743
vt 0.177846 0.066750
vt 0.078960 0.417291
vt 0.056560 0.404272
vt 0.011690 0.386742
vt 0.030706 0.391978
vt 0.007103 0.361625
vt 0.048822 0.343576
vt 0.160642 0.932296
vt 0.189111 0.893169
vt 0.211261 0.894890
vt 0.220334 0.913990
vt 0.237954 0.941934
vt 0.270000 0.030876
vt 0.252414 0.050976
vt 0.240032 0.066216
vt 0.219823 0.064692
vt 0.196886 0.065107
vt 0.227520 0.142558
vt 0.197236 0.112765
vt 0.223322 0.111578
vt 0.197511 0.146577
vt 0.169610 0.111756
vt 0.219942 0.087226
vt 0.176098 0.086607
vt 0.197848 0.087074
vt 0.253142 0.156269
vt 0.255461 0.136239
vt 0.232124 0.167091
vt 0.028050 0.543339
vt 0.028325 0.508658
vt 0.048570 0.517532
vt 0.019873 0.561123
vt 0.003131 0.528212
vt 0.070479 0.491296
vt 0.100622 0.465288
vt 0.096879 0.499399
vt 0.156596 0.084233
vt 0.243594 0.084605
vt 0.250090 0.108189
vt 0.773515 0.261663
vt 0.791842 0.222113
vt 0.807716 0.257535
vt 0.761554 0.232438
vt 0.777198 0.191183
vt 0.836654 0.238293
vt 0.806324 0.179820
vt 0.825821 0.204646
vt 0.760702 0.282670
vt 0.781634 0.293059
vt 0.750954 0.262539
vt 0.745856 0.235991
vt 0.755161 0.207465
vt 0.420141 0.146960
vt 0.434055 0.166514
vt 0.417721 0.158751
vt 0.743323 0.187788
vt 0.147210 0.110476
vt 0.112757 0.115760
vt 0.126890 0.094091
vt 0.096667 0.100258
vt 0.099084 0.085454
vt 0.104279 0.061965
vt 0.139461 0.063638
vt 0.107990 0.032379
vt 0.134748 0.032885
vt 0.192893 0.864117
vt 0.154228 0.858924
vt 0.150695 0.891982
vt 0.822213 0.293059
vt 0.080464 0.032722
vt 0.055809 0.061819
vt 0.052315 0.033100
vt 0.079629 0.064997
vt 0.058022 0.086656
vt 0.026106 0.062386
vt 0.026926 0.041014
vt 0.028363 0.088029
vt 0.237954 0.899805
vt 0.078470 0.086553
vt 0.081996 0.104310
vt 0.060264 0.111361
vt 0.008896 0.117844
vt 0.002176 0.095574
vt 0.004369 0.071139
vt 0.262231 0.075108
vt 0.026068 0.021202
vt 0.050935 0.002213
vt 0.081996 0.012291
vt 0.062081 0.587571
vt 0.101155 0.596074
vt 0.074246 0.609792
vt 0.046670 0.564546
vt 0.089319 0.571380
vt 0.111244 0.552248
vt 0.121339 0.576977
vt 0.070086 0.544245
vt 0.108502 0.366678
vt 0.111649 0.395282
vt 0.102611 0.380883
vt 0.039033 0.603355
vt 0.052914 0.616506
vt 0.025901 0.579121
vt 0.071099 0.503795
vt 0.096133 0.523361
vt 0.031481 0.149768
vt 0.029948 0.118609
vt 0.064667 0.141844
vt 0.092407 0.131190
vt 0.099706 0.149768
vt 0.134691 0.142939
vt 0.079475 0.626646
vt 0.117259 0.626646
vt 0.069203 0.441708
vt 0.031713 0.453099
vt 0.042720 0.430794
vt 0.048227 0.479461
vt 0.057960 0.465788
vt 0.018195 0.418895
vt 0.130952 0.327652
vt 0.116444 0.351870
vt 0.113209 0.330767
vt 0.091113 0.427869
vt 0.081283 0.468129
vt 0.087017 0.444954
vt 0.012632 0.583143
vt 0.001793 0.561069
vt 0.041276 0.497181
vt 0.022311 0.472438
vt 0.136066 0.353173
vt 0.119803 0.371756
vt 0.105095 0.352693
vt 0.428027 0.331174
vt 0.414959 0.320068
vt 0.428027 0.311888
vt 0.361002 0.144411
vt 0.380007 0.172083
vt 0.364548 0.167795
vt 0.239021 0.002585
vt 0.154280 0.053291
vt 0.009351 0.329190
vt 0.163816 0.146698
vt 0.201019 0.174929
vt 0.151168 0.107467
vt 0.742509 0.216079
vt 0.434055 0.144329
vt 0.761492 0.158847
vt 0.221702 0.878127
vt 0.270000 0.100539
vt 0.005458 0.135470
vt 0.015490 0.437156
vt 0.015104 0.489405
vt 0.136066 0.380090
vt 0.411916 0.335068
vt 0.380007 0.152283
vt 0.001487 0.405114
vn 0.7290 -0.5466 -0.4120
vn 0.5216 -0.8037 -0.2863
vn 0.6020 -0.7193 -0.3468
vn 0.8138 -0.2877 -0.5049
vn 0.7964 -0.5047 -0.3333
vn 0.4498 -0.8823 0.1388
vn 0.9200 0.1008 0.3786
vn 0.8852 -0.4205 0.1989
vn 0.2421 -0.9169 -0.3173
vn 0.2608 -0.9544 -0.1455
vn 0.5300 -0.6560 -0.5373
vn 0.6390 -0.4457 -0.6270
vn 0.4546 0.3692 -0.8106
vn 0.6369 0.0265 -0.7705
vn 0.6631 0.2920 -0.6892
vn 0.9562 -0.2875 -0.0552
vn 0.7852 0.2835 0.5506
vn 0.6192 0.2205 0.7536
vn 0.5539 0.1798 0.8130
vn 0.4006 -0.2017 0.8938
vn 0.2618 -0.6553 0.7085
vn 0.0574 -0.9060 0.4194
vn 0.0820 -0.9961 -0.0329
vn 0.0874 -0.9748 -0.2055
vn -0.3245 -0.9014 0.2867
vn 0.0781 -0.9960 0.0436
vn -0.0009 -0.9866 0.1634
vn -0.3785 -0.9247 0.0411
vn 0.0886 -0.9534 -0.2884
vn -0.0314 -0.9981 0.0523
vn 0.1856 -0.9772 -0.1034
vn 0.0755 -0.9923 -0.0982
vn -0.5901 -0.4784 0.6503
vn -0.2935 -0.6294 0.7195
vn -0.7975 -0.5188 0.3079
vn -0.7923 -0.2330 -0.5639
vn -0.9031 -0.4229 -0.0752
vn -0.5856 -0.1185 -0.8019
vn -0.4561 -0.7609 -0.4615
vn -0.4125 -0.2813 -0.8664
vn 0.0725 -0.8680 -0.4913
vn -0.0488 -0.8669 0.4961
vn -0.0033 -0.8211 0.5707
vn 0.2341 0.7084 -0.6659
vn 0.1565 0.9748 -0.1593
vn 0.4788 0.8758 -0.0619
vn -0.0396 0.6891 -0.7236
vn -0.0418 0.9905 -0.1308
vn 0.5657 0.6309 0.5310
vn -0.2379 0.7094 0.6634
vn 0.0549 0.8066 0.5886
vn 0.0795 0.5797 -0.8110
vn -0.2229 0.5167 -0.8267
vn -0.0864 0.6128 -0.7855
vn -0.0272 0.5794 -0.8146
vn -0.0867 0.5536 -0.8282
vn -0.2351 0.5827 -0.7779
vn -0.3584 0.6312 0.6879
vn -0.0952 0.2550 0.9622
vn -0.2476 0.1149 0.9620
vn -0.3202 0.2318 0.9185
vn 0.2423 0.3679 0.8978
vn 0.9430 0.3232 0.0797
vn 0.0451 0.2097 0.9767
vn -0.1170 0.4083 0.9053
vn 0.0619 -0.0509 0.9968
vn -0.3634 0.3758 0.8525
vn -0.0046 0.5212 0.8534
vn 0.0068 -0.2534 0.9673
vn 0.1004 -0.4877 0.8672
vn -0.1286 0.0086 0.9917
vn 0.0025 0.3742 0.9273
vn 0.0506 0.3825 0.9226
vn -0.1666 0.4787 0.8620
vn -0.7855 0.3791 -0.4892
vn -0.7959 0.5980 -0.0947
vn -0.5750 0.6207 -0.5331
vn -0.8376 0.1162 -0.5338
vn -0.9038 0.4101 -0.1227
vn -0.7458 0.4834 0.4584
vn -0.5200 0.6316 0.5750
vn -0.9884 0.0798 -0.1291
vn -0.5425 0.3400 -0.7682
vn -0.0845 0.6716 -0.7361
vn -0.5845 -0.1070 -0.8043
vn -0.9679 0.0652 0.2427
vn -0.4780 0.0943 0.8733
vn -0.5512 0.8324 -0.0581
vn 0.1227 -0.5042 -0.8548
vn -0.1283 0.2409 -0.9620
vn 0.1424 -0.0972 -0.9850
vn -0.3649 -0.0514 -0.9296
vn -0.1786 -0.1879 -0.9658
vn 0.0356 0.4098 -0.9115
vn 0.0563 0.5998 -0.7982
vn -0.1747 0.5572 -0.8118
vn -0.0962 -0.7147 -0.6928
vn -0.1352 0.2502 -0.9587
usemtl Material.001
s 1
f 46/1/1 48/2/2 45/3/3
f 47/4/4 49/5/5 46/1/1
f 49/6/5 51/7/6 48/8/2
f 49/9/5 53/10/7 52/11/8
f 6/12/9 45/13/3 36/14/10
f 26/15/11 46/1/1 45/3/3
f 25/16/12 47/4/4 46/1/1
f 2/17/13 47/4/4 24/18/14
f 17/19/15 50/20/16 47/4/4
f 50/21/16 15/22/17 53/10/7
f 53/10/7 4/23/18 14/24/19
f 53/10/7 13/25/20 52/11/8
f 51/7/6 13/26/20 12/27/21
f 51/7/6 8/28/22 38/29/23
f 48/8/2 38/29/23 37/30/24
f 45/13/3 37/30/24 36/14/10
f 54/31/25 58/32/26 57/33/27
f 55/34/28 59/35/29 58/32/26
f 58/32/26 60/36/30 57/33/27
f 58/32/26 62/37/31 61/38/32
f 7/39/33 54/31/25 44/40/34
f 39/41/35 55/34/28 54/31/25
f 41/42/36 55/43/28 40/44/37
f 5/45/38 56/46/39 41/42/36
f 33/47/40 59/48/29 56/49/39
f 59/35/29 35/50/41 62/37/31
f 62/37/31 6/12/9 36/14/10
f 61/38/32 36/14/10 37/30/24
f 60/36/30 37/30/24 38/29/23
f 60/36/30 8/28/22 42/51/42
f 57/33/27 42/51/42 43/52/43
f 54/31/25 43/52/43 44/40/34
f 63/53/44 67/54/45 66/55/46
f 64/56/47 68/57/48 67/54/45
f 67/54/45 69/58/49 66/55/46
f 67/54/45 71/59/50 70/60/51
f 2/61/13 63/53/44 17/62/15
f 29/63/52 64/56/47 63/53/44
f 28/64/53 65/65/54 64/56/47
f 1/66/55 65/67/54 27/68/56
f 30/69/57 68/57/48 65/65/54
f 68/70/48 32/71/58 71/72/50
f 71/72/50 3/73/59 18/74/60
f 71/72/50 19/75/61 70/76/51
f 70/76/51 20/77/62 69/78/49
f 69/79/49 4/23/18 15/22/17
f 66/80/46 15/22/17 16/81/63
f 17/62/15 66/55/46 16/82/63
f 72/83/64 76/84/65 75/85/66
f 73/86/67 77/87/68 76/84/65
f 75/85/66 79/88/69 78/89/70
f 76/84/65 80/90/71 79/88/69
f 4/23/18 72/91/64 14/24/19
f 19/75/61 72/83/64 20/77/62
f 18/74/60 73/86/67 19/75/61
f 3/73/59 74/92/72 18/74/60
f 9/93/73 77/87/68 74/92/72
f 10/94/74 80/90/71 77/87/68
f 80/90/71 7/95/33 44/96/34
f 79/88/69 44/96/34 43/97/43
f 78/98/70 43/52/43 42/51/42
f 78/98/70 8/28/22 12/27/21
f 75/85/66 12/99/21 13/100/20
f 14/101/19 75/85/66 13/100/20
f 82/102/75 84/103/76 81/104/77
f 83/105/78 85/106/79 82/102/75
f 84/103/76 88/107/80 87/108/81
f 86/109/82 88/107/80 85/106/79
f 1/110/55 81/111/77 30/112/57
f 22/113/83 81/104/77 23/114/84
f 21/115/85 82/102/75 22/113/83
f 5/45/38 83/105/78 21/115/85
f 41/42/36 86/109/82 83/105/78
f 86/109/82 39/116/35 89/117/86
f 89/118/86 7/95/33 11/119/87
f 88/120/80 11/119/87 10/94/74
f 87/121/81 10/94/74 9/93/73
f 87/121/81 3/73/59 32/71/58
f 84/122/76 32/71/58 31/123/88
f 30/124/57 84/103/76 31/125/88
f 90/126/89 94/127/90 93/128/91
f 92/129/92 94/127/90 91/130/93
f 94/127/90 96/131/94 93/128/91
f 94/132/90 98/133/95 97/134/96
f 6/135/9 90/126/89 26/15/11
f 34/136/97 90/126/89 35/137/41
f 33/47/40 91/130/93 34/136/97
f 5/45/38 92/138/92 33/139/40
f 21/140/85 95/141/98 92/129/92
f 95/142/98 23/143/84 98/133/95
f 98/133/95 1/110/55 27/144/56
f 97/145/96 27/146/56 28/147/53
f 96/148/94 28/149/53 29/150/52
f 96/131/94 2/17/13 24/18/14
f 93/128/91 24/18/14 25/16/12
f 90/126/89 25/16/12 26/15/11
f 46/1/1 49/5/5 48/2/2
f 47/4/4 50/20/16 49/5/5
f 49/6/5 52/151/8 51/7/6
f 49/9/5 50/21/16 53/10/7
f 6/12/9 26/152/11 45/13/3
f 26/15/11 25/16/12 46/1/1
f 25/16/12 24/18/14 47/4/4
f 2/17/13 17/19/15 47/4/4
f 17/19/15 16/153/63 50/20/16
f 50/21/16 16/81/63 15/22/17
f 53/10/7 15/22/17 4/23/18
f 53/10/7 14/24/19 13/25/20
f 51/7/6 52/151/8 13/26/20
f 51/7/6 12/27/21 8/28/22
f 48/8/2 51/7/6 38/29/23
f 45/13/3 48/8/2 37/30/24
f 54/31/25 55/34/28 58/32/26
f 55/34/28 56/154/39 59/35/29
f 58/32/26 61/38/32 60/36/30
f 58/32/26 59/35/29 62/37/31
f 7/39/33 39/41/35 54/31/25
f 39/41/35 40/155/37 55/34/28
f 41/42/36 56/46/39 55/43/28
f 5/45/38 33/139/40 56/46/39
f 33/47/40 34/136/97 59/48/29
f 59/35/29 34/156/97 35/50/41
f 62/37/31 35/50/41 6/12/9
f 61/38/32 62/37/31 36/14/10
f 60/36/30 61/38/32 37/30/24
f 60/36/30 38/29/23 8/28/22
f 57/33/27 60/36/30 42/51/42
f 54/31/25 57/33/27 43/52/43
f 63/53/44 64/56/47 67/54/45
f 64/56/47 65/65/54 68/57/48
f 67/54/45 70/60/51 69/58/49
f 67/54/45 68/57/48 71/59/50
f 2/61/13 29/63/52 63/53/44
f 29/63/52 28/64/53 64/56/47
f 28/64/53 27/157/56 65/65/54
f 1/66/55 30/158/57 65/67/54
f 30/69/57 31/159/88 68/57/48
f 68/70/48 31/123/88 32/71/58
f 71/72/50 32/71/58 3/73/59
f 71/72/50 18/74/60 19/75/61
f 70/76/51 19/75/61 20/77/62
f 69/79/49 20/160/62 4/23/18
f 66/80/46 69/79/49 15/22/17
f 17/62/15 63/53/44 66/55/46
f 72/83/64 73/86/67 76/84/65
f 73/86/67 74/92/72 77/87/68
f 75/85/66 76/84/65 79/88/69
f 76/84/65 77/87/68 80/90/71
f 4/23/18 20/160/62 72/91/64
f 19/75/61 73/86/67 72/83/64
f 18/74/60 74/92/72 73/86/67
f 3/73/59 9/93/73 74/92/72
f 9/93/73 10/94/74 77/87/68
f 10/94/74 11/119/87 80/90/71
f 80/90/71 11/119/87 7/95/33
f 79/88/69 80/90/71 44/96/34
f 78/98/70 79/161/69 43/52/43
f 78/98/70 42/51/42 8/28/22
f 75/85/66 78/89/70 12/99/21
f 14/101/19 72/83/64 75/85/66
f 82/102/75 85/106/79 84/103/76
f 83/105/78 86/109/82 85/106/79
f 84/103/76 85/106/79 88/107/80
f 86/109/82 89/117/86 88/107/80
f 1/110/55 23/143/84 81/111/77
f 22/113/83 82/102/75 81/104/77
f 21/115/85 83/105/78 82/102/75
f 5/45/38 41/42/36 83/105/78
f 41/42/36 40/44/37 86/109/82
f 86/109/82 40/44/37 39/116/35
f 89/118/86 39/162/35 7/95/33
f 88/120/80 89/118/86 11/119/87
f 87/121/81 88/120/80 10/94/74
f 87/121/81 9/93/73 3/73/59
f 84/122/76 87/121/81 32/71/58
f 30/124/57 81/104/77 84/103/76
f 90/126/89 91/130/93 94/127/90
f 92/129/92 95/141/98 94/127/90
f 94/127/90 97/163/96 96/131/94
f 94/132/90 95/142/98 98/133/95
f 6/135/9 35/137/41 90/126/89
f 34/136/97 91/130/93 90/126/89
f 33/47/40 92/129/92 91/130/93
f 5/45/38 21/115/85 92/138/92
f 21/140/85 22/164/83 95/141/98
f 95/142/98 22/165/83 23/143/84
f 98/133/95 23/143/84 1/110/55
f 97/145/96 98/166/95 27/146/56
f 96/148/94 97/167/96 28/149/53
f 96/131/94 29/168/52 2/17/13
f 93/128/91 96/131/94 24/18/14
f 90/126/89 93/128/91 25/16/12
