# Blender v2.90.1 OBJ File: 'Stone_Small_and_big.blend'
# www.blender.org
mtllib Rock_Small_7.mtl
o asset.010_Cube.010
v 0.517709 0.097353 -0.038556
v -0.109293 -0.021301 0.394828
v 0.558683 0.882159 0.225649
v -0.107066 0.670045 0.544166
v 0.078407 0.311330 -0.691082
v -0.511924 0.229082 -0.176776
v 0.040737 0.960959 -0.302707
v -0.469165 0.835807 0.022884
v 0.476630 0.982653 0.074069
v 0.304060 1.005971 -0.098318
v 0.147177 0.968766 -0.222205
v -0.490441 0.888633 0.183961
v -0.366613 0.831867 0.371698
v -0.220064 0.746649 0.494661
v -0.113987 0.530528 0.550371
v -0.121965 0.328479 0.547763
v -0.118224 0.138687 0.460048
v 0.460403 0.920309 0.404183
v 0.237043 0.850641 0.545530
v 0.022332 0.739378 0.552672
v 0.231823 0.201926 -0.617006
v 0.387995 0.119781 -0.420902
v 0.458787 0.111524 -0.192536
v -0.252575 -0.046271 0.273569
v -0.379465 0.026458 0.102003
v -0.475493 0.119195 -0.060394
v 0.420693 -0.008936 0.076170
v 0.219140 -0.015146 0.201395
v 0.035680 -0.026630 0.306885
v 0.646450 0.220144 0.023465
v 0.761956 0.464786 0.123957
v 0.642138 0.712151 0.190327
v -0.110834 0.213496 -0.705458
v -0.338125 0.162458 -0.543969
v -0.452529 0.195887 -0.320194
v -0.487990 0.369754 -0.127287
v -0.436321 0.528936 -0.060213
v -0.553092 0.716305 -0.033515
v 0.063353 0.931009 -0.491430
v 0.076262 0.709839 -0.611188
v 0.066137 0.480568 -0.567279
v -0.378476 0.899550 -0.062787
v -0.221829 0.933495 -0.155579
v -0.069947 0.925683 -0.232266
v -0.545718 0.277513 0.027721
v -0.445394 0.200614 0.210687
v -0.335907 0.120985 0.412382
v -0.586255 0.467719 0.099083
v -0.489427 0.400386 0.311627
v -0.351405 0.344405 0.518515
v -0.597074 0.687900 0.175471
v -0.506540 0.636977 0.417456
v -0.281533 0.567299 0.488217
v -0.141156 0.898871 -0.421173
v -0.158277 0.704327 -0.568493
v -0.156372 0.473873 -0.666609
v -0.312065 0.845823 -0.300408
v -0.378018 0.661372 -0.439943
v -0.359752 0.420812 -0.501047
v -0.458521 0.781000 -0.174161
v -0.471828 0.581910 -0.235237
v -0.423739 0.396711 -0.274230
v 0.076765 0.114769 0.457357
v 0.342231 0.041413 0.443837
v 0.580226 0.107185 0.258325
v 0.085444 0.325658 0.553451
v 0.363960 0.325763 0.553893
v 0.627101 0.376467 0.390086
v 0.071590 0.547899 0.562450
v 0.328050 0.601094 0.598900
v 0.604464 0.670322 0.467160
v -0.077651 0.855488 0.429904
v 0.101496 0.983161 0.363610
v 0.283881 0.994993 0.213254
v -0.211799 0.977468 0.298267
v -0.028150 1.003547 0.152805
v 0.132073 0.978092 0.028464
v -0.317443 0.990330 0.092473
v -0.132681 0.958180 -0.018260
v 0.014792 0.876433 -0.105969
v 0.610320 0.292208 -0.208455
v 0.474476 0.364447 -0.415170
v 0.310965 0.435161 -0.620197
v 0.681056 0.555431 -0.146208
v 0.539420 0.633771 -0.375815
v 0.350435 0.705735 -0.590791
v 0.611291 0.801936 -0.041027
v 0.455528 0.865419 -0.239110
v 0.291418 0.936180 -0.419235
v -0.371473 0.006782 -0.212049
v -0.198199 -0.065086 -0.411974
v 0.049754 -0.014116 -0.587638
v -0.220849 -0.057482 -0.034797
v -0.026099 -0.059755 -0.180445
v 0.197253 -0.047148 -0.326275
v -0.077260 -0.067530 0.138836
v 0.108587 -0.071232 0.019028
v 0.299830 -0.017530 -0.107159
vt 0.571434 0.720794
vt 0.583201 0.699899
vt 0.591618 0.721296
vt 0.552609 0.678584
vt 0.562213 0.700659
vt 0.615281 0.718662
vt 0.601712 0.670076
vt 0.608406 0.696303
vt 0.776455 0.376934
vt 0.783934 0.354845
vt 0.792753 0.373083
vt 0.309963 0.658810
vt 0.294902 0.684505
vt 0.293297 0.659547
vt 0.317342 0.707023
vt 0.312866 0.681990
vt 0.538587 0.656895
vt 0.535777 0.677631
vt 0.555698 0.654552
vt 0.576367 0.674781
vt 0.575964 0.650527
vt 0.613835 0.650041
vt 0.621903 0.664077
vt 0.631260 0.685482
vt 0.638131 0.708149
vt 0.827154 0.336564
vt 0.844311 0.358329
vt 0.827903 0.359490
vt 0.803412 0.345161
vt 0.812286 0.368998
vt 0.854675 0.420031
vt 0.821217 0.409278
vt 0.845189 0.398803
vt 0.831288 0.433999
vt 0.795915 0.416830
vt 0.835470 0.378417
vt 0.795209 0.391033
vt 0.813311 0.384125
vt 0.076746 0.740195
vt 0.078681 0.758594
vt 0.064296 0.743696
vt 0.864130 0.438199
vt 0.590040 0.028129
vt 0.605783 0.001982
vt 0.614141 0.018457
vt 0.571679 0.026204
vt 0.580833 0.002958
vt 0.805769 0.444262
vt 0.769225 0.422819
vt 0.772583 0.394401
vt 0.852632 0.371638
vt 0.860134 0.389367
vt 0.058294 0.763417
vt 0.048462 0.752561
vt 0.554421 0.635432
vt 0.578969 0.602304
vt 0.577039 0.629771
vt 0.114104 0.968847
vt 0.148250 0.935782
vt 0.148273 0.970236
vt 0.601430 0.631151
vt 0.113997 0.934661
vt 0.148273 0.905881
vt 0.147448 0.416027
vt 0.132253 0.398403
vt 0.147448 0.396655
vt 0.362620 0.722269
vt 0.331210 0.736659
vt 0.340723 0.723888
vt 0.387413 0.719757
vt 0.358356 0.750428
vt 0.097536 0.983934
vt 0.116114 0.990924
vt 0.089024 0.966934
vt 0.090614 0.908891
vt 0.114896 0.901254
vt 0.037952 0.635600
vt 0.055988 0.663843
vt 0.033058 0.664244
vt 0.116225 0.880134
vt 0.146065 0.883722
vt 0.608795 0.603997
vt 0.622323 0.636982
vt 0.598323 0.650061
vt 0.001508 0.704277
vt 0.028969 0.723169
vt 0.005205 0.729120
vt 0.040612 0.693383
vt 0.016286 0.699710
vt 0.018829 0.749907
vt 0.050017 0.715297
vt 0.040019 0.738888
vt 0.635413 0.653860
vt 0.651269 0.640151
vt 0.007992 0.671434
vt 0.071330 0.709388
vt 0.288556 0.395629
vt 0.276280 0.418433
vt 0.270115 0.396984
vt 0.057520 0.727100
vt 0.031313 0.758737
vt 0.867030 0.359551
vt 0.851911 0.341194
vt 0.648984 0.674605
vt 0.591962 0.104336
vt 0.624073 0.075758
vt 0.622585 0.105892
vt 0.593319 0.046428
vt 0.593193 0.076454
vt 0.646929 0.099209
vt 0.646929 0.042174
vt 0.646618 0.070543
vt 0.569634 0.114632
vt 0.587499 0.125614
vt 0.567847 0.098690
vt 0.566084 0.047675
vt 0.564430 0.076850
vt 0.623368 0.042882
vt 0.102060 0.724387
vt 0.074880 0.727311
vt 0.094803 0.697083
vt 0.064728 0.684304
vt 0.085284 0.669873
vt 0.065968 0.649865
vt 0.102060 0.656841
vt 0.081827 0.630483
vt 0.618025 0.134140
vt 0.331572 0.652241
vt 0.363174 0.674154
vt 0.337572 0.678758
vt 0.360653 0.643222
vt 0.390839 0.670520
vt 0.341256 0.703061
vt 0.386953 0.696145
vt 0.364684 0.700584
vt 0.309284 0.642576
vt 0.347446 0.617089
vt 0.323676 0.632405
vt 0.374992 0.611045
vt 0.537302 0.041560
vt 0.554724 0.012621
vt 0.541035 0.072878
vt 0.549460 0.095497
vt 0.556020 0.117878
vt 0.322667 0.725213
vt 0.768523 0.367750
vt 0.296394 0.711820
vt 0.096356 0.747095
vt 0.839577 0.451180
vt 0.779808 0.451180
vt 0.548252 0.609851
vt 0.129851 0.420561
vt 0.387675 0.742149
vt 0.081671 0.935837
vt 0.636154 0.616475
vt 0.288556 0.418634
vt 0.651269 0.696373
vt 0.637908 0.018350
vt 0.390839 0.636810
vn -0.9643 -0.2638 0.0240
vn -0.8502 -0.2337 0.4717
vn -0.9892 -0.1257 -0.0760
vn -0.5900 -0.5148 0.6220
vn -0.8478 -0.4398 0.2963
vn -0.9628 0.2263 0.1477
vn -0.4010 0.0987 0.9108
vn -0.6737 0.1065 0.7313
vn -0.9574 -0.1139 -0.2655
vn -0.9379 0.1875 -0.2919
vn -0.8159 -0.5780 0.0136
vn -0.4129 -0.8665 0.2805
vn -0.6989 -0.7061 0.1143
vn -0.0301 -0.7709 0.6363
vn -0.0977 -0.4029 0.9100
vn -0.5331 -0.0760 0.8426
vn -0.1077 -0.1959 0.9747
vn -0.2072 0.2215 0.9529
vn -0.3122 0.3941 0.8644
vn -0.4566 0.5616 0.6901
vn -0.7261 0.6674 0.1654
vn -0.7327 0.6449 -0.2175
vn -0.9264 0.2191 -0.3062
vn -0.9565 -0.0425 -0.2886
vn -0.3948 0.8194 -0.4155
vn -0.7475 0.2877 -0.5987
vn -0.5111 0.7616 -0.3984
vn -0.3281 0.3756 -0.8668
vn -0.8110 0.1050 -0.5755
vn -0.7760 0.5065 -0.3758
vn -0.9318 0.0565 -0.3585
vn -0.9572 -0.0461 -0.2856
vn -0.1518 0.9879 0.0308
vn -0.0792 0.9966 0.0205
vn -0.0396 0.7937 -0.6070
vn 0.0258 0.2596 -0.9654
vn -0.0658 0.2163 -0.9741
vn 0.1893 0.1026 -0.9765
vn -0.2239 0.3030 -0.9263
vn -0.6945 -0.3331 -0.6378
vn -0.9141 -0.2001 -0.3525
vn -0.5103 0.8190 -0.2622
vn -0.2034 0.9508 -0.2338
vn 0.0272 -0.5845 0.8109
vn 0.2906 -0.2539 0.9226
vn -0.0198 -0.2298 0.9730
vn 0.7413 -0.6051 0.2903
vn 0.2162 -0.7334 0.6445
vn -0.0835 -0.0281 0.9961
vn 0.7854 -0.2177 0.5794
vn 0.1930 0.0484 0.9800
vn 0.1324 -0.9662 0.2214
vn 0.2386 -0.8866 0.3962
vn 0.3844 -0.9224 -0.0386
vn 0.6513 -0.7188 -0.2433
vn 0.8675 -0.4821 -0.1226
vn 0.9317 0.3393 0.1293
vn 0.7525 0.1921 0.6299
vn 0.7319 0.6626 0.1591
vn 0.4178 0.7713 0.4802
vn 0.0661 0.5738 0.8163
vn -0.2004 0.3481 0.9158
vn -0.2014 0.0168 0.9794
vn -0.1699 0.6919 0.7017
vn -0.0312 0.9992 0.0253
vn -0.1163 0.8722 0.4752
vn 0.1221 0.9790 0.1633
vn -0.0988 0.8961 0.4327
vn -0.3101 0.9420 -0.1283
vn -0.1327 0.9787 -0.1568
vn 0.0170 0.9629 -0.2695
vn 0.1329 0.9612 -0.2416
vn -0.1074 0.9932 -0.0451
vn -0.0633 0.9914 -0.1144
vn 0.8164 -0.3741 -0.4400
vn 0.8121 0.2143 -0.5428
vn 0.9336 0.1149 -0.3394
vn 0.4410 -0.0264 -0.8971
vn 0.7758 -0.2230 -0.5903
vn 0.8469 0.4979 -0.1869
vn 0.3722 0.8332 -0.4090
vn 0.6104 0.7020 -0.3668
vn 0.6608 -0.6809 -0.3158
vn 0.4902 -0.3742 -0.7872
vn 0.6799 -0.5571 -0.4769
vn 0.4638 0.3327 -0.8211
vn 0.4844 0.8748 0.0093
vn 0.9959 -0.0181 0.0891
vn -0.6147 -0.7823 -0.1006
vn -0.0099 -0.9997 -0.0220
vn -0.2713 -0.9609 -0.0548
vn -0.3239 -0.9001 -0.2912
vn 0.3364 -0.9213 -0.1951
vn -0.0002 -0.9963 0.0859
vn 0.3556 -0.9286 -0.1057
vn 0.1482 -0.9888 0.0195
vn -0.2208 -0.2387 -0.9457
vn 0.1654 -0.7481 -0.6426
usemtl Material.001
s 1
f 45/1/1 49/2/2 48/3/3
f 47/4/4 49/2/2 46/5/5
f 49/2/2 51/6/6 48/3/3
f 49/2/2 53/7/7 52/8/8
f 6/9/9 45/10/1 36/11/10
f 26/12/11 46/13/5 45/14/1
f 24/15/12 46/13/5 25/16/13
f 2/17/14 47/4/4 24/18/12
f 17/19/15 50/20/16 47/4/4
f 16/21/17 53/7/7 50/20/16
f 53/7/7 4/22/18 14/23/19
f 53/7/7 13/24/20 52/8/8
f 51/6/6 13/24/20 12/25/21
f 51/26/6 8/27/22 38/28/23
f 48/29/3 38/28/23 37/30/24
f 36/11/10 48/29/3 37/30/24
f 54/31/25 58/32/26 57/33/27
f 55/34/28 59/35/29 58/32/26
f 58/32/26 60/36/30 57/33/27
f 58/32/26 62/37/31 61/38/32
f 7/39/33 54/40/25 44/41/34
f 39/42/35 55/34/28 54/31/25
f 41/43/36 55/44/28 40/45/37
f 5/46/38 56/47/39 41/43/36
f 56/48/39 34/49/40 59/35/29
f 59/35/29 35/50/41 62/37/31
f 62/37/31 6/9/9 36/11/10
f 61/38/32 36/11/10 37/30/24
f 61/38/32 38/28/23 60/36/30
f 60/36/30 8/27/22 42/51/42
f 57/33/27 42/51/42 43/52/43
f 44/41/34 57/53/27 43/54/43
f 63/55/44 67/56/45 66/57/46
f 65/58/47 67/59/45 64/60/48
f 67/56/45 69/61/49 66/57/46
f 68/62/50 70/63/51 67/59/45
f 2/64/14 63/65/44 17/66/15
f 28/67/52 63/68/44 29/69/53
f 27/70/54 64/71/48 28/67/52
f 1/72/55 65/58/47 27/73/54
f 30/74/56 68/62/50 65/58/47
f 68/62/50 32/75/57 71/76/58
f 71/77/58 3/78/59 18/79/60
f 70/63/51 18/80/60 19/81/61
f 70/82/51 20/83/62 69/61/49
f 69/61/49 4/22/18 15/84/63
f 66/57/46 15/84/63 16/21/17
f 17/19/15 66/57/46 16/21/17
f 72/85/64 76/86/65 75/87/66
f 74/88/67 76/86/65 73/89/68
f 76/86/65 78/90/69 75/87/66
f 77/91/70 79/92/71 76/86/65
f 4/22/18 72/93/64 14/23/19
f 20/83/62 73/94/68 72/93/64
f 19/95/61 74/88/67 73/89/68
f 3/78/59 74/88/67 18/79/60
f 74/88/67 10/96/72 77/91/70
f 77/97/70 11/98/73 80/99/74
f 80/100/74 7/39/33 44/41/34
f 79/92/71 44/41/34 43/54/43
f 79/92/71 42/101/42 78/90/69
f 78/102/69 8/27/22 12/103/21
f 75/104/66 12/25/21 13/24/20
f 72/93/64 13/24/20 14/23/19
f 81/105/75 85/106/76 84/107/77
f 83/108/78 85/106/76 82/109/79
f 85/106/76 87/110/80 84/107/77
f 85/106/76 89/111/81 88/112/82
f 1/113/55 81/105/75 30/114/56
f 23/115/83 82/109/79 81/105/75
f 21/116/84 82/109/79 22/117/85
f 5/46/38 83/108/78 21/116/84
f 83/108/78 40/45/37 86/118/86
f 40/45/37 89/111/81 86/118/86
f 89/119/81 7/39/33 11/120/73
f 88/121/82 11/120/73 10/96/72
f 88/121/82 9/122/87 87/123/80
f 87/123/80 3/78/59 32/124/57
f 84/125/77 32/124/57 31/126/88
f 30/114/56 84/107/77 31/127/88
f 90/128/89 94/129/90 93/130/91
f 91/131/92 95/132/93 94/129/90
f 94/129/90 96/133/94 93/130/91
f 94/129/90 98/134/95 97/135/96
f 6/136/9 90/128/89 26/12/11
f 34/137/40 90/128/89 35/138/41
f 33/139/97 91/131/92 34/137/40
f 5/46/38 92/140/98 33/141/97
f 21/116/84 95/142/93 92/140/98
f 95/142/93 23/115/83 98/143/95
f 98/143/95 1/113/55 27/144/54
f 98/134/95 28/67/52 97/135/96
f 97/135/96 29/69/53 96/133/94
f 96/133/94 2/145/14 24/15/12
f 93/130/91 24/15/12 25/16/13
f 26/12/11 93/130/91 25/16/13
f 45/1/1 46/5/5 49/2/2
f 47/4/4 50/20/16 49/2/2
f 49/2/2 52/8/8 51/6/6
f 49/2/2 50/20/16 53/7/7
f 6/9/9 26/146/11 45/10/1
f 26/12/11 25/16/13 46/13/5
f 24/15/12 47/147/4 46/13/5
f 2/17/14 17/19/15 47/4/4
f 17/19/15 16/21/17 50/20/16
f 16/21/17 15/84/63 53/7/7
f 53/7/7 15/84/63 4/22/18
f 53/7/7 14/23/19 13/24/20
f 51/6/6 52/8/8 13/24/20
f 51/26/6 12/103/21 8/27/22
f 48/29/3 51/26/6 38/28/23
f 36/11/10 45/10/1 48/29/3
f 54/31/25 55/34/28 58/32/26
f 55/34/28 56/48/39 59/35/29
f 58/32/26 61/38/32 60/36/30
f 58/32/26 59/35/29 62/37/31
f 7/39/33 39/148/35 54/40/25
f 39/42/35 40/149/37 55/34/28
f 41/43/36 56/47/39 55/44/28
f 5/46/38 33/141/97 56/47/39
f 56/48/39 33/150/97 34/49/40
f 59/35/29 34/49/40 35/50/41
f 62/37/31 35/50/41 6/9/9
f 61/38/32 62/37/31 36/11/10
f 61/38/32 37/30/24 38/28/23
f 60/36/30 38/28/23 8/27/22
f 57/33/27 60/36/30 42/51/42
f 44/41/34 54/40/25 57/53/27
f 63/55/44 64/151/48 67/56/45
f 65/58/47 68/62/50 67/59/45
f 67/56/45 70/82/51 69/61/49
f 68/62/50 71/76/58 70/63/51
f 2/64/14 29/152/53 63/65/44
f 28/67/52 64/71/48 63/68/44
f 27/70/54 65/153/47 64/71/48
f 1/72/55 30/74/56 65/58/47
f 30/74/56 31/154/88 68/62/50
f 68/62/50 31/154/88 32/75/57
f 71/77/58 32/124/57 3/78/59
f 70/63/51 71/76/58 18/80/60
f 70/82/51 19/155/61 20/83/62
f 69/61/49 20/83/62 4/22/18
f 66/57/46 69/61/49 15/84/63
f 17/19/15 63/55/44 66/57/46
f 72/85/64 73/89/68 76/86/65
f 74/88/67 77/91/70 76/86/65
f 76/86/65 79/92/71 78/90/69
f 77/91/70 80/100/74 79/92/71
f 4/22/18 20/83/62 72/93/64
f 20/83/62 19/155/61 73/94/68
f 19/95/61 18/79/60 74/88/67
f 3/78/59 9/122/87 74/88/67
f 74/88/67 9/122/87 10/96/72
f 77/97/70 10/156/72 11/98/73
f 80/100/74 11/120/73 7/39/33
f 79/92/71 80/100/74 44/41/34
f 79/92/71 43/54/43 42/101/42
f 78/102/69 42/51/42 8/27/22
f 75/104/66 78/157/69 12/25/21
f 72/93/64 75/104/66 13/24/20
f 81/105/75 82/109/79 85/106/76
f 83/108/78 86/118/86 85/106/76
f 85/106/76 88/112/82 87/110/80
f 85/106/76 86/118/86 89/111/81
f 1/113/55 23/115/83 81/105/75
f 23/115/83 22/117/85 82/109/79
f 21/116/84 83/108/78 82/109/79
f 5/46/38 41/43/36 83/108/78
f 83/108/78 41/43/36 40/45/37
f 40/45/37 39/158/35 89/111/81
f 89/119/81 39/148/35 7/39/33
f 88/121/82 89/119/81 11/120/73
f 88/121/82 10/96/72 9/122/87
f 87/123/80 9/122/87 3/78/59
f 84/125/77 87/123/80 32/124/57
f 30/114/56 81/105/75 84/107/77
f 90/128/89 91/131/92 94/129/90
f 91/131/92 92/159/98 95/132/93
f 94/129/90 97/135/96 96/133/94
f 94/129/90 95/132/93 98/134/95
f 6/136/9 35/138/41 90/128/89
f 34/137/40 91/131/92 90/128/89
f 33/139/97 92/159/98 91/131/92
f 5/46/38 21/116/84 92/140/98
f 21/116/84 22/117/85 95/142/93
f 95/142/93 22/117/85 23/115/83
f 98/143/95 23/115/83 1/113/55
f 98/134/95 27/70/54 28/67/52
f 97/135/96 28/67/52 29/69/53
f 96/133/94 29/69/53 2/145/14
f 93/130/91 96/133/94 24/15/12
f 26/12/11 90/128/89 93/130/91
