# Blender v2.90.1 OBJ File: 'Scene_Sea_1.blend'
# www.blender.org
mtllib Seaweed_Pacity_16.mtl
o Seaweed-a005_Mesh.073
v -0.618092 -4.122924 0.486489
v -0.516507 -3.946180 0.612515
v -0.300067 -3.583153 0.587301
v -0.263340 -3.278419 0.688763
v -0.069879 -2.977379 0.674076
v -0.038083 -2.224359 0.599243
v -0.001990 -1.156812 0.498750
v -0.280242 -0.818027 0.582462
v -0.009027 0.059246 0.201021
v -0.164868 -0.031455 -0.196358
v -0.168272 -0.694474 -0.335941
v -0.060583 -1.046964 -0.516365
v -0.067155 -1.449921 -0.691732
v -0.028255 -2.044737 -0.793485
v -0.059400 -2.463547 -0.776626
v -0.074389 -2.854807 -0.774724
v -0.409334 -3.631633 -0.195575
v -0.571416 -3.900868 -0.307154
v -0.660540 -4.136040 0.139174
v -0.296982 -3.161374 -0.405718
v -0.080765 -2.609498 0.631716
v -0.103622 -1.714699 0.569086
v -0.090275 0.011959 -0.006154
v -0.290760 -0.457667 0.135623
v -0.243141 -0.717774 0.054706
v -0.092917 -1.159410 0.033961
v -0.151775 -1.698552 0.153415
v -0.122522 -2.253620 0.138186
v -0.160155 -2.660000 0.142568
v -0.132325 -2.995777 0.156939
v -0.326587 -3.277698 0.146058
v -0.373887 -3.632613 0.192325
v -0.528688 -3.936129 0.408499
v -0.272625 -1.754592 -0.221710
v -0.242381 -2.300281 -0.279700
v -0.210838 -2.638191 -0.340824
v -0.144621 -2.954694 -0.270243
v -0.110764 -0.304095 0.441808
v -0.357336 -0.407203 -0.253375
vt 0.063945 0.680419
vt 0.033904 0.641570
vt 0.142089 0.614320
vt 0.143662 0.679546
vt 0.110312 0.822112
vt 0.072652 0.779967
vt 0.121813 0.772703
vt 0.020572 0.542479
vt 0.128710 0.531555
vt 0.019621 0.485172
vt 0.018390 0.410918
vt 0.113883 0.409810
vt 0.121755 0.483761
vt 0.014144 0.248168
vt 0.000000 0.207250
vt 0.130814 0.197932
vt 0.129070 0.252792
vt 0.016513 0.338965
vt 0.117939 0.332264
vt 0.050012 0.011015
vt 0.105262 0.011413
vt 0.098584 0.095763
vt 0.023166 0.116352
vt 0.203596 0.103632
vt 0.248141 0.189574
vt 0.239404 0.257231
vt 0.202686 0.326664
vt 0.227161 0.408497
vt 0.257524 0.481885
vt 0.249525 0.519350
vt 0.290036 0.577055
vt 0.256265 0.678313
vt 0.294263 0.747221
vt 0.195279 0.818694
vt 0.324708 0.318602
vt 0.371058 0.406828
vt 0.353530 0.480559
vt 0.369189 0.507262
vt 0.155986 0.011778
vn -0.9492 0.2912 0.1195
vn -0.9343 0.3393 0.1093
vn -0.9345 0.3461 0.0835
vn -0.9370 0.3315 0.1102
vn -0.8845 0.4588 0.0849
vn -0.8652 0.4955 0.0761
vn -0.8680 0.4898 0.0814
vn -0.9543 0.2730 0.1212
vn -0.9424 0.3245 0.0814
vn -0.9846 0.0690 0.1608
vn -0.9834 -0.0124 0.1809
vn -0.9770 -0.0105 0.2129
vn -0.9902 -0.0326 0.1360
vn -0.9851 -0.1483 0.0873
vn -0.9851 -0.1708 0.0223
vn -0.9312 -0.3578 -0.0695
vn -0.9952 0.0221 0.0951
vn -0.9899 0.0072 0.1415
vn -0.9759 0.0818 0.2024
vn -0.8599 0.4348 0.2675
vn -0.8651 0.4413 0.2385
vn -0.9366 0.2816 0.2088
vn -0.8635 0.4003 0.3068
vn -0.9964 -0.0554 0.0642
vn -0.9178 -0.3450 -0.1965
vn -0.9895 0.0358 -0.1403
vn -0.9953 0.0973 -0.0025
vn -0.9882 -0.0185 -0.1523
vn -0.9751 -0.0944 -0.2007
vn -0.9932 0.0929 -0.0700
vn -0.8872 0.4602 0.0337
vn -0.9362 0.3472 0.0544
vn -0.8715 0.4844 0.0759
vn -0.8784 0.4712 0.0802
vn -0.9276 0.0422 -0.3711
vn -0.9304 0.0129 -0.3663
vn -0.9608 -0.0404 -0.2744
vn -0.9556 0.2846 -0.0767
vn -0.8763 0.4293 0.2188
usemtl Kelp
s 1
f 3/1/1 4/2/2 31/3/3
f 31/3/3 32/4/4 3/1/1
f 1/5/5 2/6/6 33/7/7
f 33/7/7 2/6/6 3/1/1
f 3/1/1 32/4/4 33/7/7
f 5/8/8 30/9/9 31/3/3
f 31/3/3 4/2/2 5/8/8
f 21/10/10 6/11/11 28/12/12
f 28/12/12 29/13/13 21/10/10
f 7/14/14 8/15/15 25/16/16
f 25/16/16 26/17/17 7/14/14
f 5/8/8 21/10/10 29/13/13
f 29/13/13 30/9/9 5/8/8
f 28/12/12 6/11/11 22/18/18
f 22/18/18 27/19/19 28/12/12
f 27/19/19 22/18/18 7/14/14
f 7/14/14 26/17/17 27/19/19
f 9/20/20 23/21/21 24/22/22
f 24/22/22 38/23/23 9/20/20
f 39/24/24 11/25/25 25/16/16
f 25/16/16 24/22/22 39/24/24
f 25/16/16 11/25/25 12/26/26
f 12/26/26 26/17/17 25/16/16
f 26/17/17 34/27/27 27/19/19
f 34/27/27 35/28/28 28/12/12
f 28/12/12 27/19/19 34/27/27
f 35/28/28 36/29/29 29/13/13
f 29/13/13 28/12/12 35/28/28
f 29/13/13 36/29/29 37/30/30
f 37/30/30 30/9/9 29/13/13
f 30/9/9 37/30/30 20/31/31
f 20/31/31 31/3/3 30/9/9
f 31/3/3 20/31/31 17/32/32
f 17/32/32 32/4/4 31/3/3
f 17/32/32 18/33/33 33/7/7
f 33/7/7 32/4/4 17/32/32
f 33/7/7 18/33/33 19/34/34
f 19/34/34 1/5/5 33/7/7
f 12/26/26 13/35/35 34/27/27
f 34/27/27 26/17/17 12/26/26
f 13/35/35 14/36/36 35/28/28
f 35/28/28 34/27/27 13/35/35
f 14/36/36 15/37/37 36/29/29
f 36/29/29 35/28/28 14/36/36
f 15/37/37 16/38/38 37/30/30
f 37/30/30 36/29/29 15/37/37
f 37/30/30 16/38/38 20/31/31
f 8/15/15 38/23/23 24/22/22
f 24/22/22 25/16/16 8/15/15
f 24/22/22 23/21/21 10/39/39
f 10/39/39 39/24/24 24/22/22
