# Blender v2.90.1 OBJ File: 'Scene_Sea_1.blend'
# www.blender.org
mtllib Seaweed_Pacity_18.mtl
o Seaweed-b006_Mesh.067
v 0.007321 0.083133 -0.028347
v -0.033528 -0.149172 0.421434
v -0.094125 -0.576714 0.505100
v -0.081989 -1.137832 0.351027
v -0.057737 -1.654876 -0.073802
v -0.322454 -1.900663 -0.309232
v -0.220325 -1.605586 -0.838171
v -0.074806 -1.161047 -0.842146
v -0.040643 -0.827816 -0.646086
v -0.054834 -0.497947 -0.644565
v -0.033534 -0.042971 -0.343108
v -0.025193 -0.093515 -0.010486
v -0.124832 -0.493567 0.024320
v -0.131948 -0.880676 -0.294648
v -0.167689 -1.595739 -0.242931
v -0.325928 -1.848233 -0.384458
v -0.220085 -1.670301 -0.741807
v -0.135976 -1.337192 -0.596564
v -0.131948 -0.880676 -0.294648
v 0.001007 -1.441531 0.121795
v -0.061188 -1.024263 -0.718269
v -0.131598 -1.252599 -0.263392
v -0.107768 -1.147478 -0.473602
vt 0.263978 0.070464
vt 0.361188 0.009123
vt 0.363033 0.052684
vt 0.335551 0.328978
vt 0.259278 0.172850
vt 0.367358 0.154761
vt 0.517909 0.468138
vt 0.444381 0.427092
vt 0.488266 0.385166
vt 0.531927 0.456792
vt 0.387345 0.381092
vt 0.472097 0.312534
vt 0.438249 0.039183
vt 0.548289 0.124480
vt 0.563582 0.192687
vt 0.464852 0.241682
vt 0.586087 0.230864
vt 0.515289 0.283349
vt 0.469379 0.239022
vt 0.554993 0.321416
vt 0.623103 0.256346
vt 0.625367 0.381163
vt 0.607115 0.395936
vn -0.9798 0.1946 0.0457
vn -0.9827 0.1835 0.0255
vn -0.9736 0.2260 0.0314
vn -0.9935 -0.0819 0.0796
vn -0.9965 0.0438 0.0712
vn -0.9961 0.0882 0.0042
vn -0.8065 0.2983 0.5105
vn -0.8275 0.0587 0.5585
vn -0.9512 0.2262 0.2098
vn -0.8614 0.5038 0.0644
vn -0.9430 -0.1608 0.2912
vn -0.9936 -0.0315 0.1084
vn -0.9863 0.1598 -0.0410
vn -0.9878 0.0841 -0.1313
vn -0.9741 0.0401 -0.2226
vn -0.8826 0.0101 0.4701
vn -0.9785 0.1797 -0.1010
vn -0.9853 0.1041 -0.1356
vn -0.4856 -0.0003 0.8597
vn -0.9792 0.2028 0.0012
vn -0.9612 0.2722 -0.0442
vn -0.9600 0.2789 0.0254
vn -0.9380 0.3423 0.0545
usemtl Kelp
s 1
f 2/1/1 1/2/2 12/3/3
f 4/4/4 3/5/5 13/6/6
f 2/1/1 12/3/3 13/6/6
f 13/6/6 3/5/5 2/1/1
f 6/7/7 5/8/8 15/9/9
f 15/9/9 16/10/10 6/7/7
f 20/11/11 22/12/12 15/9/9
f 15/9/9 5/8/8 20/11/11
f 1/2/2 11/13/13 12/3/3
f 11/13/13 10/14/14 13/6/6
f 13/6/6 12/3/3 11/13/13
f 10/14/14 9/15/15 14/16/16
f 14/16/16 13/6/6 10/14/14
f 9/15/15 21/17/17 23/18/18
f 14/16/16 9/15/15 23/18/18
f 14/16/16 23/18/18 19/19/19
f 18/20/20 8/21/21 7/22/22
f 7/22/22 17/23/23 18/20/20
f 17/23/23 16/10/10 15/9/9
f 15/9/9 18/20/20 17/23/23
f 18/20/20 15/9/9 22/12/12
f 22/12/12 23/18/18 18/20/20
f 13/6/6 14/16/16 4/4/4
f 4/4/4 14/16/16 19/19/19
f 4/4/4 19/19/19 22/12/12
f 20/11/11 4/4/4 22/12/12
f 21/17/17 8/21/21 18/20/20
f 18/20/20 23/18/18 21/17/17
f 22/12/12 19/19/19 23/18/18
