# Blender v2.90.1 OBJ File: 'Scene_Sea_1.blend'
# www.blender.org
mtllib Seaweed_Pacity_2.mtl
o Seaweed-e008_Mesh.047
v 0.062780 0.039520 0.052562
v 0.023081 0.395507 0.293541
v 0.127863 0.645835 0.490685
v 0.373350 0.886311 0.120638
v 0.360941 0.781546 -0.290111
v 0.279975 0.588693 -0.238978
v 0.086213 0.268252 -0.083756
v -0.009588 0.512344 0.415214
v 0.129787 0.443311 -0.101337
v 0.077356 0.365154 0.226507
v 0.106772 0.591668 0.355476
v 0.201071 0.612874 0.361299
v 0.396639 0.853606 0.062574
v 0.389151 0.820745 -0.102216
v 0.217439 0.657435 0.036236
v 0.111353 0.474509 0.069756
v 0.103694 0.317411 0.096646
v 0.055242 1.142694 -0.353318
v -0.162114 0.909740 -0.405874
v -0.318195 0.382261 -0.240357
v -0.241856 0.234916 -0.148657
v -0.010121 0.011673 0.044848
v -0.011287 0.054164 0.077001
v -0.200339 0.270530 -0.050472
v -0.269074 0.747472 -0.215222
v -0.137872 0.909855 -0.329530
v 0.088096 1.155962 -0.264447
v -0.034720 1.015778 -0.382989
v -0.005531 1.022069 -0.300221
v -0.128698 0.123101 -0.050106
v -0.107449 0.162229 0.014341
v -0.025614 0.034892 0.071462
v -0.126891 0.149010 0.003917
v -0.237969 0.246463 -0.102547
v -0.300657 0.749763 -0.249530
v -0.164818 0.915432 -0.365486
v -0.032134 1.023843 -0.336206
v 0.058104 1.153850 -0.307726
v 0.043664 -0.009056 0.010464
v 0.004887 -0.052576 -0.016267
v -0.015994 0.090960 -0.204672
v -0.001417 0.715336 -0.496751
v 0.045154 1.143000 -0.308233
v 0.131894 1.271699 -0.281136
v 0.124840 1.104097 -0.225373
v 0.094648 0.705503 -0.393336
v 0.044112 0.137753 -0.151508
v -0.006048 0.244954 -0.326671
v 0.079845 0.295196 -0.267341
v 0.123619 0.914465 -0.331727
v 0.037668 0.925575 -0.436172
v 0.035031 -0.033363 -0.009657
v 0.020754 0.107556 -0.188090
v 0.044446 0.262876 -0.307694
v 0.051582 0.706195 -0.459071
v 0.089396 0.920871 -0.392189
v 0.089845 1.127983 -0.280065
v 0.250336 1.078599 -0.207117
v 0.077831 0.999585 -0.205783
v -0.135321 0.796278 -0.166997
v -0.127723 0.304992 -0.033654
v 0.011601 -0.043253 -0.023754
v 0.005040 -0.056045 0.076922
v -0.139029 0.302581 0.067877
v -0.173991 0.764213 -0.051450
v 0.050537 0.990818 -0.111896
v 0.227969 1.068187 -0.150622
v -0.049153 0.919082 -0.197141
v -0.085222 0.902340 -0.093371
v -0.055583 0.133081 -0.028737
v -0.064519 0.125478 0.072367
v -0.004871 -0.054189 0.024446
v -0.072164 0.125608 0.007809
v -0.146861 0.299179 0.018856
v -0.166807 0.787800 -0.110989
v -0.078109 0.919905 -0.146119
v 0.053207 1.005409 -0.153301
v 0.231092 1.084808 -0.179922
v 0.064650 0.984580 -0.030587
v 0.025107 1.079684 -0.124442
v 0.035881 1.048271 -0.162092
v 0.071573 0.930467 -0.124853
v 0.078662 0.337968 -0.211624
v 0.050254 -0.057835 -0.047160
v 0.050893 -0.059582 0.037721
v 0.075818 0.352014 -0.097189
v 0.108265 0.837587 -0.038937
v 0.108692 0.783623 -0.153709
v 0.082876 0.602840 -0.129837
v 0.083595 0.598980 -0.223983
v 0.050127 0.081846 0.003071
v 0.050875 0.061980 -0.087907
v 0.067758 -0.056280 -0.010671
v 0.068250 0.078830 -0.022110
v 0.094698 0.347114 -0.153641
v 0.099556 0.597522 -0.182986
v 0.124482 0.807120 -0.095616
v 0.084506 0.955335 -0.077966
v 0.048019 1.062069 -0.142976
vt 0.671163 0.929642
vt 0.639246 0.930496
vt 0.647211 0.880722
vt 0.662437 0.875926
vt 0.698663 0.997261
vt 0.711388 0.991684
vt 0.655112 0.831345
vt 0.690745 0.753891
vt 0.670142 0.826972
vt 0.730232 0.809490
vt 0.701230 0.817928
vt 0.747754 0.849055
vt 0.716064 0.858165
vt 0.774031 0.908385
vt 0.728839 0.913868
vt 0.776805 0.963013
vt 0.744279 0.977268
vt 0.950688 0.915560
vt 0.967183 0.951009
vt 0.955994 0.951911
vt 0.941219 0.916327
vt 0.957652 0.858245
vt 0.967767 0.858636
vt 0.962120 0.811545
vt 0.973203 0.808440
vt 0.975214 0.768485
vt 0.989551 0.767528
vt 0.970768 0.987494
vt 0.981624 0.986624
vt 0.988307 0.725425
vt 0.995596 0.728506
vt 1.000000 0.730368
vt 0.994471 0.767199
vt 0.988943 0.804030
vt 0.978549 0.859053
vt 0.961546 0.914681
vt 0.977728 0.950160
vt 0.993910 0.985639
vt 0.854293 0.960281
vt 0.837938 0.962524
vt 0.831707 0.914166
vt 0.846400 0.909967
vt 0.859458 1.000000
vt 0.841619 0.681969
vt 0.847598 0.680682
vt 0.848676 0.734444
vt 0.837922 0.733918
vt 0.836725 0.780926
vt 0.822732 0.779862
vt 0.840530 0.856906
vt 0.824687 0.859680
vt 0.855556 0.678970
vt 0.858495 0.734924
vt 0.850068 0.781941
vt 0.854968 0.854378
vt 0.860978 0.905801
vt 0.867139 0.958519
vt 0.879805 0.863659
vt 0.866349 0.866111
vt 0.881654 0.792891
vt 0.894787 0.791825
vt 0.872610 0.987677
vt 0.865021 0.987715
vt 0.873881 0.944548
vt 0.887484 0.945774
vt 0.882693 0.904615
vt 0.870115 0.905329
vt 0.878285 0.746611
vt 0.887479 0.745327
vt 0.874916 0.700332
vt 0.886861 0.697950
vt 0.899137 0.695502
vt 0.902750 0.743193
vt 0.906363 0.790885
vt 0.894322 0.861014
vt 0.896036 0.903857
vt 0.897751 0.946700
vt 0.880014 0.987639
vt 0.928866 0.966420
vt 0.918414 0.972653
vt 0.910763 0.941751
vt 0.923571 0.934972
vt 0.949176 0.994930
vt 0.952501 0.991317
vt 0.922664 0.767267
vt 0.928681 0.766885
vt 0.931899 0.834326
vt 0.918439 0.833972
vt 0.914422 0.890371
vt 0.928817 0.889554
vt 0.924870 0.732437
vt 0.936213 0.734431
vt 0.944788 0.735939
vt 0.945216 0.765833
vt 0.946202 0.834702
vt 0.940475 0.888893
vt 0.936319 0.928224
vt 0.938830 0.960479
vt 0.955567 0.987987
vn 0.7433 -0.6476 0.1677
vn 0.7656 -0.3688 0.5271
vn 0.5219 -0.7287 0.4433
vn 0.7690 -0.5703 0.2889
vn 0.8657 -0.1171 0.4867
vn 0.7899 -0.6088 0.0745
vn 0.6420 -0.4349 0.6314
vn 0.9453 -0.2256 0.2356
vn 0.9093 -0.2407 0.3394
vn 0.9823 -0.1816 -0.0457
vn 0.9879 -0.1336 0.0781
vn 0.9102 -0.3752 0.1753
vn 0.9429 -0.2889 0.1656
vn 0.8269 -0.5134 0.2297
vn 0.7676 -0.6233 0.1490
vn 0.9155 -0.3987 -0.0543
vn 0.8154 -0.5565 0.1592
vn -0.8437 0.3128 -0.4362
vn -0.7419 0.6327 0.2218
vn -0.6849 0.7214 -0.1025
vn -0.9162 0.3865 -0.1056
vn -0.9895 0.1360 -0.0491
vn -0.9928 0.1189 -0.0138
vn -0.8954 -0.0974 0.4344
vn -0.8713 -0.0990 0.4807
vn -0.7730 -0.5723 0.2736
vn -0.7684 -0.3695 0.5226
vn -0.8085 0.5838 -0.0738
vn -0.8086 0.4784 0.3425
vn -0.7743 -0.5903 0.2282
vn -0.7746 -0.3950 0.4940
vn -0.4863 0.0778 0.8703
vn -0.5055 0.0651 0.8603
vn -0.7926 0.0081 0.6097
vn -0.7845 0.1790 0.5937
vn -0.5331 0.6840 0.4979
vn -0.7143 0.4644 0.5236
vn -0.7632 0.3975 0.5095
vn 0.7746 0.1513 -0.6142
vn 0.8517 0.0541 -0.5213
vn 0.8672 0.1731 -0.4669
vn 0.7588 0.1973 -0.6208
vn 0.6584 -0.1980 -0.7261
vn 0.9263 -0.2685 -0.2645
vn 0.6960 -0.5357 -0.4782
vn 0.7476 -0.4692 -0.4701
vn 0.8692 -0.3811 -0.3150
vn 0.6925 -0.3413 -0.6356
vn 0.8094 -0.2319 -0.5396
vn 0.7037 -0.1453 -0.6954
vn 0.8415 -0.0862 -0.5334
vn 0.5313 -0.6445 -0.5499
vn 0.5362 -0.6129 -0.5804
vn 0.4715 -0.3643 -0.8031
vn 0.5509 -0.1601 -0.8191
vn 0.6252 0.2163 -0.7499
vn 0.5944 0.2753 -0.7556
vn -0.9472 0.0294 -0.3192
vn -0.8708 0.0668 -0.4872
vn -0.9039 -0.1705 -0.3924
vn -0.9770 -0.1866 -0.1031
vn -0.4083 0.9020 -0.1403
vn -0.3747 0.8105 -0.4502
vn -0.4693 0.8158 -0.3379
vn -0.4647 0.8835 0.0587
vn -0.7027 0.6783 -0.2149
vn -0.6715 0.6293 -0.3912
vn -0.8442 -0.3467 -0.4088
vn -0.9155 -0.3677 -0.1634
vn -0.8469 -0.3444 -0.4051
vn -0.9336 -0.3576 -0.0209
vn -0.9228 -0.3496 0.1619
vn -0.9205 -0.3668 0.1345
vn -0.9767 -0.1403 0.1624
vn -0.9995 0.0280 -0.0172
vn -0.6892 0.7052 0.1666
vn -0.4089 0.8687 0.2797
vn -0.3202 0.8761 0.3605
vn 0.9482 0.3176 0.0041
vn 0.9160 0.3696 0.1557
vn 0.9588 0.0405 0.2811
vn 0.9997 0.0199 0.0160
vn 0.8502 0.4838 0.2077
vn 0.9512 0.2483 -0.1831
vn 0.8976 0.0950 0.4304
vn 0.9969 -0.0371 0.0695
vn 0.9974 -0.0685 -0.0212
vn 0.9541 0.0208 0.2987
vn 0.9351 -0.1469 0.3224
vn 0.9979 -0.0422 0.0490
vn 0.9006 0.0723 0.4286
vn 0.9935 -0.0396 -0.1071
vn 0.8941 -0.1483 -0.4226
vn 0.9564 -0.1626 -0.2428
vn 0.9613 -0.1235 -0.2464
vn 0.9544 -0.0259 -0.2975
vn 0.9432 0.0945 -0.3185
vn 0.8950 0.2191 -0.3885
vn 0.8192 0.0682 -0.5694
usemtl Kelp
s 1
f 12/1/1 3/2/2 8/3/3
f 8/3/3 11/4/4 12/1/1
f 4/5/5 3/2/2 12/1/1
f 12/1/1 13/6/6 4/5/5
f 2/7/7 1/8/8 10/9/9
f 2/7/7 10/9/9 11/4/4
f 11/4/4 8/3/3 2/7/7
f 1/8/8 7/10/10 17/11/11
f 17/11/11 7/10/10 9/12/12
f 9/12/12 16/13/13 17/11/11
f 9/12/12 6/14/14 15/15/15
f 15/15/15 16/13/13 9/12/12
f 6/14/14 5/16/16 14/17/17
f 14/17/17 15/15/15 6/14/14
f 13/6/6 12/1/1 15/15/15
f 15/15/15 14/17/17 13/6/6
f 15/15/15 12/1/1 11/4/4
f 11/4/4 16/13/13 15/15/15
f 16/13/13 11/4/4 10/9/9
f 10/9/9 17/11/11 16/13/13
f 17/11/11 10/9/9 1/8/8
f 36/18/18 37/19/19 28/20/20
f 28/20/20 19/21/21 36/18/18
f 20/22/22 35/23/23 36/18/18
f 36/18/18 19/21/21 20/22/22
f 21/24/24 34/25/25 35/23/23
f 35/23/23 20/22/22 21/24/24
f 30/26/26 33/27/27 34/25/25
f 34/25/25 21/24/24 30/26/26
f 18/28/28 28/20/20 37/19/19
f 37/19/19 38/29/29 18/28/28
f 22/30/30 32/31/31 33/27/27
f 33/27/27 30/26/26 22/30/30
f 23/32/32 31/33/33 33/27/27
f 33/27/27 32/31/31 23/32/32
f 33/27/27 31/33/33 24/34/34
f 24/34/34 34/25/25 33/27/27
f 34/25/25 24/34/34 25/35/35
f 25/35/35 35/23/23 34/25/25
f 35/23/23 25/35/35 26/36/36
f 26/36/36 36/18/18 35/23/23
f 26/36/36 29/37/37 37/19/19
f 37/19/19 36/18/18 26/36/36
f 29/37/37 27/38/38 38/29/29
f 38/29/29 37/19/19 29/37/37
f 57/39/39 45/40/40 50/41/41
f 50/41/41 56/42/42 57/39/39
f 44/43/43 45/40/40 57/39/39
f 39/44/44 52/45/45 53/46/46
f 53/46/46 47/47/47 39/44/44
f 47/47/47 53/46/46 54/48/48
f 54/48/48 49/49/49 47/47/47
f 55/50/50 46/51/51 49/49/49
f 49/49/49 54/48/48 55/50/50
f 46/51/51 55/50/50 56/42/42
f 56/42/42 50/41/41 46/51/51
f 52/45/45 40/52/52 41/53/53
f 41/53/53 53/46/46 52/45/45
f 53/46/46 41/53/53 48/54/54
f 48/54/54 54/48/48 53/46/46
f 48/54/54 42/55/55 55/50/50
f 55/50/50 54/48/48 48/54/54
f 55/50/50 42/55/55 51/56/56
f 51/56/56 56/42/42 55/50/50
f 56/42/42 51/56/56 43/57/57
f 43/57/57 57/39/39 56/42/42
f 57/39/39 43/57/57 44/43/43
f 75/58/58 60/59/59 61/60/60
f 61/60/60 74/61/61 75/58/58
f 78/62/62 58/63/63 59/64/64
f 59/64/64 77/65/65 78/62/62
f 76/66/66 68/67/67 60/59/59
f 60/59/59 75/58/58 76/66/66
f 70/68/68 73/69/69 74/61/61
f 74/61/61 61/60/60 70/68/68
f 59/64/64 68/67/67 76/66/66
f 76/66/66 77/65/65 59/64/64
f 62/70/70 72/71/71 73/69/69
f 73/69/69 70/68/68 62/70/70
f 72/71/71 63/72/72 71/73/73
f 71/73/73 73/69/69 72/71/71
f 71/73/73 64/74/74 74/61/61
f 74/61/61 73/69/69 71/73/73
f 74/61/61 64/74/74 65/75/75
f 65/75/75 75/58/58 74/61/61
f 75/58/58 65/75/75 69/76/76
f 69/76/76 76/66/66 75/58/58
f 69/76/76 66/77/77 77/65/65
f 77/65/65 76/66/66 69/76/76
f 77/65/65 66/77/77 67/78/78
f 67/78/78 78/62/62 77/65/65
f 98/79/79 79/80/80 87/81/81
f 87/81/81 97/82/82 98/79/79
f 80/83/83 79/80/80 98/79/79
f 98/79/79 99/84/84 80/83/83
f 91/85/85 94/86/86 95/87/87
f 95/87/87 86/88/88 91/85/85
f 97/82/82 87/81/81 89/89/89
f 89/89/89 96/90/90 97/82/82
f 86/88/88 95/87/87 96/90/90
f 96/90/90 89/89/89 86/88/88
f 85/91/91 93/92/92 94/86/86
f 94/86/86 91/85/85 85/91/91
f 93/92/92 84/93/93 92/94/94
f 92/94/94 94/86/86 93/92/92
f 92/94/94 83/95/95 95/87/87
f 95/87/87 94/86/86 92/94/94
f 95/87/87 83/95/95 90/96/96
f 90/96/96 96/90/90 95/87/87
f 96/90/90 90/96/96 88/97/97
f 88/97/97 97/82/82 96/90/90
f 97/82/82 88/97/97 82/98/98
f 82/98/98 98/79/79 97/82/82
f 82/98/98 81/99/99 99/84/84
f 99/84/84 98/79/79 82/98/98
