# Blender v2.90.1 OBJ File: 'Scene_Sea_1.blend'
# www.blender.org
mtllib Seaweed_Pacity_15.mtl
o Seaweed-c005_Mesh.062
v 0.021753 -0.076284 0.147403
v 0.057883 -0.016788 -0.167181
v -0.251628 -0.067074 -0.732235
v -1.066879 -0.556612 -0.556458
v -1.072141 -1.502975 -0.604820
v -1.098316 -1.571631 -0.526855
v -1.149891 -1.697739 -0.627877
v -1.264431 -1.902795 -0.456531
v -1.282417 -1.890588 -0.243282
v -1.202621 -1.785044 -0.227855
v -1.246183 -1.557359 -0.164142
v -1.402772 -2.077271 0.091192
v -1.301141 -2.132979 0.613879
v -1.168044 -0.847163 0.710243
v -0.986236 -0.605040 0.573850
v -0.747730 -0.265693 0.678926
v -0.218572 0.018243 0.755584
v -0.791756 -0.304903 -0.644192
v -1.121935 -0.654615 -0.247698
v -1.152623 -1.512872 -0.312957
v -1.186914 -0.878944 0.204551
v -1.272736 -1.239685 0.303369
v -1.288421 -1.887313 0.142910
v -1.267355 -1.502237 0.650114
v -1.240356 -1.168508 -0.256595
v -1.146828 -0.940878 -0.646039
v -0.863487 -0.357734 -0.305601
v -0.521208 -0.105963 -0.061237
v -0.075536 -0.068320 0.091559
vt 0.417748 0.518632
vt 0.463541 0.522218
vt 0.440162 0.585004
vt 0.346972 0.513089
vt 0.337759 0.580756
vt 0.523586 0.673265
vt 0.629643 0.732725
vt 0.406689 0.674903
vt 0.376078 1.000000
vt 0.307068 0.992921
vt 0.371490 0.977007
vt 0.197546 0.869270
vt 0.333763 0.871694
vt 0.327729 0.654425
vt 0.358821 0.754852
vt 0.274822 0.743867
vt 0.445176 0.477257
vt 0.367541 0.489864
vt 0.356260 0.448724
vt 0.449157 0.446070
vt 0.394746 0.412229
vt 0.654195 0.549584
vt 0.542056 0.481238
vt 0.541502 0.533256
vt 0.563399 0.624162
vt 0.643775 0.627314
vt 0.575232 0.783154
vt 0.567269 0.876715
vt 0.508876 0.943069
vn -0.9244 -0.0740 -0.3742
vn 0.4650 -0.5182 -0.7178
vn -0.9901 0.0860 -0.1113
vn -0.9433 -0.1506 -0.2958
vn -0.9788 0.0792 -0.1888
vn -0.9701 0.2425 -0.0080
vn -0.9327 0.3533 0.0731
vn -0.8880 0.4596 0.0153
vn 0.0881 0.9960 -0.0114
vn -0.1388 0.9894 0.0422
vn -0.0359 0.9982 -0.0486
vn -0.2896 0.9552 -0.0610
vn -0.3656 0.9304 -0.0245
vn -0.8356 0.5488 -0.0223
vn -0.7111 0.7024 0.0321
vn -0.5126 0.8556 -0.0713
vn -0.9448 0.2174 -0.2449
vn -0.9351 0.3337 -0.1198
vn -0.8977 0.4305 -0.0935
vn -0.8800 0.4738 -0.0345
vn -0.9019 0.4201 -0.1001
vn -0.9948 -0.0771 -0.0668
vn -0.3089 -0.6265 -0.7156
vn -0.9879 0.1334 0.0788
vn -0.9948 0.1009 0.0102
vn -0.9915 0.0960 0.0881
vn -0.7843 0.6165 0.0693
vn -0.6344 0.7725 0.0289
vn -0.2697 0.9622 -0.0374
usemtl Kelp
s 1
f 20/1/1 11/2/2 25/3/3
f 5/4/4 20/1/1 25/3/3
f 5/4/4 25/3/3 26/5/5
f 21/6/6 14/7/7 19/8/8
f 1/9/9 2/10/10 29/11/11
f 2/10/10 3/12/12 28/13/13
f 28/13/13 29/11/11 2/10/10
f 4/14/14 19/8/8 27/15/15
f 27/15/15 18/16/16 4/14/14
f 18/16/16 27/15/15 28/13/13
f 28/13/13 3/12/12 18/16/16
f 10/17/17 11/2/2 20/1/1
f 6/18/18 10/17/17 20/1/1
f 5/4/4 6/18/18 20/1/1
f 6/18/18 7/19/19 9/20/20
f 9/20/20 10/17/17 6/18/18
f 7/19/19 8/21/21 9/20/20
f 13/22/22 12/23/23 11/2/2
f 25/3/3 11/2/2 12/23/23
f 25/3/3 12/23/23 23/24/24
f 22/25/25 25/3/3 23/24/24
f 23/24/24 12/23/23 13/22/22
f 22/25/25 23/24/24 13/22/22
f 22/25/25 13/22/22 24/26/26
f 21/6/6 19/8/8 25/3/3
f 25/3/3 22/25/25 21/6/6
f 19/8/8 4/14/14 26/5/5
f 26/5/5 25/3/3 19/8/8
f 22/25/25 24/26/26 14/7/7
f 14/7/7 21/6/6 22/25/25
f 19/8/8 14/7/7 15/27/27
f 15/27/27 27/15/15 19/8/8
f 27/15/15 15/27/27 16/28/28
f 16/28/28 28/13/13 27/15/15
f 28/13/13 16/28/28 17/29/29
f 17/29/29 29/11/11 28/13/13
f 29/11/11 17/29/29 1/9/9
