# Blender v2.90.1 OBJ File: 'Scene_Sea_1.blend'
# www.blender.org
mtllib Seaweed_Pacity_6.mtl
o Seaweed-e010_Mesh.069
v 0.062826 0.004406 0.063188
v 0.092448 0.422468 0.380605
v 0.308235 0.928155 0.589212
v 0.367359 1.248914 0.126337
v 0.340653 1.025742 -0.299855
v 0.363864 0.780196 -0.215005
v 0.146256 0.306245 -0.045482
v 0.230043 0.679084 0.548402
v 0.245181 0.512908 -0.034408
v 0.145066 0.385063 0.303637
v 0.270832 0.636488 0.463883
v 0.372546 0.906563 0.437828
v 0.395699 1.213938 0.061697
v 0.378266 1.132674 -0.109331
v 0.375263 0.832366 0.108161
v 0.251769 0.547284 0.159154
v 0.167483 0.339355 0.156313
v -0.129068 1.205119 -0.322631
v -0.231816 0.804472 -0.314873
v -0.266344 0.562824 -0.150972
v -0.200067 0.327510 -0.120738
v -0.019159 -0.017410 0.050299
v -0.012058 0.031425 0.091826
v -0.153153 0.351379 -0.009432
v -0.225656 0.610294 -0.078222
v -0.196974 0.838991 -0.239266
v -0.090371 1.262343 -0.236506
v -0.158368 1.004539 -0.325827
v -0.120778 1.050426 -0.244906
v -0.112562 0.154997 -0.033322
v -0.084387 0.191368 0.042333
v -0.031168 0.010430 0.082699
v -0.107200 0.179485 0.028957
v -0.195486 0.334796 -0.069324
v -0.261940 0.584243 -0.107756
v -0.230704 0.818986 -0.271795
v -0.152384 1.026542 -0.277293
v -0.124479 1.230320 -0.275623
v 0.033661 -0.047312 0.009975
v -0.015523 -0.091653 -0.025911
v 0.004535 0.118172 -0.204558
v -0.002290 0.674233 -0.434275
v -0.131624 1.210362 -0.272575
v -0.106615 1.410180 -0.271511
v -0.024938 1.239570 -0.199819
v 0.109288 0.750158 -0.345250
v 0.075464 0.159367 -0.139746
v 0.056040 0.326625 -0.310171
v 0.154335 0.367035 -0.238164
v 0.047151 1.008407 -0.299985
v -0.055656 0.939979 -0.392434
v 0.019994 -0.073478 -0.015639
v 0.045866 0.130573 -0.184009
v 0.111882 0.338093 -0.286829
v 0.057979 0.707280 -0.405472
v 0.002301 0.978570 -0.356951
v -0.077903 1.229471 -0.251635
v 0.108417 1.295931 -0.206658
v -0.016592 1.102494 -0.161756
v -0.115053 0.759211 -0.059959
v -0.070428 0.380306 0.014451
v -0.006035 -0.080020 -0.032410
v -0.020468 -0.109224 0.073581
v -0.087380 0.364684 0.122943
v -0.118113 0.729240 0.073292
v -0.023383 1.099337 -0.055507
v 0.101163 1.284760 -0.141068
v -0.096805 0.938013 -0.119114
v -0.106532 0.923221 0.000092
v -0.035106 0.152473 -0.008713
v -0.050835 0.130095 0.098591
v -0.027937 -0.097839 0.017538
v -0.055785 0.140659 0.029292
v -0.094057 0.368654 0.069745
v -0.131904 0.744242 0.007014
v -0.116470 0.933391 -0.058602
v -0.034313 1.106344 -0.100983
v 0.091603 1.297261 -0.173936
v 0.005702 1.121881 0.028035
v -0.091524 1.175650 -0.068982
v -0.072385 1.139272 -0.109266
v 0.023060 1.044516 -0.069980
v 0.159916 0.412850 -0.171354
v 0.031937 -0.101301 -0.059938
v 0.028279 -0.115618 0.030916
v 0.152541 0.413899 -0.046780
v 0.115290 0.989352 0.019101
v 0.123412 0.903226 -0.099207
v 0.199823 0.719438 -0.052147
v 0.186004 0.703889 -0.155422
v 0.061696 0.066484 0.017021
v 0.062096 0.054380 -0.083941
v 0.048839 -0.107394 -0.020496
v 0.081038 0.063304 -0.010510
v 0.173017 0.412956 -0.108463
v 0.212161 0.713992 -0.111639
v 0.136219 0.952792 -0.042625
v 0.030845 1.091131 -0.024732
v -0.064472 1.166541 -0.092583
vt 0.671163 0.929642
vt 0.639246 0.930496
vt 0.647211 0.880722
vt 0.662437 0.875926
vt 0.698663 0.997261
vt 0.711388 0.991684
vt 0.655112 0.831345
vt 0.690745 0.753891
vt 0.670142 0.826972
vt 0.730232 0.809490
vt 0.701230 0.817928
vt 0.747754 0.849055
vt 0.716064 0.858165
vt 0.774031 0.908385
vt 0.728839 0.913868
vt 0.776805 0.963013
vt 0.744279 0.977268
vt 0.950688 0.915560
vt 0.967183 0.951009
vt 0.955994 0.951911
vt 0.941219 0.916327
vt 0.957652 0.858245
vt 0.967767 0.858636
vt 0.962120 0.811545
vt 0.973203 0.808440
vt 0.975214 0.768485
vt 0.989551 0.767528
vt 0.970768 0.987494
vt 0.981624 0.986624
vt 0.988307 0.725425
vt 0.995596 0.728506
vt 1.000000 0.730368
vt 0.994471 0.767199
vt 0.988943 0.804030
vt 0.978549 0.859053
vt 0.961546 0.914681
vt 0.977728 0.950160
vt 0.993910 0.985639
vt 0.854293 0.960281
vt 0.837938 0.962524
vt 0.831707 0.914166
vt 0.846400 0.909967
vt 0.859458 1.000000
vt 0.841619 0.681969
vt 0.847598 0.680682
vt 0.848676 0.734444
vt 0.837922 0.733918
vt 0.836725 0.780926
vt 0.822732 0.779862
vt 0.840530 0.856906
vt 0.824687 0.859680
vt 0.855556 0.678970
vt 0.858495 0.734924
vt 0.850068 0.781941
vt 0.854968 0.854378
vt 0.860978 0.905801
vt 0.867139 0.958519
vt 0.879805 0.863659
vt 0.866349 0.866111
vt 0.881654 0.792891
vt 0.894787 0.791825
vt 0.872610 0.987677
vt 0.865021 0.987715
vt 0.873881 0.944548
vt 0.887484 0.945774
vt 0.882693 0.904615
vt 0.870115 0.905329
vt 0.878285 0.746611
vt 0.887479 0.745327
vt 0.874916 0.700332
vt 0.886861 0.697950
vt 0.899137 0.695502
vt 0.902750 0.743193
vt 0.906363 0.790885
vt 0.894322 0.861014
vt 0.896036 0.903857
vt 0.897751 0.946700
vt 0.880014 0.987639
vt 0.928866 0.966420
vt 0.918414 0.972653
vt 0.910763 0.941751
vt 0.923571 0.934972
vt 0.949176 0.994930
vt 0.952501 0.991317
vt 0.922664 0.767267
vt 0.928681 0.766885
vt 0.931899 0.834326
vt 0.918439 0.833972
vt 0.914422 0.890371
vt 0.928817 0.889554
vt 0.924870 0.732437
vt 0.936213 0.734431
vt 0.944788 0.735939
vt 0.945216 0.765833
vt 0.946202 0.834702
vt 0.940475 0.888893
vt 0.936319 0.928224
vt 0.938830 0.960479
vt 0.955567 0.987987
vn 0.9744 -0.0855 0.2080
vn 0.9152 0.0896 0.3930
vn 0.7823 -0.3803 0.4934
vn 0.8797 -0.4347 0.1928
vn 0.9020 0.2998 0.3107
vn 0.9993 -0.0067 0.0381
vn 0.5168 -0.5965 0.6141
vn 0.9105 -0.3707 0.1833
vn 0.8168 -0.4934 0.2990
vn 0.9427 -0.3316 -0.0376
vn 0.9293 -0.3620 0.0737
vn 0.9181 -0.3957 0.0215
vn 0.9075 -0.4122 0.0808
vn 0.9821 -0.1817 -0.0488
vn 0.9744 -0.2244 0.0169
vn 0.9785 0.0216 -0.2053
vn 0.9968 -0.0283 -0.0749
vn -0.9379 0.3077 0.1601
vn -0.9232 0.2309 0.3074
vn -0.9551 0.2950 -0.0275
vn -0.9776 0.2046 -0.0492
vn -0.9959 -0.0013 0.0899
vn -0.9027 0.1183 0.4136
vn -0.9416 -0.2964 0.1599
vn -0.8698 -0.1889 0.4557
vn -0.9029 -0.3812 0.1987
vn -0.8527 -0.2451 0.4614
vn -0.9891 0.1419 0.0404
vn -0.8664 0.1170 0.4855
vn -0.9109 -0.3797 0.1614
vn -0.8633 -0.2516 0.4375
vn -0.5025 0.0457 0.8634
vn -0.5210 0.0404 0.8526
vn -0.7704 -0.0549 0.6351
vn -0.7805 0.1255 0.6125
vn -0.7496 0.3823 0.5403
vn -0.7760 0.1478 0.6131
vn -0.7855 0.0884 0.6125
vn 0.5052 0.3388 -0.7937
vn 0.6468 0.2559 -0.7184
vn 0.6020 0.4176 -0.6806
vn 0.4715 0.3559 -0.8069
vn 0.5715 0.0010 -0.8206
vn 0.8872 -0.3643 -0.2830
vn 0.6478 -0.5338 -0.5435
vn 0.7071 -0.4769 -0.5220
vn 0.8298 -0.4395 -0.3439
vn 0.6850 -0.3227 -0.6531
vn 0.8062 -0.1622 -0.5689
vn 0.6017 -0.0115 -0.7986
vn 0.7231 0.1251 -0.6793
vn 0.4884 -0.5923 -0.6408
vn 0.4942 -0.5588 -0.6660
vn 0.4750 -0.3328 -0.8146
vn 0.4547 -0.0581 -0.8887
vn 0.3176 0.2937 -0.9016
vn 0.2675 0.3534 -0.8964
vn -0.9922 -0.0816 -0.0942
vn -0.9529 -0.0979 -0.2871
vn -0.9217 -0.1428 -0.3608
vn -0.9874 -0.1236 -0.0988
vn -0.8284 0.5570 -0.0588
vn -0.8009 0.4181 -0.4286
vn -0.8664 0.3928 -0.3083
vn -0.8551 0.5123 0.0797
vn -0.9706 0.2070 -0.1225
vn -0.9375 0.1548 -0.3117
vn -0.8839 -0.0736 -0.4619
vn -0.9691 -0.1076 -0.2220
vn -0.8882 -0.0754 -0.4532
vn -0.9859 -0.1099 -0.1266
vn -0.9853 -0.1359 0.1037
vn -0.9858 -0.1516 0.0717
vn -0.9875 -0.0989 0.1227
vn -0.9843 -0.0035 0.1766
vn -0.9124 0.3230 0.2516
vn -0.7746 0.5658 0.2826
vn -0.7177 0.6046 0.3454
vn 0.7125 0.6642 -0.2264
vn 0.6834 0.7233 -0.0987
vn 0.8680 0.4961 0.0204
vn 0.8768 0.4337 -0.2077
vn 0.5928 0.8043 -0.0401
vn 0.6714 0.5752 -0.4673
vn 0.8950 -0.1351 0.4251
vn 0.9717 -0.2257 0.0700
vn 0.9812 -0.1920 -0.0181
vn 0.9470 -0.1487 0.2847
vn 0.9709 0.1272 0.2031
vn 0.9923 0.0814 -0.0936
vn 0.8845 -0.1559 0.4397
vn 0.9550 -0.2551 -0.1515
vn 0.8800 -0.2342 -0.4133
vn 0.9366 -0.2597 -0.2353
vn 0.9521 -0.2231 -0.2090
vn 0.9085 -0.0178 -0.4175
vn 0.7126 0.4338 -0.5514
vn 0.6226 0.4690 -0.6265
vn 0.5943 0.2871 -0.7512
usemtl Kelp
s 1
f 12/1/1 3/2/2 8/3/3
f 8/3/3 11/4/4 12/1/1
f 4/5/5 3/2/2 12/1/1
f 12/1/1 13/6/6 4/5/5
f 2/7/7 1/8/8 10/9/9
f 2/7/7 10/9/9 11/4/4
f 11/4/4 8/3/3 2/7/7
f 1/8/8 7/10/10 17/11/11
f 17/11/11 7/10/10 9/12/12
f 9/12/12 16/13/13 17/11/11
f 9/12/12 6/14/14 15/15/15
f 15/15/15 16/13/13 9/12/12
f 6/14/14 5/16/16 14/17/17
f 14/17/17 15/15/15 6/14/14
f 13/6/6 12/1/1 15/15/15
f 15/15/15 14/17/17 13/6/6
f 15/15/15 12/1/1 11/4/4
f 11/4/4 16/13/13 15/15/15
f 16/13/13 11/4/4 10/9/9
f 10/9/9 17/11/11 16/13/13
f 17/11/11 10/9/9 1/8/8
f 36/18/18 37/19/19 28/20/20
f 28/20/20 19/21/21 36/18/18
f 20/22/22 35/23/23 36/18/18
f 36/18/18 19/21/21 20/22/22
f 21/24/24 34/25/25 35/23/23
f 35/23/23 20/22/22 21/24/24
f 30/26/26 33/27/27 34/25/25
f 34/25/25 21/24/24 30/26/26
f 18/28/28 28/20/20 37/19/19
f 37/19/19 38/29/29 18/28/28
f 22/30/30 32/31/31 33/27/27
f 33/27/27 30/26/26 22/30/30
f 23/32/32 31/33/33 33/27/27
f 33/27/27 32/31/31 23/32/32
f 33/27/27 31/33/33 24/34/34
f 24/34/34 34/25/25 33/27/27
f 34/25/25 24/34/34 25/35/35
f 25/35/35 35/23/23 34/25/25
f 35/23/23 25/35/35 26/36/36
f 26/36/36 36/18/18 35/23/23
f 26/36/36 29/37/37 37/19/19
f 37/19/19 36/18/18 26/36/36
f 29/37/37 27/38/38 38/29/29
f 38/29/29 37/19/19 29/37/37
f 57/39/39 45/40/40 50/41/41
f 50/41/41 56/42/42 57/39/39
f 44/43/43 45/40/40 57/39/39
f 39/44/44 52/45/45 53/46/46
f 53/46/46 47/47/47 39/44/44
f 47/47/47 53/46/46 54/48/48
f 54/48/48 49/49/49 47/47/47
f 55/50/50 46/51/51 49/49/49
f 49/49/49 54/48/48 55/50/50
f 46/51/51 55/50/50 56/42/42
f 56/42/42 50/41/41 46/51/51
f 52/45/45 40/52/52 41/53/53
f 41/53/53 53/46/46 52/45/45
f 53/46/46 41/53/53 48/54/54
f 48/54/54 54/48/48 53/46/46
f 48/54/54 42/55/55 55/50/50
f 55/50/50 54/48/48 48/54/54
f 55/50/50 42/55/55 51/56/56
f 51/56/56 56/42/42 55/50/50
f 56/42/42 51/56/56 43/57/57
f 43/57/57 57/39/39 56/42/42
f 57/39/39 43/57/57 44/43/43
f 75/58/58 60/59/59 61/60/60
f 61/60/60 74/61/61 75/58/58
f 78/62/62 58/63/63 59/64/64
f 59/64/64 77/65/65 78/62/62
f 76/66/66 68/67/67 60/59/59
f 60/59/59 75/58/58 76/66/66
f 70/68/68 73/69/69 74/61/61
f 74/61/61 61/60/60 70/68/68
f 59/64/64 68/67/67 76/66/66
f 76/66/66 77/65/65 59/64/64
f 62/70/70 72/71/71 73/69/69
f 73/69/69 70/68/68 62/70/70
f 72/71/71 63/72/72 71/73/73
f 71/73/73 73/69/69 72/71/71
f 71/73/73 64/74/74 74/61/61
f 74/61/61 73/69/69 71/73/73
f 74/61/61 64/74/74 65/75/75
f 65/75/75 75/58/58 74/61/61
f 75/58/58 65/75/75 69/76/76
f 69/76/76 76/66/66 75/58/58
f 69/76/76 66/77/77 77/65/65
f 77/65/65 76/66/66 69/76/76
f 77/65/65 66/77/77 67/78/78
f 67/78/78 78/62/62 77/65/65
f 98/79/79 79/80/80 87/81/81
f 87/81/81 97/82/82 98/79/79
f 80/83/83 79/80/80 98/79/79
f 98/79/79 99/84/84 80/83/83
f 91/85/85 94/86/86 95/87/87
f 95/87/87 86/88/88 91/85/85
f 97/82/82 87/81/81 89/89/89
f 89/89/89 96/90/90 97/82/82
f 86/88/88 95/87/87 96/90/90
f 96/90/90 89/89/89 86/88/88
f 85/91/91 93/92/92 94/86/86
f 94/86/86 91/85/85 85/91/91
f 93/92/92 84/93/93 92/94/94
f 92/94/94 94/86/86 93/92/92
f 92/94/94 83/95/95 95/87/87
f 95/87/87 94/86/86 92/94/94
f 95/87/87 83/95/95 90/96/96
f 90/96/96 96/90/90 95/87/87
f 96/90/90 90/96/96 88/97/97
f 88/97/97 97/82/82 96/90/90
f 97/82/82 88/97/97 82/98/98
f 82/98/98 98/79/79 97/82/82
f 82/98/98 81/99/99 99/84/84
f 99/84/84 98/79/79 82/98/98
