# Blender v2.90.1 OBJ File: 'Scene_Sea_1.blend'
# www.blender.org
mtllib Seaweed_Pacity_17.mtl
o Seaweed-c004_Mesh.048
v 0.008485 0.077555 -0.032980
v -0.033504 -0.013129 -0.361812
v -0.142677 -0.655163 -0.379433
v -0.068661 -1.572629 0.150574
v 0.037137 -2.233383 -0.322591
v 0.018262 -2.374666 -0.270327
v 0.056178 -2.565031 -0.379454
v -0.017686 -2.785038 -0.260835
v -0.141760 -2.680477 0.013250
v -0.123844 -2.528151 0.035066
v -0.187950 -2.328904 0.161439
v -0.254890 -2.638524 0.427141
v -0.122304 -2.531779 0.936108
v -0.092222 -1.375322 1.092109
v -0.105360 -0.962325 0.894822
v -0.030076 -0.418012 0.857553
v 0.015918 -0.107870 0.607982
v -0.087840 -1.183824 0.001725
v -0.078716 -1.596098 0.467847
v -0.080894 -2.293864 -0.021228
v -0.087890 -1.718815 0.712892
v -0.090206 -2.022510 0.729299
v -0.239778 -2.398265 0.461528
v -0.068013 -2.112284 0.991528
v -0.154611 -2.010363 0.214260
v -0.008406 -1.896546 -0.199361
v -0.090094 -1.188513 0.416008
v -0.113232 -0.580353 -0.075827
v -0.014986 -0.036197 -0.034391
vt 0.417748 0.518632
vt 0.463541 0.522218
vt 0.440162 0.585004
vt 0.346972 0.513089
vt 0.337759 0.580756
vt 0.523586 0.673265
vt 0.629643 0.732725
vt 0.406689 0.674903
vt 0.376078 1.000000
vt 0.307068 0.992921
vt 0.371490 0.977007
vt 0.200901 0.868837
vt 0.333763 0.871694
vt 0.327729 0.654425
vt 0.358821 0.754852
vt 0.274822 0.743867
vt 0.445176 0.477257
vt 0.367541 0.489864
vt 0.356260 0.448724
vt 0.449157 0.446070
vt 0.394746 0.412229
vt 0.654195 0.549584
vt 0.542056 0.481238
vt 0.541502 0.533256
vt 0.563399 0.624162
vt 0.643775 0.627314
vt 0.575232 0.783154
vt 0.567269 0.876715
vt 0.508876 0.943069
vn -0.9092 0.0714 -0.4103
vn -0.1427 -0.3889 -0.9102
vn -0.9796 0.1565 -0.1262
vn -0.9381 0.0137 -0.3461
vn -0.9665 0.1083 -0.2326
vn -0.9982 0.0483 0.0357
vn -0.9989 -0.0447 0.0150
vn -0.9964 0.0626 -0.0581
vn -0.9772 0.2008 0.0694
vn -0.9832 0.1719 0.0617
vn -0.9819 0.1772 0.0674
vn -0.9943 0.0715 0.0788
vn -0.9939 0.0886 0.0651
vn -0.9981 -0.0589 -0.0171
vn -0.9999 0.0096 0.0097
vn -0.9989 -0.0393 0.0243
vn -0.9080 0.0917 -0.4089
vn -0.9158 0.0761 -0.3945
vn -0.8988 0.0688 -0.4328
vn -0.9058 0.0898 -0.4141
vn -0.8988 0.0683 -0.4330
vn -0.9605 -0.0500 0.2739
vn -0.8868 -0.3926 -0.2439
vn -0.9696 0.1757 0.1703
vn -0.9855 0.1047 0.1333
vn -0.9959 0.0139 0.0890
vn -0.9978 0.0390 -0.0529
vn -0.9946 0.0976 0.0364
vn -0.9813 0.1825 0.0615
usemtl Kelp
s 1
f 20/1/1 11/2/2 25/3/3
f 5/4/4 20/1/1 25/3/3
f 5/4/4 25/3/3 26/5/5
f 21/6/6 14/7/7 19/8/8
f 1/9/9 2/10/10 29/11/11
f 2/10/10 3/12/12 28/13/13
f 28/13/13 29/11/11 2/10/10
f 4/14/14 19/8/8 27/15/15
f 27/15/15 18/16/16 4/14/14
f 18/16/16 27/15/15 28/13/13
f 28/13/13 3/12/12 18/16/16
f 10/17/17 11/2/2 20/1/1
f 6/18/18 10/17/17 20/1/1
f 5/4/4 6/18/18 20/1/1
f 6/18/18 7/19/19 9/20/20
f 9/20/20 10/17/17 6/18/18
f 7/19/19 8/21/21 9/20/20
f 13/22/22 12/23/23 11/2/2
f 25/3/3 11/2/2 12/23/23
f 25/3/3 12/23/23 23/24/24
f 22/25/25 25/3/3 23/24/24
f 23/24/24 12/23/23 13/22/22
f 22/25/25 23/24/24 13/22/22
f 22/25/25 13/22/22 24/26/26
f 21/6/6 19/8/8 25/3/3
f 25/3/3 22/25/25 21/6/6
f 19/8/8 4/14/14 26/5/5
f 26/5/5 25/3/3 19/8/8
f 22/25/25 24/26/26 14/7/7
f 14/7/7 21/6/6 22/25/25
f 19/8/8 14/7/7 15/27/27
f 15/27/27 27/15/15 19/8/8
f 27/15/15 15/27/27 16/28/28
f 16/28/28 28/13/13 27/15/15
f 28/13/13 16/28/28 17/29/29
f 17/29/29 29/11/11 28/13/13
f 29/11/11 17/29/29 1/9/9
