# Blender v2.90.1 OBJ File: 'Scene_Sea_1.blend'
# www.blender.org
mtllib Seaweed_Pacity_4.mtl
o Seaweed-e013_Mesh.072
v 0.031971 -0.034948 -0.053808
v 0.224534 0.182263 -0.147014
v 0.219775 0.451992 -0.367078
v -0.042331 0.650673 -0.229186
v -0.274274 0.545820 -0.071386
v -0.245052 0.405170 -0.121242
v -0.046901 0.135296 -0.074773
v 0.317713 0.317294 -0.236420
v -0.069132 0.247743 -0.136916
v 0.164416 0.162931 -0.160491
v 0.256652 0.297004 -0.248993
v 0.113610 0.446168 -0.350986
v -0.088920 0.633846 -0.223553
v -0.179334 0.596446 -0.156202
v -0.070382 0.419621 -0.239274
v 0.060954 0.258337 -0.187327
v 0.069521 0.143466 -0.137925
v -0.115263 0.650956 0.206658
v -0.095923 0.428522 0.246307
v -0.017002 0.286852 0.204186
v -0.003256 0.164368 0.156743
v 0.044210 -0.043285 -0.000445
v 0.068460 -0.018264 -0.014681
v 0.051071 0.170595 0.098900
v 0.017626 0.309734 0.162202
v -0.065424 0.444027 0.201787
v -0.079633 0.678587 0.156338
v -0.114111 0.539752 0.218527
v -0.081357 0.561317 0.170327
v 0.021521 0.060528 0.079612
v 0.060653 0.076161 0.043772
v 0.067270 -0.028798 -0.000877
v 0.058058 0.071058 0.061007
v 0.026251 0.165835 0.140531
v 0.008501 0.296831 0.191031
v -0.073390 0.434643 0.231150
v -0.088857 0.549767 0.198799
v -0.090235 0.662832 0.188343
v 0.006165 -0.060159 -0.023127
v -0.004090 -0.081277 0.015599
v -0.111143 0.043405 0.050084
v -0.241621 0.359357 0.152764
v -0.086795 0.651654 0.190731
v -0.087635 0.762569 0.182007
v -0.083372 0.663672 0.105940
v -0.226695 0.396631 0.059786
v -0.089069 0.060554 -0.009262
v -0.182351 0.162654 0.047554
v -0.163318 0.177942 -0.029936
v -0.171969 0.538866 0.093687
v -0.188968 0.505870 0.182053
v -0.006380 -0.073018 -0.008600
v -0.108865 0.047731 0.019686
v -0.182104 0.165755 0.007259
v -0.244686 0.375920 0.110240
v -0.188483 0.525224 0.138060
v -0.093494 0.660859 0.153655
v -0.131843 0.694121 0.034748
v -0.070529 0.585614 0.083966
v 0.004155 0.390895 0.095798
v 0.043293 0.182291 0.042297
v -0.010078 -0.074855 0.011514
v 0.056315 -0.095559 -0.006406
v 0.112592 0.169190 0.025257
v 0.082008 0.368357 0.061130
v -0.010149 0.579160 0.050519
v -0.093835 0.685033 0.015562
v -0.026170 0.492896 0.108863
v 0.042720 0.479427 0.075477
v 0.016857 0.054912 0.025851
v 0.084522 0.038006 0.008469
v 0.024885 -0.086280 0.012305
v 0.044504 0.047350 0.028936
v 0.082520 0.174167 0.042491
v 0.047327 0.379740 0.087664
v 0.013646 0.487794 0.100147
v -0.030929 0.585196 0.072801
v -0.107996 0.693550 0.032816
v 0.026163 0.587697 0.005526
v 0.009205 0.622853 0.095861
v -0.020884 0.604239 0.098119
v -0.036271 0.548879 0.027771
v -0.127161 0.200106 -0.046032
v -0.036549 -0.086934 -0.005154
v 0.018440 -0.099045 -0.025758
v -0.052124 0.195220 -0.077154
v -0.020938 0.513361 -0.056908
v -0.089382 0.470688 -0.024760
v -0.079629 0.364983 -0.094084
v -0.135870 0.361285 -0.054959
v 0.006067 0.001905 -0.040937
v -0.054784 -0.000124 -0.016077
v -0.017292 -0.092852 -0.025456
v -0.015326 0.000661 -0.045972
v -0.093370 0.196807 -0.073516
v -0.118701 0.364349 -0.082746
v -0.062552 0.495600 -0.048770
v -0.012648 0.572719 0.008929
v -0.013534 0.618594 0.088602
vt 0.671163 0.929642
vt 0.639246 0.930496
vt 0.647211 0.880722
vt 0.662437 0.875926
vt 0.698663 0.997261
vt 0.711388 0.991684
vt 0.655112 0.831345
vt 0.690745 0.753891
vt 0.670142 0.826972
vt 0.730232 0.809490
vt 0.701230 0.817928
vt 0.747754 0.849055
vt 0.716064 0.858165
vt 0.774031 0.908385
vt 0.728839 0.913868
vt 0.776805 0.963013
vt 0.744279 0.977268
vt 0.950688 0.915560
vt 0.967183 0.951009
vt 0.955994 0.951911
vt 0.941219 0.916327
vt 0.957652 0.858245
vt 0.967767 0.858636
vt 0.962120 0.811545
vt 0.973203 0.808440
vt 0.975214 0.768485
vt 0.989551 0.767528
vt 0.970768 0.987494
vt 0.981624 0.986624
vt 0.988307 0.725425
vt 0.995596 0.728506
vt 1.000000 0.730368
vt 0.994471 0.767199
vt 0.988943 0.804030
vt 0.978549 0.859053
vt 0.961546 0.914681
vt 0.977728 0.950160
vt 0.993910 0.985639
vt 0.854293 0.960281
vt 0.837938 0.962524
vt 0.831707 0.914166
vt 0.846400 0.909967
vt 0.859458 1.000000
vt 0.841619 0.681969
vt 0.847598 0.680682
vt 0.848676 0.734444
vt 0.837922 0.733918
vt 0.836725 0.780926
vt 0.822732 0.779862
vt 0.840530 0.856906
vt 0.824687 0.859680
vt 0.855556 0.678970
vt 0.858495 0.734924
vt 0.850068 0.781941
vt 0.854968 0.854378
vt 0.860978 0.905801
vt 0.867139 0.958519
vt 0.879805 0.863659
vt 0.866349 0.866111
vt 0.881654 0.792891
vt 0.894787 0.791825
vt 0.872610 0.987677
vt 0.865021 0.987715
vt 0.873881 0.944548
vt 0.887484 0.945774
vt 0.882693 0.904615
vt 0.870115 0.905329
vt 0.878285 0.746611
vt 0.887479 0.745327
vt 0.874916 0.700332
vt 0.886861 0.697950
vt 0.899137 0.695502
vt 0.902750 0.743193
vt 0.906363 0.790885
vt 0.894322 0.861014
vt 0.896036 0.903857
vt 0.897751 0.946700
vt 0.880014 0.987639
vt 0.928866 0.966420
vt 0.918414 0.972653
vt 0.910763 0.941751
vt 0.923571 0.934972
vt 0.949176 0.994930
vt 0.952501 0.991317
vt 0.922664 0.767267
vt 0.928681 0.766885
vt 0.931899 0.834326
vt 0.918439 0.833972
vt 0.914422 0.890371
vt 0.928817 0.889554
vt 0.924870 0.732437
vt 0.936213 0.734431
vt 0.944788 0.735939
vt 0.945216 0.765833
vt 0.946202 0.834702
vt 0.940475 0.888893
vt 0.936319 0.928224
vt 0.938830 0.960479
vt 0.955567 0.987987
vn -0.2967 -0.2664 -0.9170
vn -0.1415 -0.1315 -0.9812
vn 0.1409 -0.6173 -0.7740
vn -0.1107 -0.5776 -0.8088
vn -0.1864 0.3939 -0.9000
vn -0.5071 0.0690 -0.8591
vn 0.3581 -0.6514 -0.6689
vn -0.1585 -0.4378 -0.8850
vn -0.0081 -0.5055 -0.8628
vn -0.4176 -0.3906 -0.8204
vn -0.3015 -0.3981 -0.8664
vn -0.3791 -0.4649 -0.8001
vn -0.2198 -0.4435 -0.8689
vn -0.5756 -0.1469 -0.8044
vn -0.4338 -0.3233 -0.8410
vn -0.6938 0.1082 -0.7120
vn -0.6070 0.0480 -0.7933
vn 0.6674 0.2194 0.7117
vn 0.7792 0.1675 0.6039
vn 0.5318 0.2253 0.8163
vn 0.5226 0.1531 0.8387
vn 0.5105 -0.0554 0.8581
vn 0.7540 0.0761 0.6524
vn 0.4822 -0.3257 0.8133
vn 0.7426 -0.2136 0.6348
vn 0.4883 -0.4556 0.7443
vn 0.7359 -0.3046 0.6048
vn 0.5766 0.0874 0.8124
vn 0.8661 0.0503 0.4974
vn 0.4406 -0.4658 0.7674
vn 0.7053 -0.3253 0.6298
vn 0.9920 0.0091 0.1256
vn 0.9888 0.0012 0.1492
vn 0.8857 -0.0579 0.4606
vn 0.8914 0.1139 0.4386
vn 0.8713 0.3237 0.3688
vn 0.9467 0.0887 0.3098
vn 0.9452 0.0249 0.3254
vn -0.8990 0.4378 -0.0155
vn -0.8990 0.4048 -0.1668
vn -0.8386 0.5215 -0.1572
vn -0.8834 0.4685 0.0141
vn -0.9973 0.0661 -0.0309
vn -0.6168 -0.3852 -0.6864
vn -0.7545 -0.5614 -0.3399
vn -0.7601 -0.5083 -0.4047
vn -0.6532 -0.4731 -0.5912
vn -0.8791 -0.3335 -0.3405
vn -0.8805 -0.1731 -0.4412
vn -0.9881 0.0103 -0.1537
vn -0.9449 0.1613 -0.2848
vn -0.7700 -0.6225 -0.1396
vn -0.7970 -0.5872 -0.1412
vn -0.9323 -0.3583 -0.0500
vn -0.9976 -0.0411 0.0559
vn -0.8967 0.4015 0.1865
vn -0.8665 0.4361 0.2429
vn 0.3273 -0.1021 0.9394
vn 0.1551 -0.1464 0.9770
vn 0.0243 -0.2004 0.9794
vn 0.2868 -0.1502 0.9461
vn 0.3597 0.5513 0.7528
vn 0.0828 0.4501 0.8891
vn 0.2185 0.4182 0.8817
vn 0.5338 0.5335 0.6560
vn 0.3805 0.2078 0.9012
vn 0.2294 0.1465 0.9622
vn -0.0900 -0.0938 0.9915
vn 0.1563 -0.1468 0.9767
vn -0.0917 -0.1003 0.9907
vn 0.2937 -0.1662 0.9413
vn 0.4591 -0.1935 0.8671
vn 0.4325 -0.1972 0.8798
vn 0.4758 -0.1349 0.8692
vn 0.5662 -0.0330 0.8236
vn 0.6708 0.2984 0.6790
vn 0.6683 0.5797 0.4662
vn 0.6787 0.6371 0.3653
vn -0.4972 0.7438 -0.4467
vn -0.3497 0.7928 -0.4992
vn -0.3611 0.5688 -0.7390
vn -0.5760 0.5378 -0.6156
vn -0.2431 0.8655 -0.4380
vn -0.6575 0.6636 -0.3569
vn 0.0542 -0.1489 -0.9874
vn -0.3124 -0.2318 -0.9212
vn -0.4373 -0.2135 -0.8736
vn -0.1508 -0.1440 -0.9780
vn -0.2949 0.1681 -0.9406
vn -0.5239 0.1235 -0.8428
vn 0.0661 -0.1767 -0.9820
vn -0.4738 -0.2054 -0.8563
vn -0.7385 -0.2347 -0.6321
vn -0.6062 -0.2928 -0.7395
vn -0.6283 -0.2212 -0.7459
vn -0.7703 0.0256 -0.6372
vn -0.7832 0.5128 -0.3517
vn -0.7907 0.5762 -0.2068
vn -0.9124 0.3940 -0.1105
usemtl Kelp
s 1
f 12/1/1 3/2/2 8/3/3
f 8/3/3 11/4/4 12/1/1
f 4/5/5 3/2/2 12/1/1
f 12/1/1 13/6/6 4/5/5
f 2/7/7 1/8/8 10/9/9
f 2/7/7 10/9/9 11/4/4
f 11/4/4 8/3/3 2/7/7
f 1/8/8 7/10/10 17/11/11
f 17/11/11 7/10/10 9/12/12
f 9/12/12 16/13/13 17/11/11
f 9/12/12 6/14/14 15/15/15
f 15/15/15 16/13/13 9/12/12
f 6/14/14 5/16/16 14/17/17
f 14/17/17 15/15/15 6/14/14
f 13/6/6 12/1/1 15/15/15
f 15/15/15 14/17/17 13/6/6
f 15/15/15 12/1/1 11/4/4
f 11/4/4 16/13/13 15/15/15
f 16/13/13 11/4/4 10/9/9
f 10/9/9 17/11/11 16/13/13
f 17/11/11 10/9/9 1/8/8
f 36/18/18 37/19/19 28/20/20
f 28/20/20 19/21/21 36/18/18
f 20/22/22 35/23/23 36/18/18
f 36/18/18 19/21/21 20/22/22
f 21/24/24 34/25/25 35/23/23
f 35/23/23 20/22/22 21/24/24
f 30/26/26 33/27/27 34/25/25
f 34/25/25 21/24/24 30/26/26
f 18/28/28 28/20/20 37/19/19
f 37/19/19 38/29/29 18/28/28
f 22/30/30 32/31/31 33/27/27
f 33/27/27 30/26/26 22/30/30
f 23/32/32 31/33/33 33/27/27
f 33/27/27 32/31/31 23/32/32
f 33/27/27 31/33/33 24/34/34
f 24/34/34 34/25/25 33/27/27
f 34/25/25 24/34/34 25/35/35
f 25/35/35 35/23/23 34/25/25
f 35/23/23 25/35/35 26/36/36
f 26/36/36 36/18/18 35/23/23
f 26/36/36 29/37/37 37/19/19
f 37/19/19 36/18/18 26/36/36
f 29/37/37 27/38/38 38/29/29
f 38/29/29 37/19/19 29/37/37
f 57/39/39 45/40/40 50/41/41
f 50/41/41 56/42/42 57/39/39
f 44/43/43 45/40/40 57/39/39
f 39/44/44 52/45/45 53/46/46
f 53/46/46 47/47/47 39/44/44
f 47/47/47 53/46/46 54/48/48
f 54/48/48 49/49/49 47/47/47
f 55/50/50 46/51/51 49/49/49
f 49/49/49 54/48/48 55/50/50
f 46/51/51 55/50/50 56/42/42
f 56/42/42 50/41/41 46/51/51
f 52/45/45 40/52/52 41/53/53
f 41/53/53 53/46/46 52/45/45
f 53/46/46 41/53/53 48/54/54
f 48/54/54 54/48/48 53/46/46
f 48/54/54 42/55/55 55/50/50
f 55/50/50 54/48/48 48/54/54
f 55/50/50 42/55/55 51/56/56
f 51/56/56 56/42/42 55/50/50
f 56/42/42 51/56/56 43/57/57
f 43/57/57 57/39/39 56/42/42
f 57/39/39 43/57/57 44/43/43
f 75/58/58 60/59/59 61/60/60
f 61/60/60 74/61/61 75/58/58
f 78/62/62 58/63/63 59/64/64
f 59/64/64 77/65/65 78/62/62
f 76/66/66 68/67/67 60/59/59
f 60/59/59 75/58/58 76/66/66
f 70/68/68 73/69/69 74/61/61
f 74/61/61 61/60/60 70/68/68
f 59/64/64 68/67/67 76/66/66
f 76/66/66 77/65/65 59/64/64
f 62/70/70 72/71/71 73/69/69
f 73/69/69 70/68/68 62/70/70
f 72/71/71 63/72/72 71/73/73
f 71/73/73 73/69/69 72/71/71
f 71/73/73 64/74/74 74/61/61
f 74/61/61 73/69/69 71/73/73
f 74/61/61 64/74/74 65/75/75
f 65/75/75 75/58/58 74/61/61
f 75/58/58 65/75/75 69/76/76
f 69/76/76 76/66/66 75/58/58
f 69/76/76 66/77/77 77/65/65
f 77/65/65 76/66/66 69/76/76
f 77/65/65 66/77/77 67/78/78
f 67/78/78 78/62/62 77/65/65
f 98/79/79 79/80/80 87/81/81
f 87/81/81 97/82/82 98/79/79
f 80/83/83 79/80/80 98/79/79
f 98/79/79 99/84/84 80/83/83
f 91/85/85 94/86/86 95/87/87
f 95/87/87 86/88/88 91/85/85
f 97/82/82 87/81/81 89/89/89
f 89/89/89 96/90/90 97/82/82
f 86/88/88 95/87/87 96/90/90
f 96/90/90 89/89/89 86/88/88
f 85/91/91 93/92/92 94/86/86
f 94/86/86 91/85/85 85/91/91
f 93/92/92 84/93/93 92/94/94
f 92/94/94 94/86/86 93/92/92
f 92/94/94 83/95/95 95/87/87
f 95/87/87 94/86/86 92/94/94
f 95/87/87 83/95/95 90/96/96
f 90/96/96 96/90/90 95/87/87
f 96/90/90 90/96/96 88/97/97
f 88/97/97 97/82/82 96/90/90
f 97/82/82 88/97/97 82/98/98
f 82/98/98 98/79/79 97/82/82
f 82/98/98 81/99/99 99/84/84
f 99/84/84 98/79/79 82/98/98
