# Blender v2.90.1 OBJ File: 'Scene_Sea_1.blend'
# www.blender.org
mtllib Seaweed_Pacity_20.mtl
o Seaweed-b005_Mesh.066
v -0.004606 0.084159 -0.048564
v 0.015566 -0.187248 0.355677
v -0.063308 -0.476332 0.368358
v -0.139460 -0.819212 0.355660
v -0.499668 -1.521097 -0.013679
v -0.420928 -1.823798 -0.155532
v -0.205247 -1.763185 -0.544382
v -0.109382 -1.283225 -0.625756
v -0.236774 -0.960348 -0.473232
v -0.229473 -0.669910 -0.498131
v -0.055653 -0.168520 -0.279323
v -0.006518 -0.086896 0.020566
v -0.260579 -0.398571 0.096416
v -0.244957 -0.792274 -0.044992
v -0.405109 -1.560604 -0.196689
v -0.377906 -1.802374 -0.273926
v -0.280361 -1.780939 -0.486143
v -0.268321 -1.415814 -0.448031
v -0.438436 -1.273590 0.142296
v -0.161468 -1.029771 -0.574848
v -0.381090 -1.161683 -0.073392
v -0.277179 -1.026001 -0.375308
vt 0.286178 0.087817
vt 0.361188 0.009123
vt 0.361942 0.054884
vt 0.335551 0.328978
vt 0.288379 0.212403
vt 0.365386 0.153801
vt 0.517909 0.468138
vt 0.444381 0.427092
vt 0.488266 0.385166
vt 0.531927 0.456792
vt 0.387345 0.381092
vt 0.472097 0.312534
vt 0.436143 0.042691
vt 0.546161 0.122617
vt 0.563582 0.192687
vt 0.464852 0.241682
vt 0.586087 0.230864
vt 0.515289 0.283349
vt 0.554993 0.321416
vt 0.623103 0.256346
vt 0.625367 0.381163
vt 0.607115 0.395936
vn -0.8310 0.4174 0.3678
vn -0.9920 0.0567 0.1129
vn -0.8637 0.4915 0.1114
vn -0.9307 0.2215 0.2912
vn -0.7686 0.1884 0.6114
vn -0.9485 0.2881 0.1318
vn -0.9099 -0.0102 -0.4147
vn -0.8415 0.2362 -0.4858
vn -0.9131 0.1315 -0.3859
vn -0.9210 0.0206 -0.3889
vn -0.9068 0.3995 -0.1342
vn -0.9547 0.2771 -0.1081
vn -0.8895 0.4366 -0.1349
vn -0.9739 0.1871 -0.1287
vn -0.9914 0.0858 -0.0993
vn -0.9922 0.1111 0.0561
vn -0.8190 0.0127 -0.5737
vn -0.9380 0.1705 -0.3017
vn -0.8664 0.0749 -0.4937
vn -0.7517 0.0175 -0.6592
vn -0.7270 0.0578 -0.6842
vn -0.8636 0.0686 -0.4994
usemtl Kelp
s 1
f 2/1/1 1/2/2 12/3/3
f 4/4/4 3/5/5 13/6/6
f 2/1/1 12/3/3 13/6/6
f 13/6/6 3/5/5 2/1/1
f 6/7/7 5/8/8 15/9/9
f 15/9/9 16/10/10 6/7/7
f 19/11/11 21/12/12 15/9/9
f 15/9/9 5/8/8 19/11/11
f 1/2/2 11/13/13 12/3/3
f 11/13/13 10/14/14 13/6/6
f 13/6/6 12/3/3 11/13/13
f 10/14/14 9/15/15 14/16/16
f 14/16/16 13/6/6 10/14/14
f 9/15/15 20/17/17 22/18/18
f 22/18/18 14/16/16 9/15/15
f 18/19/19 8/20/20 7/21/21
f 7/21/21 17/22/22 18/19/19
f 17/22/22 16/10/10 15/9/9
f 15/9/9 18/19/19 17/22/22
f 18/19/19 15/9/9 21/12/12
f 21/12/12 22/18/18 18/19/19
f 13/6/6 14/16/16 4/4/4
f 4/4/4 14/16/16 21/12/12
f 21/12/12 19/11/11 4/4/4
f 20/17/17 8/20/20 18/19/19
f 18/19/19 22/18/18 20/17/17
f 21/12/12 14/16/16 22/18/18
