# Blender v2.90.1 OBJ File: 'Scene_Sea_1.blend'
# www.blender.org
mtllib Seaweed_Pacity_3.mtl
o Seaweed-e011_Mesh.070
v 0.077999 -0.053620 0.011643
v 0.205023 0.254251 0.286331
v 0.372011 0.636910 0.461845
v 0.319574 0.917100 0.044987
v 0.223986 0.767759 -0.340247
v 0.274878 0.568587 -0.276198
v 0.110311 0.187201 -0.099760
v 0.329279 0.445506 0.420416
v 0.205647 0.346315 -0.111646
v 0.225750 0.226693 0.201646
v 0.348749 0.416590 0.334375
v 0.403018 0.628039 0.313028
v 0.334990 0.892993 -0.019548
v 0.290001 0.839719 -0.172615
v 0.345406 0.589706 0.013817
v 0.266624 0.361430 0.055984
v 0.196424 0.198934 0.066715
v -0.222882 0.918792 -0.266940
v -0.294841 0.604284 -0.253552
v -0.283106 0.402126 -0.089907
v -0.218971 0.228943 -0.047000
v 0.002089 -0.065279 0.027493
v 0.021617 -0.029817 0.062161
v -0.140682 0.237805 0.033154
v -0.231374 0.434642 -0.033036
v -0.249868 0.626251 -0.191015
v -0.173515 0.957946 -0.194943
v -0.239877 0.761382 -0.270750
v -0.191942 0.791937 -0.203588
v -0.110386 0.081835 -0.007141
v -0.060711 0.103996 0.049227
v 0.002084 -0.044707 0.060116
v -0.085050 0.096799 0.045082
v -0.197737 0.231069 -0.004348
v -0.270014 0.416331 -0.051781
v -0.286216 0.613066 -0.214573
v -0.226099 0.775648 -0.227541
v -0.210855 0.935697 -0.224739
v 0.035231 -0.089320 -0.025689
v -0.019354 -0.119168 -0.041242
v -0.064895 0.057183 -0.194086
v -0.099585 0.504910 -0.408067
v -0.215791 0.919902 -0.221300
v -0.203125 1.076917 -0.218626
v -0.104873 0.936598 -0.174960
v 0.016527 0.557352 -0.346523
v 0.018541 0.081395 -0.161211
v -0.058246 0.225851 -0.295099
v 0.051617 0.247390 -0.265296
v -0.045638 0.759246 -0.285914
v -0.154727 0.712771 -0.351939
v 0.014989 -0.107531 -0.043824
v -0.021913 0.063249 -0.190018
v -0.001589 0.230159 -0.293551
v -0.040191 0.528140 -0.392413
v -0.096461 0.740002 -0.329670
v -0.163221 0.932741 -0.211933
v 0.013723 0.979110 -0.204293
v -0.082520 0.826061 -0.146704
v -0.135244 0.550833 -0.046965
v -0.060502 0.254267 0.026547
v -0.013388 -0.110098 -0.049621
v 0.010073 -0.139283 0.044931
v -0.038615 0.235851 0.124648
v -0.109730 0.519034 0.072899
v -0.067969 0.817180 -0.050030
v 0.020372 0.966411 -0.144336
v -0.139449 0.695192 -0.098614
v -0.124469 0.676395 0.009883
v -0.034157 0.073755 -0.012220
v -0.011485 0.049953 0.084108
v -0.015514 -0.126185 -0.000115
v -0.039317 0.063125 0.026854
v -0.062444 0.242858 0.081532
v -0.136764 0.535230 0.015832
v -0.145572 0.688183 -0.040685
v -0.087250 0.825682 -0.088634
v 0.004513 0.978448 -0.171687
v -0.026126 0.829321 0.020334
v -0.137436 0.879358 -0.046926
v -0.125695 0.852814 -0.087888
v -0.025069 0.774036 -0.073500
v 0.078820 0.278894 -0.208699
v 0.010926 -0.127306 -0.086598
v 0.038526 -0.144358 -0.008139
v 0.116920 0.272133 -0.099866
v 0.080170 0.723474 -0.012482
v 0.069017 0.662686 -0.123059
v 0.154978 0.512609 -0.105305
v 0.117533 0.507258 -0.193616
v 0.060584 -0.001475 -0.025485
v 0.027094 -0.004452 -0.112328
v 0.039116 -0.135680 -0.058749
v 0.068311 -0.003303 -0.055628
v 0.114455 0.274261 -0.159562
v 0.151256 0.511597 -0.161181
v 0.089377 0.698070 -0.073061
v -0.011574 0.807874 -0.032794
v -0.116605 0.873150 -0.073502
vt 0.671163 0.929642
vt 0.639246 0.930496
vt 0.647211 0.880722
vt 0.662437 0.875926
vt 0.698663 0.997261
vt 0.711388 0.991684
vt 0.655112 0.831345
vt 0.690745 0.753891
vt 0.670142 0.826972
vt 0.730232 0.809490
vt 0.701230 0.817928
vt 0.747754 0.849055
vt 0.716064 0.858165
vt 0.774031 0.908385
vt 0.728839 0.913868
vt 0.776805 0.963013
vt 0.744279 0.977268
vt 0.950688 0.915560
vt 0.967183 0.951009
vt 0.955994 0.951911
vt 0.941219 0.916327
vt 0.957652 0.858245
vt 0.967767 0.858636
vt 0.962120 0.811545
vt 0.973203 0.808440
vt 0.975214 0.768485
vt 0.989551 0.767528
vt 0.970768 0.987494
vt 0.981624 0.986624
vt 0.988307 0.725425
vt 0.995596 0.728506
vt 1.000000 0.730368
vt 0.994471 0.767199
vt 0.988943 0.804030
vt 0.978549 0.859053
vt 0.961546 0.914681
vt 0.977728 0.950160
vt 0.993910 0.985639
vt 0.854293 0.960281
vt 0.837938 0.962524
vt 0.831707 0.914166
vt 0.846400 0.909967
vt 0.859458 1.000000
vt 0.841619 0.681969
vt 0.847598 0.680682
vt 0.848676 0.734444
vt 0.837922 0.733918
vt 0.836725 0.780926
vt 0.822732 0.779862
vt 0.840530 0.856906
vt 0.824687 0.859680
vt 0.855556 0.678970
vt 0.858495 0.734924
vt 0.850068 0.781941
vt 0.854968 0.854378
vt 0.860978 0.905801
vt 0.867139 0.958519
vt 0.879805 0.863659
vt 0.866349 0.866111
vt 0.881654 0.792891
vt 0.894787 0.791825
vt 0.872610 0.987677
vt 0.865021 0.987715
vt 0.873881 0.944548
vt 0.887484 0.945774
vt 0.882693 0.904615
vt 0.870115 0.905329
vt 0.878285 0.746611
vt 0.887479 0.745327
vt 0.874916 0.700332
vt 0.886861 0.697950
vt 0.899137 0.695502
vt 0.902750 0.743193
vt 0.906363 0.790885
vt 0.894322 0.861014
vt 0.896036 0.903857
vt 0.897751 0.946700
vt 0.880014 0.987639
vt 0.928866 0.966420
vt 0.918414 0.972653
vt 0.910763 0.941751
vt 0.923571 0.934972
vt 0.949176 0.994930
vt 0.952501 0.991317
vt 0.922664 0.767267
vt 0.928681 0.766885
vt 0.931899 0.834326
vt 0.918439 0.833972
vt 0.914422 0.890371
vt 0.928817 0.889554
vt 0.924870 0.732437
vt 0.936213 0.734431
vt 0.944788 0.735939
vt 0.945216 0.765833
vt 0.946202 0.834702
vt 0.940475 0.888893
vt 0.936319 0.928224
vt 0.938830 0.960479
vt 0.955567 0.987987
vn 0.9998 0.0076 -0.0194
vn 0.9664 0.1720 0.1911
vn 0.8823 -0.3736 0.2864
vn 0.9133 -0.4036 -0.0541
vn 0.9103 0.3905 0.1377
vn 0.9823 0.0642 -0.1760
vn 0.6607 -0.6518 0.3724
vn 0.8873 -0.4394 -0.1401
vn 0.8622 -0.5066 0.0096
vn 0.8293 -0.3885 -0.4016
vn 0.8727 -0.3977 -0.2831
vn 0.8710 -0.4157 -0.2619
vn 0.8963 -0.3887 -0.2134
vn 0.9567 -0.1283 -0.2614
vn 0.9592 -0.1822 -0.2164
vn 0.9096 0.1030 -0.4024
vn 0.9553 0.0430 -0.2926
vn -0.8709 0.3002 0.3891
vn -0.8340 0.2056 0.5120
vn -0.9435 0.2681 0.1950
vn -0.9651 0.2008 0.1683
vn -0.9583 0.0213 0.2849
vn -0.7736 0.1692 0.6107
vn -0.8540 -0.3066 0.4204
vn -0.6803 -0.1895 0.7081
vn -0.7566 -0.4549 0.4698
vn -0.6232 -0.3047 0.7203
vn -0.9620 0.0923 0.2569
vn -0.7679 0.0557 0.6382
vn -0.7767 -0.4638 0.4262
vn -0.6442 -0.3230 0.6933
vn -0.1452 0.0111 0.9893
vn -0.1691 0.0043 0.9856
vn -0.4985 -0.0349 0.8662
vn -0.5432 0.1925 0.8173
vn -0.5931 0.4149 0.6899
vn -0.6247 0.1136 0.7725
vn -0.6344 0.0302 0.7724
vn 0.3297 0.4336 -0.8386
vn 0.4715 0.4003 -0.7858
vn 0.4419 0.5172 -0.7329
vn 0.2916 0.4644 -0.8362
vn 0.3769 0.0614 -0.9242
vn 0.6979 -0.3874 -0.6024
vn 0.3539 -0.5633 -0.7467
vn 0.4197 -0.5104 -0.7506
vn 0.6023 -0.4763 -0.6406
vn 0.3647 -0.3935 -0.8439
vn 0.5896 -0.2422 -0.7705
vn 0.3933 -0.0292 -0.9190
vn 0.5846 0.1626 -0.7949
vn 0.1539 -0.6241 -0.7660
vn 0.1560 -0.5891 -0.7929
vn 0.1749 -0.3870 -0.9053
vn 0.2754 -0.0574 -0.9596
vn 0.1324 0.3980 -0.9078
vn 0.0763 0.4328 -0.8983
vn -0.9796 -0.1427 0.1417
vn -0.9815 -0.1723 -0.0832
vn -0.9689 -0.2332 -0.0830
vn -0.9571 -0.1851 0.2229
vn -0.8286 0.5551 0.0729
vn -0.8603 0.4530 -0.2338
vn -0.9000 0.4254 -0.0951
vn -0.7966 0.5372 0.2773
vn -0.9737 0.2075 0.0943
vn -0.9838 0.1577 -0.0849
vn -0.9881 -0.1011 -0.1158
vn -0.9791 -0.1519 0.1353
vn -0.9889 -0.0989 -0.1112
vn -0.9472 -0.1642 0.2753
vn -0.8763 -0.1914 0.4421
vn -0.8872 -0.2035 0.4140
vn -0.8737 -0.1721 0.4549
vn -0.8985 -0.0871 0.4303
vn -0.8471 0.2864 0.4477
vn -0.6700 0.5806 0.4625
vn -0.5762 0.6412 0.5067
vn 0.5920 0.7426 -0.3132
vn 0.5915 0.7909 -0.1573
vn 0.8176 0.5691 -0.0878
vn 0.7571 0.5455 -0.3594
vn 0.4990 0.8631 -0.0780
vn 0.5663 0.6602 -0.4934
vn 0.9836 -0.1578 0.0873
vn 0.9260 -0.2375 -0.2933
vn 0.8967 -0.2244 -0.3815
vn 0.9828 -0.1772 -0.0519
vn 0.9871 0.1535 -0.0454
vn 0.9282 0.1153 -0.3537
vn 0.9803 -0.1781 0.0858
vn 0.8652 -0.2075 -0.4564
vn 0.6462 -0.2370 -0.7254
vn 0.7579 -0.2948 -0.5819
vn 0.7773 -0.2304 -0.5854
vn 0.7387 0.0417 -0.6727
vn 0.5500 0.5425 -0.6350
vn 0.4667 0.5809 -0.6669
vn 0.4224 0.3901 -0.8182
usemtl Kelp
s 1
f 12/1/1 3/2/2 8/3/3
f 8/3/3 11/4/4 12/1/1
f 4/5/5 3/2/2 12/1/1
f 12/1/1 13/6/6 4/5/5
f 2/7/7 1/8/8 10/9/9
f 2/7/7 10/9/9 11/4/4
f 11/4/4 8/3/3 2/7/7
f 1/8/8 7/10/10 17/11/11
f 17/11/11 7/10/10 9/12/12
f 9/12/12 16/13/13 17/11/11
f 9/12/12 6/14/14 15/15/15
f 15/15/15 16/13/13 9/12/12
f 6/14/14 5/16/16 14/17/17
f 14/17/17 15/15/15 6/14/14
f 13/6/6 12/1/1 15/15/15
f 15/15/15 14/17/17 13/6/6
f 15/15/15 12/1/1 11/4/4
f 11/4/4 16/13/13 15/15/15
f 16/13/13 11/4/4 10/9/9
f 10/9/9 17/11/11 16/13/13
f 17/11/11 10/9/9 1/8/8
f 36/18/18 37/19/19 28/20/20
f 28/20/20 19/21/21 36/18/18
f 20/22/22 35/23/23 36/18/18
f 36/18/18 19/21/21 20/22/22
f 21/24/24 34/25/25 35/23/23
f 35/23/23 20/22/22 21/24/24
f 30/26/26 33/27/27 34/25/25
f 34/25/25 21/24/24 30/26/26
f 18/28/28 28/20/20 37/19/19
f 37/19/19 38/29/29 18/28/28
f 22/30/30 32/31/31 33/27/27
f 33/27/27 30/26/26 22/30/30
f 23/32/32 31/33/33 33/27/27
f 33/27/27 32/31/31 23/32/32
f 33/27/27 31/33/33 24/34/34
f 24/34/34 34/25/25 33/27/27
f 34/25/25 24/34/34 25/35/35
f 25/35/35 35/23/23 34/25/25
f 35/23/23 25/35/35 26/36/36
f 26/36/36 36/18/18 35/23/23
f 26/36/36 29/37/37 37/19/19
f 37/19/19 36/18/18 26/36/36
f 29/37/37 27/38/38 38/29/29
f 38/29/29 37/19/19 29/37/37
f 57/39/39 45/40/40 50/41/41
f 50/41/41 56/42/42 57/39/39
f 44/43/43 45/40/40 57/39/39
f 39/44/44 52/45/45 53/46/46
f 53/46/46 47/47/47 39/44/44
f 47/47/47 53/46/46 54/48/48
f 54/48/48 49/49/49 47/47/47
f 55/50/50 46/51/51 49/49/49
f 49/49/49 54/48/48 55/50/50
f 46/51/51 55/50/50 56/42/42
f 56/42/42 50/41/41 46/51/51
f 52/45/45 40/52/52 41/53/53
f 41/53/53 53/46/46 52/45/45
f 53/46/46 41/53/53 48/54/54
f 48/54/54 54/48/48 53/46/46
f 48/54/54 42/55/55 55/50/50
f 55/50/50 54/48/48 48/54/54
f 55/50/50 42/55/55 51/56/56
f 51/56/56 56/42/42 55/50/50
f 56/42/42 51/56/56 43/57/57
f 43/57/57 57/39/39 56/42/42
f 57/39/39 43/57/57 44/43/43
f 75/58/58 60/59/59 61/60/60
f 61/60/60 74/61/61 75/58/58
f 78/62/62 58/63/63 59/64/64
f 59/64/64 77/65/65 78/62/62
f 76/66/66 68/67/67 60/59/59
f 60/59/59 75/58/58 76/66/66
f 70/68/68 73/69/69 74/61/61
f 74/61/61 61/60/60 70/68/68
f 59/64/64 68/67/67 76/66/66
f 76/66/66 77/65/65 59/64/64
f 62/70/70 72/71/71 73/69/69
f 73/69/69 70/68/68 62/70/70
f 72/71/71 63/72/72 71/73/73
f 71/73/73 73/69/69 72/71/71
f 71/73/73 64/74/74 74/61/61
f 74/61/61 73/69/69 71/73/73
f 74/61/61 64/74/74 65/75/75
f 65/75/75 75/58/58 74/61/61
f 75/58/58 65/75/75 69/76/76
f 69/76/76 76/66/66 75/58/58
f 69/76/76 66/77/77 77/65/65
f 77/65/65 76/66/66 69/76/76
f 77/65/65 66/77/77 67/78/78
f 67/78/78 78/62/62 77/65/65
f 98/79/79 79/80/80 87/81/81
f 87/81/81 97/82/82 98/79/79
f 80/83/83 79/80/80 98/79/79
f 98/79/79 99/84/84 80/83/83
f 91/85/85 94/86/86 95/87/87
f 95/87/87 86/88/88 91/85/85
f 97/82/82 87/81/81 89/89/89
f 89/89/89 96/90/90 97/82/82
f 86/88/88 95/87/87 96/90/90
f 96/90/90 89/89/89 86/88/88
f 85/91/91 93/92/92 94/86/86
f 94/86/86 91/85/85 85/91/91
f 93/92/92 84/93/93 92/94/94
f 92/94/94 94/86/86 93/92/92
f 92/94/94 83/95/95 95/87/87
f 95/87/87 94/86/86 92/94/94
f 95/87/87 83/95/95 90/96/96
f 90/96/96 96/90/90 95/87/87
f 96/90/90 90/96/96 88/97/97
f 88/97/97 97/82/82 96/90/90
f 97/82/82 88/97/97 82/98/98
f 82/98/98 98/79/79 97/82/82
f 82/98/98 81/99/99 99/84/84
f 99/84/84 98/79/79 82/98/98
